<svg xmlns="http://www.w3.org/2000/svg" viewBox="0 0 18 18"><path d="M14.793 14.75c.124.125.208.292 0 .459l-2.584 1.667c-.208.125-.291.041-.376-.167l-3.207-5.585-4.21 4.626c-.041.083-.166.166-.29 0l-2-2.084c-.209-.125-.168-.25 0-.374l4.75-3.96L1.457 7.29c-.084 0-.208-.166-.125-.374L2.75 4.082A.219.219 0 013.125 4l4.75 3.083L8.168 1a.22.22 0 01.25-.25l3.458.458c.209 0 .25.084.209.292l-1.626 5.957 5.5-1.667c.124-.083.25-.083.333.167l.542 3.083c.042.209 0 .292-.167.292l-5.75.458z" fill="currentColor"/></svg>