<svg xmlns="http://www.w3.org/2000/svg" viewBox="0 0 9.444 9.444" fill="currentColor">
  <path d="M8.816 4.251L6.888 6.179a2.159 2.159 0 01-3.045 0l-.27-.27-.039-.039-.039-.039a.484.484 0 010-.683l.078-.078a.484.484 0 01.683 0l.039.039.039.039.154.154a1.137 1.137 0 001.6 0l1.851-1.851a1.137 1.137 0 000-1.6l-.388-.388a1.137 1.137 0 00-1.6 0l-.466.466a.261.261 0 01-.163.093H3.968c-.169 0-.047-.12-.047-.12L5.195.628a2.159 2.159 0 013.045 0l.576.576a2.159 2.159 0 010 3.047zM.628 8.24l.576.576a2.159 2.159 0 003.045 0l1.274-1.274s.122-.12-.047-.12H4.122a.261.261 0 00-.163.093l-.466.466a1.137 1.137 0 01-1.6 0l-.385-.385a1.137 1.137 0 010-1.6l1.843-1.852a1.137 1.137 0 011.6 0l.154.154.039.039.039.039a.484.484 0 00.683 0l.085-.078a.484.484 0 000-.683l-.039-.039-.039-.039-.27-.27a2.159 2.159 0 00-3.045 0L.628 5.195a2.159 2.159 0 000 3.045z" />
</svg>
