<svg xmlns="http://www.w3.org/2000/svg" viewBox="0 0 44.736 52.968" fill="currentColor"><path d="M38.04 11.337l.009-.009-.045-.045c-.022-.023-.043-.045-.066-.066L27.095.374l-.005.005a1.294 1.294 0 00-.914-.38H1.296a1.3 1.3 0 00-1.3 1.3v46.218a.033.033 0 010 .009 1.316 1.316 0 001.312 1.312H16.98a1.761 1.761 0 001.75-1.76 1.713 1.713 0 00-.257-.862 1.739 1.739 0 00-1.5-.9H3.525V3.524h20.849v9.241a1.021 1.021 0 001.018 1.018h9.447v10.636a1.762 1.762 0 103.524 0V12.17a1.291 1.291 0 00-.323-.833zm-10.324-.576V6.34l4.526 4.421z"/><path d="M27.786 22.787h-17a1.433 1.433 0 01-1.429-1.429 1.433 1.433 0 011.429-1.429h17a1.433 1.433 0 011.429 1.429 1.433 1.433 0 01-1.429 1.429zm0 6.713h-17a1.433 1.433 0 01-1.429-1.429 1.433 1.433 0 011.429-1.43h17a1.433 1.433 0 011.429 1.429 1.433 1.433 0 01-1.429 1.43zm-10.485 6.714h-6.619a1.433 1.433 0 01-1.429-1.429 1.433 1.433 0 011.429-1.429h6.619a1.433 1.433 0 011.431 1.428 1.433 1.433 0 01-1.431 1.43zm26.685 13.523a23.388 23.388 0 00-3.756-1.645c-2.2-.747-3.295-1.009-3.295-2.328s-.278-1.274.454-2.064a4.738 4.738 0 00.967-2.048 3.015 3.015 0 01.528-1.406 3.491 3.491 0 00.439-1.493c0-.323.116-.849-.321-.878a7.422 7.422 0 00.086-2.842c-.29-1.2-.787-3.379-4.7-3.6-3.91.219-4.408 2.4-4.7 3.6a7.422 7.422 0 00.086 2.842c-.437.029-.321.555-.321.878a3.491 3.491 0 00.439 1.493 3.015 3.015 0 01.528 1.406 4.738 4.738 0 00.966 2.051c.732.79.454.746.454 2.064s-1.1 1.581-3.295 2.328a23.389 23.389 0 00-3.756 1.645 1.634 1.634 0 00-.75 1.36v1.871h20.697v-1.874a1.634 1.634 0 00-.75-1.36z"/></svg>