<svg xmlns="http://www.w3.org/2000/svg" viewBox="0 0 43.565 52.289" fill="currentColor"><path d="M41.406 39.8h-6.012v-6.012a2.159 2.159 0 10-4.318 0V39.8h-6.013a2.159 2.159 0 100 4.318h6.012v6.009a2.159 2.159 0 104.318 0v-6.009h6.012a2.159 2.159 0 100-4.318zM27.724 23.43h-16.69a1.407 1.407 0 01-1.4-1.4 1.407 1.407 0 011.4-1.4h16.69a1.407 1.407 0 011.4 1.4 1.407 1.407 0 01-1.4 1.4zm0 6.593h-16.69a1.407 1.407 0 01-1.404-1.4 1.407 1.407 0 011.4-1.4h16.69a1.407 1.407 0 011.4 1.4 1.407 1.407 0 01-1.396 1.4zM17.43 36.617h-6.5a1.407 1.407 0 01-1.4-1.4 1.407 1.407 0 011.4-1.4h6.5a1.407 1.407 0 011.4 1.4 1.407 1.407 0 01-1.4 1.4z"/><path d="M37.35 11.132l.009-.009-.044-.044a.996.996 0 00-.065-.065L26.603.368l-.005.005a1.271 1.271 0 00-.9-.373H1.272A1.276 1.276 0 00-.002 1.272v45.384a.032.032 0 010 .009 1.292 1.292 0 001.29 1.288h15.384a1.729 1.729 0 001.718-1.73 1.682 1.682 0 00-.252-.846 1.707 1.707 0 00-1.478-.884H3.46V3.46h20.471v9.073a1 1 0 001 1h9.276v10.443a1.73 1.73 0 103.46 0V11.95a1.268 1.268 0 00-.317-.818zm-10.138-.561V6.223l4.444 4.345z"/></svg>