<svg xmlns="http://www.w3.org/2000/svg" viewBox="0 0 45.739 52.668" fill="currentColor"><path d="M37.745 11.249l.009-.009-.045-.044a.996.996 0 00-.065-.065L26.884.371l-.005.005a1.284 1.284 0 00-.907-.377H1.285A1.289 1.289 0 00-.001 1.285v45.863a.033.033 0 010 .009 1.306 1.306 0 001.3 1.3h15.549a1.747 1.747 0 001.737-1.746 1.7 1.7 0 00-.255-.855 1.725 1.725 0 00-1.493-.893H3.499V3.497h20.687v9.173a1.013 1.013 0 001.01 1.01h9.374v10.55a1.75 1.75 0 103.5 0V12.076a1.281 1.281 0 00-.325-.827zm-10.246-.567V6.291l4.491 4.391z"/><path d="M27.569 22.614H10.703a1.422 1.422 0 01-1.416-1.422 1.422 1.422 0 011.418-1.418h16.864a1.422 1.422 0 011.418 1.418 1.422 1.422 0 01-1.418 1.422zm0 6.657H10.703a1.422 1.422 0 01-1.416-1.418 1.422 1.422 0 011.418-1.418h16.864a1.422 1.422 0 011.418 1.418 1.422 1.422 0 01-1.418 1.418zm-10.402 6.662h-6.568a1.422 1.422 0 01-1.418-1.418 1.422 1.422 0 011.418-1.418h6.567a1.422 1.422 0 011.418 1.418 1.422 1.422 0 01-1.417 1.418zm18.07.763v3.922a1.158 1.158 0 01-.512.944c-.027.023-.044.054-.074.074l-5.39 3.562a.982.982 0 01-1.083-1.638l4.7-3.109v-3.755a1.177 1.177 0 012.355 0zm10.5 4.338a11.634 11.634 0 11-11.632-11.633 11.634 11.634 0 0111.634 11.633zm-3.069 0a8.59 8.59 0 00-8.565-8.565 8.565 8.565 0 100 17.13 8.59 8.59 0 008.567-8.565z"/></svg>