<svg xmlns="http://www.w3.org/2000/svg" viewBox="0 0 45.5 50.051" fill="currentColor"><path d="M27.509 22.922H10.616a1.425 1.425 0 01-1.42-1.42 1.425 1.425 0 011.42-1.42h16.893a1.425 1.425 0 011.42 1.42 1.425 1.425 0 01-1.42 1.42zm0 6.672H10.616a1.425 1.425 0 01-1.42-1.42 1.425 1.425 0 011.42-1.42h16.893a1.425 1.425 0 011.42 1.42 1.425 1.425 0 01-1.42 1.42zm-10.42 6.671h-6.578a1.425 1.425 0 01-1.42-1.42 1.425 1.425 0 011.42-1.42h6.578a1.425 1.425 0 011.42 1.42 1.425 1.425 0 01-1.42 1.42zm27.423-5.066a2.37 2.37 0 00-3.3.55l-8.952 12.54-5.826-4.742a2.362 2.362 0 10-2.971 3.674l6.168 5.013 1.467 1.158.154.121c.024.019.054.023.079.041s.024.032.042.045a.622.622 0 00.154.069 3.213 3.213 0 00.571.254c.023.008.044.024.068.03h.024a1.415 1.415 0 00.867.047 2.284 2.284 0 001.426-.763.486.486 0 00.093-.077.185.185 0 00.02-.038c.024-.03.05-.043.073-.075l10.393-14.552a2.369 2.369 0 00-.55-3.295z"/><path d="M37.804 11.267l.009-.009-.045-.044a1.345 1.345 0 00-.065-.066L26.927.372l-.005.005A1.286 1.286 0 0026.014 0H1.287A1.291 1.291 0 00-.001 1.287v45.935a.033.033 0 010 .009 1.308 1.308 0 001.3 1.3h15.576a1.75 1.75 0 001.739-1.749 1.7 1.7 0 00-.255-.856 1.728 1.728 0 00-1.5-.895H3.499V3.502h20.719v9.184a1.014 1.014 0 001.012 1.012h9.389v10.57a1.751 1.751 0 103.5 0V12.095a1.283 1.283 0 00-.315-.828zm-10.261-.568v-4.4l4.5 4.4z"/></svg>