<svg xmlns="http://www.w3.org/2000/svg" viewBox="0 0 40.811 50.629" fill="currentColor"><path d="M23.551 32.73c0-1.735 3.864-3.142 8.63-3.142s8.63 1.407 8.63 3.142-3.864 3.145-8.63 3.145-8.63-1.409-8.63-3.145zm8.63 4.458c-4.587 0-8.354-1.142-8.63-2.787v3.3c0 1.735 3.864 3.142 8.63 3.142s8.63-1.407 8.63-3.142v-3.3c-.276 1.645-4.043 2.787-8.63 2.787zm0 4.934c-4.587 0-8.354-1.142-8.63-2.787v3.3c0 1.735 3.864 3.142 8.63 3.142s8.63-1.407 8.63-3.142v-3.3c-.276 1.645-4.043 2.787-8.63 2.787zm0 4.849c-4.587 0-8.354-1.142-8.63-2.787v3.3c0 1.735 3.864 3.142 8.63 3.142s8.63-1.407 8.63-3.142v-3.3c-.276 1.645-4.043 2.791-8.63 2.791z"/><path d="M35.388 10.547l.008-.008-.042-.041c-.02-.022-.04-.041-.061-.061L25.207.348a1.2 1.2 0 00-.85-.353H1.205A1.209 1.209 0 000 1.21v42.996a.031.031 0 010 .008 1.224 1.224 0 001.22 1.221h14.579a1.638 1.638 0 001.628-1.637 1.593 1.593 0 00-.239-.8 1.618 1.618 0 00-1.4-.837H3.279V3.279h19.4v8.6a.95.95 0 00.947.947h8.789v9.891a1.64 1.64 0 103.279 0v-11.4a1.2 1.2 0 00-.306-.77zm-9.6-.532V5.899l4.211 4.117z"/><path d="M25.849 21.2H10.035a1.334 1.334 0 01-1.33-1.33 1.334 1.334 0 011.33-1.33h15.814a1.334 1.334 0 011.33 1.33 1.334 1.334 0 01-1.33 1.33zm0 6.245H10.035a1.334 1.334 0 01-1.33-1.33 1.334 1.334 0 011.33-1.33h15.814a1.334 1.334 0 011.33 1.33 1.334 1.334 0 01-1.33 1.33zm-9.754 6.246H9.938a1.334 1.334 0 01-1.33-1.33 1.334 1.334 0 011.33-1.33h6.157a1.334 1.334 0 011.33 1.33 1.334 1.334 0 01-1.33 1.33z"/></svg>