<svg xmlns="http://www.w3.org/2000/svg" viewBox="0 0 54.475 39.844" fill="currentColor"><path d="M36.524 29.148c0-1.784.376-1.724-.614-2.793a6.41 6.41 0 01-1.307-2.775 4.645 4.645 0 00-.343-1.234l-.024-.016a8.434 8.434 0 00-.363-.653 4.728 4.728 0 01-.6-2.02c0-.437-.157-1.149.438-1.188a10.049 10.049 0 01-.12-3.845c.4-1.625 1.067-4.6 6.422-4.875h.012c5.354.277 6.026 3.25 6.422 4.875a10.05 10.05 0 01-.12 3.845c.6.039.438.752.438 1.188a4.729 4.729 0 01-.595 2.02c-.161.274-.27.458-.363.653l-.024.016a4.634 4.634 0 00-.343 1.234 6.412 6.412 0 01-1.307 2.775c-.99 1.069-.614 1.009-.614 2.793s1.486 2.139 4.459 3.15a37.231 37.231 0 015.652 2.533 2.228 2.228 0 01.809 2.048c-.007.21.026.411.03.608h.001v2.357h-12.1v-4.533c.043-3.3-3.473-4.895-3.473-4.895l-2.4-1.09c.011-.06.027-.115.027-.178zm.375 4.719a43.272 43.272 0 00-6.952-3.044c-4.064-1.382-6.1-1.867-6.1-4.307s-.514-2.357.839-3.818a8.765 8.765 0 001.787-3.795 5.577 5.577 0 01.977-2.6 6.458 6.458 0 00.811-2.762c0-.6.215-1.571-.594-1.625a13.73 13.73 0 00.159-5.257C27.298 4.448 26.378.406 19.147 0c-7.235.406-8.155 4.445-8.691 6.657a13.73 13.73 0 00.159 5.257c-.809.054-.594 1.028-.594 1.625a6.458 6.458 0 00.811 2.762 5.577 5.577 0 01.977 2.6 8.765 8.765 0 001.787 3.795c1.354 1.461.839 1.379.839 3.818s-2.032 2.925-6.1 4.307a43.272 43.272 0 00-6.949 3.044 3.023 3.023 0 00-1.387 2.516v3.467h38.287v-3.465a3.023 3.023 0 00-1.387-2.516z"/></svg>