<svg xmlns="http://www.w3.org/2000/svg" viewBox="0 0 174.917 48.705"><style
  >.st11{fill:#ff0}</style><path
    class="st11"
    d="M66.417 39.394c.417 0 .625-.143.625-.428a.43.43 0 00-.055-.224.54.54 0 00-.15-.16c-.063-.045-.136-.084-.217-.118s-.166-.065-.257-.098a2.712 2.712 0 01-.295-.121 1.057 1.057 0 01-.244-.162.666.666 0 01-.222-.528c0-.25.085-.444.256-.584.17-.14.404-.21.703-.21.173 0 .33.019.471.056.141.036.245.077.311.121l-.128.325a1.103 1.103 0 00-.257-.105 1.388 1.388 0 00-.397-.051.88.88 0 00-.214.024.554.554 0 00-.173.075.368.368 0 00-.117.125.361.361 0 00-.043.178.39.39 0 00.045.195.46.46 0 00.128.137c.054.04.118.076.191.109.072.033.152.066.24.098.124.05.237.1.34.149.103.05.192.108.268.177.075.069.134.15.175.245s.061.209.061.343c0 .25-.09.442-.273.577-.183.133-.44.2-.772.2a2.035 2.035 0 01-.755-.14 1.658 1.658 0 01-.126-.06l.12-.33c.063.036.159.076.288.12s.287.065.473.065zm3.391-.786c0 .17-.025.324-.074.46a1.03 1.03 0 01-.208.355.918.918 0 01-.319.229c-.123.053-.258.08-.403.08s-.28-.027-.403-.08a.918.918 0 01-.319-.229 1.03 1.03 0 01-.208-.354 1.339 1.339 0 01-.074-.461c0-.167.024-.32.074-.458a1.03 1.03 0 01.208-.357.918.918 0 01.319-.228c.123-.053.257-.08.403-.08s.28.027.403.08c.123.054.23.13.319.228.09.1.159.218.208.357.05.139.074.29.074.458zm-.4 0c0-.241-.053-.433-.162-.573-.108-.142-.256-.212-.442-.212s-.334.07-.442.212c-.109.14-.163.332-.163.573 0 .242.054.433.163.574.108.142.255.212.442.212s.334-.07.442-.212c.109-.14.162-.332.162-.574zm1.869 1.12c-.173 0-.325-.028-.455-.083a.907.907 0 01-.529-.582 1.458 1.458 0 01-.065-.45c0-.165.023-.316.072-.453a1.06 1.06 0 01.203-.356.899.899 0 01.323-.234 1.04 1.04 0 01.426-.085c.096 0 .193.009.288.024.096.017.188.043.276.08l-.086.324a1.113 1.113 0 00-.44-.09c-.215 0-.379.067-.493.2-.113.136-.17.332-.17.59 0 .115.013.22.04.316.025.096.066.179.122.247s.128.121.216.158.195.056.321.056c.102 0 .194-.01.276-.028a1 1 0 00.193-.063l.054.322c-.023.013-.054.026-.095.039s-.088.023-.14.033a2.44 2.44 0 01-.337.035zm1.173-2.576a.243.243 0 01-.175-.069c-.048-.044-.073-.105-.073-.182s.025-.138.073-.184c.047-.045.106-.067.174-.067s.127.022.175.067c.048.046.073.107.073.184s-.025.138-.073.182a.243.243 0 01-.175.069zm.193 2.526h-.383v-2.14h.383v2.14zm1.349-2.193c.154 0 .284.02.39.06.105.04.19.096.254.168a.68.68 0 01.139.26c.027.1.04.21.04.331v1.337l-.137.023a4.6 4.6 0 01-.44.05c-.087.006-.173.01-.258.01a1.39 1.39 0 01-.333-.038.739.739 0 01-.264-.117.545.545 0 01-.173-.212.743.743 0 01-.061-.317c0-.118.024-.22.072-.304s.113-.154.195-.206a.932.932 0 01.288-.115 1.583 1.583 0 01.465-.03c.041.003.08.009.117.016l.097.018.058.012v-.106c0-.064-.007-.126-.02-.188s-.039-.116-.075-.165a.366.366 0 00-.146-.114.566.566 0 00-.24-.044c-.127 0-.237.009-.332.027a1.114 1.114 0 00-.212.056l-.045-.317c.05-.022.132-.043.247-.064s.24-.031.374-.031zm.034 1.918c.09 0 .17-.002.24-.007.07-.004.128-.012.175-.022v-.638a.474.474 0 00-.134-.035 1.565 1.565 0 00-.407-.002c-.065.008-.123.025-.177.051s-.098.062-.134.107a.281.281 0 00-.054.18c0 .136.044.232.132.286.088.052.207.08.359.08zm2.064.317c-.235-.007-.403-.056-.502-.153-.099-.096-.147-.245-.147-.448V36.55l.382-.066v2.572c0 .063.005.115.016.156.012.041.03.075.054.099s.057.043.098.056.092.022.153.03l-.054.321zm2.12-.326c.417 0 .625-.143.625-.428a.43.43 0 00-.055-.224.54.54 0 00-.15-.16c-.063-.045-.136-.084-.217-.118s-.166-.065-.257-.098a2.712 2.712 0 01-.295-.121 1.057 1.057 0 01-.244-.162.666.666 0 01-.222-.528c0-.25.085-.444.256-.584.17-.14.404-.21.703-.21.173 0 .33.019.471.056.141.036.245.077.311.121l-.128.325a1.103 1.103 0 00-.257-.105 1.388 1.388 0 00-.397-.051.88.88 0 00-.214.024.554.554 0 00-.173.075.368.368 0 00-.117.125.361.361 0 00-.043.178.39.39 0 00.045.195.46.46 0 00.128.137c.054.04.118.076.191.109.072.033.152.066.24.098.124.05.237.1.34.149.103.05.192.108.268.177.075.069.134.15.175.245s.061.209.061.343c0 .25-.09.442-.273.577-.183.133-.44.2-.772.2a2.035 2.035 0 01-.755-.14 1.658 1.658 0 01-.126-.06l.12-.33c.063.036.159.076.288.12s.287.065.473.065zm2.43.334c-.172 0-.323-.028-.453-.083a.907.907 0 01-.53-.582 1.458 1.458 0 01-.065-.45c0-.165.023-.316.072-.453a1.06 1.06 0 01.203-.356.899.899 0 01.324-.234 1.04 1.04 0 01.425-.085c.096 0 .193.009.289.024.095.017.187.043.275.08l-.086.324a1.113 1.113 0 00-.44-.09c-.214 0-.378.067-.493.2-.113.136-.17.332-.17.59 0 .115.013.22.04.316.025.096.066.179.123.247s.127.121.215.158.196.056.322.056c.101 0 .193-.01.275-.028a1 1 0 00.193-.063l.054.322c-.022.013-.054.026-.095.039s-.088.023-.14.033a2.44 2.44 0 01-.337.035zm1.175-2.576a.243.243 0 01-.175-.069c-.048-.044-.072-.105-.072-.182s.024-.138.072-.184c.048-.045.106-.067.175-.067s.127.022.174.067c.048.046.073.107.073.184s-.025.138-.073.182a.243.243 0 01-.174.069zm.193 2.526h-.383v-2.14h.383v2.14zm.538-1.065c0-.19.027-.355.082-.496s.128-.26.218-.352a.886.886 0 01.313-.21.967.967 0 01.362-.07c.288 0 .51.09.663.27s.23.452.23.82v.064a.78.78 0 01-.004.072h-1.464c.015.222.08.391.193.506.112.115.288.173.526.173.135 0 .247-.012.34-.035a1.26 1.26 0 00.207-.067l.054.32c-.047.025-.128.05-.245.078a1.733 1.733 0 01-.397.042c-.186 0-.347-.028-.483-.085-.136-.056-.248-.134-.336-.232s-.152-.216-.195-.352a1.507 1.507 0 01-.064-.446zm1.469-.21a.636.636 0 00-.13-.426.446.446 0 00-.368-.167.506.506 0 00-.404.186.61.61 0 00-.108.188.914.914 0 00-.052.219h1.062zm.951-.803c.088-.021.204-.045.35-.07a2.95 2.95 0 01.502-.036c.17 0 .311.023.423.07a.67.67 0 01.27.203c.067.086.115.19.143.31s.04.255.04.4v1.201h-.382V38.56a1.86 1.86 0 00-.027-.338c-.018-.093-.047-.168-.088-.225s-.096-.1-.166-.126a.714.714 0 00-.254-.04 2.842 2.842 0 00-.253.015c-.04.004-.076.009-.108.015l-.067.012v1.806h-.383V37.6zm3.291 2.128c-.173 0-.324-.028-.454-.083a.907.907 0 01-.53-.582 1.458 1.458 0 01-.065-.45c0-.165.024-.316.072-.453a1.06 1.06 0 01.204-.356.899.899 0 01.323-.234 1.04 1.04 0 01.426-.085c.095 0 .192.009.288.024.095.017.187.043.275.08l-.086.324a1.113 1.113 0 00-.44-.09c-.214 0-.378.067-.492.2-.114.136-.17.332-.17.59 0 .115.012.22.039.316.025.096.066.179.123.247s.128.121.216.158.195.056.32.056c.102 0 .194-.01.276-.028a1 1 0 00.194-.063l.053.322c-.022.013-.053.026-.094.039s-.088.023-.14.033a2.44 2.44 0 01-.338.035zm.865-1.115c0-.19.028-.355.082-.496s.128-.26.218-.352a.886.886 0 01.314-.21.967.967 0 01.36-.07c.289 0 .51.09.664.27s.23.452.23.82v.064c0 .026-.002.05-.003.072h-1.465c.015.222.08.391.193.506.112.115.288.173.526.173.135 0 .247-.012.34-.035a1.26 1.26 0 00.207-.067l.054.32c-.047.025-.128.05-.245.078a1.733 1.733 0 01-.397.042c-.186 0-.347-.028-.483-.085-.136-.056-.248-.134-.336-.232s-.152-.216-.195-.352a1.507 1.507 0 01-.064-.446zm1.469-.21a.636.636 0 00-.13-.426.446.446 0 00-.368-.167.506.506 0 00-.403.186.61.61 0 00-.109.188.914.914 0 00-.051.219h1.061zm1.449 1c.156 0 .272-.02.347-.063a.208.208 0 00.113-.197c0-.093-.037-.167-.111-.222s-.196-.117-.366-.185a6.149 6.149 0 01-.237-.1.83.83 0 01-.195-.122.531.531 0 01-.132-.169.537.537 0 01-.05-.243c0-.19.07-.339.21-.45s.331-.167.573-.167a1.979 1.979 0 01.58.095l-.07.329a1.217 1.217 0 00-.51-.103.59.59 0 00-.28.064.213.213 0 00-.12.2c0 .046.009.087.027.123a.305.305 0 00.083.097c.037.028.083.055.137.08s.12.05.198.078c.101.039.192.076.271.113a.84.84 0 01.204.13c.056.049.1.108.13.179.03.07.045.155.045.256a.51.51 0 01-.22.45c-.147.101-.356.152-.628.152a1.644 1.644 0 01-.662-.12l.07-.33c.043.017.114.042.21.075s.223.05.382.05zm2.978-1.918c.153 0 .283.02.388.06.106.04.19.096.255.168.065.074.11.16.139.26.027.1.041.21.041.331v1.337l-.138.023a4.6 4.6 0 01-.44.05c-.087.006-.173.01-.258.01-.12 0-.231-.013-.333-.038a.739.739 0 01-.264-.117.545.545 0 01-.172-.212.743.743 0 01-.062-.317c0-.118.024-.22.072-.304s.114-.154.196-.206a.932.932 0 01.288-.115 1.583 1.583 0 01.465-.03c.04.003.08.009.117.016l.096.018.058.012v-.106c0-.064-.007-.126-.02-.188s-.039-.116-.075-.165a.366.366 0 00-.145-.114.566.566 0 00-.241-.044c-.126 0-.237.009-.331.027a1.114 1.114 0 00-.212.056l-.045-.317c.049-.022.132-.043.247-.064s.239-.031.374-.031zm.033 1.918c.09 0 .17-.002.24-.007.07-.004.128-.012.175-.022v-.638a.455.455 0 00-.134-.035 1.575 1.575 0 00-.407-.002c-.064.008-.123.025-.177.051s-.097.062-.134.107a.281.281 0 00-.053.18c0 .136.044.232.132.286.087.052.207.08.358.08zm1.424-1.803c.088-.021.204-.045.35-.07a2.95 2.95 0 01.501-.036c.17 0 .312.023.424.07a.67.67 0 01.27.203c.067.086.115.19.142.31s.041.255.041.4v1.201h-.382V38.56a1.86 1.86 0 00-.027-.338c-.018-.093-.048-.168-.089-.225s-.095-.1-.165-.126a.714.714 0 00-.255-.04 2.842 2.842 0 00-.253.015c-.04.004-.075.009-.107.015l-.067.012v1.806h-.383V37.6zm3.744-1.049l.383-.066v3.132c-.088.024-.2.048-.338.074a2.715 2.715 0 01-.473.037c-.165 0-.313-.026-.444-.078a.97.97 0 01-.338-.223c-.093-.095-.165-.213-.216-.351s-.076-.295-.076-.468c0-.164.021-.316.063-.452.043-.137.106-.255.188-.354s.183-.176.303-.23a.972.972 0 01.409-.083c.123 0 .232.016.327.05s.165.064.212.094v-1.082zm0 1.44a.79.79 0 00-.202-.11.75.75 0 00-.288-.054c-.11 0-.203.02-.282.06s-.142.094-.19.164a.69.69 0 00-.108.248c-.022.097-.033.2-.033.309 0 .25.062.442.185.578a.633.633 0 00.494.204 1.848 1.848 0 00.424-.045v-1.354zm3.81-1.164h.399v2.851h-.4v-1.316h-1.394v1.316h-.4v-2.851h.4v1.19h1.395v-1.19zm2.786 2.79a4.918 4.918 0 01-.348.069 2.91 2.91 0 01-.5.037c-.164 0-.303-.023-.415-.071-.112-.049-.203-.116-.272-.204s-.118-.192-.148-.31-.045-.253-.045-.398v-1.201h.383v1.119c0 .26.041.447.123.56s.22.168.416.168c.041 0 .083-.002.127-.004a3.702 3.702 0 00.228-.023.356.356 0 00.069-.014V37.54h.382v2.078zm.658-2.017c.088-.021.204-.045.348-.07.144-.025.31-.036.5-.036.136 0 .251.018.345.055a.6.6 0 01.235.162c.02-.013.05-.033.09-.057s.092-.05.153-.072.127-.044.2-.062.155-.026.24-.026c.164 0 .299.023.404.07a.585.585 0 01.244.205c.06.088.098.192.119.313.021.12.031.252.031.395v1.201h-.383V38.56c0-.126-.006-.234-.018-.325a.62.62 0 00-.07-.227.331.331 0 00-.14-.133.527.527 0 00-.229-.043c-.129 0-.234.017-.318.051s-.14.066-.171.093c.022.071.038.15.05.234.01.085.015.174.015.268v1.201h-.381V38.56c0-.126-.007-.234-.021-.325a.68.68 0 00-.072-.227.329.329 0 00-.14-.133.52.52 0 00-.224-.043l-.124.003a4.081 4.081 0 00-.235.026l-.065.012v1.806h-.383V37.6zm4.234-.115c.154 0 .283.02.389.06.105.04.19.096.255.168.064.074.11.16.138.26.028.1.041.21.041.331v1.337l-.137.023a4.6 4.6 0 01-.44.05 3.78 3.78 0 01-.258.01 1.39 1.39 0 01-.333-.038.739.739 0 01-.264-.117.545.545 0 01-.173-.212.743.743 0 01-.062-.317c0-.118.025-.22.073-.304s.113-.154.195-.206a.932.932 0 01.288-.115 1.583 1.583 0 01.465-.03c.041.003.08.009.117.016l.097.018.057.012v-.106c0-.064-.006-.126-.02-.188s-.038-.116-.074-.165a.366.366 0 00-.146-.114.566.566 0 00-.241-.044c-.126 0-.236.009-.331.027a1.114 1.114 0 00-.212.056l-.045-.317c.049-.022.132-.043.247-.064s.24-.031.374-.031zm.033 1.918c.09 0 .171-.002.24-.007.071-.004.129-.012.175-.022v-.638a.456.456 0 00-.133-.035 1.565 1.565 0 00-.408-.002c-.064.008-.123.025-.176.051s-.098.062-.134.107a.281.281 0 00-.054.18c0 .136.044.232.132.286a.7.7 0 00.358.08zm1.423-1.803c.088-.021.204-.045.35-.07a2.95 2.95 0 01.502-.036c.17 0 .311.023.424.07a.67.67 0 01.27.203c.067.086.114.19.142.31s.04.255.04.4v1.201h-.382V38.56a1.86 1.86 0 00-.026-.338c-.019-.093-.048-.168-.09-.225s-.095-.1-.164-.126a.714.714 0 00-.255-.04 2.842 2.842 0 00-.253.015c-.04.004-.075.009-.108.015l-.067.012v1.806h-.383V37.6zm2.552-.448a.243.243 0 01-.175-.069c-.048-.044-.072-.105-.072-.182s.024-.138.072-.184c.048-.045.107-.067.175-.067s.127.022.175.067c.048.046.072.107.072.184s-.024.138-.072.182a.243.243 0 01-.175.069zm.193 2.526h-.382v-2.14h.382v2.14zm1.017-2.139h.81v.32h-.81v.988c0 .107.008.195.024.266a.4.4 0 00.075.164c.032.04.074.068.123.085a.81.81 0 00.451-.015l.145-.056.075.317a1.307 1.307 0 01-.532.115.996.996 0 01-.359-.056c-.095-.036-.17-.091-.229-.166s-.098-.165-.12-.273a1.8 1.8 0 01-.036-.377v-1.91l.383-.065v.663zm1.485-.387a.243.243 0 01-.174-.069c-.048-.044-.073-.105-.073-.182s.025-.138.073-.184c.047-.045.106-.067.174-.067s.127.022.175.067c.048.046.072.107.072.184s-.024.138-.072.182a.243.243 0 01-.175.069zm.194 2.526h-.383v-2.14h.383v2.14zm.539-1.065c0-.19.027-.355.082-.496s.128-.26.218-.352a.886.886 0 01.313-.21.967.967 0 01.361-.07c.288 0 .51.09.663.27s.231.452.231.82v.064a.78.78 0 01-.004.072h-1.465c.016.222.08.391.194.506.112.115.288.173.526.173a1.293 1.293 0 00.547-.102l.054.32a1.15 1.15 0 01-.246.078 1.733 1.733 0 01-.396.042c-.187 0-.348-.028-.483-.085-.136-.056-.249-.134-.336-.232s-.153-.216-.196-.352a1.507 1.507 0 01-.063-.446zm1.469-.21a.636.636 0 00-.13-.426.446.446 0 00-.369-.167.506.506 0 00-.403.186.61.61 0 00-.108.188.914.914 0 00-.052.219h1.062zm1.448 1c.156 0 .272-.02.347-.063a.208.208 0 00.114-.197c0-.093-.037-.167-.112-.222s-.196-.117-.366-.185a6.149 6.149 0 01-.236-.1.83.83 0 01-.195-.122.531.531 0 01-.132-.169.537.537 0 01-.05-.243c0-.19.07-.339.21-.45s.33-.167.572-.167a1.979 1.979 0 01.58.095l-.07.329a1.212 1.212 0 00-.51-.103c-.107 0-.2.022-.28.064a.213.213 0 00-.12.2c0 .046.01.087.027.123a.305.305 0 00.083.097c.037.028.083.055.138.08s.12.05.197.078c.102.039.192.076.272.113a.84.84 0 01.204.13c.055.049.1.108.13.179.029.07.044.155.044.256a.51.51 0 01-.22.45c-.147.101-.356.152-.627.152a1.644 1.644 0 01-.662-.12l.069-.33c.044.017.114.042.21.075s.224.05.383.05zm2.196-1.153c0-.244.037-.46.11-.646s.171-.342.295-.467c.125-.125.27-.219.437-.281.166-.064.342-.095.528-.095a1.4 1.4 0 01.52.095c.165.062.307.156.431.281.123.125.222.28.294.467s.11.402.11.646-.037.46-.11.646-.17.343-.294.468a1.202 1.202 0 01-.43.281 1.42 1.42 0 01-.52.095c-.187 0-.363-.032-.53-.095a1.216 1.216 0 01-.436-.281c-.124-.125-.223-.282-.296-.468s-.109-.401-.109-.646zm.42 0c0 .173.022.33.066.471.043.142.106.262.187.36s.18.175.297.229c.116.054.247.08.392.08s.276-.026.391-.08.214-.13.295-.228c.08-.1.143-.22.186-.36.044-.141.067-.299.067-.472s-.023-.33-.067-.471a1.071 1.071 0 00-.186-.36.844.844 0 00-.685-.308.923.923 0 00-.393.08c-.117.054-.216.13-.297.228s-.144.22-.187.36a1.586 1.586 0 00-.066.471zm4.758.363c0 .16-.022.311-.064.448-.043.137-.105.255-.187.354s-.184.175-.303.23-.256.083-.41.083a1.054 1.054 0 01-.54-.145v.857h-.381v-2.836a6.16 6.16 0 01.34-.071c.136-.027.293-.04.47-.04.166 0 .313.026.445.079a.955.955 0 01.338.221c.093.097.165.214.216.352.05.139.076.295.076.468zm-.4 0c0-.25-.061-.443-.184-.576a.638.638 0 00-.494-.203c-.116 0-.205.005-.27.013s-.116.018-.154.028v1.351a.781.781 0 00.201.11.753.753 0 00.288.054c.11 0 .204-.02.282-.06s.142-.094.192-.165a.687.687 0 00.106-.246 1.33 1.33 0 00.033-.306zm.819 0c0-.19.027-.355.082-.496s.128-.26.218-.352a.886.886 0 01.313-.21.967.967 0 01.361-.07c.288 0 .51.09.663.27s.23.452.23.82v.064c0 .026-.001.05-.003.072h-1.465c.016.222.08.391.194.506.112.115.288.173.526.173a1.293 1.293 0 00.547-.102l.053.32c-.046.025-.127.05-.245.078a1.733 1.733 0 01-.396.042c-.187 0-.348-.028-.484-.085-.135-.056-.248-.134-.335-.232s-.153-.216-.196-.352a1.507 1.507 0 01-.063-.446zm1.469-.21a.636.636 0 00-.13-.426.446.446 0 00-.369-.167.506.506 0 00-.403.186.61.61 0 00-.108.188.914.914 0 00-.052.219h1.062zm.951-.803c.088-.021.204-.045.35-.07a2.95 2.95 0 01.501-.036c.17 0 .312.023.424.07a.67.67 0 01.27.203c.067.086.115.19.142.31s.041.255.041.4v1.201h-.383V38.56a1.86 1.86 0 00-.026-.338c-.019-.093-.048-.168-.089-.225s-.096-.1-.165-.126a.714.714 0 00-.255-.04 2.842 2.842 0 00-.253.015c-.04.004-.075.009-.107.015l-.068.012v1.806h-.382V37.6zm4.616 1.684a11.7 11.7 0 00-.11-.252l-.145-.33a21.58 21.58 0 00-.167-.363l-.167-.354a8.81 8.81 0 00-.255-.5c-.03.324-.055.675-.074 1.052s-.035.757-.049 1.141h-.392a66.77 66.77 0 01.085-1.487c.018-.243.038-.48.058-.71s.043-.448.067-.654h.35c.074.12.154.263.24.427.084.165.17.337.254.517s.167.36.247.539l.218.492.218-.492a18.006 18.006 0 01.502-1.056c.085-.164.165-.306.239-.427h.35c.092.919.163 1.869.21 2.851h-.391c-.014-.384-.03-.764-.05-1.141s-.044-.728-.074-1.052a7.202 7.202 0 00-.255.5c-.052.111-.107.23-.167.354a13.75 13.75 0 00-.166.364l-.146.329a11.7 11.7 0 00-.11.252h-.32zm2.971-1.799c.153 0 .283.02.388.06.106.04.19.096.255.168.065.074.11.16.139.26.027.1.04.21.04.331v1.337l-.137.023a4.6 4.6 0 01-.44.05c-.087.006-.173.01-.258.01a1.39 1.39 0 01-.333-.038.739.739 0 01-.264-.117.545.545 0 01-.173-.212.743.743 0 01-.061-.317c0-.118.024-.22.072-.304s.113-.154.195-.206a.932.932 0 01.289-.115 1.583 1.583 0 01.464-.03c.041.003.08.009.118.016l.096.018.058.012v-.106c0-.064-.007-.126-.02-.188s-.039-.116-.075-.165a.366.366 0 00-.145-.114.566.566 0 00-.242-.044c-.126 0-.236.009-.33.027a1.114 1.114 0 00-.213.056l-.045-.317c.05-.022.132-.043.248-.064s.239-.031.374-.031zm.033 1.918c.09 0 .17-.002.24-.007.07-.004.128-.012.175-.022v-.638a.465.465 0 00-.134-.035 1.575 1.575 0 00-.407-.002c-.065.008-.123.025-.177.051s-.098.062-.134.107a.281.281 0 00-.053.18c0 .136.044.232.131.286.088.052.207.08.359.08zm2.214-1.909a1.258 1.258 0 01.238.022 3.167 3.167 0 01.19.04l-.066.332a1.355 1.355 0 00-.632-.04l-.138.032v1.798h-.382V37.63a2.44 2.44 0 01.338-.092 2.13 2.13 0 01.452-.043zm1.571 1.007c.082.064.17.142.262.235.091.094.182.194.271.303s.173.217.253.329c.08.111.147.214.201.31h-.448a4.264 4.264 0 00-.436-.582 3.416 3.416 0 00-.25-.253 2.23 2.23 0 00-.244-.193v1.028h-.382v-3.127l.382-.066v1.951l.218-.219c.08-.079.158-.16.234-.242l.22-.237c.068-.075.126-.142.176-.2h.448c-.062.069-.132.144-.205.227-.074.082-.151.165-.23.25l-.242.25-.228.236zm1.148.112c0-.19.028-.355.082-.496s.128-.26.218-.352a.886.886 0 01.314-.21.967.967 0 01.361-.07c.288 0 .51.09.663.27s.23.452.23.82v.064c0 .026-.001.05-.003.072h-1.465c.015.222.08.391.193.506.112.115.288.173.527.173.134 0 .247-.012.34-.035.091-.023.16-.046.206-.067l.054.32c-.047.025-.128.05-.245.078a1.733 1.733 0 01-.396.042c-.187 0-.348-.028-.484-.085-.136-.056-.248-.134-.336-.232s-.152-.216-.195-.352a1.507 1.507 0 01-.064-.446zm1.47-.21a.636.636 0 00-.13-.426.446.446 0 00-.369-.167.506.506 0 00-.403.186.61.61 0 00-.109.188.914.914 0 00-.051.219h1.061zm1.308-.864h.81v.32h-.81v.988c0 .107.008.195.024.266a.4.4 0 00.074.164c.033.04.075.068.123.085a.81.81 0 00.451-.015l.146-.056.074.317a1.307 1.307 0 01-.53.115.996.996 0 01-.36-.056c-.095-.036-.171-.091-.229-.166s-.098-.165-.12-.273a1.8 1.8 0 01-.036-.377v-1.91l.383-.065v.663zm3.18 1.074c0 .16-.021.311-.063.448-.043.137-.106.255-.188.354s-.183.175-.302.23-.256.083-.41.083a1.028 1.028 0 01-.54-.145v.857h-.381v-2.836a6.16 6.16 0 01.34-.071c.135-.027.292-.04.47-.04.165 0 .313.026.445.079a.955.955 0 01.337.221c.093.097.165.214.216.352.051.139.076.295.076.468zm-.399 0c0-.25-.062-.443-.185-.576a.638.638 0 00-.494-.203c-.115 0-.205.005-.27.013s-.115.018-.154.028v1.351a.781.781 0 00.202.11.753.753 0 00.288.054c.11 0 .204-.02.282-.06s.142-.094.191-.165a.687.687 0 00.107-.246 1.33 1.33 0 00.033-.306zm1.58 1.107c-.235-.007-.403-.056-.502-.153-.099-.096-.147-.245-.147-.448V36.55l.382-.066v2.572c0 .063.005.115.016.156.012.041.03.075.054.099s.057.043.098.056.092.022.153.03l-.054.321zm1.173-2.235c.153 0 .283.02.389.06.105.04.19.096.254.168.065.074.11.16.14.26.026.1.04.21.04.331v1.337l-.138.023a4.6 4.6 0 01-.44.05c-.087.006-.173.01-.258.01-.12 0-.231-.013-.333-.038a.739.739 0 01-.263-.117.545.545 0 01-.173-.212.743.743 0 01-.062-.317c0-.118.025-.22.072-.304s.114-.154.196-.206a.932.932 0 01.288-.115 1.583 1.583 0 01.465-.03c.04.003.08.009.117.016l.097.018.057.012v-.106c0-.064-.007-.126-.02-.188s-.038-.116-.075-.165a.366.366 0 00-.145-.114.566.566 0 00-.241-.044c-.126 0-.237.009-.331.027a1.114 1.114 0 00-.212.056l-.045-.317c.049-.022.132-.043.247-.064s.24-.031.374-.031zm.033 1.918c.09 0 .171-.002.24-.007.07-.004.128-.012.175-.022v-.638a.455.455 0 00-.134-.035 1.575 1.575 0 00-.407-.002c-.064.008-.123.025-.177.051s-.097.062-.133.107a.281.281 0 00-.054.18c0 .136.044.232.132.286a.7.7 0 00.358.08zm2.353.325c-.173 0-.325-.028-.454-.083a.907.907 0 01-.53-.582 1.458 1.458 0 01-.065-.45c0-.165.023-.316.072-.453a1.06 1.06 0 01.203-.356.899.899 0 01.323-.234 1.04 1.04 0 01.426-.085c.096 0 .193.009.288.024.096.017.188.043.276.08l-.086.324a1.113 1.113 0 00-.44-.09c-.215 0-.379.067-.493.2-.113.136-.17.332-.17.59 0 .115.013.22.04.316.025.096.066.179.122.247s.128.121.216.158.195.056.321.056c.102 0 .194-.01.276-.028a1 1 0 00.193-.063l.054.322c-.023.013-.054.026-.095.039s-.088.023-.14.033a2.44 2.44 0 01-.337.035zm.865-1.115c0-.19.027-.355.082-.496s.128-.26.218-.352a.886.886 0 01.313-.21.967.967 0 01.361-.07c.289 0 .51.09.664.27s.23.452.23.82v.064a.78.78 0 01-.004.072h-1.465c.016.222.08.391.194.506.112.115.288.173.526.173.135 0 .247-.012.34-.035a1.26 1.26 0 00.207-.067l.054.32a1.15 1.15 0 01-.246.078 1.733 1.733 0 01-.396.042c-.187 0-.348-.028-.483-.085-.136-.056-.248-.134-.336-.232s-.153-.216-.196-.352a1.507 1.507 0 01-.063-.446zm1.469-.21a.636.636 0 00-.13-.426.446.446 0 00-.368-.167.506.506 0 00-.404.186.61.61 0 00-.108.188.914.914 0 00-.052.219h1.062zm-87.856-8.951c.498 0 .91-.041 1.234-.124s.584-.197.78-.34c.196-.143.332-.313.407-.51.076-.194.114-.413.114-.655 0-.512-.242-.939-.724-1.278-.483-.34-1.313-.705-2.488-1.097a18.32 18.32 0 01-1.54-.622 5.644 5.644 0 01-1.38-.883 4.199 4.199 0 01-.994-1.29c-.257-.504-.385-1.119-.385-1.843s.136-1.376.407-1.957.656-1.074 1.154-1.481c.497-.408 1.101-.72 1.81-.94.708-.218 1.508-.327 2.397-.327 1.056 0 1.97.113 2.738.34.77.225 1.402.474 1.9.745l-1.017 2.783a9.712 9.712 0 00-1.46-.6c-.536-.172-1.18-.26-1.934-.26-.845 0-1.452.117-1.821.351-.37.234-.554.592-.554 1.074 0 .288.067.529.203.725.136.196.328.373.577.531.25.159.535.302.86.43.324.128.682.26 1.074.396.814.302 1.523.6 2.127.894.602.294 1.104.637 1.504 1.028.4.393.698.853.893 1.381.197.528.295 1.17.295 1.923 0 1.463-.513 2.598-1.539 3.404s-2.571 1.21-4.638 1.21c-.693 0-1.319-.04-1.877-.124a12.066 12.066 0 01-1.482-.305 8.443 8.443 0 01-1.889-.769l.995-2.806c.468.257 1.045.487 1.732.69.685.204 1.526.306 2.521.306zm13.166 0c.498 0 .91-.041 1.234-.124s.584-.197.78-.34c.196-.143.332-.313.407-.51.076-.194.114-.413.114-.655 0-.512-.242-.939-.724-1.278-.483-.34-1.313-.705-2.488-1.097a18.32 18.32 0 01-1.54-.622 5.644 5.644 0 01-1.38-.883 4.199 4.199 0 01-.994-1.29c-.257-.504-.385-1.119-.385-1.843s.136-1.376.407-1.957.656-1.074 1.154-1.481c.497-.408 1.101-.72 1.81-.94.708-.218 1.508-.327 2.397-.327 1.056 0 1.97.113 2.738.34.77.225 1.402.474 1.9.745l-1.017 2.783a9.712 9.712 0 00-1.46-.6c-.536-.172-1.18-.26-1.934-.26-.845 0-1.452.117-1.821.351-.37.234-.554.592-.554 1.074 0 .288.067.529.203.725.136.196.328.373.577.531.25.159.535.302.86.43.324.128.682.26 1.074.396.814.302 1.523.6 2.127.894.602.294 1.104.637 1.504 1.028.4.393.698.853.893 1.381.197.528.295 1.17.295 1.923 0 1.463-.513 2.598-1.539 3.404s-2.571 1.21-4.638 1.21c-.693 0-1.319-.04-1.877-.124a12.066 12.066 0 01-1.482-.305 8.443 8.443 0 01-1.889-.769l.996-2.806c.467.257 1.044.487 1.73.69.686.204 1.527.306 2.522.306zm18.347-12.985h3.53v15.677h-3.53v-6.651h-5.927v6.651H92.06V16.467h3.53v5.995h5.926v-5.995zm13.888 2.823c0 .492-.073.923-.22 1.295a2.651 2.651 0 01-.6.934c-.252.25-.554.44-.905.567-.35.126-.726.19-1.128.19-.391 0-.76-.064-1.108-.19a2.547 2.547 0 01-.91-.567c-.26-.25-.463-.562-.612-.934s-.223-.803-.223-1.294.077-.922.231-1.294.363-.685.625-.938c.262-.254.565-.444.91-.571.344-.127.706-.19 1.087-.19.39 0 .76.063 1.108.19.347.127.65.317.91.57.259.254.463.567.611.939s.224.803.224 1.294zm-4.374 0c0 .282.034.536.102.762.07.226.17.42.298.583.13.162.288.288.476.376.187.088.402.132.645.132.237 0 .45-.044.64-.132.19-.088.35-.214.48-.376.13-.163.229-.357.298-.583.069-.226.103-.48.103-.761s-.034-.536-.103-.765a1.754 1.754 0 00-.298-.587 1.313 1.313 0 00-.48-.376 1.505 1.505 0 00-.64-.132c-.243 0-.458.045-.645.136s-.346.218-.476.38a1.754 1.754 0 00-.298.587 2.637 2.637 0 00-.102.757zm9.409.695c0 .337-.041.643-.124.918a2.077 2.077 0 01-.363.711 1.65 1.65 0 01-.596.464c-.237.11-.51.165-.818.165a2.228 2.228 0 01-.91-.19v1.637h-1.232v-5.73c.11-.033.236-.065.38-.095s.294-.057.451-.079.316-.04.48-.054a5.58 5.58 0 01.466-.02c.359 0 .678.053.96.161.28.107.518.259.71.455.194.195.341.434.443.715.102.281.153.595.153.942zm-1.257.033c0-.38-.085-.685-.256-.913-.17-.23-.425-.343-.76-.343a3.502 3.502 0 00-.539.041v2.224c.078.05.178.091.302.124s.25.05.377.05c.584 0 .876-.394.876-1.183zm2.001 0c0-.385.06-.723.178-1.012a2.16 2.16 0 01.467-.724c.193-.193.415-.339.666-.438.25-.1.508-.15.773-.15.617 0 1.105.19 1.463.567.358.378.538.933.538 1.667a7.107 7.107 0 01-.025.463h-2.795a.82.82 0 00.356.603c.21.149.49.223.843.223.227 0 .448-.02.666-.062.218-.04.395-.092.533-.153l.165 1a1.625 1.625 0 01-.264.1 3.46 3.46 0 01-.368.087c-.135.025-.28.045-.434.062s-.309.025-.463.025a2.74 2.74 0 01-1.022-.174 1.982 1.982 0 01-.718-.475 1.88 1.88 0 01-.422-.715 2.836 2.836 0 01-.137-.894zm2.895-.47c-.006-.106-.025-.208-.055-.307s-.077-.187-.14-.265a.745.745 0 00-.24-.19.78.78 0 00-.36-.074.831.831 0 00-.355.07.725.725 0 00-.248.186c-.066.078-.117.167-.153.27s-.063.204-.08.31h1.63zm2.141-1.588c.21-.061.48-.117.81-.17a6.683 6.683 0 011.042-.079c.369 0 .677.049.922.145.246.097.44.233.583.41.143.176.245.385.306.628.06.243.091.513.091.81v2.456h-1.232v-2.307c0-.397-.053-.678-.158-.843s-.3-.248-.586-.248a4.465 4.465 0 00-.546.042v3.356h-1.232v-4.2zm-14.752 8.392c.1.183.215.407.345.674a40.264 40.264 0 01.824 1.823l.39.918.39-.918a38.88 38.88 0 01.825-1.823c.13-.267.245-.491.343-.674h1.175c.055.38.106.807.153 1.277.046.472.088.963.124 1.473a130.345 130.345 0 01.177 2.98h-1.256c-.016-.556-.039-1.163-.066-1.819a51.507 51.507 0 00-.124-1.984l-.332.77c-.122.28-.242.56-.361.842-.118.281-.234.55-.344.807-.11.256-.205.475-.282.657h-.902a172.402 172.402 0 01-.626-1.464l-.36-.843-.332-.77c-.056.668-.097 1.33-.124 1.985-.028.656-.05 1.263-.066 1.82h-1.257a154.168 154.168 0 01.177-2.981c.037-.51.078-1.001.125-1.473.046-.47.097-.896.153-1.277h1.231zm7.376 1.266c.365 0 .667.04.91.124.243.082.437.2.582.355a1.3 1.3 0 01.311.563c.06.22.09.465.09.735v2.563c-.176.04-.421.084-.736.137a7.137 7.137 0 01-1.14.078c-.281 0-.536-.024-.765-.074-.23-.05-.426-.13-.592-.244a1.112 1.112 0 01-.38-.442 1.517 1.517 0 01-.132-.67c0-.253.05-.468.153-.645.102-.177.238-.317.41-.422s.365-.18.586-.227.45-.07.687-.07c.16 0 .301.006.425.02s.225.032.302.054v-.116a.682.682 0 00-.19-.505c-.126-.126-.347-.189-.661-.189-.21 0-.416.015-.62.045s-.38.073-.53.128l-.157-.992a5.084 5.084 0 01.62-.136c.127-.02.26-.036.401-.05s.283-.02.426-.02zm.1 3.604c.121 0 .236-.002.347-.008s.198-.013.264-.024v-.935a2.57 2.57 0 00-.822-.03.825.825 0 00-.269.08.456.456 0 00-.182.156.44.44 0 00-.067.248c0 .194.066.328.195.402.13.074.307.111.534.111zm5.531-2.397a9.65 9.65 0 00-.389-.087 2.27 2.27 0 00-.757-.024 1.64 1.64 0 00-.244.044v3.324h-1.231v-4.118c.22-.077.48-.15.781-.218.3-.07.635-.104 1.005-.104a4.595 4.595 0 01.802.096c.094.018.174.042.24.07l-.207 1.017zm2.1.47l.376-.41c.13-.143.255-.285.376-.425l.342-.398c.107-.126.2-.235.277-.33h1.466c-.293.337-.578.657-.857.963-.278.304-.583.62-.913.944.165.15.336.327.513.534.176.207.346.421.512.642a9.459 9.459 0 01.802 1.267h-1.417a23.49 23.49 0 00-.3-.476 12.515 12.515 0 00-.36-.523c-.127-.173-.26-.34-.4-.5s-.28-.296-.417-.407v1.906h-1.232v-6.217l1.232-.199v3.63zm3.051.645c0-.385.06-.723.178-1.012.118-.29.275-.53.467-.723.193-.194.415-.34.666-.439a2.09 2.09 0 01.773-.148c.618 0 1.105.188 1.463.566.359.377.538.933.538 1.666a7.214 7.214 0 01-.025.463h-2.795a.82.82 0 00.357.603c.209.15.49.224.842.224.227 0 .449-.02.666-.062.218-.041.396-.092.534-.153l.165 1c-.066.033-.155.067-.265.1s-.232.061-.367.087c-.136.024-.28.045-.435.061s-.308.026-.463.026c-.391 0-.731-.059-1.021-.174a1.99 1.99 0 01-.719-.476 1.879 1.879 0 01-.422-.716 2.835 2.835 0 01-.137-.892zm2.895-.47c-.006-.105-.024-.207-.055-.307s-.077-.187-.14-.264a.752.752 0 00-.24-.19.793.793 0 00-.359-.075.824.824 0 00-.355.07.726.726 0 00-.248.187.827.827 0 00-.154.269 1.736 1.736 0 00-.079.31h1.63zm2.1-2.82l1.232-.198v1.28h1.48v1.026h-1.48v1.53c0 .26.046.466.137.62s.273.232.55.232a2.396 2.396 0 00.794-.14l.172.958a2.894 2.894 0 01-1.165.224c-.337 0-.615-.046-.836-.137a1.315 1.315 0 01-.529-.38 1.41 1.41 0 01-.276-.591 3.468 3.468 0 01-.08-.769V26.65zm7.755 3.258c0 .337-.04.642-.124.918s-.204.512-.363.71c-.16.199-.358.353-.596.463s-.51.166-.818.166a2.196 2.196 0 01-.91-.19v1.637h-1.231v-5.73c.11-.033.236-.065.38-.095s.293-.056.45-.079a7.337 7.337 0 01.947-.073c.358 0 .678.053.959.16s.518.26.71.454c.194.197.342.435.443.716.103.282.153.596.153.943zm-1.256.033c0-.38-.085-.685-.256-.914-.171-.229-.425-.343-.761-.343a3.313 3.313 0 00-.538.041v2.225c.077.05.178.09.302.124s.25.05.377.05c.584 0 .876-.395.876-1.183zm3.944 2.224c-.358-.005-.65-.044-.872-.116a1.278 1.278 0 01-.53-.302.993.993 0 01-.264-.471 2.54 2.54 0 01-.07-.624v-4.787l1.231-.199v4.738c0 .11.009.21.025.298s.048.163.095.223.114.11.203.149c.088.039.206.063.356.074l-.174 1.017zm2.563-4.547c.365 0 .667.04.91.124.243.082.437.2.583.355.146.154.25.342.31.563.06.22.091.465.091.735v2.563c-.177.04-.422.084-.736.137a7.137 7.137 0 01-1.14.078 3.6 3.6 0 01-.766-.074c-.23-.05-.425-.13-.591-.244a1.112 1.112 0 01-.38-.442 1.517 1.517 0 01-.133-.67c0-.253.05-.468.153-.645.102-.177.239-.317.41-.422s.366-.18.586-.227.45-.07.687-.07c.16 0 .302.006.426.02s.224.032.301.054v-.116a.682.682 0 00-.19-.505c-.126-.126-.347-.189-.661-.189-.21 0-.416.015-.62.045s-.38.073-.53.128l-.157-.992a5.084 5.084 0 01.62-.136c.127-.02.261-.036.402-.05s.282-.02.425-.02zm.1 3.604c.121 0 .236-.002.347-.008s.198-.013.264-.024v-.935a2.57 2.57 0 00-.822-.03.825.825 0 00-.268.08.456.456 0 00-.183.156.44.44 0 00-.066.248c0 .194.065.328.194.402.13.074.308.111.534.111zm2.703-1.314c0-.315.051-.61.154-.889.101-.278.249-.522.442-.728a2.11 2.11 0 01.702-.492c.276-.12.59-.181.943-.181.232 0 .444.02.637.061.193.042.38.1.562.178l-.256.984c-.116-.044-.243-.083-.381-.116s-.292-.049-.463-.049c-.363 0-.635.112-.814.34-.18.225-.269.522-.269.892 0 .391.084.694.252.91.168.215.462.322.88.322.15 0 .31-.014.48-.042.171-.027.328-.071.472-.132l.174 1.009c-.144.06-.323.113-.538.157s-.452.067-.711.067c-.397 0-.738-.06-1.026-.18-.286-.117-.522-.278-.707-.482s-.319-.446-.405-.724a3.087 3.087 0 01-.128-.905zm3.928.032c0-.385.06-.723.178-1.012.118-.29.274-.53.466-.723.194-.194.415-.34.666-.439.251-.099.51-.148.774-.148.617 0 1.104.188 1.463.566.358.377.538.933.538 1.666a7.214 7.214 0 01-.025.463h-2.795a.82.82 0 00.356.603c.209.15.49.224.843.224.226 0 .448-.02.666-.062.218-.041.395-.092.533-.153l.165 1c-.065.033-.154.067-.265.1s-.232.061-.367.087c-.136.024-.28.045-.434.061s-.309.026-.463.026a2.76 2.76 0 01-1.022-.174 1.99 1.99 0 01-.718-.476 1.879 1.879 0 01-.422-.716 2.835 2.835 0 01-.137-.892zm2.894-.47c-.005-.105-.024-.207-.054-.307s-.077-.187-.14-.264a.752.752 0 00-.24-.19.793.793 0 00-.36-.075.824.824 0 00-.355.07.726.726 0 00-.248.187.827.827 0 00-.153.269 1.736 1.736 0 00-.08.31h1.63zM32.23 16.865a1.47 1.47 0 102.537-1.49l-2.977-5.07a1.471 1.471 0 00-2.537 1.49l2.977 5.07zm-6.925-.931l3.566 6.072a1.459 1.459 0 102.516-1.477l-3.566-6.072a1.459 1.459 0 10-2.516 1.477z"
  /><path
    class="st11"
    d="M64.959 9.918c-.113-.195-.353-.346-.83-.334H44.31l-1.87.016c-1.288-.033-1.732.882-1.732.882l-.692 1.213-8.609 14.858-.189.332-.691 1.195c-.229.4-.538.139-.598-.006L19.615 10.43a1.702 1.702 0 10-2.949 1.703l3.739 6.257 7.374 12.853c.203.308.681.843 1.585.843h22.491a1.351 1.351 0 001.139-.713l1.013-1.768 9.806-16.885.749-1.307.335-.586s.078-.145.101-.218a.851.851 0 00.03-.123c.03-.164.036-.385-.07-.568zM50.2 28.273l-15.402-.03 8.646-14.816h15.414L50.2 28.273z"
  /><path
    class="st11"
    d="M24.86 12.296a1.459 1.459 0 10-1.477-2.516 1.459 1.459 0 001.477 2.516zm119.868 1.078c.106-.063.158-.164.158-.304 0-.143-.055-.243-.163-.301-.11-.057-.27-.087-.48-.087l-.22.003a2.521 2.521 0 00-.21.013v.77h.39c.244 0 .419-.03.525-.094zm9.936.022l-.12-.307a6.487 6.487 0 00-.084-.207 5.898 5.898 0 01-.078.209l-.116.307-.147.383c-.054.139-.11.285-.165.438h1.012l-.157-.44c-.05-.14-.1-.268-.145-.383zm-10.349.68h-.501v.914a3 3 0 00.413.02c.24 0 .43-.034.577-.102.146-.068.22-.194.22-.377 0-.164-.061-.28-.184-.35-.122-.07-.298-.105-.525-.105z"
  /><path
    class="st11"
    d="M157.912 10.117H141.25a.569.569 0 00-.567.567v6.105c0 .312.255.567.567.567h16.662a.569.569 0 00.567-.567v-6.105a.569.569 0 00-.567-.567zm-12.487 5.266c-.27.187-.674.28-1.207.28-.195 0-.387-.005-.58-.017a4.05 4.05 0 01-.6-.085v-3.43a5.45 5.45 0 01.536-.069 6.96 6.96 0 01.542-.023c.224 0 .431.016.62.049.188.032.351.087.487.166a.855.855 0 01.319.308.902.902 0 01.116.473c0 .282-.137.505-.409.668.224.086.377.201.459.348a.993.993 0 01.123.495c0 .37-.136.65-.406.837zm3.805.235h-2.506V12.08h2.388v.669h-1.592v.694h1.414v.653h-1.414v.853h1.71v.669zm2.4 0h-.797v-2.859h-1.067v-.679h2.93v.679h-1.067v2.859zm3.787 0c-.04-.124-.081-.25-.126-.38l-.136-.386h-1.382l-.134.388c-.045.13-.087.256-.126.378h-.826a54.357 54.357 0 01.73-1.97c.113-.287.227-.558.337-.815.11-.257.226-.508.345-.753h.756a28.079 28.079 0 01.684 1.567c.115.286.232.59.351.914.12.323.247.676.38 1.057h-.853z"
  /></svg>
