<svg xmlns="http://www.w3.org/2000/svg" viewBox="0 0 512 512" version="1.1" id="svg156"><defs id="defs4"><style id="style2">.e{fill:#0085ca}</style></defs><g id="g21" transform="translate(59.973 59.972) scale(4.0839)"><path d="M32.735 40.887a2.638 2.638 0 104.549-2.673l-5.335-9.091a2.638 2.638 0 00-3.611-.94 2.638 2.638 0 00-.94 3.612z" id="path146" fill="#ff9e1a"/><path class="e" d="M20.319 39.217l6.394 10.889a2.616 2.616 0 003.58.93 2.616 2.616 0 00.926-3.58l-6.391-10.888a2.616 2.616 0 10-4.51 2.649z" id="path148"/><path d="M91.425 28.429c-.2-.35-.633-.62-1.488-.6H54.395l-3.351.029a3.276 3.276 0 00-3.107 1.583l-1.243 2.175L31.257 58.26l-.34.594-1.24 2.143a.569.569 0 01-1.071-.01l-18.494-31.64A3.053 3.053 0 104.824 32.4l6.7 11.22 13.228 23.049a3.3 3.3 0 002.843 1.51h40.33a2.418 2.418 0 002.044-1.277l1.816-3.171L89.37 33.45l1.343-2.343.6-1.05a3.4 3.4 0 00.18-.391 1.8 1.8 0 00.055-.22 1.532 1.532 0 00-.124-1.018zM64.959 61.347l-27.615-.06 15.5-26.566h27.64z" id="path150" fill="#02558c"/><path class="e" d="M19.519 32.692a2.616 2.616 0 10-3.58-.931 2.616 2.616 0 003.58.93z" id="path152"/></g></svg>