<?xml version="1.0" encoding="utf-8"?>
<!-- Generator: Adobe Illustrator 24.0.0, SVG Export Plug-In . SVG Version: 6.00 Build 0)  -->
<svg version="1.0" id="Warstwa_1" xmlns="http://www.w3.org/2000/svg" xmlns:xlink="http://www.w3.org/1999/xlink" x="0px" y="0px"
	 viewBox="0 0 174.9165802 48.7048378" style="enable-background:new 0 0 174.9165802 48.7048378;" xml:space="preserve">
<style type="text/css">
	.st0{fill:#4D80FA;}
	.st1{enable-background:new    ;}
	.st2{fill:#9B9B9B;}
	.st3{fill:#FF9E1A;}
	.st4{fill:#A4BCC2;}
	.st5{fill:#02558C;}
	.st6{fill:#FFFFFF;}
	.st7{fill:#0085CA;}
	.st8{fill:#F59D15;}
	.st9{fill:#005489;}
	.st10{fill:#008ACE;}
	.st11{fill:#FFFF00;}
</style>
<g>
	<path class="st11" d="M66.4172058,39.3940125c0.4169922,0,0.625-0.1425781,0.625-0.4277344
		c0-0.0878906-0.0185547-0.1621094-0.0556641-0.2246094c-0.0371094-0.0615234-0.0869141-0.1152344-0.1494141-0.1601562
		c-0.0634766-0.0449219-0.1357422-0.0839844-0.2167969-0.1171875s-0.1660156-0.0654297-0.2568359-0.0986328
		c-0.1044922-0.0361328-0.203125-0.0761719-0.2958984-0.1210938c-0.09375-0.0458984-0.1748047-0.0996094-0.2431641-0.1611328
		S65.7013855,37.9487,65.662323,37.863739c-0.0400391-0.0849609-0.0605469-0.1884766-0.0605469-0.3085938
		c0-0.25,0.0849609-0.4443359,0.2558594-0.5839844c0.1699219-0.140625,0.4042969-0.2099609,0.703125-0.2099609
		c0.1728516,0,0.3300781,0.0185547,0.4716797,0.0556641c0.140625,0.0361328,0.2441406,0.0771484,0.3105469,0.1210938
		l-0.1279297,0.3251953c-0.0576172-0.0361328-0.1435547-0.0712891-0.2568359-0.1054688
		c-0.1142578-0.0341797-0.2460938-0.0507812-0.3974609-0.0507812c-0.0761719,0-0.1474609,0.0078125-0.2138672,0.0244141
		c-0.0654297,0.0166016-0.1230469,0.0410156-0.1728516,0.0742188c-0.0488281,0.0322266-0.0878906,0.0742188-0.1171875,0.125
		c-0.0283203,0.0507812-0.0429688,0.1103516-0.0429688,0.1787109c0,0.0771484,0.0146484,0.1416016,0.0449219,0.1943359
		c0.0302734,0.0517578,0.0732422,0.0976562,0.1279297,0.1376953c0.0546875,0.0390625,0.1181641,0.0761719,0.1914062,0.1083984
		c0.0722656,0.0332031,0.1523438,0.0664062,0.2402344,0.0986328c0.1240234,0.0498047,0.2363281,0.0996094,0.3398438,0.1484375
		c0.1025391,0.0498047,0.1914062,0.1083984,0.2675781,0.1767578c0.0751953,0.0693359,0.1337891,0.1503906,0.1748047,0.2451172
		s0.0615234,0.2089844,0.0615234,0.34375c0,0.2490234-0.0908203,0.4414062-0.2734375,0.5761719
		c-0.1826172,0.1337891-0.4394531,0.2011719-0.7714844,0.2011719c-0.1123047,0-0.2158203-0.0078125-0.3105469-0.0224609
		s-0.1796875-0.0332031-0.2539062-0.0537109c-0.0732422-0.0205078-0.1376953-0.0419922-0.1904297-0.0654297
		c-0.0537109-0.0234375-0.0957031-0.0429688-0.1259766-0.0595703l0.1191406-0.3291016
		c0.0634766,0.0351562,0.1591797,0.0751953,0.2880859,0.1191406S66.2306824,39.3940125,66.4172058,39.3940125z"/>
	<path class="st11" d="M69.8078308,38.6078796c0,0.1708984-0.0244141,0.3242188-0.0742188,0.4609375
		c-0.0488281,0.1376953-0.1181641,0.2558594-0.2080078,0.3544922c-0.0888672,0.0986328-0.1953125,0.1748047-0.3183594,0.2285156
		c-0.1230469,0.0527344-0.2578125,0.0800781-0.4033203,0.0800781s-0.2802734-0.0273438-0.4033203-0.0800781
		c-0.1230469-0.0537109-0.2294922-0.1298828-0.3183594-0.2285156c-0.0898438-0.0986328-0.1591797-0.2167969-0.2080078-0.3544922
		c-0.0498047-0.1367188-0.0742188-0.2900391-0.0742188-0.4609375c0-0.1669922,0.0244141-0.3193359,0.0742188-0.4580078
		c0.0488281-0.1386719,0.1181641-0.2578125,0.2080078-0.3564453c0.0888672-0.0986328,0.1953125-0.1748047,0.3183594-0.2285156
		c0.1230469-0.0527344,0.2578125-0.0800781,0.4033203-0.0800781s0.2802734,0.0273438,0.4033203,0.0800781
		c0.1230469,0.0537109,0.2294922,0.1298828,0.3183594,0.2285156c0.0898438,0.0986328,0.1591797,0.2177734,0.2080078,0.3564453
		C69.7834167,38.2885437,69.8078308,38.4408875,69.8078308,38.6078796z M69.4084167,38.6078796
		c0-0.2412109-0.0537109-0.4326172-0.1621094-0.5732422c-0.1083984-0.1416016-0.2558594-0.2119141-0.4423828-0.2119141
		s-0.3339844,0.0703125-0.4423828,0.2119141c-0.1083984,0.140625-0.1621094,0.3320312-0.1621094,0.5732422
		c0,0.2421875,0.0537109,0.4335938,0.1621094,0.5742188c0.1083984,0.1416016,0.2558594,0.2119141,0.4423828,0.2119141
		s0.3339844-0.0703125,0.4423828-0.2119141C69.3547058,39.0414734,69.4084167,38.8500671,69.4084167,38.6078796z"/>
	<path class="st11" d="M71.2765808,39.7279968c-0.1728516,0-0.3242188-0.0283203-0.4541016-0.0830078
		c-0.1308594-0.0546875-0.2402344-0.1318359-0.3291016-0.2304688c-0.0898438-0.0986328-0.15625-0.2158203-0.2001953-0.3515625
		s-0.0654297-0.2861328-0.0654297-0.4501953c0-0.1650391,0.0234375-0.3154297,0.0722656-0.453125
		c0.0478516-0.1367188,0.1152344-0.2558594,0.203125-0.3554688c0.0878906-0.1005859,0.1953125-0.1787109,0.3232422-0.234375
		c0.1279297-0.0566406,0.2695312-0.0849609,0.4257812-0.0849609c0.0957031,0,0.1923828,0.0087891,0.2880859,0.0244141
		c0.0957031,0.0166016,0.1875,0.0429688,0.2753906,0.0791016l-0.0859375,0.3242188
		c-0.0576172-0.0273438-0.1240234-0.0488281-0.2001953-0.0654297c-0.0751953-0.0166016-0.1552734-0.0244141-0.2402344-0.0244141
		c-0.2138672,0-0.3779297,0.0673828-0.4921875,0.2011719c-0.1132812,0.1347656-0.1699219,0.3310547-0.1699219,0.5888672
		c0,0.1152344,0.0126953,0.2207031,0.0390625,0.3164062c0.0253906,0.0957031,0.0664062,0.1787109,0.1230469,0.2470703
		s0.1279297,0.1210938,0.2158203,0.1582031s0.1953125,0.0556641,0.3212891,0.0556641
		c0.1015625,0,0.1933594-0.0097656,0.2753906-0.0283203c0.0820312-0.0195312,0.1464844-0.0400391,0.1933594-0.0625
		l0.0537109,0.3212891c-0.0224609,0.0136719-0.0537109,0.0263672-0.0947266,0.0390625s-0.0878906,0.0234375-0.1396484,0.0332031
		c-0.0527344,0.0097656-0.1074219,0.0175781-0.1669922,0.0244141
		C71.3888855,39.7240906,71.3312683,39.7279968,71.2765808,39.7279968z"/>
	<path class="st11" d="M72.4494324,37.151825c-0.0683594,0-0.1269531-0.0224609-0.1748047-0.0683594
		c-0.0478516-0.0449219-0.0722656-0.1054688-0.0722656-0.1826172s0.0244141-0.1376953,0.0722656-0.1835938
		c0.0478516-0.0449219,0.1064453-0.0673828,0.1748047-0.0673828s0.1269531,0.0224609,0.1748047,0.0673828
		c0.0478516,0.0458984,0.0722656,0.1064453,0.0722656,0.1835938s-0.0244141,0.1376953-0.0722656,0.1826172
		C72.5763855,37.129364,72.5177917,37.151825,72.4494324,37.151825z M72.6427917,39.6781921h-0.3828125v-2.1396484h0.3828125
		V39.6781921z"/>
	<path class="st11" d="M73.9924011,37.4848328c0.1533203,0,0.2832031,0.0205078,0.3886719,0.0595703
		c0.1054688,0.0400391,0.1904297,0.0966797,0.2548828,0.1689453c0.0644531,0.0732422,0.1103516,0.1591797,0.1386719,0.2587891
		c0.0273438,0.1005859,0.0410156,0.2109375,0.0410156,0.3320312v1.3369141
		c-0.0332031,0.0058594-0.0791016,0.0126953-0.1376953,0.0224609c-0.0595703,0.0097656-0.1259766,0.0185547-0.2001953,0.0273438
		c-0.0742188,0.0078125-0.1542969,0.015625-0.2402344,0.0224609c-0.0869141,0.0068359-0.1728516,0.0097656-0.2578125,0.0097656
		c-0.1201172,0-0.2314453-0.0117188-0.3330078-0.0371094c-0.1015625-0.0244141-0.1894531-0.0634766-0.2636719-0.1171875
		c-0.0732422-0.0527344-0.1308594-0.1240234-0.1728516-0.2119141c-0.0410156-0.0878906-0.0615234-0.1933594-0.0615234-0.3164062
		c0-0.1181641,0.0244141-0.2197266,0.0722656-0.3046875s0.1132812-0.1533203,0.1953125-0.2060547
		c0.0820312-0.0517578,0.1787109-0.0898438,0.2880859-0.1152344c0.109375-0.0244141,0.2246094-0.0361328,0.3457031-0.0361328
		c0.0380859,0,0.078125,0.0019531,0.1191406,0.0058594s0.0800781,0.0097656,0.1171875,0.0166016
		s0.0693359,0.0126953,0.0966797,0.0185547c0.0273438,0.0048828,0.046875,0.0097656,0.0576172,0.0117188v-0.1064453
		c0-0.0634766-0.0068359-0.1259766-0.0205078-0.1875s-0.0380859-0.1162109-0.0742188-0.1650391
		c-0.0351562-0.0478516-0.0839844-0.0859375-0.1455078-0.1142578c-0.0615234-0.0292969-0.1425781-0.0439453-0.2412109-0.0439453
		c-0.1259766,0-0.2363281,0.0087891-0.3310547,0.0273438c-0.0947266,0.0175781-0.1650391,0.0361328-0.2119141,0.0556641
		l-0.0449219-0.3173828c0.0488281-0.0214844,0.1318359-0.0429688,0.2470703-0.0634766S73.8576355,37.4848328,73.9924011,37.4848328z
		 M74.0256042,39.4028015c0.0898438,0,0.1708984-0.0019531,0.2402344-0.0068359
		c0.0703125-0.0039062,0.1279297-0.0117188,0.1748047-0.0224609v-0.6376953
		c-0.0273438-0.0136719-0.0722656-0.0253906-0.1337891-0.0351562s-0.1357422-0.0136719-0.2236328-0.0136719
		c-0.0576172,0-0.1191406,0.0039062-0.1835938,0.0117188c-0.0644531,0.0087891-0.1230469,0.0253906-0.1767578,0.0517578
		s-0.0976562,0.0615234-0.1337891,0.1064453c-0.0361328,0.0458984-0.0537109,0.1054688-0.0537109,0.1796875
		c0,0.1367188,0.0439453,0.2324219,0.1318359,0.2861328C73.7550964,39.3754578,73.8742371,39.4028015,74.0256042,39.4028015z"/>
	<path class="st11" d="M76.0900574,39.7192078c-0.2353516-0.0058594-0.4033203-0.0556641-0.5019531-0.1523438
		c-0.0986328-0.0957031-0.1474609-0.2451172-0.1474609-0.4482422V36.551239l0.3828125-0.0664062v2.5722656
		c0,0.0625,0.0048828,0.1152344,0.015625,0.15625c0.0117188,0.0410156,0.0292969,0.0742188,0.0537109,0.0986328
		s0.0576172,0.0429688,0.0986328,0.0556641s0.0917969,0.0224609,0.1523438,0.0302734L76.0900574,39.7192078z"/>
	<path class="st11" d="M78.2101746,39.3940125c0.4169922,0,0.625-0.1425781,0.625-0.4277344
		c0-0.0878906-0.0185547-0.1621094-0.0556641-0.2246094c-0.0371094-0.0615234-0.0869141-0.1152344-0.1494141-0.1601562
		c-0.0634766-0.0449219-0.1357422-0.0839844-0.2167969-0.1171875s-0.1660156-0.0654297-0.2568359-0.0986328
		c-0.1044922-0.0361328-0.203125-0.0761719-0.2958984-0.1210938c-0.09375-0.0458984-0.1748047-0.0996094-0.2431641-0.1611328
		S77.4943542,37.9487,77.4552917,37.863739c-0.0400391-0.0849609-0.0605469-0.1884766-0.0605469-0.3085938
		c0-0.25,0.0849609-0.4443359,0.2558594-0.5839844c0.1699219-0.140625,0.4042969-0.2099609,0.703125-0.2099609
		c0.1728516,0,0.3300781,0.0185547,0.4716797,0.0556641c0.140625,0.0361328,0.2441406,0.0771484,0.3105469,0.1210938
		l-0.1279297,0.3251953c-0.0576172-0.0361328-0.1435547-0.0712891-0.2568359-0.1054688
		c-0.1142578-0.0341797-0.2460938-0.0507812-0.3974609-0.0507812c-0.0761719,0-0.1474609,0.0078125-0.2138672,0.0244141
		c-0.0654297,0.0166016-0.1230469,0.0410156-0.1728516,0.0742188c-0.0488281,0.0322266-0.0878906,0.0742188-0.1171875,0.125
		c-0.0283203,0.0507812-0.0429688,0.1103516-0.0429688,0.1787109c0,0.0771484,0.0146484,0.1416016,0.0449219,0.1943359
		c0.0302734,0.0517578,0.0732422,0.0976562,0.1279297,0.1376953c0.0546875,0.0390625,0.1181641,0.0761719,0.1914062,0.1083984
		c0.0722656,0.0332031,0.1523438,0.0664062,0.2402344,0.0986328c0.1240234,0.0498047,0.2363281,0.0996094,0.3398438,0.1484375
		c0.1025391,0.0498047,0.1914062,0.1083984,0.2675781,0.1767578c0.0751953,0.0693359,0.1337891,0.1503906,0.1748047,0.2451172
		s0.0615234,0.2089844,0.0615234,0.34375c0,0.2490234-0.0908203,0.4414062-0.2734375,0.5761719
		c-0.1826172,0.1337891-0.4394531,0.2011719-0.7714844,0.2011719c-0.1123047,0-0.2158203-0.0078125-0.3105469-0.0224609
		s-0.1796875-0.0332031-0.2539062-0.0537109c-0.0732422-0.0205078-0.1376953-0.0419922-0.1904297-0.0654297
		c-0.0537109-0.0234375-0.0957031-0.0429688-0.1259766-0.0595703l0.1191406-0.3291016
		c0.0634766,0.0351562,0.1591797,0.0751953,0.2880859,0.1191406S78.0236511,39.3940125,78.2101746,39.3940125z"/>
	<path class="st11" d="M80.6408386,39.7279968c-0.1728516,0-0.3242188-0.0283203-0.4541016-0.0830078
		c-0.1308594-0.0546875-0.2402344-0.1318359-0.3291016-0.2304688c-0.0898438-0.0986328-0.15625-0.2158203-0.2001953-0.3515625
		s-0.0654297-0.2861328-0.0654297-0.4501953c0-0.1650391,0.0234375-0.3154297,0.0722656-0.453125
		c0.0478516-0.1367188,0.1152344-0.2558594,0.203125-0.3554688c0.0878906-0.1005859,0.1953125-0.1787109,0.3232422-0.234375
		c0.1279297-0.0566406,0.2695312-0.0849609,0.4257812-0.0849609c0.0957031,0,0.1923828,0.0087891,0.2880859,0.0244141
		c0.0957031,0.0166016,0.1875,0.0429688,0.2753906,0.0791016l-0.0859375,0.3242188
		c-0.0576172-0.0273438-0.1240234-0.0488281-0.2001953-0.0654297c-0.0751953-0.0166016-0.1552734-0.0244141-0.2402344-0.0244141
		c-0.2138672,0-0.3779297,0.0673828-0.4921875,0.2011719c-0.1132812,0.1347656-0.1699219,0.3310547-0.1699219,0.5888672
		c0,0.1152344,0.0126953,0.2207031,0.0390625,0.3164062c0.0253906,0.0957031,0.0664062,0.1787109,0.1230469,0.2470703
		s0.1279297,0.1210938,0.2158203,0.1582031s0.1953125,0.0556641,0.3212891,0.0556641
		c0.1015625,0,0.1933594-0.0097656,0.2753906-0.0283203c0.0820312-0.0195312,0.1464844-0.0400391,0.1933594-0.0625
		l0.0537109,0.3212891c-0.0224609,0.0136719-0.0537109,0.0263672-0.0947266,0.0390625s-0.0878906,0.0234375-0.1396484,0.0332031
		c-0.0527344,0.0097656-0.1074219,0.0175781-0.1669922,0.0244141
		C80.7531433,39.7240906,80.6955261,39.7279968,80.6408386,39.7279968z"/>
	<path class="st11" d="M81.8146667,37.151825c-0.0683594,0-0.1269531-0.0224609-0.1748047-0.0683594
		c-0.0478516-0.0449219-0.0722656-0.1054688-0.0722656-0.1826172s0.0244141-0.1376953,0.0722656-0.1835938
		c0.0478516-0.0449219,0.1064453-0.0673828,0.1748047-0.0673828s0.1269531,0.0224609,0.1748047,0.0673828
		c0.0478516,0.0458984,0.0722656,0.1064453,0.0722656,0.1835938s-0.0244141,0.1376953-0.0722656,0.1826172
		C81.9416199,37.129364,81.8830261,37.151825,81.8146667,37.151825z M82.0080261,39.6781921h-0.3828125v-2.1396484h0.3828125
		V39.6781921z"/>
	<path class="st11" d="M82.5461121,38.6127625c0-0.1894531,0.0273438-0.3544922,0.0820312-0.4960938
		s0.1279297-0.2587891,0.2177734-0.3515625c0.0908203-0.09375,0.1953125-0.1630859,0.3134766-0.2099609
		c0.1171875-0.046875,0.2382812-0.0703125,0.3613281-0.0703125c0.2880859,0,0.5097656,0.0898438,0.6630859,0.2695312
		s0.2304688,0.453125,0.2304688,0.8212891c0,0.0166016,0,0.0371094,0,0.0634766s-0.0019531,0.0498047-0.0039062,0.0722656
		h-1.4648438c0.015625,0.2216797,0.0800781,0.390625,0.1933594,0.5058594
		c0.1123047,0.1152344,0.2880859,0.1728516,0.5263672,0.1728516c0.1347656,0,0.2470703-0.0117188,0.3398438-0.0351562
		c0.0917969-0.0234375,0.1611328-0.0458984,0.2070312-0.0673828l0.0537109,0.3203125
		c-0.046875,0.0253906-0.1279297,0.0507812-0.2451172,0.078125c-0.1162109,0.0273438-0.2480469,0.0419922-0.3964844,0.0419922
		c-0.1865234,0-0.3476562-0.0283203-0.4833984-0.0849609c-0.1357422-0.0556641-0.2480469-0.1337891-0.3359375-0.2324219
		s-0.1523438-0.2158203-0.1953125-0.3515625C82.5675964,38.9233093,82.5461121,38.7738953,82.5461121,38.6127625z
		 M84.0148621,38.4028015c0.0029297-0.1728516-0.0400391-0.3154297-0.1298828-0.4257812
		c-0.0888672-0.1113281-0.2119141-0.1669922-0.3681641-0.1669922c-0.0878906,0-0.1650391,0.0175781-0.2324219,0.0517578
		s-0.1240234,0.0791016-0.1708984,0.1337891c-0.0458984,0.0546875-0.0830078,0.1171875-0.1083984,0.1884766
		c-0.0263672,0.0722656-0.0439453,0.1445312-0.0517578,0.21875H84.0148621z"/>
	<path class="st11" d="M84.9660339,37.6000671c0.0878906-0.0214844,0.2041016-0.0449219,0.3496094-0.0693359
		c0.1455078-0.0253906,0.3125-0.0371094,0.5019531-0.0371094c0.1699219,0,0.3115234,0.0234375,0.4238281,0.0712891
		c0.1123047,0.0488281,0.2021484,0.1152344,0.2695312,0.2021484c0.0673828,0.0859375,0.1152344,0.1894531,0.1425781,0.3105469
		s0.0410156,0.2539062,0.0410156,0.3994141v1.2011719h-0.3828125v-1.1191406c0-0.1318359-0.0087891-0.2441406-0.0263672-0.3378906
		c-0.0185547-0.0927734-0.0478516-0.1679688-0.0888672-0.2255859s-0.0957031-0.0996094-0.1650391-0.1259766
		c-0.0683594-0.0263672-0.1533203-0.0390625-0.2548828-0.0390625c-0.0410156,0-0.0839844,0.0019531-0.1269531,0.0039062
		c-0.0439453,0.0029297-0.0859375,0.0068359-0.1259766,0.0107422s-0.0751953,0.0087891-0.1074219,0.0146484
		c-0.03125,0.0048828-0.0537109,0.0097656-0.0673828,0.0117188v1.8066406h-0.3828125V37.6000671z"/>
	<path class="st11" d="M88.2570496,39.7279968c-0.1728516,0-0.3242188-0.0283203-0.4541016-0.0830078
		c-0.1308594-0.0546875-0.2402344-0.1318359-0.3291016-0.2304688c-0.0898438-0.0986328-0.15625-0.2158203-0.2001953-0.3515625
		s-0.0654297-0.2861328-0.0654297-0.4501953c0-0.1650391,0.0234375-0.3154297,0.0722656-0.453125
		c0.0478516-0.1367188,0.1152344-0.2558594,0.203125-0.3554688c0.0878906-0.1005859,0.1953125-0.1787109,0.3232422-0.234375
		c0.1279297-0.0566406,0.2695312-0.0849609,0.4257812-0.0849609c0.0957031,0,0.1923828,0.0087891,0.2880859,0.0244141
		c0.0957031,0.0166016,0.1875,0.0429688,0.2753906,0.0791016l-0.0859375,0.3242188
		c-0.0576172-0.0273438-0.1240234-0.0488281-0.2001953-0.0654297c-0.0751953-0.0166016-0.1552734-0.0244141-0.2402344-0.0244141
		c-0.2138672,0-0.3779297,0.0673828-0.4921875,0.2011719c-0.1132812,0.1347656-0.1699219,0.3310547-0.1699219,0.5888672
		c0,0.1152344,0.0126953,0.2207031,0.0390625,0.3164062c0.0253906,0.0957031,0.0664062,0.1787109,0.1230469,0.2470703
		s0.1279297,0.1210938,0.2158203,0.1582031s0.1953125,0.0556641,0.3212891,0.0556641
		c0.1015625,0,0.1933594-0.0097656,0.2753906-0.0283203c0.0820312-0.0195312,0.1464844-0.0400391,0.1933594-0.0625
		l0.0537109,0.3212891c-0.0224609,0.0136719-0.0537109,0.0263672-0.0947266,0.0390625s-0.0878906,0.0234375-0.1396484,0.0332031
		c-0.0527344,0.0097656-0.1074219,0.0175781-0.1669922,0.0244141
		C88.3693542,39.7240906,88.3117371,39.7279968,88.2570496,39.7279968z"/>
	<path class="st11" d="M89.1222839,38.6127625c0-0.1894531,0.0273438-0.3544922,0.0820312-0.4960938
		s0.1279297-0.2587891,0.2177734-0.3515625c0.0908203-0.09375,0.1953125-0.1630859,0.3134766-0.2099609
		c0.1171875-0.046875,0.2382812-0.0703125,0.3613281-0.0703125c0.2880859,0,0.5097656,0.0898438,0.6630859,0.2695312
		s0.2304688,0.453125,0.2304688,0.8212891c0,0.0166016,0,0.0371094,0,0.0634766s-0.0019531,0.0498047-0.0039062,0.0722656H89.521698
		c0.015625,0.2216797,0.0800781,0.390625,0.1933594,0.5058594c0.1123047,0.1152344,0.2880859,0.1728516,0.5263672,0.1728516
		c0.1347656,0,0.2470703-0.0117188,0.3398438-0.0351562c0.0917969-0.0234375,0.1611328-0.0458984,0.2070312-0.0673828
		l0.0537109,0.3203125c-0.046875,0.0253906-0.1279297,0.0507812-0.2451172,0.078125
		c-0.1162109,0.0273438-0.2480469,0.0419922-0.3964844,0.0419922c-0.1865234,0-0.3476562-0.0283203-0.4833984-0.0849609
		c-0.1357422-0.0556641-0.2480469-0.1337891-0.3359375-0.2324219s-0.1523438-0.2158203-0.1953125-0.3515625
		C89.1437683,38.9233093,89.1222839,38.7738953,89.1222839,38.6127625z M90.5910339,38.4028015
		c0.0029297-0.1728516-0.0400391-0.3154297-0.1298828-0.4257812c-0.0888672-0.1113281-0.2119141-0.1669922-0.3681641-0.1669922
		c-0.0878906,0-0.1650391,0.0175781-0.2324219,0.0517578s-0.1240234,0.0791016-0.1708984,0.1337891
		c-0.0458984,0.0546875-0.0830078,0.1171875-0.1083984,0.1884766c-0.0263672,0.0722656-0.0439453,0.1445312-0.0517578,0.21875
		H90.5910339z"/>
	<path class="st11" d="M92.0392761,39.4028015c0.15625,0,0.2724609-0.0205078,0.3476562-0.0625
		c0.0751953-0.0410156,0.1132812-0.1064453,0.1132812-0.1972656c0-0.0927734-0.0371094-0.1669922-0.1113281-0.2216797
		s-0.1962891-0.1171875-0.3662109-0.1855469c-0.0820312-0.0332031-0.1611328-0.0664062-0.2363281-0.1005859
		c-0.0761719-0.0341797-0.140625-0.0751953-0.1953125-0.1210938c-0.0556641-0.046875-0.0986328-0.1035156-0.1318359-0.1689453
		c-0.0332031-0.0664062-0.0498047-0.1464844-0.0498047-0.2431641c0-0.1894531,0.0703125-0.3388672,0.2099609-0.4501953
		s0.3310547-0.1669922,0.5722656-0.1669922c0.0605469,0,0.1201172,0.0039062,0.1806641,0.0107422
		s0.1171875,0.0146484,0.1689453,0.0244141s0.0976562,0.0195312,0.1376953,0.03125
		c0.0400391,0.0107422,0.0703125,0.0205078,0.0927734,0.0283203l-0.0703125,0.3291016
		c-0.0410156-0.0214844-0.1054688-0.0439453-0.1933594-0.0673828s-0.1933594-0.0351562-0.3164062-0.0351562
		c-0.1074219,0-0.2001953,0.0214844-0.2802734,0.0634766c-0.0791016,0.0429688-0.1191406,0.109375-0.1191406,0.2001953
		c0,0.0458984,0.0087891,0.0869141,0.0263672,0.1230469c0.0185547,0.0351562,0.0458984,0.0673828,0.0830078,0.0966797
		c0.0371094,0.0283203,0.0830078,0.0556641,0.1376953,0.0800781s0.1201172,0.0507812,0.1972656,0.078125
		c0.1015625,0.0390625,0.1923828,0.0761719,0.2714844,0.1132812c0.0800781,0.0371094,0.1474609,0.0800781,0.2041016,0.1298828
		c0.0556641,0.0488281,0.0996094,0.1083984,0.1298828,0.1787109c0.0292969,0.0703125,0.0449219,0.1552734,0.0449219,0.2568359
		c0,0.1982422-0.0732422,0.3476562-0.2207031,0.4492188c-0.1464844,0.1015625-0.3554688,0.1523438-0.6269531,0.1523438
		c-0.1894531,0-0.3378906-0.0166016-0.4443359-0.0478516c-0.1074219-0.03125-0.1796875-0.0556641-0.2177734-0.0722656
		l0.0693359-0.3291016c0.0439453,0.0166016,0.1142578,0.0410156,0.2099609,0.0742188S91.8800964,39.4028015,92.0392761,39.4028015z"
		/>
	<path class="st11" d="M95.0177917,37.4848328c0.1533203,0,0.2832031,0.0205078,0.3886719,0.0595703
		c0.1054688,0.0400391,0.1904297,0.0966797,0.2548828,0.1689453c0.0644531,0.0732422,0.1103516,0.1591797,0.1386719,0.2587891
		c0.0273438,0.1005859,0.0410156,0.2109375,0.0410156,0.3320312v1.3369141
		c-0.0332031,0.0058594-0.0791016,0.0126953-0.1376953,0.0224609c-0.0595703,0.0097656-0.1259766,0.0185547-0.2001953,0.0273438
		c-0.0742188,0.0078125-0.1542969,0.015625-0.2402344,0.0224609c-0.0869141,0.0068359-0.1728516,0.0097656-0.2578125,0.0097656
		c-0.1201172,0-0.2314453-0.0117188-0.3330078-0.0371094c-0.1015625-0.0244141-0.1894531-0.0634766-0.2636719-0.1171875
		c-0.0732422-0.0527344-0.1308594-0.1240234-0.1728516-0.2119141c-0.0410156-0.0878906-0.0615234-0.1933594-0.0615234-0.3164062
		c0-0.1181641,0.0244141-0.2197266,0.0722656-0.3046875s0.1132812-0.1533203,0.1953125-0.2060547
		c0.0820312-0.0517578,0.1787109-0.0898438,0.2880859-0.1152344c0.109375-0.0244141,0.2246094-0.0361328,0.3457031-0.0361328
		c0.0380859,0,0.078125,0.0019531,0.1191406,0.0058594s0.0800781,0.0097656,0.1171875,0.0166016
		s0.0693359,0.0126953,0.0966797,0.0185547c0.0273438,0.0048828,0.046875,0.0097656,0.0576172,0.0117188v-0.1064453
		c0-0.0634766-0.0068359-0.1259766-0.0205078-0.1875s-0.0380859-0.1162109-0.0742188-0.1650391
		c-0.0351562-0.0478516-0.0839844-0.0859375-0.1455078-0.1142578c-0.0615234-0.0292969-0.1425781-0.0439453-0.2412109-0.0439453
		c-0.1259766,0-0.2363281,0.0087891-0.3310547,0.0273438c-0.0947266,0.0175781-0.1650391,0.0361328-0.2119141,0.0556641
		l-0.0449219-0.3173828c0.0488281-0.0214844,0.1318359-0.0429688,0.2470703-0.0634766S94.8830261,37.4848328,95.0177917,37.4848328z
		 M95.0509949,39.4028015c0.0898438,0,0.1708984-0.0019531,0.2402344-0.0068359
		c0.0703125-0.0039062,0.1279297-0.0117188,0.1748047-0.0224609v-0.6376953
		c-0.0273438-0.0136719-0.0722656-0.0253906-0.1337891-0.0351562s-0.1357422-0.0136719-0.2236328-0.0136719
		c-0.0576172,0-0.1191406,0.0039062-0.1835938,0.0117188c-0.0644531,0.0087891-0.1230469,0.0253906-0.1767578,0.0517578
		s-0.0976562,0.0615234-0.1337891,0.1064453c-0.0361328,0.0458984-0.0537109,0.1054688-0.0537109,0.1796875
		c0,0.1367188,0.0439453,0.2324219,0.1318359,0.2861328C94.7804871,39.3754578,94.8996277,39.4028015,95.0509949,39.4028015z"/>
	<path class="st11" d="M96.474823,37.6000671c0.0878906-0.0214844,0.2041016-0.0449219,0.3496094-0.0693359
		c0.1455078-0.0253906,0.3125-0.0371094,0.5019531-0.0371094c0.1699219,0,0.3115234,0.0234375,0.4238281,0.0712891
		c0.1123047,0.0488281,0.2021484,0.1152344,0.2695312,0.2021484c0.0673828,0.0859375,0.1152344,0.1894531,0.1425781,0.3105469
		s0.0410156,0.2539062,0.0410156,0.3994141v1.2011719h-0.3828125v-1.1191406c0-0.1318359-0.0087891-0.2441406-0.0263672-0.3378906
		c-0.0185547-0.0927734-0.0478516-0.1679688-0.0888672-0.2255859s-0.0957031-0.0996094-0.1650391-0.1259766
		c-0.0683594-0.0263672-0.1533203-0.0390625-0.2548828-0.0390625c-0.0410156,0-0.0839844,0.0019531-0.1269531,0.0039062
		c-0.0439453,0.0029297-0.0859375,0.0068359-0.1259766,0.0107422s-0.0751953,0.0087891-0.1074219,0.0146484
		c-0.03125,0.0048828-0.0537109,0.0097656-0.0673828,0.0117188v1.8066406H96.474823V37.6000671z"/>
	<path class="st11" d="M100.2189636,36.551239l0.3828125-0.0664062v3.1318359
		c-0.0878906,0.0244141-0.2001953,0.0488281-0.3378906,0.0742188c-0.1367188,0.0244141-0.2949219,0.0371094-0.4726562,0.0371094
		c-0.1650391,0-0.3134766-0.0263672-0.4443359-0.078125c-0.1318359-0.0527344-0.2441406-0.1269531-0.3378906-0.2226562
		c-0.0927734-0.0957031-0.1650391-0.2128906-0.2158203-0.3515625s-0.0761719-0.2949219-0.0761719-0.4677734
		c0-0.1640625,0.0214844-0.3154297,0.0634766-0.4521484c0.0429688-0.1367188,0.1054688-0.2548828,0.1875-0.3535156
		s0.1826172-0.1757812,0.3027344-0.2304688c0.1191406-0.0546875,0.2558594-0.0830078,0.4091797-0.0830078
		c0.1230469,0,0.2324219,0.0166016,0.3271484,0.0498047s0.1650391,0.0644531,0.2119141,0.0947266V36.551239z
		 M100.2189636,37.9906921c-0.046875-0.0380859-0.1142578-0.0751953-0.2021484-0.1103516
		c-0.0878906-0.0361328-0.1835938-0.0537109-0.2880859-0.0537109c-0.109375,0-0.203125,0.0195312-0.28125,0.0595703
		s-0.1425781,0.0947266-0.1914062,0.1650391c-0.0498047,0.0693359-0.0849609,0.1523438-0.1074219,0.2480469
		c-0.0214844,0.0966797-0.0322266,0.1992188-0.0322266,0.3085938c0,0.25,0.0615234,0.4423828,0.1845703,0.578125
		c0.1240234,0.1367188,0.2880859,0.2041016,0.4941406,0.2041016c0.1044922,0,0.1914062-0.0048828,0.2607422-0.0146484
		c0.0703125-0.0097656,0.1240234-0.0195312,0.1630859-0.0302734V37.9906921z"/>
	<path class="st11" d="M104.0285339,36.8266296h0.3994141v2.8515625h-0.3994141v-1.3164062h-1.3945312v1.3164062h-0.3994141
		v-2.8515625h0.3994141v1.1894531h1.3945312V36.8266296z"/>
	<path class="st11" d="M106.8146667,39.6166687c-0.0869141,0.0214844-0.203125,0.0449219-0.3476562,0.0693359
		c-0.1435547,0.0253906-0.3105469,0.0371094-0.5,0.0371094c-0.1640625,0-0.3027344-0.0234375-0.4150391-0.0712891
		c-0.1123047-0.0488281-0.203125-0.1162109-0.2714844-0.2041016s-0.1181641-0.1914062-0.1484375-0.3105469
		s-0.0449219-0.2519531-0.0449219-0.3974609v-1.2011719h0.3828125v1.1191406c0,0.2607422,0.0410156,0.4472656,0.1230469,0.5595703
		s0.2207031,0.1689453,0.4160156,0.1689453c0.0410156,0,0.0830078-0.0019531,0.1269531-0.0039062
		c0.0439453-0.0029297,0.0849609-0.0068359,0.1240234-0.0107422c0.0380859-0.0039062,0.0732422-0.0078125,0.1044922-0.0126953
		c0.03125-0.0039062,0.0546875-0.0087891,0.0683594-0.0136719v-1.8066406h0.3818359V39.6166687z"/>
	<path class="st11" d="M107.4728699,37.6000671c0.0878906-0.0214844,0.2041016-0.0449219,0.3476562-0.0693359
		c0.1445312-0.0253906,0.3105469-0.0371094,0.5-0.0371094c0.1367188,0,0.2519531,0.0185547,0.3457031,0.0556641
		c0.0927734,0.0361328,0.171875,0.0908203,0.234375,0.1621094c0.0195312-0.0136719,0.0498047-0.0332031,0.0908203-0.0576172
		s0.0917969-0.0488281,0.1523438-0.0722656s0.1269531-0.0439453,0.2011719-0.0615234s0.1542969-0.0263672,0.2392578-0.0263672
		c0.1640625,0,0.2988281,0.0234375,0.4033203,0.0712891c0.1035156,0.0488281,0.1855469,0.1162109,0.2441406,0.2041016
		c0.0595703,0.0878906,0.0986328,0.1923828,0.1191406,0.3125c0.0214844,0.1210938,0.03125,0.2529297,0.03125,0.3955078v1.2011719
		h-0.3828125v-1.1191406c0-0.1259766-0.0058594-0.234375-0.0185547-0.3251953
		c-0.0117188-0.0908203-0.0351562-0.1660156-0.0693359-0.2265625c-0.0351562-0.0595703-0.0810547-0.1044922-0.140625-0.1337891
		c-0.0585938-0.0283203-0.1347656-0.0429688-0.2285156-0.0429688c-0.1289062,0-0.234375,0.0175781-0.3183594,0.0517578
		s-0.140625,0.0654297-0.1708984,0.0927734c0.0224609,0.0712891,0.0380859,0.1494141,0.0498047,0.234375
		c0.0107422,0.0849609,0.015625,0.1738281,0.015625,0.2675781v1.2011719h-0.3818359v-1.1191406
		c0-0.1259766-0.0068359-0.234375-0.0205078-0.3251953c-0.0146484-0.0908203-0.0380859-0.1660156-0.0722656-0.2265625
		c-0.0341797-0.0595703-0.0810547-0.1044922-0.1396484-0.1337891c-0.0595703-0.0283203-0.1337891-0.0429688-0.2246094-0.0429688
		c-0.0380859,0-0.0800781,0.0019531-0.1230469,0.0039062c-0.0439453,0.0029297-0.0859375,0.0068359-0.1259766,0.0107422
		s-0.0761719,0.0087891-0.109375,0.0146484c-0.0322266,0.0048828-0.0546875,0.0097656-0.0654297,0.0117188v1.8066406h-0.3828125
		V37.6000671z"/>
	<path class="st11" d="M111.7072449,37.4848328c0.1533203,0,0.2832031,0.0205078,0.3886719,0.0595703
		c0.1054688,0.0400391,0.1904297,0.0966797,0.2548828,0.1689453c0.0644531,0.0732422,0.1103516,0.1591797,0.1386719,0.2587891
		c0.0273438,0.1005859,0.0410156,0.2109375,0.0410156,0.3320312v1.3369141
		c-0.0332031,0.0058594-0.0791016,0.0126953-0.1376953,0.0224609c-0.0595703,0.0097656-0.1259766,0.0185547-0.2001953,0.0273438
		c-0.0742188,0.0078125-0.1542969,0.015625-0.2402344,0.0224609c-0.0869141,0.0068359-0.1728516,0.0097656-0.2578125,0.0097656
		c-0.1201172,0-0.2314453-0.0117188-0.3330078-0.0371094c-0.1015625-0.0244141-0.1894531-0.0634766-0.2636719-0.1171875
		c-0.0732422-0.0527344-0.1308594-0.1240234-0.1728516-0.2119141c-0.0410156-0.0878906-0.0615234-0.1933594-0.0615234-0.3164062
		c0-0.1181641,0.0244141-0.2197266,0.0722656-0.3046875s0.1132812-0.1533203,0.1953125-0.2060547
		c0.0820312-0.0517578,0.1787109-0.0898438,0.2880859-0.1152344c0.109375-0.0244141,0.2246094-0.0361328,0.3457031-0.0361328
		c0.0380859,0,0.078125,0.0019531,0.1191406,0.0058594s0.0800781,0.0097656,0.1171875,0.0166016
		s0.0693359,0.0126953,0.0966797,0.0185547c0.0273438,0.0048828,0.046875,0.0097656,0.0576172,0.0117188v-0.1064453
		c0-0.0634766-0.0068359-0.1259766-0.0205078-0.1875s-0.0380859-0.1162109-0.0742188-0.1650391
		c-0.0351562-0.0478516-0.0839844-0.0859375-0.1455078-0.1142578c-0.0615234-0.0292969-0.1425781-0.0439453-0.2412109-0.0439453
		c-0.1259766,0-0.2363281,0.0087891-0.3310547,0.0273438c-0.0947266,0.0175781-0.1650391,0.0361328-0.2119141,0.0556641
		l-0.0449219-0.3173828c0.0488281-0.0214844,0.1318359-0.0429688,0.2470703-0.0634766
		S111.5724792,37.4848328,111.7072449,37.4848328z M111.740448,39.4028015c0.0898438,0,0.1708984-0.0019531,0.2402344-0.0068359
		c0.0703125-0.0039062,0.1279297-0.0117188,0.1748047-0.0224609v-0.6376953
		c-0.0273438-0.0136719-0.0722656-0.0253906-0.1337891-0.0351562s-0.1357422-0.0136719-0.2236328-0.0136719
		c-0.0576172,0-0.1191406,0.0039062-0.1835938,0.0117188c-0.0644531,0.0087891-0.1230469,0.0253906-0.1767578,0.0517578
		s-0.0976562,0.0615234-0.1337891,0.1064453c-0.0361328,0.0458984-0.0537109,0.1054688-0.0537109,0.1796875
		c0,0.1367188,0.0439453,0.2324219,0.1318359,0.2861328C111.4699402,39.3754578,111.5890808,39.4028015,111.740448,39.4028015z"/>
	<path class="st11" d="M113.1632996,37.6000671c0.0878906-0.0214844,0.2041016-0.0449219,0.3496094-0.0693359
		c0.1455078-0.0253906,0.3125-0.0371094,0.5019531-0.0371094c0.1699219,0,0.3115234,0.0234375,0.4238281,0.0712891
		c0.1123047,0.0488281,0.2021484,0.1152344,0.2695312,0.2021484c0.0673828,0.0859375,0.1152344,0.1894531,0.1425781,0.3105469
		s0.0410156,0.2539062,0.0410156,0.3994141v1.2011719h-0.3828125v-1.1191406c0-0.1318359-0.0087891-0.2441406-0.0263672-0.3378906
		c-0.0185547-0.0927734-0.0478516-0.1679688-0.0888672-0.2255859s-0.0957031-0.0996094-0.1650391-0.1259766
		c-0.0683594-0.0263672-0.1533203-0.0390625-0.2548828-0.0390625c-0.0410156,0-0.0839844,0.0019531-0.1269531,0.0039062
		c-0.0439453,0.0029297-0.0859375,0.0068359-0.1259766,0.0107422s-0.0751953,0.0087891-0.1074219,0.0146484
		c-0.03125,0.0048828-0.0537109,0.0097656-0.0673828,0.0117188v1.8066406h-0.3828125V37.6000671z"/>
	<path class="st11" d="M115.7150574,37.151825c-0.0683594,0-0.1269531-0.0224609-0.1748047-0.0683594
		c-0.0478516-0.0449219-0.0722656-0.1054688-0.0722656-0.1826172s0.0244141-0.1376953,0.0722656-0.1835938
		c0.0478516-0.0449219,0.1064453-0.0673828,0.1748047-0.0673828s0.1269531,0.0224609,0.1748047,0.0673828
		c0.0478516,0.0458984,0.0722656,0.1064453,0.0722656,0.1835938s-0.0244141,0.1376953-0.0722656,0.1826172
		C115.8420105,37.129364,115.7834167,37.151825,115.7150574,37.151825z M115.9084167,39.6781921h-0.3828125v-2.1396484h0.3828125
		V39.6781921z"/>
	<path class="st11" d="M116.9250183,37.5385437h0.8105469v0.3212891h-0.8105469v0.9873047
		c0,0.1064453,0.0078125,0.1953125,0.0244141,0.265625c0.0166016,0.0693359,0.0410156,0.1240234,0.0742188,0.1640625
		c0.0322266,0.0400391,0.0742188,0.0683594,0.1230469,0.0849609c0.0498047,0.015625,0.1074219,0.0244141,0.1728516,0.0244141
		c0.1152344,0,0.2080078-0.0126953,0.2783203-0.0390625c0.0693359-0.0263672,0.1181641-0.0449219,0.1455078-0.0556641
		l0.0742188,0.3164062c-0.0380859,0.0195312-0.1054688,0.0439453-0.2011719,0.0722656
		c-0.0966797,0.0292969-0.2060547,0.0429688-0.3300781,0.0429688c-0.1445312,0-0.2646484-0.0185547-0.359375-0.0556641
		c-0.0947266-0.0361328-0.1708984-0.0917969-0.2285156-0.1660156s-0.0986328-0.1650391-0.1210938-0.2734375
		c-0.0234375-0.1083984-0.0351562-0.234375-0.0351562-0.3769531V36.941864l0.3828125-0.0654297V37.5385437z"/>
	<path class="st11" d="M118.4103699,37.151825c-0.0683594,0-0.1269531-0.0224609-0.1748047-0.0683594
		c-0.0478516-0.0449219-0.0722656-0.1054688-0.0722656-0.1826172s0.0244141-0.1376953,0.0722656-0.1835938
		c0.0478516-0.0449219,0.1064453-0.0673828,0.1748047-0.0673828s0.1269531,0.0224609,0.1748047,0.0673828
		c0.0478516,0.0458984,0.0722656,0.1064453,0.0722656,0.1835938s-0.0244141,0.1376953-0.0722656,0.1826172
		C118.537323,37.129364,118.4787292,37.151825,118.4103699,37.151825z M118.6037292,39.6781921h-0.3828125v-2.1396484h0.3828125
		V39.6781921z"/>
	<path class="st11" d="M119.1427917,38.6127625c0-0.1894531,0.0273438-0.3544922,0.0820312-0.4960938
		s0.1279297-0.2587891,0.2177734-0.3515625c0.0908203-0.09375,0.1953125-0.1630859,0.3134766-0.2099609
		c0.1171875-0.046875,0.2382812-0.0703125,0.3613281-0.0703125c0.2880859,0,0.5097656,0.0898438,0.6630859,0.2695312
		s0.2304688,0.453125,0.2304688,0.8212891c0,0.0166016,0,0.0371094,0,0.0634766s-0.0019531,0.0498047-0.0039062,0.0722656
		h-1.4648438c0.015625,0.2216797,0.0800781,0.390625,0.1933594,0.5058594
		c0.1123047,0.1152344,0.2880859,0.1728516,0.5263672,0.1728516c0.1347656,0,0.2470703-0.0117188,0.3398438-0.0351562
		c0.0917969-0.0234375,0.1611328-0.0458984,0.2070312-0.0673828l0.0537109,0.3203125
		c-0.046875,0.0253906-0.1279297,0.0507812-0.2451172,0.078125c-0.1162109,0.0273438-0.2480469,0.0419922-0.3964844,0.0419922
		c-0.1865234,0-0.3476562-0.0283203-0.4833984-0.0849609c-0.1357422-0.0556641-0.2480469-0.1337891-0.3359375-0.2324219
		s-0.1523438-0.2158203-0.1953125-0.3515625C119.1642761,38.9233093,119.1427917,38.7738953,119.1427917,38.6127625z
		 M120.6115417,38.4028015c0.0029297-0.1728516-0.0400391-0.3154297-0.1298828-0.4257812
		c-0.0888672-0.1113281-0.2119141-0.1669922-0.3681641-0.1669922c-0.0878906,0-0.1650391,0.0175781-0.2324219,0.0517578
		s-0.1240234,0.0791016-0.1708984,0.1337891c-0.0458984,0.0546875-0.0830078,0.1171875-0.1083984,0.1884766
		c-0.0263672,0.0722656-0.0439453,0.1445312-0.0517578,0.21875H120.6115417z"/>
	<path class="st11" d="M122.0597839,39.4028015c0.15625,0,0.2724609-0.0205078,0.3476562-0.0625
		c0.0751953-0.0410156,0.1132812-0.1064453,0.1132812-0.1972656c0-0.0927734-0.0371094-0.1669922-0.1113281-0.2216797
		s-0.1962891-0.1171875-0.3662109-0.1855469c-0.0820312-0.0332031-0.1611328-0.0664062-0.2363281-0.1005859
		c-0.0761719-0.0341797-0.140625-0.0751953-0.1953125-0.1210938c-0.0556641-0.046875-0.0986328-0.1035156-0.1318359-0.1689453
		c-0.0332031-0.0664062-0.0498047-0.1464844-0.0498047-0.2431641c0-0.1894531,0.0703125-0.3388672,0.2099609-0.4501953
		s0.3310547-0.1669922,0.5722656-0.1669922c0.0605469,0,0.1201172,0.0039062,0.1806641,0.0107422
		s0.1171875,0.0146484,0.1689453,0.0244141s0.0976562,0.0195312,0.1376953,0.03125
		c0.0400391,0.0107422,0.0703125,0.0205078,0.0927734,0.0283203l-0.0703125,0.3291016
		c-0.0410156-0.0214844-0.1054688-0.0439453-0.1933594-0.0673828s-0.1933594-0.0351562-0.3164062-0.0351562
		c-0.1074219,0-0.2001953,0.0214844-0.2802734,0.0634766c-0.0791016,0.0429688-0.1191406,0.109375-0.1191406,0.2001953
		c0,0.0458984,0.0087891,0.0869141,0.0263672,0.1230469c0.0185547,0.0351562,0.0458984,0.0673828,0.0830078,0.0966797
		c0.0371094,0.0283203,0.0830078,0.0556641,0.1376953,0.0800781s0.1201172,0.0507812,0.1972656,0.078125
		c0.1015625,0.0390625,0.1923828,0.0761719,0.2714844,0.1132812c0.0800781,0.0371094,0.1474609,0.0800781,0.2041016,0.1298828
		c0.0556641,0.0488281,0.0996094,0.1083984,0.1298828,0.1787109c0.0292969,0.0703125,0.0449219,0.1552734,0.0449219,0.2568359
		c0,0.1982422-0.0732422,0.3476562-0.2207031,0.4492188c-0.1464844,0.1015625-0.3554688,0.1523438-0.6269531,0.1523438
		c-0.1894531,0-0.3378906-0.0166016-0.4443359-0.0478516c-0.1074219-0.03125-0.1796875-0.0556641-0.2177734-0.0722656
		l0.0693359-0.3291016c0.0439453,0.0166016,0.1142578,0.0410156,0.2099609,0.0742188S121.9006042,39.4028015,122.0597839,39.4028015
		z"/>
	<path class="st11" d="M124.256073,38.2504578c0-0.2441406,0.0371094-0.4599609,0.109375-0.6464844
		s0.171875-0.3417969,0.2958984-0.4667969c0.125-0.125,0.2705078-0.21875,0.4365234-0.28125
		c0.1660156-0.0634766,0.3417969-0.0947266,0.5283203-0.0947266c0.1845703,0,0.3574219,0.03125,0.5205078,0.0947266
		c0.1640625,0.0625,0.3066406,0.15625,0.4306641,0.28125c0.1230469,0.125,0.2216797,0.2802734,0.2939453,0.4667969
		s0.109375,0.4023438,0.109375,0.6464844s-0.0371094,0.4589844-0.109375,0.6455078s-0.1708984,0.3427734-0.2939453,0.4677734
		c-0.1240234,0.125-0.2666016,0.21875-0.4306641,0.28125c-0.1630859,0.0634766-0.3359375,0.0947266-0.5205078,0.0947266
		c-0.1865234,0-0.3623047-0.03125-0.5283203-0.0947266c-0.1660156-0.0625-0.3115234-0.15625-0.4365234-0.28125
		c-0.1240234-0.125-0.2236328-0.28125-0.2958984-0.4677734S124.256073,38.4945984,124.256073,38.2504578z M124.6759949,38.2504578
		c0,0.1728516,0.0224609,0.3300781,0.0664062,0.4707031c0.0429688,0.1416016,0.1054688,0.2617188,0.1865234,0.3603516
		s0.1796875,0.1748047,0.296875,0.2285156c0.1162109,0.0537109,0.2470703,0.0800781,0.3925781,0.0800781
		s0.2753906-0.0263672,0.390625-0.0800781s0.2138672-0.1298828,0.2949219-0.2285156
		c0.0800781-0.0986328,0.1425781-0.21875,0.1865234-0.3603516c0.0439453-0.140625,0.0664062-0.2978516,0.0664062-0.4707031
		s-0.0224609-0.3300781-0.0664062-0.4716797c-0.0439453-0.140625-0.1064453-0.2607422-0.1865234-0.359375
		c-0.0810547-0.0986328-0.1796875-0.1748047-0.2949219-0.2285156s-0.2451172-0.0800781-0.390625-0.0800781
		s-0.2763672,0.0263672-0.3925781,0.0800781c-0.1171875,0.0537109-0.2158203,0.1298828-0.296875,0.2285156
		s-0.1435547,0.21875-0.1865234,0.359375C124.6984558,37.9203796,124.6759949,38.0776062,124.6759949,38.2504578z"/>
	<path class="st11" d="M129.4338074,38.6127625c0,0.1611328-0.0214844,0.3115234-0.0634766,0.4482422
		c-0.0429688,0.1367188-0.1054688,0.2548828-0.1875,0.3535156s-0.1835938,0.1757812-0.3027344,0.2304688
		s-0.2558594,0.0830078-0.4091797,0.0830078c-0.1230469,0-0.2324219-0.0166016-0.3271484-0.0498047
		s-0.1650391-0.0644531-0.2119141-0.0947266v0.8564453h-0.3828125v-2.8359375
		c0.0908203-0.0214844,0.2041016-0.0458984,0.3398438-0.0712891c0.1357422-0.0263672,0.2929688-0.0390625,0.4707031-0.0390625
		c0.1650391,0,0.3125,0.0253906,0.4443359,0.078125c0.1318359,0.0517578,0.2441406,0.1259766,0.3378906,0.2216797
		c0.0927734,0.0966797,0.1650391,0.2138672,0.2158203,0.3515625
		C129.4084167,38.2836609,129.4338074,38.4399109,129.4338074,38.6127625z M129.0343933,38.6127625
		c0-0.25-0.0615234-0.4423828-0.1845703-0.5761719c-0.1240234-0.1347656-0.2880859-0.2021484-0.4941406-0.2021484
		c-0.1152344,0-0.2050781,0.0048828-0.2695312,0.0126953s-0.1162109,0.0175781-0.1542969,0.0283203v1.3505859
		c0.046875,0.0380859,0.1132812,0.0751953,0.2011719,0.1103516c0.0878906,0.0361328,0.1845703,0.0537109,0.2880859,0.0537109
		c0.1103516,0,0.2041016-0.0195312,0.2822266-0.0595703s0.1416016-0.0947266,0.1914062-0.1650391
		c0.0488281-0.0693359,0.0849609-0.1513672,0.1064453-0.2460938
		C129.0236511,38.8246765,129.0343933,38.7221375,129.0343933,38.6127625z"/>
	<path class="st11" d="M129.8527527,38.6127625c0-0.1894531,0.0273438-0.3544922,0.0820312-0.4960938
		s0.1279297-0.2587891,0.2177734-0.3515625c0.0908203-0.09375,0.1953125-0.1630859,0.3134766-0.2099609
		c0.1171875-0.046875,0.2382812-0.0703125,0.3613281-0.0703125c0.2880859,0,0.5097656,0.0898438,0.6630859,0.2695312
		s0.2304688,0.453125,0.2304688,0.8212891c0,0.0166016,0,0.0371094,0,0.0634766s-0.0019531,0.0498047-0.0039062,0.0722656
		h-1.4648438c0.015625,0.2216797,0.0800781,0.390625,0.1933594,0.5058594
		c0.1123047,0.1152344,0.2880859,0.1728516,0.5263672,0.1728516c0.1347656,0,0.2470703-0.0117188,0.3398438-0.0351562
		c0.0917969-0.0234375,0.1611328-0.0458984,0.2070312-0.0673828l0.0537109,0.3203125
		c-0.046875,0.0253906-0.1279297,0.0507812-0.2451172,0.078125c-0.1162109,0.0273438-0.2480469,0.0419922-0.3964844,0.0419922
		c-0.1865234,0-0.3476562-0.0283203-0.4833984-0.0849609c-0.1357422-0.0556641-0.2480469-0.1337891-0.3359375-0.2324219
		s-0.1523438-0.2158203-0.1953125-0.3515625C129.8742371,38.9233093,129.8527527,38.7738953,129.8527527,38.6127625z
		 M131.3215027,38.4028015c0.0029297-0.1728516-0.0400391-0.3154297-0.1298828-0.4257812
		c-0.0888672-0.1113281-0.2119141-0.1669922-0.3681641-0.1669922c-0.0878906,0-0.1650391,0.0175781-0.2324219,0.0517578
		s-0.1240234,0.0791016-0.1708984,0.1337891c-0.0458984,0.0546875-0.0830078,0.1171875-0.1083984,0.1884766
		c-0.0263672,0.0722656-0.0439453,0.1445312-0.0517578,0.21875H131.3215027z"/>
	<path class="st11" d="M132.2726746,37.6000671c0.0878906-0.0214844,0.2041016-0.0449219,0.3496094-0.0693359
		c0.1455078-0.0253906,0.3125-0.0371094,0.5019531-0.0371094c0.1699219,0,0.3115234,0.0234375,0.4238281,0.0712891
		c0.1123047,0.0488281,0.2021484,0.1152344,0.2695312,0.2021484c0.0673828,0.0859375,0.1152344,0.1894531,0.1425781,0.3105469
		s0.0410156,0.2539062,0.0410156,0.3994141v1.2011719h-0.3828125v-1.1191406c0-0.1318359-0.0087891-0.2441406-0.0263672-0.3378906
		c-0.0185547-0.0927734-0.0478516-0.1679688-0.0888672-0.2255859s-0.0957031-0.0996094-0.1650391-0.1259766
		c-0.0683594-0.0263672-0.1533203-0.0390625-0.2548828-0.0390625c-0.0410156,0-0.0839844,0.0019531-0.1269531,0.0039062
		c-0.0439453,0.0029297-0.0859375,0.0068359-0.1259766,0.0107422s-0.0751953,0.0087891-0.1074219,0.0146484
		c-0.03125,0.0048828-0.0537109,0.0097656-0.0673828,0.0117188v1.8066406h-0.3828125V37.6000671z"/>
	<path class="st11" d="M136.8888855,39.2836609c-0.0273438-0.0664062-0.0644531-0.1503906-0.109375-0.2519531
		c-0.0449219-0.1005859-0.09375-0.2109375-0.1455078-0.3291016c-0.0527344-0.1171875-0.1083984-0.2392578-0.1669922-0.3632812
		c-0.0595703-0.125-0.1142578-0.2431641-0.1669922-0.3544922c-0.0517578-0.1113281-0.1005859-0.2099609-0.1455078-0.2978516
		c-0.0458984-0.0878906-0.0820312-0.1552734-0.109375-0.2021484c-0.0302734,0.3242188-0.0546875,0.6748047-0.0742188,1.0517578
		s-0.0351562,0.7578125-0.0488281,1.1416016h-0.3916016c0.0107422-0.2470703,0.0234375-0.4960938,0.0371094-0.7470703
		s0.0292969-0.4980469,0.0478516-0.7402344c0.0175781-0.2431641,0.0371094-0.4794922,0.0576172-0.7099609
		s0.0429688-0.4482422,0.0673828-0.6542969h0.3496094c0.0742188,0.1210938,0.1542969,0.2636719,0.2392578,0.4277344
		c0.0849609,0.1650391,0.1699219,0.3369141,0.2548828,0.5166016s0.1669922,0.359375,0.2470703,0.5390625
		c0.0791016,0.1796875,0.1523438,0.34375,0.2177734,0.4921875c0.0664062-0.1484375,0.1386719-0.3125,0.2177734-0.4921875
		c0.0800781-0.1796875,0.1621094-0.359375,0.2470703-0.5390625s0.1699219-0.3515625,0.2548828-0.5166016
		c0.0849609-0.1640625,0.1650391-0.3066406,0.2392578-0.4277344h0.3496094
		c0.0927734,0.9189453,0.1630859,1.8691406,0.2099609,2.8515625h-0.390625
		c-0.0136719-0.3837891-0.0302734-0.7646484-0.0498047-1.1416016s-0.0439453-0.7275391-0.0742188-1.0517578
		c-0.0273438,0.046875-0.0634766,0.1142578-0.1083984,0.2021484c-0.0458984,0.0878906-0.0947266,0.1865234-0.1464844,0.2978516
		s-0.1074219,0.2294922-0.1669922,0.3544922c-0.0585938,0.1240234-0.1142578,0.2460938-0.1660156,0.3632812
		c-0.0527344,0.1181641-0.1015625,0.2285156-0.1464844,0.3291016c-0.0449219,0.1015625-0.0820312,0.1855469-0.109375,0.2519531
		H136.8888855z"/>
	<path class="st11" d="M139.8595886,37.4848328c0.1533203,0,0.2832031,0.0205078,0.3886719,0.0595703
		c0.1054688,0.0400391,0.1904297,0.0966797,0.2548828,0.1689453c0.0644531,0.0732422,0.1103516,0.1591797,0.1386719,0.2587891
		c0.0273438,0.1005859,0.0410156,0.2109375,0.0410156,0.3320312v1.3369141
		c-0.0332031,0.0058594-0.0791016,0.0126953-0.1376953,0.0224609c-0.0595703,0.0097656-0.1259766,0.0185547-0.2001953,0.0273438
		c-0.0742188,0.0078125-0.1542969,0.015625-0.2402344,0.0224609c-0.0869141,0.0068359-0.1728516,0.0097656-0.2578125,0.0097656
		c-0.1201172,0-0.2314453-0.0117188-0.3330078-0.0371094c-0.1015625-0.0244141-0.1894531-0.0634766-0.2636719-0.1171875
		c-0.0732422-0.0527344-0.1308594-0.1240234-0.1728516-0.2119141c-0.0410156-0.0878906-0.0615234-0.1933594-0.0615234-0.3164062
		c0-0.1181641,0.0244141-0.2197266,0.0722656-0.3046875s0.1132812-0.1533203,0.1953125-0.2060547
		c0.0820312-0.0517578,0.1787109-0.0898438,0.2880859-0.1152344c0.109375-0.0244141,0.2246094-0.0361328,0.3457031-0.0361328
		c0.0380859,0,0.078125,0.0019531,0.1191406,0.0058594s0.0800781,0.0097656,0.1171875,0.0166016
		s0.0693359,0.0126953,0.0966797,0.0185547c0.0273438,0.0048828,0.046875,0.0097656,0.0576172,0.0117188v-0.1064453
		c0-0.0634766-0.0068359-0.1259766-0.0205078-0.1875s-0.0380859-0.1162109-0.0742188-0.1650391
		c-0.0351562-0.0478516-0.0839844-0.0859375-0.1455078-0.1142578c-0.0615234-0.0292969-0.1425781-0.0439453-0.2412109-0.0439453
		c-0.1259766,0-0.2363281,0.0087891-0.3310547,0.0273438c-0.0947266,0.0175781-0.1650391,0.0361328-0.2119141,0.0556641
		l-0.0449219-0.3173828c0.0488281-0.0214844,0.1318359-0.0429688,0.2470703-0.0634766S139.724823,37.4848328,139.8595886,37.4848328
		z M139.8927917,39.4028015c0.0898438,0,0.1708984-0.0019531,0.2402344-0.0068359
		c0.0703125-0.0039062,0.1279297-0.0117188,0.1748047-0.0224609v-0.6376953
		c-0.0273438-0.0136719-0.0722656-0.0253906-0.1337891-0.0351562s-0.1357422-0.0136719-0.2236328-0.0136719
		c-0.0576172,0-0.1191406,0.0039062-0.1835938,0.0117188c-0.0644531,0.0087891-0.1230469,0.0253906-0.1767578,0.0517578
		s-0.0976562,0.0615234-0.1337891,0.1064453c-0.0361328,0.0458984-0.0537109,0.1054688-0.0537109,0.1796875
		c0,0.1367188,0.0439453,0.2324219,0.1318359,0.2861328C139.6222839,39.3754578,139.7414246,39.4028015,139.8927917,39.4028015z"/>
	<path class="st11" d="M142.1066589,37.4936218c0.0332031,0,0.0703125,0.0019531,0.1132812,0.0058594
		c0.0419922,0.0039062,0.0839844,0.0097656,0.125,0.0166016c0.0419922,0.0068359,0.0791016,0.0136719,0.1132812,0.0205078
		s0.0595703,0.0126953,0.0761719,0.0185547l-0.0654297,0.3330078c-0.0302734-0.0107422-0.0800781-0.0234375-0.1503906-0.0390625
		c-0.0703125-0.0146484-0.1601562-0.0224609-0.2695312-0.0224609c-0.0712891,0-0.1416016,0.0078125-0.2119141,0.0224609
		c-0.0703125,0.015625-0.1162109,0.0253906-0.1376953,0.03125v1.7978516h-0.3828125V37.629364
		c0.0908203-0.0332031,0.203125-0.0644531,0.3378906-0.0927734
		C141.7882996,37.5072937,141.9396667,37.4936218,142.1066589,37.4936218z"/>
	<path class="st11" d="M143.677948,38.5014343c0.0820312,0.0634766,0.1699219,0.1416016,0.2617188,0.234375
		c0.0917969,0.09375,0.1826172,0.1943359,0.2714844,0.3027344s0.1728516,0.2177734,0.2529297,0.3291016
		c0.0791016,0.1113281,0.1464844,0.2148438,0.2011719,0.3105469h-0.4482422
		c-0.0576172-0.0957031-0.1240234-0.1943359-0.1992188-0.2939453c-0.0751953-0.1005859-0.1542969-0.1962891-0.2363281-0.2880859
		c-0.0830078-0.0917969-0.1660156-0.1767578-0.2509766-0.2529297c-0.0859375-0.0771484-0.1660156-0.1416016-0.2431641-0.1933594
		v1.0283203h-0.3828125V36.551239l0.3828125-0.0664062v1.9511719c0.0654297-0.0664062,0.1386719-0.1386719,0.2177734-0.21875
		c0.0800781-0.0791016,0.1582031-0.1601562,0.234375-0.2421875c0.0771484-0.0830078,0.1494141-0.1611328,0.21875-0.2373047
		c0.0683594-0.0751953,0.1269531-0.1416016,0.1767578-0.1992188h0.4482422
		c-0.0625,0.0683594-0.1318359,0.1435547-0.2050781,0.2265625c-0.0742188,0.0820312-0.1513672,0.1650391-0.2304688,0.2490234
		c-0.0800781,0.0830078-0.1601562,0.1669922-0.2412109,0.2509766
		C143.8254089,38.348114,143.7492371,38.4272156,143.677948,38.5014343z"/>
	<path class="st11" d="M144.8263855,38.6127625c0-0.1894531,0.0273438-0.3544922,0.0820312-0.4960938
		s0.1279297-0.2587891,0.2177734-0.3515625c0.0908203-0.09375,0.1953125-0.1630859,0.3134766-0.2099609
		c0.1171875-0.046875,0.2382812-0.0703125,0.3613281-0.0703125c0.2880859,0,0.5097656,0.0898438,0.6630859,0.2695312
		s0.2304688,0.453125,0.2304688,0.8212891c0,0.0166016,0,0.0371094,0,0.0634766s-0.0019531,0.0498047-0.0039062,0.0722656
		h-1.4648438c0.015625,0.2216797,0.0800781,0.390625,0.1933594,0.5058594
		c0.1123047,0.1152344,0.2880859,0.1728516,0.5263672,0.1728516c0.1347656,0,0.2470703-0.0117188,0.3398438-0.0351562
		c0.0917969-0.0234375,0.1611328-0.0458984,0.2070312-0.0673828l0.0537109,0.3203125
		c-0.046875,0.0253906-0.1279297,0.0507812-0.2451172,0.078125c-0.1162109,0.0273438-0.2480469,0.0419922-0.3964844,0.0419922
		c-0.1865234,0-0.3476562-0.0283203-0.4833984-0.0849609c-0.1357422-0.0556641-0.2480469-0.1337891-0.3359375-0.2324219
		s-0.1523438-0.2158203-0.1953125-0.3515625C144.8478699,38.9233093,144.8263855,38.7738953,144.8263855,38.6127625z
		 M146.2951355,38.4028015c0.0029297-0.1728516-0.0400391-0.3154297-0.1298828-0.4257812
		c-0.0888672-0.1113281-0.2119141-0.1669922-0.3681641-0.1669922c-0.0878906,0-0.1650391,0.0175781-0.2324219,0.0517578
		s-0.1240234,0.0791016-0.1708984,0.1337891c-0.0458984,0.0546875-0.0830078,0.1171875-0.1083984,0.1884766
		c-0.0263672,0.0722656-0.0439453,0.1445312-0.0517578,0.21875H146.2951355z"/>
	<path class="st11" d="M147.6037292,37.5385437h0.8105469v0.3212891h-0.8105469v0.9873047
		c0,0.1064453,0.0078125,0.1953125,0.0244141,0.265625c0.0166016,0.0693359,0.0410156,0.1240234,0.0742188,0.1640625
		c0.0322266,0.0400391,0.0742188,0.0683594,0.1230469,0.0849609c0.0498047,0.015625,0.1074219,0.0244141,0.1728516,0.0244141
		c0.1152344,0,0.2080078-0.0126953,0.2783203-0.0390625c0.0693359-0.0263672,0.1181641-0.0449219,0.1455078-0.0556641
		l0.0742188,0.3164062c-0.0380859,0.0195312-0.1054688,0.0439453-0.2011719,0.0722656
		c-0.0966797,0.0292969-0.2060547,0.0429688-0.3300781,0.0429688c-0.1445312,0-0.2646484-0.0185547-0.359375-0.0556641
		c-0.0947266-0.0361328-0.1708984-0.0917969-0.2285156-0.1660156s-0.0986328-0.1650391-0.1210938-0.2734375
		c-0.0234375-0.1083984-0.0351562-0.234375-0.0351562-0.3769531V36.941864l0.3828125-0.0654297V37.5385437z"/>
	<path class="st11" d="M150.7843933,38.6127625c0,0.1611328-0.0214844,0.3115234-0.0634766,0.4482422
		c-0.0429688,0.1367188-0.1054688,0.2548828-0.1875,0.3535156s-0.1835938,0.1757812-0.3027344,0.2304688
		s-0.2558594,0.0830078-0.4091797,0.0830078c-0.1230469,0-0.2324219-0.0166016-0.3271484-0.0498047
		s-0.1650391-0.0644531-0.2119141-0.0947266v0.8564453h-0.3828125v-2.8359375
		c0.0908203-0.0214844,0.2041016-0.0458984,0.3398438-0.0712891c0.1357422-0.0263672,0.2929688-0.0390625,0.4707031-0.0390625
		c0.1650391,0,0.3125,0.0253906,0.4443359,0.078125c0.1318359,0.0517578,0.2441406,0.1259766,0.3378906,0.2216797
		c0.0927734,0.0966797,0.1650391,0.2138672,0.2158203,0.3515625
		C150.7590027,38.2836609,150.7843933,38.4399109,150.7843933,38.6127625z M150.3849792,38.6127625
		c0-0.25-0.0615234-0.4423828-0.1845703-0.5761719c-0.1240234-0.1347656-0.2880859-0.2021484-0.4941406-0.2021484
		c-0.1152344,0-0.2050781,0.0048828-0.2695312,0.0126953s-0.1162109,0.0175781-0.1542969,0.0283203v1.3505859
		c0.046875,0.0380859,0.1132812,0.0751953,0.2011719,0.1103516c0.0878906,0.0361328,0.1845703,0.0537109,0.2880859,0.0537109
		c0.1103516,0,0.2041016-0.0195312,0.2822266-0.0595703s0.1416016-0.0947266,0.1914062-0.1650391
		c0.0488281-0.0693359,0.0849609-0.1513672,0.1064453-0.2460938
		C150.3742371,38.8246765,150.3849792,38.7221375,150.3849792,38.6127625z"/>
	<path class="st11" d="M151.9650574,39.7192078c-0.2353516-0.0058594-0.4033203-0.0556641-0.5019531-0.1523438
		c-0.0986328-0.0957031-0.1474609-0.2451172-0.1474609-0.4482422V36.551239l0.3828125-0.0664062v2.5722656
		c0,0.0625,0.0048828,0.1152344,0.015625,0.15625c0.0117188,0.0410156,0.0292969,0.0742188,0.0537109,0.0986328
		s0.0576172,0.0429688,0.0986328,0.0556641s0.0917969,0.0224609,0.1523438,0.0302734L151.9650574,39.7192078z"/>
	<path class="st11" d="M153.1379089,37.4848328c0.1533203,0,0.2832031,0.0205078,0.3886719,0.0595703
		c0.1054688,0.0400391,0.1904297,0.0966797,0.2548828,0.1689453c0.0644531,0.0732422,0.1103516,0.1591797,0.1386719,0.2587891
		c0.0273438,0.1005859,0.0410156,0.2109375,0.0410156,0.3320312v1.3369141
		c-0.0332031,0.0058594-0.0791016,0.0126953-0.1376953,0.0224609c-0.0595703,0.0097656-0.1259766,0.0185547-0.2001953,0.0273438
		c-0.0742188,0.0078125-0.1542969,0.015625-0.2402344,0.0224609c-0.0869141,0.0068359-0.1728516,0.0097656-0.2578125,0.0097656
		c-0.1201172,0-0.2314453-0.0117188-0.3330078-0.0371094c-0.1015625-0.0244141-0.1894531-0.0634766-0.2636719-0.1171875
		c-0.0732422-0.0527344-0.1308594-0.1240234-0.1728516-0.2119141c-0.0410156-0.0878906-0.0615234-0.1933594-0.0615234-0.3164062
		c0-0.1181641,0.0244141-0.2197266,0.0722656-0.3046875s0.1132812-0.1533203,0.1953125-0.2060547
		c0.0820312-0.0517578,0.1787109-0.0898438,0.2880859-0.1152344c0.109375-0.0244141,0.2246094-0.0361328,0.3457031-0.0361328
		c0.0380859,0,0.078125,0.0019531,0.1191406,0.0058594s0.0800781,0.0097656,0.1171875,0.0166016
		s0.0693359,0.0126953,0.0966797,0.0185547c0.0273438,0.0048828,0.046875,0.0097656,0.0576172,0.0117188v-0.1064453
		c0-0.0634766-0.0068359-0.1259766-0.0205078-0.1875s-0.0380859-0.1162109-0.0742188-0.1650391
		c-0.0351562-0.0478516-0.0839844-0.0859375-0.1455078-0.1142578c-0.0615234-0.0292969-0.1425781-0.0439453-0.2412109-0.0439453
		c-0.1259766,0-0.2363281,0.0087891-0.3310547,0.0273438c-0.0947266,0.0175781-0.1650391,0.0361328-0.2119141,0.0556641
		l-0.0449219-0.3173828c0.0488281-0.0214844,0.1318359-0.0429688,0.2470703-0.0634766
		S153.0031433,37.4848328,153.1379089,37.4848328z M153.1711121,39.4028015c0.0898438,0,0.1708984-0.0019531,0.2402344-0.0068359
		c0.0703125-0.0039062,0.1279297-0.0117188,0.1748047-0.0224609v-0.6376953
		c-0.0273438-0.0136719-0.0722656-0.0253906-0.1337891-0.0351562s-0.1357422-0.0136719-0.2236328-0.0136719
		c-0.0576172,0-0.1191406,0.0039062-0.1835938,0.0117188c-0.0644531,0.0087891-0.1230469,0.0253906-0.1767578,0.0517578
		s-0.0976562,0.0615234-0.1337891,0.1064453c-0.0361328,0.0458984-0.0537109,0.1054688-0.0537109,0.1796875
		c0,0.1367188,0.0439453,0.2324219,0.1318359,0.2861328C152.9006042,39.3754578,153.0197449,39.4028015,153.1711121,39.4028015z"/>
	<path class="st11" d="M155.5236511,39.7279968c-0.1728516,0-0.3242188-0.0283203-0.4541016-0.0830078
		c-0.1308594-0.0546875-0.2402344-0.1318359-0.3291016-0.2304688c-0.0898438-0.0986328-0.15625-0.2158203-0.2001953-0.3515625
		s-0.0654297-0.2861328-0.0654297-0.4501953c0-0.1650391,0.0234375-0.3154297,0.0722656-0.453125
		c0.0478516-0.1367188,0.1152344-0.2558594,0.203125-0.3554688c0.0878906-0.1005859,0.1953125-0.1787109,0.3232422-0.234375
		c0.1279297-0.0566406,0.2695312-0.0849609,0.4257812-0.0849609c0.0957031,0,0.1923828,0.0087891,0.2880859,0.0244141
		c0.0957031,0.0166016,0.1875,0.0429688,0.2753906,0.0791016l-0.0859375,0.3242188
		c-0.0576172-0.0273438-0.1240234-0.0488281-0.2001953-0.0654297c-0.0751953-0.0166016-0.1552734-0.0244141-0.2402344-0.0244141
		c-0.2138672,0-0.3779297,0.0673828-0.4921875,0.2011719c-0.1132812,0.1347656-0.1699219,0.3310547-0.1699219,0.5888672
		c0,0.1152344,0.0126953,0.2207031,0.0390625,0.3164062c0.0253906,0.0957031,0.0664062,0.1787109,0.1230469,0.2470703
		s0.1279297,0.1210938,0.2158203,0.1582031s0.1953125,0.0556641,0.3212891,0.0556641
		c0.1015625,0,0.1933594-0.0097656,0.2753906-0.0283203c0.0820312-0.0195312,0.1464844-0.0400391,0.1933594-0.0625
		l0.0537109,0.3212891c-0.0224609,0.0136719-0.0537109,0.0263672-0.0947266,0.0390625s-0.0878906,0.0234375-0.1396484,0.0332031
		c-0.0527344,0.0097656-0.1074219,0.0175781-0.1669922,0.0244141
		C155.6359558,39.7240906,155.5783386,39.7279968,155.5236511,39.7279968z"/>
	<path class="st11" d="M156.3888855,38.6127625c0-0.1894531,0.0273438-0.3544922,0.0820312-0.4960938
		s0.1279297-0.2587891,0.2177734-0.3515625c0.0908203-0.09375,0.1953125-0.1630859,0.3134766-0.2099609
		c0.1171875-0.046875,0.2382812-0.0703125,0.3613281-0.0703125c0.2880859,0,0.5097656,0.0898438,0.6630859,0.2695312
		s0.2304688,0.453125,0.2304688,0.8212891c0,0.0166016,0,0.0371094,0,0.0634766s-0.0019531,0.0498047-0.0039062,0.0722656
		h-1.4648438c0.015625,0.2216797,0.0800781,0.390625,0.1933594,0.5058594
		c0.1123047,0.1152344,0.2880859,0.1728516,0.5263672,0.1728516c0.1347656,0,0.2470703-0.0117188,0.3398438-0.0351562
		c0.0917969-0.0234375,0.1611328-0.0458984,0.2070312-0.0673828l0.0537109,0.3203125
		c-0.046875,0.0253906-0.1279297,0.0507812-0.2451172,0.078125c-0.1162109,0.0273438-0.2480469,0.0419922-0.3964844,0.0419922
		c-0.1865234,0-0.3476562-0.0283203-0.4833984-0.0849609c-0.1357422-0.0556641-0.2480469-0.1337891-0.3359375-0.2324219
		s-0.1523438-0.2158203-0.1953125-0.3515625C156.4103699,38.9233093,156.3888855,38.7738953,156.3888855,38.6127625z
		 M157.8576355,38.4028015c0.0029297-0.1728516-0.0400391-0.3154297-0.1298828-0.4257812
		c-0.0888672-0.1113281-0.2119141-0.1669922-0.3681641-0.1669922c-0.0878906,0-0.1650391,0.0175781-0.2324219,0.0517578
		s-0.1240234,0.0791016-0.1708984,0.1337891c-0.0458984,0.0546875-0.0830078,0.1171875-0.1083984,0.1884766
		c-0.0263672,0.0722656-0.0439453,0.1445312-0.0517578,0.21875H157.8576355z"/>
</g>
<g>
	<path class="st11" d="M70.0024185,29.4515839c0.4980469,0,0.9091797-0.0410156,1.2333984-0.1240234
		s0.5839844-0.1962891,0.7802734-0.3398438c0.1962891-0.1425781,0.3320312-0.3125,0.4072266-0.5087891
		c0.0751953-0.1953125,0.1132812-0.4140625,0.1132812-0.65625c0-0.5117188-0.2412109-0.9384766-0.7236328-1.2773438
		c-0.4833984-0.3398438-1.3125-0.7050781-2.4882812-1.0976562c-0.5136719-0.1806641-1.0263672-0.3876953-1.5390625-0.6220703
		c-0.5126953-0.2333984-0.9726562-0.5273438-1.3798828-0.8823242c-0.4072266-0.3540039-0.7392578-0.7836914-0.9951172-1.2895508
		c-0.2568359-0.5048828-0.3847656-1.1196289-0.3847656-1.84375c0-0.7236328,0.1357422-1.3759766,0.4072266-1.956543
		s0.65625-1.074707,1.1542969-1.4819336c0.4970703-0.4072266,1.1005859-0.7197266,1.8095703-0.9389648
		c0.7080078-0.2182617,1.5078125-0.3276367,2.3974609-0.3276367c1.0556641,0,1.96875,0.112793,2.7373047,0.3393555
		c0.7695312,0.2260742,1.4023438,0.4750977,1.9003906,0.7460938l-1.0175781,2.7827148
		c-0.4375-0.2260742-0.9238281-0.4257812-1.4589844-0.5996094c-0.5361328-0.1728516-1.1806641-0.2597656-1.9345703-0.2597656
		c-0.8447266,0-1.4521484,0.1166992-1.8212891,0.3505859c-0.3701172,0.2338867-0.5537109,0.5917969-0.5537109,1.0742188
		c0,0.2871094,0.0673828,0.5283203,0.203125,0.7241211c0.1357422,0.1962891,0.328125,0.3730469,0.5771484,0.5317383
		c0.2490234,0.1582031,0.5351562,0.3017578,0.859375,0.4296875c0.3242188,0.128418,0.6826172,0.2602539,1.0742188,0.3959961
		c0.8144531,0.3017578,1.5234375,0.5996094,2.1269531,0.8935547c0.6025391,0.2939453,1.1044922,0.637207,1.5039062,1.0288086
		c0.3994141,0.3925781,0.6982422,0.8525391,0.8935547,1.3808594c0.1962891,0.5273438,0.2949219,1.1689453,0.2949219,1.9228516
		c0,1.4628906-0.5136719,2.5976562-1.5390625,3.4042969s-2.5712891,1.2099609-4.6376953,1.2099609
		c-0.6933594,0-1.3193359-0.0410156-1.8769531-0.1240234c-0.5585938-0.0830078-1.0517578-0.1845703-1.4824219-0.3056641
		c-0.4296875-0.1201172-0.7988281-0.2490234-1.1083984-0.3847656c-0.3085938-0.1357422-0.5693359-0.2636719-0.7802734-0.3837891
		l0.9951172-2.8056641c0.4677734,0.2568359,1.0449219,0.4863281,1.7314453,0.6904297
		C68.166481,29.3500214,69.0073013,29.4515839,70.0024185,29.4515839z"/>
	<path class="st11" d="M83.1684341,29.4515839c0.4980469,0,0.9091797-0.0410156,1.2333984-0.1240234
		s0.5839844-0.1962891,0.7802734-0.3398438c0.1962891-0.1425781,0.3320312-0.3125,0.4072266-0.5087891
		c0.0751953-0.1953125,0.1132812-0.4140625,0.1132812-0.65625c0-0.5117188-0.2412109-0.9384766-0.7236328-1.2773438
		c-0.4833984-0.3398438-1.3125-0.7050781-2.4882812-1.0976562c-0.5136719-0.1806641-1.0263672-0.3876953-1.5390625-0.6220703
		c-0.5126953-0.2333984-0.9726562-0.5273438-1.3798828-0.8823242c-0.4072266-0.3540039-0.7392578-0.7836914-0.9951172-1.2895508
		c-0.2568359-0.5048828-0.3847656-1.1196289-0.3847656-1.84375c0-0.7236328,0.1357422-1.3759766,0.4072266-1.956543
		s0.65625-1.074707,1.1542969-1.4819336c0.4970703-0.4072266,1.1005859-0.7197266,1.8095703-0.9389648
		c0.7080078-0.2182617,1.5078125-0.3276367,2.3974609-0.3276367c1.0556641,0,1.96875,0.112793,2.7373047,0.3393555
		c0.7695312,0.2260742,1.4023438,0.4750977,1.9003906,0.7460938l-1.0175781,2.7827148
		c-0.4375-0.2260742-0.9238281-0.4257812-1.4589844-0.5996094c-0.5361328-0.1728516-1.1806641-0.2597656-1.9345703-0.2597656
		c-0.8447266,0-1.4521484,0.1166992-1.8212891,0.3505859c-0.3701172,0.2338867-0.5537109,0.5917969-0.5537109,1.0742188
		c0,0.2871094,0.0673828,0.5283203,0.203125,0.7241211c0.1357422,0.1962891,0.328125,0.3730469,0.5771484,0.5317383
		c0.2490234,0.1582031,0.5351562,0.3017578,0.859375,0.4296875c0.3242188,0.128418,0.6826172,0.2602539,1.0742188,0.3959961
		c0.8144531,0.3017578,1.5234375,0.5996094,2.1269531,0.8935547c0.6025391,0.2939453,1.1044922,0.637207,1.5039062,1.0288086
		c0.3994141,0.3925781,0.6982422,0.8525391,0.8935547,1.3808594c0.1962891,0.5273438,0.2949219,1.1689453,0.2949219,1.9228516
		c0,1.4628906-0.5136719,2.5976562-1.5390625,3.4042969s-2.5712891,1.2099609-4.6376953,1.2099609
		c-0.6933594,0-1.3193359-0.0410156-1.8769531-0.1240234c-0.5585938-0.0830078-1.0517578-0.1845703-1.4824219-0.3056641
		c-0.4296875-0.1201172-0.7988281-0.2490234-1.1083984-0.3847656c-0.3085938-0.1357422-0.5693359-0.2636719-0.7802734-0.3837891
		l0.9951172-2.8056641c0.4677734,0.2568359,1.0449219,0.4863281,1.7314453,0.6904297
		C81.3324966,29.3500214,82.173317,29.4515839,83.1684341,29.4515839z"/>
	<path class="st11" d="M101.5151138,16.4667206h3.5292969v15.6772461h-3.5292969v-6.6513672H95.588356v6.6513672h-3.5292969
		V16.4667206h3.5292969v5.9951172h5.9267578V16.4667206z"/>
</g>
<g>
	<path class="st11" d="M115.4028091,19.2909393c0,0.4907227-0.0732422,0.921875-0.2197266,1.2939453
		c-0.1455078,0.3720703-0.3457031,0.6835938-0.5996094,0.9345703c-0.2529297,0.2504883-0.5546875,0.4394531-0.9052734,0.5664062
		c-0.3496094,0.1264648-0.7265625,0.1899414-1.1279297,0.1899414c-0.3916016,0-0.7607422-0.0634766-1.1083984-0.1899414
		c-0.3476562-0.1269531-0.6503906-0.315918-0.9091797-0.5664062c-0.2597656-0.2509766-0.4638672-0.5625-0.6123047-0.9345703
		s-0.2236328-0.8032227-0.2236328-1.2939453s0.0771484-0.921875,0.2314453-1.2939453s0.3632812-0.6850586,0.625-0.9384766
		c0.2617188-0.2539062,0.5644531-0.4438477,0.9091797-0.5708008c0.3447266-0.1264648,0.7070312-0.1899414,1.0878906-0.1899414
		c0.390625,0,0.7597656,0.0634766,1.1074219,0.1899414c0.3476562,0.1269531,0.6503906,0.3168945,0.9101562,0.5708008
		c0.2587891,0.253418,0.4628906,0.5664062,0.6113281,0.9384766S115.4028091,18.8002167,115.4028091,19.2909393z
		 M111.0287857,19.2909393c0,0.28125,0.0341797,0.534668,0.1025391,0.7607422
		c0.0693359,0.2260742,0.1689453,0.4204102,0.2978516,0.5830078c0.1298828,0.1625977,0.2880859,0.2880859,0.4755859,0.3759766
		c0.1875,0.0883789,0.4023438,0.1323242,0.6455078,0.1323242c0.2363281,0,0.4501953-0.0439453,0.640625-0.1323242
		c0.1894531-0.0878906,0.3496094-0.2133789,0.4794922-0.3759766c0.1289062-0.1625977,0.2285156-0.3569336,0.2978516-0.5830078
		c0.0683594-0.2260742,0.1025391-0.4794922,0.1025391-0.7607422s-0.0341797-0.5361328-0.1025391-0.7651367
		c-0.0693359-0.2285156-0.1689453-0.4243164-0.2978516-0.5869141c-0.1298828-0.1625977-0.2900391-0.2880859-0.4794922-0.3759766
		c-0.1904297-0.0883789-0.4042969-0.1323242-0.640625-0.1323242c-0.2431641,0-0.4580078,0.0454102-0.6455078,0.1362305
		s-0.3457031,0.2177734-0.4755859,0.3803711c-0.1289062,0.1625977-0.2285156,0.3583984-0.2978516,0.5869141
		C111.0629654,18.7631073,111.0287857,19.0150604,111.0287857,19.2909393z"/>
	<path class="st11" d="M120.4379654,19.9852753c0,0.3364258-0.0410156,0.6425781-0.1240234,0.9179688
		c-0.0830078,0.2758789-0.2041016,0.5126953-0.3632812,0.7109375c-0.1601562,0.1987305-0.3583984,0.3530273-0.5957031,0.4633789
		c-0.2373047,0.1098633-0.5097656,0.1650391-0.8183594,0.1650391c-0.1708984,0-0.3310547-0.0166016-0.4794922-0.0493164
		c-0.1494141-0.0332031-0.2929688-0.0800781-0.4306641-0.140625v1.637207h-1.2314453v-5.7304688
		c0.1103516-0.0327148,0.2363281-0.0644531,0.3798828-0.0947266s0.2939453-0.0566406,0.4511719-0.0786133
		s0.3164062-0.0400391,0.4794922-0.0537109c0.1621094-0.0136719,0.3183594-0.0209961,0.4667969-0.0209961
		c0.3583984,0,0.6777344,0.0537109,0.9589844,0.1616211c0.28125,0.1074219,0.5185547,0.2587891,0.7109375,0.4545898
		c0.1933594,0.1958008,0.3408203,0.434082,0.4423828,0.715332
		C120.3871841,19.3241425,120.4379654,19.6381073,120.4379654,19.9852753z M119.1811295,20.0184784
		c0-0.3803711-0.0849609-0.6850586-0.2558594-0.9135742c-0.1708984-0.2290039-0.4248047-0.3432617-0.7607422-0.3432617
		c-0.1103516,0-0.2128906,0.0039062-0.3066406,0.012207s-0.1708984,0.0180664-0.2314453,0.0292969v2.2241211
		c0.0771484,0.0498047,0.1777344,0.0908203,0.3017578,0.1240234s0.25,0.0498047,0.3769531,0.0498047
		C118.8891373,21.2010956,119.1811295,20.8070526,119.1811295,20.0184784z"/>
	<path class="st11" d="M121.182106,20.0184784c0-0.3857422,0.0595703-0.7236328,0.1777344-1.0126953
		c0.1181641-0.2895508,0.2744141-0.5307617,0.4667969-0.7236328c0.1933594-0.1928711,0.4150391-0.3388672,0.6660156-0.4384766
		c0.2509766-0.0991211,0.5087891-0.1489258,0.7734375-0.1489258c0.6171875,0,1.1044922,0.1889648,1.4628906,0.5664062
		c0.3583984,0.3779297,0.5380859,0.9331055,0.5380859,1.6665039c0,0.0717773-0.0029297,0.1499023-0.0087891,0.2353516
		c-0.0048828,0.0859375-0.0107422,0.1616211-0.0166016,0.2275391h-2.7949219
		c0.0283203,0.253418,0.1464844,0.4545898,0.3564453,0.6035156c0.2089844,0.1489258,0.4902344,0.2231445,0.8427734,0.2231445
		c0.2265625,0,0.4482422-0.0205078,0.6660156-0.0620117c0.2177734-0.0410156,0.3955078-0.0917969,0.5332031-0.152832
		l0.1650391,1.0004883c-0.0654297,0.0332031-0.1542969,0.0664062-0.2646484,0.0991211
		c-0.1103516,0.0332031-0.2324219,0.0620117-0.3671875,0.0869141c-0.1357422,0.0249023-0.2802734,0.0454102-0.4345703,0.0620117
		s-0.3085938,0.0249023-0.4628906,0.0249023c-0.3916016,0-0.7314453-0.0576172-1.0214844-0.1738281
		c-0.2890625-0.1157227-0.5292969-0.2739258-0.71875-0.4750977c-0.1904297-0.2011719-0.3310547-0.4394531-0.421875-0.715332
		C121.2280045,20.6361542,121.182106,20.3383026,121.182106,20.0184784z M124.0766373,19.547287
		c-0.0058594-0.1049805-0.0244141-0.2070312-0.0546875-0.3061523s-0.0771484-0.1870117-0.1396484-0.2646484
		c-0.0634766-0.0771484-0.1435547-0.140625-0.2402344-0.1899414c-0.0966797-0.0498047-0.2167969-0.074707-0.359375-0.074707
		c-0.1376953,0-0.2568359,0.0239258-0.3554688,0.0703125c-0.0996094,0.046875-0.1826172,0.1088867-0.2480469,0.1860352
		c-0.0664062,0.0776367-0.1171875,0.1669922-0.1533203,0.269043s-0.0625,0.2050781-0.0791016,0.3100586H124.0766373z"/>
	<path class="st11" d="M126.2182388,17.9593964c0.2089844-0.0605469,0.4794922-0.1166992,0.8095703-0.1694336
		c0.3310547-0.0522461,0.6787109-0.0786133,1.0419846-0.0786133c0.3691406,0,0.6767578,0.0483398,0.921875,0.1450195
		c0.2460938,0.0961914,0.4404297,0.2329102,0.5830078,0.4091797c0.1435547,0.1762695,0.2451172,0.3857422,0.3066406,0.628418
		c0.0605469,0.2426758,0.0908203,0.5126953,0.0908203,0.8105469V22.16008h-1.2324219V19.852951
		c0-0.3969727-0.0527344-0.6777344-0.1572266-0.8432617s-0.2998047-0.2480469-0.5869064-0.2480469
		c-0.0878906,0-0.1816406,0.0039062-0.28125,0.012207c-0.0986328,0.0083008-0.1875,0.0180664-0.2646484,0.0292969V22.16008
		h-1.2314453V17.9593964z"/>
	<path class="st11" d="M111.4662857,26.3519745c0.0996094,0.1826172,0.2148438,0.4072266,0.3447266,0.6738281
		c0.1298828,0.2675781,0.2646484,0.5576172,0.40625,0.8681641c0.140625,0.3115234,0.2802734,0.6298828,0.4179688,0.9550781
		c0.1386719,0.3251953,0.2685547,0.6318359,0.3896484,0.9179688c0.1220703-0.2861328,0.2519531-0.5927734,0.3896484-0.9179688
		c0.1386719-0.3251953,0.2783203-0.6435547,0.4189453-0.9550781c0.140625-0.3105469,0.2763672-0.6005859,0.40625-0.8681641
		c0.1298828-0.2666016,0.2451172-0.4912109,0.34375-0.6738281h1.1748047
		c0.0546875,0.3808594,0.1054688,0.8066406,0.1523438,1.2773438c0.046875,0.4716797,0.0888672,0.9628906,0.1240234,1.4726562
		c0.0361328,0.5097656,0.0693359,1.0205078,0.0996094,1.5332031s0.0566406,0.9951172,0.078125,1.4472656h-1.2568359
		c-0.015625-0.5566406-0.0380859-1.1630859-0.0654297-1.8193359c-0.0283203-0.6552734-0.0693359-1.3173828-0.1240234-1.984375
		c-0.0996094,0.2314453-0.2109375,0.4882812-0.3320312,0.7695312c-0.1220703,0.2802734-0.2421875,0.5615234-0.3613281,0.8427734
		c-0.1181641,0.28125-0.2333984,0.5498047-0.34375,0.8066406c-0.1103516,0.2558594-0.2050781,0.4755859-0.2822266,0.6572266
		h-0.9013672c-0.0771484-0.1816406-0.1708984-0.4013672-0.2822266-0.6572266
		c-0.1103516-0.2568359-0.2246094-0.5253906-0.34375-0.8066406s-0.2392578-0.5625-0.3603516-0.8427734
		c-0.1220703-0.28125-0.2324219-0.5380859-0.3320312-0.7695312c-0.0556641,0.6669922-0.0966797,1.3291016-0.1240234,1.984375
		c-0.0283203,0.65625-0.0498047,1.2626953-0.0664062,1.8193359h-1.2568359
		c0.0224609-0.4521484,0.0478516-0.9345703,0.078125-1.4472656s0.0634766-1.0234375,0.0996094-1.5332031
		s0.0771484-1.0009766,0.1240234-1.4726562c0.046875-0.4707031,0.0976562-0.8964844,0.1533203-1.2773438H111.4662857z"/>
	<path class="st11" d="M118.8422623,27.6175995c0.3642578,0,0.6669922,0.0410156,0.9091797,0.1240234
		c0.2431641,0.0820312,0.4375,0.2011719,0.5830078,0.3554688c0.1464844,0.1542969,0.25,0.3417969,0.3105469,0.5625
		c0.0605469,0.2197266,0.0908203,0.4658203,0.0908203,0.7353516v2.5634766
		c-0.1767578,0.0390625-0.421875,0.0839844-0.7363281,0.1367188c-0.3134766,0.0517578-0.6943359,0.078125-1.140625,0.078125
		c-0.28125,0-0.5361328-0.0244141-0.7646484-0.0742188c-0.2294922-0.0498047-0.4257812-0.1308594-0.5917969-0.2441406
		c-0.1650391-0.1123047-0.2919922-0.2607422-0.3798828-0.4423828c-0.0888672-0.1816406-0.1328125-0.4052734-0.1328125-0.6699219
		c0-0.2529297,0.0507812-0.4677734,0.1533203-0.6445312c0.1015625-0.1767578,0.2382812-0.3173828,0.4091797-0.421875
		s0.3662109-0.1806641,0.5869141-0.2275391s0.4492188-0.0703125,0.6865234-0.0703125
		c0.1601562,0,0.3017578,0.0068359,0.4257812,0.0205078c0.1240234,0.0146484,0.2246094,0.0322266,0.3017578,0.0537109V29.337326
		c0-0.2099609-0.0634766-0.3779297-0.1904297-0.5048828c-0.1259766-0.1259766-0.3466797-0.1894531-0.6611328-0.1894531
		c-0.2099609,0-0.4160156,0.0146484-0.6201172,0.0449219s-0.3798828,0.0732422-0.5292969,0.1279297l-0.1572266-0.9921875
		c0.0722656-0.0214844,0.1611328-0.0449219,0.2685547-0.0703125c0.1074219-0.0244141,0.2246094-0.0458984,0.3515625-0.0654297
		s0.2607422-0.0361328,0.4013672-0.0498047S118.6987076,27.6175995,118.8422623,27.6175995z M118.9418716,31.2220917
		c0.1210938,0,0.2363281-0.0019531,0.3466797-0.0078125s0.1982422-0.0136719,0.2646484-0.0244141v-0.9345703
		c-0.0498047-0.0107422-0.1240234-0.0224609-0.2226562-0.0332031c-0.0996094-0.0107422-0.1904297-0.0166016-0.2734375-0.0166016
		c-0.1152344,0-0.2246094,0.0068359-0.3261719,0.0205078c-0.1025391,0.0136719-0.1923828,0.0400391-0.2685547,0.0791016
		c-0.078125,0.0380859-0.1386719,0.0908203-0.1826172,0.15625c-0.0439453,0.0664062-0.0664062,0.1494141-0.0664062,0.2480469
		c0,0.1933594,0.0654297,0.3271484,0.1943359,0.4013672C118.5375748,31.1849823,118.7153091,31.2220917,118.9418716,31.2220917z"/>
	<path class="st11" d="M124.4731216,28.8246307c-0.1103516-0.0273438-0.2402344-0.0566406-0.3886719-0.0869141
		c-0.1494141-0.0302734-0.3085938-0.0458984-0.4794922-0.0458984c-0.0771484,0-0.1699219,0.0078125-0.2773438,0.0214844
		s-0.1884766,0.0283203-0.2441406,0.0449219v3.3242188h-1.2314453v-4.1181641
		c0.2197266-0.0771484,0.4804688-0.1494141,0.78125-0.21875c0.2998047-0.0693359,0.6347656-0.1035156,1.0048828-0.1035156
		c0.0654297,0,0.1455078,0.0039062,0.2392578,0.0126953c0.09375,0.0078125,0.1875,0.0195312,0.28125,0.0332031
		s0.1875,0.0302734,0.28125,0.0498047c0.09375,0.0185547,0.1738281,0.0419922,0.2392578,0.0693359L124.4731216,28.8246307z"/>
	<path class="st11" d="M126.572731,29.2953339c0.1210938-0.1318359,0.2470703-0.2685547,0.3759766-0.4111328
		c0.1298828-0.1425781,0.2548828-0.2841797,0.3759766-0.4238281s0.2353516-0.2724609,0.3427734-0.3984375
		s0.1992188-0.2353516,0.2763672-0.3291016h1.4658127c-0.2929688,0.3359375-0.578125,0.65625-0.8564453,0.9619141
		c-0.2783203,0.3046875-0.5830002,0.6201172-0.9130783,0.9443359c0.1650391,0.1494141,0.3359375,0.3271484,0.5126877,0.5341797
		c0.1757812,0.2070312,0.3466797,0.4208984,0.5117188,0.6416016c0.1660156,0.2216797,0.3173828,0.4423828,0.4550781,0.6630859
		s0.2539062,0.421875,0.3476562,0.6044922h-1.4169922c-0.087883-0.1435547-0.1884689-0.3027344-0.3007736-0.4765625
		c-0.1132812-0.1738281-0.2324219-0.3476562-0.359375-0.5224609c-0.1269531-0.1738281-0.2597656-0.3408203-0.4003906-0.5009766
		s-0.2792969-0.2958984-0.4169922-0.40625v1.90625h-1.2314453v-6.2177734l1.2314453-0.1982422V29.2953339z"/>
	<path class="st11" d="M129.6244812,29.9408417c0-0.3857422,0.0595703-0.7236328,0.1777344-1.0126953
		c0.1181641-0.2900391,0.2744141-0.5302734,0.4667969-0.7236328c0.1933594-0.1933594,0.4150391-0.3388672,0.6660156-0.4384766
		c0.2509766-0.0986328,0.5087891-0.1484375,0.7734375-0.1484375c0.6171875,0,1.1044922,0.1884766,1.4628906,0.5664062
		c0.3583984,0.3769531,0.5380859,0.9326172,0.5380859,1.6660156c0,0.0712891-0.0029297,0.1503906-0.0087891,0.2353516
		c-0.0048828,0.0859375-0.0107422,0.1611328-0.0166016,0.2275391h-2.7949219
		c0.0283203,0.2539062,0.1464844,0.4550781,0.3564453,0.6035156c0.2089844,0.1494141,0.4902344,0.2236328,0.8427734,0.2236328
		c0.2265625,0,0.4482422-0.0205078,0.6660156-0.0625c0.2177734-0.0410156,0.3955078-0.0917969,0.5332031-0.1523438l0.1650391,1
		c-0.0654297,0.0332031-0.1542969,0.0664062-0.2646484,0.0996094s-0.2324219,0.0615234-0.3671875,0.0869141
		c-0.1357422,0.0244141-0.2802734,0.0449219-0.4345703,0.0615234s-0.3085938,0.0253906-0.4628906,0.0253906
		c-0.3916016,0-0.7314453-0.0585938-1.0214844-0.1738281c-0.2890625-0.1162109-0.5292969-0.2744141-0.71875-0.4755859
		c-0.1904297-0.2011719-0.3310547-0.4394531-0.421875-0.7158203
		C129.6703796,30.5580292,129.6244812,30.2601776,129.6244812,29.9408417z M132.5190125,29.469162
		c-0.0058594-0.1044922-0.0244141-0.2060547-0.0546875-0.3056641s-0.0771484-0.1875-0.1396484-0.2646484
		c-0.0634766-0.0771484-0.1435547-0.140625-0.2402344-0.1904297c-0.0966797-0.0488281-0.2167969-0.0742188-0.359375-0.0742188
		c-0.1376953,0-0.2568359,0.0234375-0.3554688,0.0703125c-0.0996094,0.046875-0.1826172,0.109375-0.2480469,0.1865234
		c-0.0664062,0.0771484-0.1171875,0.1660156-0.1533203,0.2685547c-0.0361328,0.1015625-0.0625,0.2050781-0.0791016,0.3095703
		H132.5190125z"/>
	<path class="st11" d="M134.6186218,26.649826l1.2324219-0.1982422v1.28125h1.4804688v1.0253906h-1.4804688v1.5302734
		c0,0.2587891,0.0458984,0.4658203,0.1367188,0.6201172s0.2734375,0.2314453,0.5498047,0.2314453
		c0.1318359,0,0.2685547-0.0126953,0.4091797-0.0371094c0.140625-0.0253906,0.2685547-0.0595703,0.3847656-0.1035156
		l0.1728516,0.9589844c-0.1484375,0.0605469-0.3134766,0.1132812-0.4960938,0.1572266
		c-0.1816406,0.0439453-0.4052734,0.0664062-0.6689453,0.0664062c-0.3369141,0-0.6152344-0.0458984-0.8359375-0.1367188
		c-0.2197266-0.0908203-0.3964844-0.2177734-0.5292969-0.3808594c-0.1318359-0.1621094-0.2246094-0.359375-0.2763672-0.5908203
		c-0.0527344-0.2314453-0.0791016-0.4882812-0.0791016-0.7685547V26.649826z"/>
	<path class="st11" d="M142.3744812,29.9076385c0,0.3369141-0.0410156,0.6425781-0.1240234,0.9179688
		s-0.2041016,0.5126953-0.3632812,0.7109375c-0.1601562,0.1982422-0.3583984,0.3525391-0.5957031,0.4628906
		s-0.5097656,0.1660156-0.8183594,0.1660156c-0.1708984,0-0.3310547-0.0166016-0.4794922-0.0498047
		c-0.1494141-0.0332031-0.2929688-0.0800781-0.4306641-0.140625v1.6367188h-1.2314453v-5.7294922
		c0.1103516-0.0332031,0.2363281-0.0654297,0.3798828-0.0957031s0.2939453-0.0556641,0.4511719-0.078125
		s0.3164062-0.0400391,0.4794922-0.0537109c0.1621094-0.0136719,0.3183594-0.0205078,0.4667969-0.0205078
		c0.3583984,0,0.6777344,0.0537109,0.9589844,0.1611328s0.5185547,0.2587891,0.7109375,0.4541016
		c0.1933594,0.1962891,0.3408203,0.4345703,0.4423828,0.7158203C142.3237,29.2465057,142.3744812,29.5609589,142.3744812,29.9076385
		z M141.1176453,29.9408417c0-0.3798828-0.0849609-0.6845703-0.2558594-0.9140625
		c-0.1708984-0.2285156-0.4248047-0.3427734-0.7607422-0.3427734c-0.1103516,0-0.2128906,0.0039062-0.3066406,0.0126953
		c-0.09375,0.0078125-0.1708984,0.0175781-0.2314453,0.0283203v2.2246094
		c0.0771484,0.0498047,0.1777344,0.0908203,0.3017578,0.1240234s0.25,0.0498047,0.3769531,0.0498047
		C140.8256531,31.1234589,141.1176453,30.7289276,141.1176453,29.9408417z"/>
	<path class="st11" d="M145.0619812,32.165451c-0.3583984-0.0058594-0.6494141-0.0449219-0.8720703-0.1162109
		c-0.2236328-0.0712891-0.4003906-0.171875-0.5292969-0.3017578c-0.1298828-0.1289062-0.2177734-0.2861328-0.2646484-0.4716797
		c-0.046875-0.1845703-0.0703125-0.3925781-0.0703125-0.6240234v-4.7871094l1.2314453-0.1982422v4.7373047
		c0,0.1103516,0.0087891,0.2099609,0.0253906,0.2978516s0.0478516,0.1630859,0.0947266,0.2236328
		s0.1142578,0.1103516,0.203125,0.1484375c0.0878906,0.0390625,0.2060547,0.0634766,0.3554688,0.0742188L145.0619812,32.165451z"/>
	<path class="st11" d="M147.6254578,27.6175995c0.3642578,0,0.6669922,0.0410156,0.9091797,0.1240234
		c0.2431641,0.0820312,0.4375,0.2011719,0.5830078,0.3554688c0.1464844,0.1542969,0.25,0.3417969,0.3105469,0.5625
		c0.0605469,0.2197266,0.0908203,0.4658203,0.0908203,0.7353516v2.5634766
		c-0.1767578,0.0390625-0.421875,0.0839844-0.7363281,0.1367188c-0.3134766,0.0517578-0.6943359,0.078125-1.140625,0.078125
		c-0.28125,0-0.5361328-0.0244141-0.7646484-0.0742188c-0.2294922-0.0498047-0.4257812-0.1308594-0.5917969-0.2441406
		c-0.1650391-0.1123047-0.2919922-0.2607422-0.3798828-0.4423828c-0.0888672-0.1816406-0.1328125-0.4052734-0.1328125-0.6699219
		c0-0.2529297,0.0507812-0.4677734,0.1533203-0.6445312c0.1015625-0.1767578,0.2382812-0.3173828,0.4091797-0.421875
		s0.3662109-0.1806641,0.5869141-0.2275391s0.4492188-0.0703125,0.6865234-0.0703125
		c0.1601562,0,0.3017578,0.0068359,0.4257812,0.0205078c0.1240234,0.0146484,0.2246094,0.0322266,0.3017578,0.0537109V29.337326
		c0-0.2099609-0.0634766-0.3779297-0.1904297-0.5048828c-0.1259766-0.1259766-0.3466797-0.1894531-0.6611328-0.1894531
		c-0.2099609,0-0.4160156,0.0146484-0.6201172,0.0449219s-0.3798828,0.0732422-0.5292969,0.1279297l-0.1572266-0.9921875
		c0.0722656-0.0214844,0.1611328-0.0449219,0.2685547-0.0703125c0.1074219-0.0244141,0.2246094-0.0458984,0.3515625-0.0654297
		s0.2607422-0.0361328,0.4013672-0.0498047S147.4819031,27.6175995,147.6254578,27.6175995z M147.7250671,31.2220917
		c0.1210938,0,0.2363281-0.0019531,0.3466797-0.0078125s0.1982422-0.0136719,0.2646484-0.0244141v-0.9345703
		c-0.0498047-0.0107422-0.1240234-0.0224609-0.2226562-0.0332031c-0.0996094-0.0107422-0.1904297-0.0166016-0.2734375-0.0166016
		c-0.1152344,0-0.2246094,0.0068359-0.3261719,0.0205078c-0.1025391,0.0136719-0.1923828,0.0400391-0.2685547,0.0791016
		c-0.078125,0.0380859-0.1386719,0.0908203-0.1826172,0.15625c-0.0439453,0.0664062-0.0664062,0.1494141-0.0664062,0.2480469
		c0,0.1933594,0.0654297,0.3271484,0.1943359,0.4013672C147.3207703,31.1849823,147.4985046,31.2220917,147.7250671,31.2220917z"/>
	<path class="st11" d="M150.4281921,29.9076385c0-0.3144531,0.0507812-0.6103516,0.1533203-0.8886719
		c0.1015625-0.2783203,0.2490234-0.5214844,0.4423828-0.7275391c0.1923828-0.2070312,0.4267578-0.3710938,0.7021484-0.4921875
		c0.2763672-0.1210938,0.5898438-0.1816406,0.9433594-0.1816406c0.2314453,0,0.4433594,0.0205078,0.6367188,0.0615234
		c0.1923828,0.0419922,0.3798828,0.1005859,0.5615234,0.1777344l-0.2558594,0.984375
		c-0.1162109-0.0439453-0.2431641-0.0830078-0.3808594-0.1162109s-0.2919922-0.0488281-0.4628906-0.0488281
		c-0.3632812,0-0.6347656,0.1123047-0.8144531,0.3388672c-0.1787109,0.2255859-0.2685547,0.5234375-0.2685547,0.8925781
		c0,0.3916016,0.0839844,0.6943359,0.2519531,0.9101562c0.1679688,0.2148438,0.4619141,0.3222656,0.8808594,0.3222656
		c0.1484375,0,0.3085938-0.0136719,0.4794922-0.0419922c0.1708984-0.0273438,0.328125-0.0712891,0.4716797-0.1318359
		l0.1738281,1.0087891c-0.1435547,0.0605469-0.3232422,0.1132812-0.5380859,0.1572266s-0.4521484,0.0664062-0.7109375,0.0664062
		c-0.3964844,0-0.7382812-0.0595703-1.0253906-0.1787109c-0.2861328-0.1181641-0.5224609-0.2792969-0.7070312-0.4833984
		s-0.3193359-0.4453125-0.4052734-0.7236328C150.4711609,30.5345917,150.4281921,30.2328339,150.4281921,29.9076385z"/>
	<path class="st11" d="M154.3559265,29.9408417c0-0.3857422,0.0595703-0.7236328,0.1777344-1.0126953
		c0.1181641-0.2900391,0.2744141-0.5302734,0.4667969-0.7236328c0.1933594-0.1933594,0.4150391-0.3388672,0.6660156-0.4384766
		c0.2509766-0.0986328,0.5087891-0.1484375,0.7734375-0.1484375c0.6171875,0,1.1044922,0.1884766,1.4628906,0.5664062
		c0.3583984,0.3769531,0.5380859,0.9326172,0.5380859,1.6660156c0,0.0712891-0.0029297,0.1503906-0.0087891,0.2353516
		c-0.0048828,0.0859375-0.0107422,0.1611328-0.0166016,0.2275391h-2.7949219
		c0.0283203,0.2539062,0.1464844,0.4550781,0.3564453,0.6035156c0.2089844,0.1494141,0.4902344,0.2236328,0.8427734,0.2236328
		c0.2265625,0,0.4482422-0.0205078,0.6660156-0.0625c0.2177734-0.0410156,0.3955078-0.0917969,0.5332031-0.1523438l0.1650391,1
		c-0.0654297,0.0332031-0.1542969,0.0664062-0.2646484,0.0996094s-0.2324219,0.0615234-0.3671875,0.0869141
		c-0.1357422,0.0244141-0.2802734,0.0449219-0.4345703,0.0615234s-0.3085938,0.0253906-0.4628906,0.0253906
		c-0.3916016,0-0.7314453-0.0585938-1.0214844-0.1738281c-0.2890625-0.1162109-0.5292969-0.2744141-0.71875-0.4755859
		c-0.1904297-0.2011719-0.3310547-0.4394531-0.421875-0.7158203
		C154.401825,30.5580292,154.3559265,30.2601776,154.3559265,29.9408417z M157.2504578,29.469162
		c-0.0058594-0.1044922-0.0244141-0.2060547-0.0546875-0.3056641s-0.0771484-0.1875-0.1396484-0.2646484
		c-0.0634766-0.0771484-0.1435547-0.140625-0.2402344-0.1904297c-0.0966797-0.0488281-0.2167969-0.0742188-0.359375-0.0742188
		c-0.1376953,0-0.2568359,0.0234375-0.3554688,0.0703125c-0.0996094,0.046875-0.1826172,0.109375-0.2480469,0.1865234
		c-0.0664062,0.0771484-0.1171875,0.1660156-0.1533203,0.2685547c-0.0361328,0.1015625-0.0625,0.2050781-0.0791016,0.3095703
		H157.2504578z"/>
</g>
<path class="st11" d="M32.2300644,16.8654423c0.4114075,0.7006474,1.3129425,0.9349651,2.0134583,0.5233593
	c0.7005806-0.4116726,0.9348984-1.3132095,0.5234261-2.0139217l-2.9769077-5.0695515
	c-0.4114094-0.7005806-1.3129444-0.93503-2.0135269-0.5235558l-0.0001316,0.0000658
	c-0.7005787,0.4114742-0.9350319,1.3129454-0.5235558,2.0135918L32.2300644,16.8654423z"/>
<path class="st11" d="M25.3054428,15.9344587l3.5655308,6.0719481c0.4079304,0.6947231,1.3018456,0.9271908,1.9965687,0.5192604
	v-0.0000648c0.6947231-0.4079304,0.9271908-1.3018456,0.5192623-1.9965057l-3.5655975-6.0720119
	c-0.4079304-0.6947231-1.3018456-0.9271908-1.9965706-0.5192604C25.1299133,14.3458185,24.8974457,15.2396698,25.3054428,15.9344587
	z"/>
<path class="st11" d="M64.9588928,9.9182539c-0.1126251-0.195158-0.3530579-0.3458395-0.8296509-0.334403h-0.8668365h-18.953064
	l-1.8703804,0.015851c-1.2876511-0.0324373-1.7324066,0.8826218-1.7324066,0.8826218l-0.6918106,1.2130785l-8.6085911,14.8579712
	l-0.1889362,0.3313255l-0.6913433,1.1948204c-0.2285309,0.4008141-0.5377197,0.1391106-0.5980453-0.0052166l-10.312706-17.6438103
	c-0.4701023-0.8143368-1.5113659-1.0932961-2.3256359-0.6231928c-0.81427,0.47017-1.0933628,1.5114326-0.6231918,2.3257027
	l3.7382183,6.2565365l7.374445,12.8533611c0.2027149,0.3080521,0.6810436,0.8426952,1.5852013,0.8426952h2.8491096h17.2740936
	h2.2774162h0.0900879c0.2132149-0.0065536,0.7791557-0.0842018,1.1391068-0.7126122l1.0127716-1.7680531l9.806488-16.8848495
	l0.7487946-1.3072462l0.3354721-0.5857401c0,0,0.0775146-0.1453981,0.1005249-0.218298
	c0.0115662-0.0368509,0.0228729-0.0789852,0.0306244-0.122324C65.0578766,10.322279,65.0643005,10.10077,64.9588928,9.9182539z
	 M50.2003098,28.2725353l-15.4019089-0.0303631l8.6453056-14.8149662h15.4141502L50.2003098,28.2725353z"/>
<path class="st11" d="M24.8604469,12.2958393c0.6947231-0.4079943,0.9271889-1.3019114,0.5191956-1.9965687
	c-0.4079323-0.6947231-1.3018475-0.9271917-1.9965057-0.5192614c-0.6947231,0.4079304-0.9271908,1.3018456-0.5192604,1.9965687
	C23.2718067,12.471302,24.1657219,12.7037697,24.8604469,12.2958393z"/>
<g>
	<path class="st11" d="M144.7283325,13.3740273c0.1052246-0.0631104,0.1578369-0.1641846,0.1578369-0.3035889
		c0-0.1431274-0.0547485-0.2435913-0.163147-0.3015137c-0.109436-0.057312-0.2693481-0.086792-0.4798584-0.086792
		c-0.0683594,0-0.1409912,0.0010376-0.2199097,0.0026245c-0.0778809,0.0020752-0.1473389,0.0062866-0.2094116,0.0131836v0.770813
		h0.3883057C144.4473267,13.4687538,144.6220093,13.4371986,144.7283325,13.3740273z"/>
	<path class="st11" d="M154.6644287,13.3956337c-0.0463257-0.1157837-0.0863037-0.2178345-0.1210327-0.3062744
		c-0.0336914-0.0883789-0.0620728-0.1578369-0.0831299-0.2078247c-0.0178833,0.0510254-0.0431519,0.1210327-0.0778809,0.2094116
		c-0.0336914,0.0883789-0.0726318,0.190979-0.1168213,0.3067627s-0.0925903,0.2435913-0.1462402,0.3830566
		c-0.0547485,0.138916-0.1094971,0.2851562-0.1652222,0.4382935h1.0123291
		c-0.0547485-0.1536255-0.1073608-0.2999268-0.1578369-0.4398804
		C154.7580566,13.639225,154.7096558,13.5113564,154.6644287,13.3956337z"/>
	<path class="st11" d="M144.3147583,14.0759315h-0.5009155v0.9139404c0.0578613,0.0068359,0.1210327,0.0115967,0.1893921,0.0152588
		c0.0684204,0.0031738,0.1431274,0.0047607,0.2241821,0.0047607c0.2388306,0,0.4303589-0.0336914,0.5766602-0.1021118
		c0.1463013-0.0678711,0.2199097-0.1936035,0.2199097-0.3772583c0-0.1636353-0.0610352-0.2799072-0.1841431-0.3498535
		C144.7177734,14.1106606,144.5420532,14.0759315,144.3147583,14.0759315z"/>
	<path class="st11" d="M157.9117432,10.1170692h-16.6619873c-0.3118286,0-0.5669556,0.255127-0.5669556,0.5669556v6.1054688
		c0,0.3118286,0.255127,0.5669556,0.5669556,0.5669556h16.6619873c0.3117676,0,0.5668945-0.255127,0.5668945-0.5669556v-6.1054688
		C158.4786377,10.3721962,158.2235107,10.1170692,157.9117432,10.1170692z M145.4249268,15.3829384
		c-0.2704468,0.1873169-0.6734619,0.2804565-1.2069702,0.2804565c-0.1947021,0-0.3872681-0.0057983-0.579834-0.0178833
		c-0.192627-0.0115967-0.3925171-0.0400391-0.5998535-0.0842285v-3.4300537
		c0.1630859-0.0310669,0.34198-0.0536499,0.5356445-0.0689087c0.1946411-0.0152588,0.3746338-0.0231934,0.5419312-0.0231934
		c0.2241821,0,0.4314575,0.0163574,0.619812,0.0484619c0.1883545,0.0325928,0.3515015,0.0878296,0.4872437,0.1662598
		c0.1367798,0.0778809,0.243103,0.1809692,0.3188477,0.3082886c0.0768433,0.1278687,0.1157837,0.2852173,0.1157837,0.4725342
		c0,0.2825317-0.1368408,0.505127-0.4083252,0.6687622c0.2241211,0.0852051,0.376709,0.2009888,0.4588013,0.347229
		c0.0820923,0.1463013,0.1231689,0.3109741,0.1231689,0.4951172
		C145.8311768,14.9167519,145.6953735,15.1956215,145.4249268,15.3829384z M149.2301636,15.6176186h-2.5066528V12.080204h2.3887939
		v0.6687622h-1.5921631v0.6939697h1.4143066v0.6535034h-1.4143066v0.852417h1.710022V15.6176186z M151.6294556,15.6176186
		h-0.7965698V12.758976h-1.0670776v-0.678772h2.9296875v0.678772h-1.06604V15.6176186z M155.4168091,15.6176186
		c-0.0389404-0.1231689-0.0809937-0.2494507-0.1262817-0.3788452c-0.0452271-0.1294556-0.0905151-0.2583618-0.1357422-0.3867188
		h-1.3817139c-0.0441895,0.1289062-0.0894165,0.2583008-0.133606,0.3877563
		c-0.0452881,0.1299438-0.0874023,0.2557373-0.1262817,0.3778076h-0.8261108
		c0.1325684-0.3809814,0.2588501-0.7335205,0.3788452-1.0565796c0.1188965-0.3235474,0.2357178-0.6282349,0.3504028-0.9139404
		c0.1136475-0.2857056,0.2272949-0.5571899,0.3378296-0.8139648c0.1104736-0.2572632,0.2262573-0.5083008,0.3451538-0.7529297
		h0.7555542c0.1157837,0.2446289,0.2304688,0.4956665,0.3430786,0.7529297
		c0.1126099,0.2567749,0.2272949,0.5282593,0.3409424,0.8139648c0.1146851,0.2857056,0.232605,0.5903931,0.3515015,0.9139404
		c0.1199341,0.3230591,0.2462158,0.6755981,0.3798828,1.0565796H155.4168091z"/>
</g>
</svg>
