<svg xmlns="http://www.w3.org/2000/svg" viewBox="0 0 690 275"><path fill="#FF931E" d="M128.7 191.7c-.4.1-.8.2-1.3.2-3.7.2-6.9-2.6-7.1-6.3-.4-6.4.2-12.3.4-13.5.5-7.1 5.9-14.7 13.2-14.9 1.1 0 2.3-.1 3.4-.3 10.5-1.7 17.8-11.7 16.1-22.2-1-6.3-5-11.7-10.7-14.5-3.3-1.7-4.7-5.7-3.1-9 1.7-3.3 5.7-4.7 9-3.1 9.6 4.8 16.4 13.9 18 24.6 2.8 17.8-9.5 34.7-27.3 37.6-1.5.3-3 .4-4.4.4-.4.6-.9 1.6-1 2.5v.4s-.7 5.6-.3 11.3c.4 3.2-1.8 6-4.9 6.8z"/><circle fill="#FF931E" cx="134.2" cy="136.8" r="11.7"/><path fill="#005E8C" d="M149.2 196.3c-11.7 2.9-24.3 2.5-36.3-2-14.7-5.5-26.5-16.2-33.5-30.2-1.7-3.3-.3-7.4 3.1-9 3.3-1.7 7.4-.3 9 3.1 5.4 10.9 14.7 19.3 26.1 23.6 24.5 9.2 52.1-3.3 61.4-27.7 1-2.6 1.7-5.3 2.3-7.8 2.8-11.9 18.5-16.4 28.3-15 3.7.5 6.2 4 5.7 7.7s-4 6.2-7.7 5.7c-5.9-.9-12.6 2.4-13.2 4.7-.7 2.9-1.5 6.2-2.8 9.6-7.4 19.1-23.7 32.6-42.4 37.3z"/><path fill="#0091D8" d="M70.7 141.8c-3.9 1-8.1 1.3-11.7.7-3.7-.5-6.2-4-5.7-7.7s4-6.2 7.7-5.7c5.9.9 12.6-2.4 13.2-4.7.7-2.9 1.5-6.2 2.8-9.6 10.2-26.8 38.2-43.1 66.6-38.7 3.7.6 6.2 4 5.7 7.7-.6 3.7-4 6.2-7.7 5.7-22.1-3.4-43.9 9.3-51.9 30.2-1 2.6-1.7 5.3-2.3 7.8-1.3 5.5-5.6 10-12 12.8-1.6.6-3.2 1.1-4.7 1.5z"/><path fill="#005E8C" d="M156.2 223.8c-22.7 5.7-47 2.4-67.5-9.6-1.5-.9-2.7-2.4-3.1-4.1-.5-1.7-.2-3.6.7-5.1l.1-.1c1.9-3.2 6-4.3 9.2-2.4 21.1 12.4 46.8 13.9 69.2 4.2 37.8-16.6 55.6-60.9 39.7-99-.8-1.9-1.6-3.7-2.6-5.5-.2-.4-.4-.8-.5-1.3-1.2-2.2-2.5-4.3-3.7-6.3-8.4-13.5 2.1-33.5 13.4-41.9 3-2.2 7.2-1.6 9.5 1.4 2.2 3 1.6 7.2-1.4 9.5-7.4 5.5-13.6 18.1-10 23.9 2.4 3.9 4.9 8.1 7 12.9 20 44.9 0 97.9-44.7 118.3-.4.2-.9.4-1.3.6l-.6.3c-4.3 1.6-8.8 3.1-13.4 4.2z"/><path fill="#0091D8" d="M55 222.2c-2.6.6-5.4-.3-7.1-2.5-2.2-3-1.6-7.2 1.4-9.5 7.4-5.5 13.6-18.1 10-23.9-2.4-3.9-4.9-8.1-7-12.9-20-44.9 0-97.9 44.7-118.3 22.3-10.2 47.2-10.8 70-1.8 3.5 1.4 5.2 5.3 3.8 8.8-1.4 3.5-5.3 5.2-8.8 3.8-19.4-7.6-40.5-7.1-59.5 1.6-38 17.3-55 62.3-38 100.5 1.8 4 4 7.8 6.2 11.2 8.4 13.5-2.1 33.5-13.4 41.9-.7.5-1.5.9-2.3 1.1z"/><circle fill="#005E8C" cx="235.5" cy="40.7" r="11"/><g><circle fill="#0091D8" cx="32.5" cy="231.3" r="11"/></g><g><g fill="#005E8C"><path d="M315.3 94.4c9.3 0 19.8 1.7 26.3 5.3 2.6 1.3 2.5 1.7 1.3 4.9l-3.1 9.5c-1 2.9-1.6 3.1-4.3 2.3-6.6-1.8-13.9-2.9-19.9-2.9-5.4 0-6.7 1.7-6.7 3.9 0 1.8.9 4 8.5 6.8 18.4 7 29.7 13 29.7 28.3 0 16.6-11.4 24.8-31.3 24.8-10.5 0-22.7-1.8-31.9-7.5-1.5-.9-1.7-1.8-.8-4.1l4.5-10.9c1-2.6 1.8-2.6 4.1-1.7 4.7 1.8 14.8 4.6 23.3 4.6 7.2 0 8.4-3.1 8.4-5.1 0-2.6-.6-4.5-9-7.6-16-5.9-28.3-12-28.3-25.8.2-13.2 8.9-24.8 29.2-24.8zM386.1 94.4c9.3 0 19.8 1.7 26.3 5.3 2.6 1.3 2.5 1.7 1.3 4.9l-3.1 9.5c-1 2.9-1.6 3.1-4.3 2.3-6.6-1.8-13.9-2.9-19.9-2.9-5.4 0-6.7 1.7-6.7 3.9 0 1.8.9 4 8.5 6.8 18.4 7 29.7 13 29.7 28.3 0 16.6-11.4 24.8-31.3 24.8-10.5 0-22.7-1.8-31.9-7.5-1.5-.9-1.7-1.8-.8-4.1l4.5-10.9c1-2.6 1.8-2.6 4.1-1.7 4.7 1.8 14.8 4.6 23.3 4.6 7.2 0 8.4-3.1 8.4-5.1 0-2.6-.6-4.5-9-7.6-16-5.9-28.3-12-28.3-25.8.3-13.2 8.9-24.8 29.2-24.8zM495.6 176.2h-16.3c-1.7 0-2.6-.8-2.6-2.4v-30.4h-25.5v30.4c0 1.8-.1 2.4-2.8 2.4H432c-1.7 0-2.6-.8-2.6-2.4V98.1c0-1.6.9-2.4 2.6-2.4h16.3c2.6 0 2.8.6 2.8 2.4v27.1h25.5V98.1c0-1.6.9-2.4 2.6-2.4h16.3c2.6 0 2.8.6 2.8 2.4v75.7c.1 1.8 0 2.4-2.7 2.4zM549.3 177.4c-25 0-36-15.5-36-41.4 0-25.3 12.5-41.6 36.3-41.6 24.8 0 36.5 16.2 36.5 41.4 0 25.7-10.5 41.6-36.8 41.6zm.3-63.7c-9 0-13.2 9.9-13.2 21.4 0 14.1 3.3 22.9 13.8 22.9 10.1 0 13.1-10.4 13.1-22.1-.4-12.1-2.9-22.2-13.7-22.2zM655.9 153.8c2.3-.9 3-.9 4 1.7l4.9 10.4c1 2.3 1 3.3-.7 4.3-9.2 5.5-18.2 7.2-28.2 7.2-27.1 0-37.3-17.7-37.3-41.5 0-24.7 15.4-41.4 38.1-41.4 8.9 0 16.6 1.3 23.3 5.1 2.4 1.5 2.5 1.7 1.3 4.9l-4 9.4c-1 2.9-1.6 3.2-4.4 2.3-6.1-1.8-9.5-2.6-15.2-2.6-9.5 0-16.1 7.7-16.1 22.3 0 14.4 4.5 22.1 16.3 22.1 8 0 13.1-2.3 18-4.2z"/></g><g fill="#A1B3B8"><path d="M284.2 205.5c-1.3 0-3-.2-4.2-.9-.2-.1-.2-.2-.1-.4l.4-.7c.1-.2.2-.2.4-.2 1.2.6 2.5.8 3.5.8 1.5 0 2.5-.6 2.5-1.8 0-1.2-1-1.7-2.9-2.4-2.5-.9-3.5-1.7-3.5-3.3 0-1.8 1.4-3.1 3.9-3.1 1.2 0 2.3.2 3.4.6.2.1.2.2.2.4l-.4.9c-.1.2-.2.2-.3.1-1.1-.4-2-.6-2.9-.6-1.3 0-2.2.7-2.2 1.7 0 1.1.8 1.5 2.8 2.2 1.9.7 3.5 1.6 3.5 3.5 0 2.1-1.8 3.2-4.1 3.2zM295.1 205.5c-3.3 0-5-2.1-5-6s2.1-6 5.1-6c3.3 0 5 2.2 5 6 0 3.9-1.8 6-5.1 6zm0-10.6c-2.5 0-3.5 2.1-3.5 4.6 0 2.7.9 4.7 3.4 4.7 2.7 0 3.5-2.4 3.5-4.7.1-2.4-.6-4.6-3.4-4.6zM310.1 203.5c.2-.1.3 0 .4.1l.4.8c.2.2.1.3-.1.4-1.1.6-2.4.8-3.6.8-3.3 0-5-2-5-5.9 0-3.8 2-6.1 5.2-6.1 1.1 0 2.2.2 3.2.8.2.1.2.2.1.4l-.4.7c-.1.2-.1.2-.4.1-.7-.3-1.6-.6-2.6-.6-2.6 0-3.6 2.2-3.6 4.7s.9 4.5 3.6 4.5c1.1-.1 2.1-.4 2.8-.7zM314.3 191.6c-.6 0-1.1-.5-1.1-1.1 0-.6.5-1.1 1.1-1.1.6 0 1.1.5 1.1 1.1 0 .7-.5 1.1-1.1 1.1zm.5 13.7h-1c-.2 0-.3 0-.3-.3v-11c0-.2.1-.3.3-.3h1c.2 0 .3 0 .3.3v11c0 .2-.1.3-.3.3zM326.9 204.8c-1.3.6-2.9.7-4.3.7-3.7 0-4.7-1.8-4.7-3.6 0-2.2 1.5-3.9 4.7-3.9h2.9v-.6c0-1.5-.5-2.5-2.8-2.5-1 0-2.3.2-3.1.5-.2.1-.3.1-.4-.1l-.2-.8c0-.2 0-.3.2-.3 1.1-.4 2.6-.6 3.8-.6 2.8 0 4.2 1.3 4.2 3.7v7.1c0 .1-.1.3-.3.4zm-4.2-5.4c-1.1 0-3.2.2-3.2 2.5 0 1.8 1.5 2.3 3.1 2.3.5 0 1.9-.1 2.9-.5v-4.3h-2.8zM333.7 205.3c-.5.2-1.1.2-1.5.2-1.4 0-1.9-.7-1.9-2.1v-13.9c0-.2.1-.3.3-.3h1c.2 0 .3 0 .3.3v13.4c0 .9.2 1.1.8 1.1.3 0 .5 0 .8-.1.2 0 .2 0 .3.2l.1.7c0 .4 0 .4-.2.5zM345.2 205.5c-1.3 0-3-.2-4.2-.9-.2-.1-.2-.2-.1-.4l.4-.7c.1-.2.2-.2.4-.2 1.2.6 2.5.8 3.5.8 1.5 0 2.5-.6 2.5-1.8 0-1.2-1-1.7-2.9-2.4-2.5-.9-3.5-1.7-3.5-3.3 0-1.8 1.4-3.1 3.9-3.1 1.2 0 2.3.2 3.4.6.2.1.2.2.2.4l-.4.9c-.1.2-.2.2-.3.1-1.1-.4-2-.6-2.9-.6-1.3 0-2.2.7-2.2 1.7 0 1.1.8 1.5 2.8 2.2 1.9.7 3.5 1.6 3.5 3.5 0 2.1-1.8 3.2-4.1 3.2zM359 203.5c.2-.1.3 0 .4.1l.4.8c.2.2.1.3-.1.4-1.1.6-2.4.8-3.6.8-3.3 0-5-2-5-5.9 0-3.8 2-6.1 5.2-6.1 1.1 0 2.2.2 3.2.8.2.1.2.2.1.4l-.4.7c-.1.2-.1.2-.4.1-.7-.3-1.6-.6-2.6-.6-2.6 0-3.6 2.2-3.6 4.7s.9 4.5 3.6 4.5c1.1-.1 2.1-.4 2.8-.7zM363.2 191.6c-.6 0-1.1-.5-1.1-1.1 0-.6.5-1.1 1.1-1.1.6 0 1.1.5 1.1 1.1 0 .7-.5 1.1-1.1 1.1zm.5 13.7h-1c-.2 0-.3 0-.3-.3v-11c0-.2.1-.3.3-.3h1c.2 0 .3 0 .3.3v11c0 .2-.1.3-.3.3zM376.7 198.4c0 1.2-.7 1.5-1.5 1.5h-6.7c0 3.1 1.6 4.2 3.7 4.2 1 0 2-.3 2.6-.6.2-.1.3-.1.4.1l.4.8c.1.2 0 .3-.1.4-1 .6-2.2.8-3.4.8-3.2 0-5.2-1.8-5.2-6 0-3.9 2.1-6.1 5-6.1 3.3 0 4.8 2 4.8 4.9zm-4.8-3.5c-2.1 0-3.2 1.7-3.3 3.8h6.6c0-2.1-.7-3.8-3.3-3.8zM388.1 205.3h-1c-.2 0-.3 0-.3-.3v-5.9c0-2.8-.7-4.2-3.8-4.2-.4 0-1.3 0-2.4.2v9.9c0 .2-.1.3-.3.3h-1c-.2 0-.3 0-.3-.3v-9.8c0-.8.4-1.3 1.2-1.5.7-.1 2.2-.2 2.9-.2 3.8 0 5.3 1.6 5.3 5.5v6c0 .2-.1.3-.3.3zM398.8 203.5c.2-.1.3 0 .4.1l.4.8c.2.2.1.3-.1.4-1.1.6-2.4.8-3.6.8-3.3 0-5-2-5-5.9 0-3.8 2-6.1 5.2-6.1 1.1 0 2.2.2 3.2.8.2.1.2.2.1.4l-.4.7c-.1.2-.1.2-.4.1-.7-.3-1.6-.6-2.6-.6-2.6 0-3.6 2.2-3.6 4.7s.9 4.5 3.6 4.5c1.1-.1 2.1-.4 2.8-.7zM411 198.4c0 1.2-.7 1.5-1.5 1.5h-6.7c0 3.1 1.6 4.2 3.7 4.2 1 0 2-.3 2.6-.6.2-.1.3-.1.4.1l.4.8c.1.2 0 .3-.1.4-1 .6-2.2.8-3.4.8-3.2 0-5.2-1.8-5.2-6 0-3.9 2.1-6.1 5-6.1 3.4 0 4.8 2 4.8 4.9zm-4.8-3.5c-2.1 0-3.2 1.7-3.3 3.8h6.6c0-2.1-.7-3.8-3.3-3.8zM417 205.5c-1.3 0-3-.2-4.2-.9-.2-.1-.2-.2-.1-.4l.4-.7c.1-.2.2-.2.4-.2 1.2.6 2.5.8 3.5.8 1.5 0 2.5-.6 2.5-1.8 0-1.2-1-1.7-2.9-2.4-2.5-.9-3.5-1.7-3.5-3.3 0-1.8 1.4-3.1 3.9-3.1 1.2 0 2.3.2 3.4.6.2.1.2.2.2.4l-.4.9c-.1.2-.2.2-.3.1-1.1-.4-2-.6-2.9-.6-1.3 0-2.2.7-2.2 1.7 0 1.1.8 1.5 2.8 2.2 1.9.7 3.5 1.6 3.5 3.5 0 2.1-1.7 3.2-4.1 3.2zM439.7 205l-1.9-2.2c-1.2 1.7-2.6 2.7-4.6 2.7-2.5 0-3.9-1.4-3.9-3.7 0-2.1 1.5-4 3.6-5.2-1.1-1.2-1.8-2.5-1.8-3.7 0-2 1.6-3.4 3.6-3.4s3.5 1.3 3.5 3.1c0 2-1.4 3.2-3.1 4.3 1.1 1.4 1.7 2.2 2.6 3.3.9-1.5 1.9-3.1 3.6-3.7.3-.1.7-.2 1-.2.2 0 .2 0 .3.2l.2.9c.1.2-.1.3-.2.3-2.3.4-3 2.1-3.9 3.7.2.3.9 1.1 1.6 1.9.4.5.8 1 1.3 1.5.1.1.1.3-.1.3h-1.2c-.4.2-.5.1-.6-.1zm-6-7.2c-1.5 1-2.9 2.2-2.9 4 0 1.8 1.1 2.4 2.5 2.4 1.2 0 2.6-.9 3.5-2.5-1-1.3-2-2.6-3.1-3.9zm.9-6.8c-1.2 0-2 .8-2 1.9 0 1.1.8 2.2 1.5 3.1 1-.6 2.4-1.7 2.4-3.1 0-.9-.5-1.9-1.9-1.9zM459.8 205.3h-1c-.2 0-.3 0-.3-.3v-6.4c0-2.5-1-3.7-3.2-3.7-.9 0-2.1.2-2.9.5v9.6c0 .2-.1.3-.3.3h-1c-.2 0-.3 0-.3-.3v-15.5c0-.2.1-.3.3-.3h1c.2 0 .3 0 .3.3v4.6c1.1-.4 2.3-.6 3.2-.6 3.3 0 4.6 1.9 4.6 5.1v6.4c-.1.2-.2.3-.4.3zM463.2 193.7h1c.2 0 .3 0 .3.3v6c0 2.9.6 4.1 3.7 4.1.4 0 1.3 0 2.3-.2V194c0-.2.1-.3.3-.3h1c.2 0 .3 0 .3.3v9.9c0 .8-.4 1.3-1.2 1.5-.8.1-2.2.2-2.9.2-3.8 0-5.1-1.4-5.1-5.4V194c0-.2.1-.3.3-.3zM491.5 198.8v6.2c0 .2 0 .3-.3.3h-1c-.2 0-.3 0-.3-.3v-5.9c0-2.9-.8-4.2-3.3-4.2-.9 0-2.3.4-3.2.9.4.8.5 1.8.5 3.2v6c0 .2-.1.3-.3.3h-1c-.2 0-.3 0-.3-.3v-6c0-2.6-.7-4.1-3.5-4.1-.4 0-1.1 0-2.2.2v9.9c0 .2-.1.3-.3.3h-1c-.2 0-.3 0-.3-.3v-9.8c0-.8.4-1.3 1.2-1.5.7-.1 1.9-.2 2.5-.2 1.8 0 2.9.4 3.8 1.3 1.1-.8 2.6-1.3 4.2-1.3 3.7 0 4.8 2.1 4.8 5.3zM502.9 204.8c-1.3.6-2.9.7-4.3.7-3.7 0-4.7-1.8-4.7-3.6 0-2.2 1.5-3.9 4.7-3.9h2.9v-.6c0-1.5-.5-2.5-2.8-2.5-1 0-2.3.2-3.1.5-.2.1-.3.1-.4-.1l-.2-.8c0-.2 0-.3.2-.3 1.1-.4 2.6-.6 3.8-.6 2.8 0 4.2 1.3 4.2 3.7v7.1c0 .1-.1.3-.3.4zm-4.2-5.4c-1.1 0-3.2.2-3.2 2.5 0 1.8 1.5 2.3 3.1 2.3.5 0 1.9-.1 2.9-.5v-4.3h-2.8zM515.1 205.3h-1c-.2 0-.3 0-.3-.3v-5.9c0-2.8-.7-4.2-3.8-4.2-.4 0-1.3 0-2.4.2v9.9c0 .2-.1.3-.3.3h-1c-.2 0-.3 0-.3-.3v-9.8c0-.8.4-1.3 1.2-1.5.7-.1 2.2-.2 2.9-.2 3.8 0 5.3 1.6 5.3 5.5v6c0 .2-.1.3-.3.3zM519.5 191.6c-.6 0-1.1-.5-1.1-1.1 0-.6.5-1.1 1.1-1.1.6 0 1.1.5 1.1 1.1 0 .7-.4 1.1-1.1 1.1zm.5 13.7h-1c-.2 0-.3 0-.3-.3v-11c0-.2.1-.3.3-.3h1c.2 0 .3 0 .3.3v11c0 .2 0 .3-.3.3zM522.7 194.8v-.5c0-.2 0-.3.3-.3l1.7-.3.3-2.1c0-.3.1-.3.3-.4l.6-.2c.2 0 .3 0 .3.2v2.6h2.6c.2 0 .3.1.3.3v.7c0 .2 0 .3-.3.3h-2.6v7.4c0 1.1.4 1.6 1.6 1.6.4 0 1.1-.1 1.7-.2.2 0 .3 0 .3.2l.2.8c0 .2 0 .2-.2.3-.8.2-1.8.3-2.2.3-2.2 0-3-.9-3-2.9V195h-1.7c-.2 0-.2-.1-.2-.2zM532.9 191.6c-.6 0-1.1-.5-1.1-1.1 0-.6.5-1.1 1.1-1.1.6 0 1.1.5 1.1 1.1 0 .7-.5 1.1-1.1 1.1zm.5 13.7h-1c-.2 0-.3 0-.3-.3v-11c0-.2.1-.3.3-.3h1c.2 0 .3 0 .3.3v11c0 .2-.1.3-.3.3zM546.4 198.4c0 1.2-.7 1.5-1.5 1.5h-6.7c0 3.1 1.6 4.2 3.7 4.2 1 0 2-.3 2.6-.6.2-.1.3-.1.4.1l.4.8c.1.2 0 .3-.1.4-1 .6-2.2.8-3.4.8-3.2 0-5.2-1.8-5.2-6 0-3.9 2.1-6.1 5-6.1 3.3 0 4.8 2 4.8 4.9zm-4.8-3.5c-2.1 0-3.2 1.7-3.3 3.8h6.6c0-2.1-.7-3.8-3.3-3.8zM552.4 205.5c-1.3 0-3-.2-4.2-.9-.2-.1-.2-.2-.1-.4l.4-.7c.1-.2.2-.2.4-.2 1.2.6 2.5.8 3.5.8 1.5 0 2.5-.6 2.5-1.8 0-1.2-1-1.7-2.9-2.4-2.5-.9-3.5-1.7-3.5-3.3 0-1.8 1.4-3.1 3.9-3.1 1.2 0 2.3.2 3.4.6.2.1.2.2.2.4l-.4.9c-.1.2-.2.2-.3.1-1.1-.4-2-.6-2.9-.6-1.3 0-2.2.7-2.2 1.7 0 1.1.8 1.5 2.8 2.2 1.9.7 3.5 1.6 3.5 3.5 0 2.1-1.7 3.2-4.1 3.2zM569.1 205.5c-3.3 0-5-2.1-5-6s2.1-6 5.1-6c3.3 0 5 2.2 5 6 0 3.9-1.8 6-5.1 6zm.1-10.6c-2.5 0-3.5 2.1-3.5 4.6 0 2.7.9 4.7 3.4 4.7 2.7 0 3.5-2.4 3.5-4.7 0-2.4-.7-4.6-3.4-4.6zM581.3 205.5c-.9 0-1.9-.1-3-.4v4.4c0 .2 0 .3-.3.3h-1c-.2 0-.3 0-.3-.3v-14.9c0-.2.1-.3.2-.4 1.4-.6 3-.8 4.4-.8 3.5 0 5 2.5 5 6 .1 3.5-1.6 6.1-5 6.1zm-.3-10.6c-.8 0-2 .2-2.8.5v8.3c1.2.4 2.1.5 2.8.5 2.1 0 3.7-1.3 3.7-4.7 0-3.5-1.5-4.6-3.7-4.6zM598.1 198.4c0 1.2-.7 1.5-1.5 1.5H590c0 3.1 1.6 4.2 3.7 4.2 1 0 2-.3 2.6-.6.2-.1.3-.1.4.1l.4.8c.1.2 0 .3-.1.4-1 .6-2.2.8-3.4.8-3.2 0-5.2-1.8-5.2-6 0-3.9 2.1-6.1 5-6.1 3.3 0 4.7 2 4.7 4.9zm-4.8-3.5c-2.1 0-3.2 1.7-3.3 3.8h6.6c0-2.1-.7-3.8-3.3-3.8zM609.5 205.3h-1c-.2 0-.3 0-.3-.3v-5.9c0-2.8-.7-4.2-3.8-4.2-.4 0-1.3 0-2.4.2v9.9c0 .2-.1.3-.3.3h-1c-.2 0-.3 0-.3-.3v-9.8c0-.8.4-1.3 1.2-1.5.7-.1 2.2-.2 2.9-.2 3.8 0 5.3 1.6 5.3 5.5v6c0 .2 0 .3-.3.3zM626 203.5c.2-.1.3 0 .4.1l.4.8c.2.2.1.3-.1.4-1.1.6-2.4.8-3.6.8-3.3 0-5-2-5-5.9 0-3.8 2-6.1 5.2-6.1 1.1 0 2.2.2 3.2.8.2.1.2.2.1.4l-.4.7c-.1.2-.1.2-.4.1-.7-.3-1.6-.6-2.6-.6-2.6 0-3.6 2.2-3.6 4.7s.9 4.5 3.6 4.5c1.1-.1 2.2-.4 2.8-.7zM632.6 205.3c-.5.2-1.1.2-1.5.2-1.4 0-1.9-.7-1.9-2.1v-13.9c0-.2.1-.3.3-.3h1c.2 0 .3 0 .3.3v13.4c0 .9.2 1.1.8 1.1.3 0 .5 0 .8-.1.2 0 .2 0 .3.2l.1.7c0 .4-.1.4-.2.5zM639.1 205.5c-3.3 0-5-2.1-5-6s2.1-6 5.1-6c3.3 0 5 2.2 5 6 0 3.9-1.8 6-5.1 6zm.1-10.6c-2.5 0-3.5 2.1-3.5 4.6 0 2.7.9 4.7 3.4 4.7 2.7 0 3.5-2.4 3.5-4.7 0-2.4-.7-4.6-3.4-4.6zM647 193.7h1c.2 0 .3 0 .3.3v6c0 2.9.6 4.1 3.7 4.1.4 0 1.3 0 2.3-.2V194c0-.2.1-.3.3-.3h1c.2 0 .3 0 .3.3v9.9c0 .8-.4 1.3-1.2 1.5-.8.1-2.2.2-2.9.2-3.8 0-5.1-1.4-5.1-5.4V194c0-.2 0-.3.3-.3zM663.5 193.5c.8 0 1.8.1 2.8.4v-4.4c0-.2.1-.3.3-.3h1c.2 0 .3 0 .3.3v14.9c0 .2-.1.3-.2.4-1.5.6-3.1.8-4.5.8-3.6 0-5-2.2-5-5.9.1-3.3 1.7-6.2 5.3-6.2zm.1 10.6c.8 0 2-.2 2.8-.5v-8.3c-1.2-.4-2-.5-2.7-.5-2.2 0-3.7 1.5-3.7 4.8 0 3.4 1.4 4.5 3.6 4.5z"/></g></g></svg>