<svg xmlns="http://www.w3.org/2000/svg" width="254.715" height="55.342" viewBox="0 0 254.715 55.342"><defs><style>.a{fill:#ff9e1a;}.b{fill:#a4bcc2;}.c{fill:#02558c;}.d{fill:#fff;}.e{fill:#0085ca;}</style></defs><g transform="translate(-15.071 -9.373)"><path class="a" d="M172.449,22.894H137.512a1.02,1.02,0,0,1-1.017-1.017V10.928a1.02,1.02,0,0,1,1.017-1.017h34.937a1.02,1.02,0,0,1,1.017,1.017V21.877A1.02,1.02,0,0,1,172.449,22.894Z" transform="translate(96.321 0.427)"/><g transform="translate(103.117 57.622)"><path class="b" d="M65.749,41.277q1.122,0,1.121-.767a.772.772,0,0,0-.1-.4.969.969,0,0,0-.268-.287,1.949,1.949,0,0,0-.389-.21c-.145-.06-.3-.117-.461-.177a4.863,4.863,0,0,1-.531-.217,1.887,1.887,0,0,1-.436-.289,1.2,1.2,0,0,1-.291-.394,1.294,1.294,0,0,1-.109-.553,1.276,1.276,0,0,1,.459-1.047,1.92,1.92,0,0,1,1.261-.377,3.336,3.336,0,0,1,.846.1,1.908,1.908,0,0,1,.557.217l-.229.583a1.978,1.978,0,0,0-.461-.189,2.49,2.49,0,0,0-.713-.091,1.578,1.578,0,0,0-.384.044.994.994,0,0,0-.31.133.66.66,0,0,0-.21.224.648.648,0,0,0-.077.32.689.689,0,0,0,.081.348.824.824,0,0,0,.229.247,1.917,1.917,0,0,0,.343.194c.13.06.273.119.431.177.222.089.424.179.609.266a2.057,2.057,0,0,1,.48.317,1.287,1.287,0,0,1,.313.44,1.546,1.546,0,0,1,.11.616,1.207,1.207,0,0,1-.49,1.033,2.306,2.306,0,0,1-1.383.361,3.649,3.649,0,0,1-.557-.04,4.027,4.027,0,0,1-.455-.1,2.56,2.56,0,0,1-.341-.117c-.1-.042-.172-.077-.226-.107l.214-.59a3.365,3.365,0,0,0,.517.214A2.658,2.658,0,0,0,65.749,41.277Z" transform="translate(-64.169 -36.06)"/><path class="b" d="M70.033,39.293a2.4,2.4,0,0,1-.133.827,1.849,1.849,0,0,1-.373.636,1.646,1.646,0,0,1-.571.41,1.893,1.893,0,0,1-1.447,0,1.646,1.646,0,0,1-.571-.41,1.849,1.849,0,0,1-.373-.636,2.617,2.617,0,0,1,0-1.648,1.849,1.849,0,0,1,.373-.639,1.646,1.646,0,0,1,.571-.41,1.893,1.893,0,0,1,1.447,0,1.646,1.646,0,0,1,.571.41,1.849,1.849,0,0,1,.373.639A2.412,2.412,0,0,1,70.033,39.293Zm-.716,0a1.644,1.644,0,0,0-.291-1.028,1.018,1.018,0,0,0-1.587,0,1.966,1.966,0,0,0,0,2.058,1.018,1.018,0,0,0,1.587,0A1.646,1.646,0,0,0,69.317,39.293Z" transform="translate(-62.374 -35.486)"/><path class="b" d="M70.742,41.3a2.085,2.085,0,0,1-.814-.149,1.626,1.626,0,0,1-.59-.413,1.7,1.7,0,0,1-.359-.63,2.614,2.614,0,0,1-.117-.807,2.411,2.411,0,0,1,.13-.813,1.9,1.9,0,0,1,.364-.637,1.611,1.611,0,0,1,.58-.42,1.863,1.863,0,0,1,.764-.152,3.215,3.215,0,0,1,.517.044,2.352,2.352,0,0,1,.494.142l-.154.581a1.662,1.662,0,0,0-.359-.117,2,2,0,0,0-.431-.044,1.1,1.1,0,0,0-.883.361,1.6,1.6,0,0,0-.3,1.056,2.134,2.134,0,0,0,.07.567,1.146,1.146,0,0,0,.221.443.994.994,0,0,0,.387.284,1.483,1.483,0,0,0,.576.1,2.242,2.242,0,0,0,.494-.051,1.794,1.794,0,0,0,.347-.112l.1.576a.778.778,0,0,1-.17.07,2.307,2.307,0,0,1-.25.06c-.095.018-.193.032-.3.044A2.665,2.665,0,0,1,70.742,41.3Z" transform="translate(-60.448 -35.486)"/><path class="b" d="M71.278,37.344a.436.436,0,0,1-.313-.123.427.427,0,0,1-.13-.327.434.434,0,0,1,.13-.329.467.467,0,0,1,.627,0,.434.434,0,0,1,.13.329.427.427,0,0,1-.13.327A.436.436,0,0,1,71.278,37.344Zm.347,4.53h-.686V38.038h.686Z" transform="translate(-58.881 -36.148)"/><path class="b" d="M73.295,37.279a2.018,2.018,0,0,1,.7.107,1.144,1.144,0,0,1,.457.3,1.178,1.178,0,0,1,.249.464,2.263,2.263,0,0,1,.074.6v2.4l-.247.04c-.107.018-.226.033-.359.049s-.277.028-.431.04-.31.018-.462.018a2.465,2.465,0,0,1-.6-.067,1.325,1.325,0,0,1-.473-.21.978.978,0,0,1-.31-.38,1.333,1.333,0,0,1-.11-.567,1.1,1.1,0,0,1,.13-.546,1.042,1.042,0,0,1,.35-.37,1.671,1.671,0,0,1,.517-.207,2.839,2.839,0,0,1,.62-.065c.068,0,.14,0,.214.011s.144.018.21.03.124.023.173.033.084.018.1.021v-.191a1.545,1.545,0,0,0-.037-.336.77.77,0,0,0-.133-.3.656.656,0,0,0-.261-.2,1.016,1.016,0,0,0-.433-.079,3.125,3.125,0,0,0-.594.049,2,2,0,0,0-.38.1l-.081-.569a2.154,2.154,0,0,1,.443-.114A3.819,3.819,0,0,1,73.295,37.279Zm.06,3.439c.161,0,.306,0,.431-.012a1.887,1.887,0,0,0,.313-.04V39.523a.9.9,0,0,0-.24-.063,2.626,2.626,0,0,0-.4-.025,2.748,2.748,0,0,0-.329.021,1.026,1.026,0,0,0-.317.093.7.7,0,0,0-.24.191.5.5,0,0,0-.1.322.553.553,0,0,0,.236.513A1.244,1.244,0,0,0,73.354,40.719Z" transform="translate(-58.131 -35.486)"/><path class="b" d="M75.238,42.079a1.315,1.315,0,0,1-.9-.273,1.076,1.076,0,0,1-.264-.8V36.4l.686-.119v4.613a1.143,1.143,0,0,0,.028.28.4.4,0,0,0,.1.177.422.422,0,0,0,.177.1,1.668,1.668,0,0,0,.273.054Z" transform="translate(-56.313 -36.279)"/><path class="b" d="M77.542,41.277q1.122,0,1.121-.767a.772.772,0,0,0-.1-.4.969.969,0,0,0-.268-.287,1.949,1.949,0,0,0-.389-.21c-.145-.06-.3-.117-.461-.177a4.863,4.863,0,0,1-.531-.217,1.887,1.887,0,0,1-.436-.289,1.2,1.2,0,0,1-.291-.394,1.294,1.294,0,0,1-.109-.553,1.276,1.276,0,0,1,.459-1.047,1.92,1.92,0,0,1,1.261-.377,3.336,3.336,0,0,1,.846.1,1.908,1.908,0,0,1,.557.217l-.229.583a1.978,1.978,0,0,0-.461-.189,2.49,2.49,0,0,0-.713-.091,1.578,1.578,0,0,0-.384.044.994.994,0,0,0-.31.133.66.66,0,0,0-.21.224.648.648,0,0,0-.077.32.689.689,0,0,0,.081.348.824.824,0,0,0,.229.247,1.917,1.917,0,0,0,.343.194c.13.06.273.119.431.177.222.089.424.179.609.266a2.057,2.057,0,0,1,.48.317,1.287,1.287,0,0,1,.313.44,1.546,1.546,0,0,1,.11.616,1.207,1.207,0,0,1-.49,1.033,2.306,2.306,0,0,1-1.383.361,3.649,3.649,0,0,1-.557-.04,4.027,4.027,0,0,1-.455-.1,2.56,2.56,0,0,1-.341-.117c-.1-.042-.172-.077-.226-.107l.214-.59a3.364,3.364,0,0,0,.517.214A2.658,2.658,0,0,0,77.542,41.277Z" transform="translate(-54.814 -36.06)"/><path class="b" d="M80.106,41.3a2.085,2.085,0,0,1-.814-.149,1.626,1.626,0,0,1-.59-.413,1.7,1.7,0,0,1-.359-.63,2.614,2.614,0,0,1-.117-.807,2.412,2.412,0,0,1,.13-.813,1.9,1.9,0,0,1,.364-.637,1.612,1.612,0,0,1,.58-.42,1.864,1.864,0,0,1,.764-.152,3.215,3.215,0,0,1,.517.044,2.352,2.352,0,0,1,.494.142l-.154.581a1.662,1.662,0,0,0-.359-.117,2,2,0,0,0-.431-.044,1.1,1.1,0,0,0-.883.361,1.6,1.6,0,0,0-.3,1.056,2.134,2.134,0,0,0,.07.567,1.147,1.147,0,0,0,.221.443.994.994,0,0,0,.387.284,1.483,1.483,0,0,0,.576.1,2.242,2.242,0,0,0,.494-.051,1.794,1.794,0,0,0,.347-.112l.1.576a.778.778,0,0,1-.17.07,2.307,2.307,0,0,1-.25.06c-.095.018-.193.032-.3.044A2.666,2.666,0,0,1,80.106,41.3Z" transform="translate(-53.02 -35.486)"/><path class="b" d="M80.644,37.344a.436.436,0,0,1-.313-.123.427.427,0,0,1-.13-.327.434.434,0,0,1,.13-.329.467.467,0,0,1,.627,0,.434.434,0,0,1,.13.329.427.427,0,0,1-.13.327A.436.436,0,0,1,80.644,37.344Zm.347,4.53H80.3V38.038h.686Z" transform="translate(-51.452 -36.148)"/><path class="b" d="M81.179,39.3a2.46,2.46,0,0,1,.147-.89,1.854,1.854,0,0,1,.391-.63,1.589,1.589,0,0,1,.562-.377,1.734,1.734,0,0,1,.648-.126,1.478,1.478,0,0,1,1.189.483,2.226,2.226,0,0,1,.413,1.473v.114c0,.047,0,.089-.007.13H81.9a1.39,1.39,0,0,0,.347.907,1.269,1.269,0,0,0,.944.31,2.516,2.516,0,0,0,.609-.063,2.246,2.246,0,0,0,.371-.121l.1.574a1.958,1.958,0,0,1-.44.14,3.108,3.108,0,0,1-.711.075,2.243,2.243,0,0,1-.867-.152,1.614,1.614,0,0,1-.6-.417,1.706,1.706,0,0,1-.35-.63A2.7,2.7,0,0,1,81.179,39.3Zm2.634-.377a1.14,1.14,0,0,0-.233-.764.8.8,0,0,0-.66-.3.907.907,0,0,0-.417.093.987.987,0,0,0-.306.24,1.093,1.093,0,0,0-.194.338,1.639,1.639,0,0,0-.093.392Z" transform="translate(-50.676 -35.486)"/><path class="b" d="M83.6,37.479c.158-.039.366-.081.627-.124a5.29,5.29,0,0,1,.9-.067,1.951,1.951,0,0,1,.76.128,1.2,1.2,0,0,1,.483.363,1.383,1.383,0,0,1,.256.557,3.25,3.25,0,0,1,.074.716v2.154h-.686V39.2a3.336,3.336,0,0,0-.047-.606,1.046,1.046,0,0,0-.159-.4.627.627,0,0,0-.3-.226,1.28,1.28,0,0,0-.457-.07c-.074,0-.151,0-.228.007s-.154.012-.226.019-.135.016-.193.026l-.121.021v3.24H83.6Z" transform="translate(-48.757 -35.479)"/><path class="b" d="M87.722,41.3a2.085,2.085,0,0,1-.814-.149,1.626,1.626,0,0,1-.59-.413,1.7,1.7,0,0,1-.359-.63,2.614,2.614,0,0,1-.117-.807,2.411,2.411,0,0,1,.13-.813,1.9,1.9,0,0,1,.364-.637,1.612,1.612,0,0,1,.58-.42,1.864,1.864,0,0,1,.764-.152,3.215,3.215,0,0,1,.517.044,2.352,2.352,0,0,1,.494.142l-.154.581a1.661,1.661,0,0,0-.359-.117,2,2,0,0,0-.431-.044,1.1,1.1,0,0,0-.883.361,1.6,1.6,0,0,0-.3,1.056,2.134,2.134,0,0,0,.07.567,1.146,1.146,0,0,0,.221.443.994.994,0,0,0,.387.284,1.483,1.483,0,0,0,.576.1,2.242,2.242,0,0,0,.494-.051,1.794,1.794,0,0,0,.347-.112l.1.576a.778.778,0,0,1-.17.07,2.308,2.308,0,0,1-.25.06c-.095.018-.193.032-.3.044A2.666,2.666,0,0,1,87.722,41.3Z" transform="translate(-46.978 -35.486)"/><path class="b" d="M87.755,39.3a2.46,2.46,0,0,1,.147-.89,1.854,1.854,0,0,1,.391-.63,1.589,1.589,0,0,1,.562-.377,1.734,1.734,0,0,1,.648-.126,1.478,1.478,0,0,1,1.189.483,2.226,2.226,0,0,1,.413,1.473v.114c0,.047,0,.089-.007.13H88.471a1.39,1.39,0,0,0,.347.907,1.269,1.269,0,0,0,.944.31,2.516,2.516,0,0,0,.609-.063,2.246,2.246,0,0,0,.371-.121l.1.574a1.958,1.958,0,0,1-.44.14,3.108,3.108,0,0,1-.711.075,2.243,2.243,0,0,1-.867-.152,1.614,1.614,0,0,1-.6-.417,1.706,1.706,0,0,1-.35-.63A2.7,2.7,0,0,1,87.755,39.3Zm2.634-.377a1.14,1.14,0,0,0-.233-.764.8.8,0,0,0-.66-.3.907.907,0,0,0-.417.093.988.988,0,0,0-.306.24,1.093,1.093,0,0,0-.194.338,1.638,1.638,0,0,0-.093.392Z" transform="translate(-45.46 -35.486)"/><path class="b" d="M91.2,40.719a1.328,1.328,0,0,0,.623-.112.374.374,0,0,0,.2-.354.469.469,0,0,0-.2-.4,3.164,3.164,0,0,0-.657-.333c-.147-.06-.289-.119-.424-.18a1.488,1.488,0,0,1-.35-.217.952.952,0,0,1-.236-.3.963.963,0,0,1-.089-.436.978.978,0,0,1,.377-.807,1.6,1.6,0,0,1,1.026-.3,2.871,2.871,0,0,1,.324.019c.109.012.21.026.3.044s.175.035.247.056.126.037.166.051l-.126.59a1.8,1.8,0,0,0-.347-.121,2.225,2.225,0,0,0-.567-.063,1.064,1.064,0,0,0-.5.114.382.382,0,0,0-.214.359.5.5,0,0,0,.047.221.548.548,0,0,0,.149.173,1.242,1.242,0,0,0,.247.144c.1.044.215.091.354.14.182.07.345.137.487.2a1.507,1.507,0,0,1,.366.233.891.891,0,0,1,.233.32,1.192,1.192,0,0,1,.081.461.914.914,0,0,1-.4.806A1.96,1.96,0,0,1,91.2,41.3a2.949,2.949,0,0,1-.8-.086,3.764,3.764,0,0,1-.391-.13l.124-.59c.079.03.2.074.377.133A2.153,2.153,0,0,0,91.2,40.719Z" transform="translate(-43.671 -35.486)"/><path class="b" d="M94.32,37.279a2.018,2.018,0,0,1,.7.107,1.144,1.144,0,0,1,.457.3,1.178,1.178,0,0,1,.249.464,2.264,2.264,0,0,1,.074.6v2.4l-.247.04c-.107.018-.226.033-.359.049s-.277.028-.431.04-.31.018-.462.018a2.465,2.465,0,0,1-.6-.067,1.325,1.325,0,0,1-.473-.21.978.978,0,0,1-.31-.38,1.333,1.333,0,0,1-.11-.567,1.1,1.1,0,0,1,.13-.546,1.042,1.042,0,0,1,.35-.37,1.671,1.671,0,0,1,.517-.207,2.839,2.839,0,0,1,.62-.065c.068,0,.14,0,.214.011s.144.018.21.03.124.023.173.033.084.018.1.021v-.191a1.547,1.547,0,0,0-.037-.336.771.771,0,0,0-.133-.3.656.656,0,0,0-.261-.2,1.016,1.016,0,0,0-.433-.079,3.125,3.125,0,0,0-.594.049,2,2,0,0,0-.38.1l-.081-.569a2.154,2.154,0,0,1,.443-.114A3.819,3.819,0,0,1,94.32,37.279Zm.06,3.439c.161,0,.306,0,.431-.012a1.887,1.887,0,0,0,.313-.04V39.523a.9.9,0,0,0-.24-.063,2.627,2.627,0,0,0-.4-.025,2.748,2.748,0,0,0-.329.021,1.026,1.026,0,0,0-.317.093.7.7,0,0,0-.24.191.5.5,0,0,0-.1.322.553.553,0,0,0,.236.513A1.244,1.244,0,0,0,94.38,40.719Z" transform="translate(-41.452 -35.486)"/><path class="b" d="M95.108,37.479c.158-.039.366-.081.627-.124a5.29,5.29,0,0,1,.9-.067,1.951,1.951,0,0,1,.76.128,1.2,1.2,0,0,1,.483.363,1.382,1.382,0,0,1,.256.557,3.249,3.249,0,0,1,.074.716v2.154h-.686V39.2a3.336,3.336,0,0,0-.047-.606,1.046,1.046,0,0,0-.159-.4.627.627,0,0,0-.3-.226,1.28,1.28,0,0,0-.457-.07c-.074,0-.151,0-.228.007s-.154.012-.226.019-.135.016-.193.026l-.121.021v3.24h-.686Z" transform="translate(-39.627 -35.479)"/><path class="b" d="M100.043,36.4l.686-.119V41.9c-.158.044-.359.088-.606.133a4.869,4.869,0,0,1-.848.067,2.154,2.154,0,0,1-.8-.14,1.741,1.741,0,0,1-.606-.4,1.765,1.765,0,0,1-.387-.63,2.429,2.429,0,0,1-.137-.839,2.758,2.758,0,0,1,.114-.811,1.844,1.844,0,0,1,.336-.634,1.511,1.511,0,0,1,.543-.413,1.743,1.743,0,0,1,.734-.149,1.773,1.773,0,0,1,.587.089,1.877,1.877,0,0,1,.38.17Zm0,2.581a1.417,1.417,0,0,0-.363-.2,1.343,1.343,0,0,0-.517-.1,1.094,1.094,0,0,0-.5.107.922.922,0,0,0-.343.3,1.238,1.238,0,0,0-.193.445,2.543,2.543,0,0,0-.058.553,1.489,1.489,0,0,0,.331,1.037,1.135,1.135,0,0,0,.886.366,3.447,3.447,0,0,0,.468-.026,2.423,2.423,0,0,0,.292-.054Z" transform="translate(-37.849 -36.279)"/><path class="b" d="M104.085,36.621h.716v5.114h-.716V39.374h-2.5v2.361h-.716V36.621h.716v2.133h2.5Z" transform="translate(-35.058 -36.008)"/><path class="b" d="M106.818,41.06c-.156.039-.364.081-.623.124a5.22,5.22,0,0,1-.9.067,1.9,1.9,0,0,1-.744-.128,1.215,1.215,0,0,1-.487-.366,1.5,1.5,0,0,1-.266-.557,2.9,2.9,0,0,1-.081-.713V37.333h.686V39.34a1.743,1.743,0,0,0,.221,1,.863.863,0,0,0,.746.3c.074,0,.149,0,.228-.007s.152-.012.222-.019.131-.014.187-.023a.639.639,0,0,0,.123-.025v-3.24h.685Z" transform="translate(-32.795 -35.443)"/><path class="b" d="M106.106,37.479c.158-.039.366-.081.623-.124a5.233,5.233,0,0,1,.9-.067,1.69,1.69,0,0,1,.62.1,1.068,1.068,0,0,1,.42.291c.035-.025.089-.06.163-.1a1.828,1.828,0,0,1,.273-.13,2.754,2.754,0,0,1,.361-.11,1.862,1.862,0,0,1,.429-.047,1.749,1.749,0,0,1,.723.128,1.049,1.049,0,0,1,.438.366,1.408,1.408,0,0,1,.214.56,4.072,4.072,0,0,1,.056.709v2.154h-.686V39.2a4.3,4.3,0,0,0-.033-.583,1.111,1.111,0,0,0-.124-.406.594.594,0,0,0-.252-.24.945.945,0,0,0-.41-.077,1.52,1.52,0,0,0-.571.093,1.115,1.115,0,0,0-.306.166,2.573,2.573,0,0,1,.089.42,3.825,3.825,0,0,1,.028.48v2.154h-.685V39.2a3.982,3.982,0,0,0-.037-.583,1.218,1.218,0,0,0-.13-.406.59.59,0,0,0-.25-.24.933.933,0,0,0-.4-.077c-.068,0-.144,0-.221.007s-.154.012-.226.019-.137.016-.2.026-.1.018-.117.021v3.24h-.686Z" transform="translate(-30.903 -35.479)"/><path class="b" d="M111.01,37.279a2.018,2.018,0,0,1,.7.107,1.144,1.144,0,0,1,.457.3,1.178,1.178,0,0,1,.249.464,2.263,2.263,0,0,1,.074.6v2.4l-.247.04c-.107.018-.226.033-.359.049s-.277.028-.431.04-.31.018-.462.018a2.465,2.465,0,0,1-.6-.067,1.325,1.325,0,0,1-.473-.21.978.978,0,0,1-.31-.38,1.333,1.333,0,0,1-.11-.567,1.1,1.1,0,0,1,.13-.546,1.042,1.042,0,0,1,.35-.37,1.671,1.671,0,0,1,.517-.207,2.839,2.839,0,0,1,.62-.065c.068,0,.14,0,.214.011s.144.018.21.03.124.023.173.033.084.018.1.021v-.191a1.545,1.545,0,0,0-.037-.336.77.77,0,0,0-.133-.3.656.656,0,0,0-.261-.2,1.016,1.016,0,0,0-.433-.079,3.125,3.125,0,0,0-.594.049,2,2,0,0,0-.38.1l-.081-.569a2.154,2.154,0,0,1,.443-.114A3.819,3.819,0,0,1,111.01,37.279Zm.06,3.439c.161,0,.306,0,.431-.012a1.887,1.887,0,0,0,.313-.04V39.523a.9.9,0,0,0-.24-.063,2.626,2.626,0,0,0-.4-.025,2.748,2.748,0,0,0-.329.021,1.026,1.026,0,0,0-.317.093.7.7,0,0,0-.24.191.5.5,0,0,0-.1.322.553.553,0,0,0,.236.513A1.244,1.244,0,0,0,111.069,40.719Z" transform="translate(-28.213 -35.486)"/><path class="b" d="M111.8,37.479c.158-.039.366-.081.627-.124a5.29,5.29,0,0,1,.9-.067,1.951,1.951,0,0,1,.76.128,1.2,1.2,0,0,1,.483.363,1.383,1.383,0,0,1,.256.557,3.251,3.251,0,0,1,.074.716v2.154h-.686V39.2a3.335,3.335,0,0,0-.047-.606,1.046,1.046,0,0,0-.159-.4.627.627,0,0,0-.3-.226,1.28,1.28,0,0,0-.457-.07c-.074,0-.151,0-.228.007s-.154.012-.226.019-.135.016-.193.026l-.121.021v3.24H111.8Z" transform="translate(-26.389 -35.479)"/><path class="b" d="M114.544,37.344a.436.436,0,0,1-.313-.123.427.427,0,0,1-.13-.327.434.434,0,0,1,.13-.329.467.467,0,0,1,.627,0,.434.434,0,0,1,.13.329.427.427,0,0,1-.13.327A.436.436,0,0,1,114.544,37.344Zm.347,4.53H114.2V38.038h.686Z" transform="translate(-24.561 -36.148)"/><path class="b" d="M115.862,37.858h1.454v.576h-1.454V40.2a2.131,2.131,0,0,0,.044.476.717.717,0,0,0,.133.294.475.475,0,0,0,.221.152,1.034,1.034,0,0,0,.31.044,1.453,1.453,0,0,0,.5-.07l.261-.1.133.567a2.342,2.342,0,0,1-.361.13,2.038,2.038,0,0,1-.592.077,1.785,1.785,0,0,1-.644-.1.923.923,0,0,1-.41-.3,1.176,1.176,0,0,1-.217-.49,3.228,3.228,0,0,1-.063-.676V36.788l.686-.117Z" transform="translate(-23.709 -35.969)"/><path class="b" d="M117.239,37.344a.436.436,0,0,1-.313-.123.427.427,0,0,1-.13-.327.434.434,0,0,1,.13-.329.467.467,0,0,1,.627,0,.434.434,0,0,1,.13.329.427.427,0,0,1-.13.327A.436.436,0,0,1,117.239,37.344Zm.347,4.53H116.9V38.038h.687Z" transform="translate(-22.423 -36.148)"/><path class="b" d="M117.776,39.3a2.46,2.46,0,0,1,.147-.89,1.854,1.854,0,0,1,.391-.63,1.589,1.589,0,0,1,.562-.377,1.734,1.734,0,0,1,.648-.126,1.478,1.478,0,0,1,1.189.483,2.226,2.226,0,0,1,.413,1.473v.114c0,.047,0,.089-.007.13h-2.627a1.39,1.39,0,0,0,.347.907,1.269,1.269,0,0,0,.944.31,2.516,2.516,0,0,0,.609-.063,2.246,2.246,0,0,0,.371-.121l.1.574a1.958,1.958,0,0,1-.44.14,3.108,3.108,0,0,1-.711.075,2.243,2.243,0,0,1-.867-.152,1.614,1.614,0,0,1-.6-.417,1.706,1.706,0,0,1-.35-.63A2.7,2.7,0,0,1,117.776,39.3Zm2.634-.377a1.14,1.14,0,0,0-.233-.764.8.8,0,0,0-.66-.3.907.907,0,0,0-.417.093.987.987,0,0,0-.306.24,1.093,1.093,0,0,0-.194.338,1.638,1.638,0,0,0-.093.392Z" transform="translate(-21.646 -35.486)"/><path class="b" d="M121.218,40.719a1.328,1.328,0,0,0,.623-.112.374.374,0,0,0,.2-.354.469.469,0,0,0-.2-.4,3.164,3.164,0,0,0-.657-.333c-.147-.06-.289-.119-.424-.18a1.488,1.488,0,0,1-.35-.217.952.952,0,0,1-.236-.3.962.962,0,0,1-.089-.436.978.978,0,0,1,.377-.807,1.605,1.605,0,0,1,1.026-.3,2.871,2.871,0,0,1,.324.019c.109.012.21.026.3.044s.175.035.247.056.126.037.166.051l-.126.59a1.8,1.8,0,0,0-.347-.121,2.225,2.225,0,0,0-.567-.063,1.064,1.064,0,0,0-.5.114.382.382,0,0,0-.214.359.5.5,0,0,0,.047.221.548.548,0,0,0,.149.173,1.241,1.241,0,0,0,.247.144c.1.044.215.091.354.14.182.07.345.137.487.2a1.508,1.508,0,0,1,.366.233.891.891,0,0,1,.233.32,1.192,1.192,0,0,1,.081.461.914.914,0,0,1-.4.806,1.96,1.96,0,0,1-1.124.273,2.949,2.949,0,0,1-.8-.086,3.763,3.763,0,0,1-.391-.13l.124-.59c.079.03.2.074.377.133A2.153,2.153,0,0,0,121.218,40.719Z" transform="translate(-19.857 -35.486)"/><path class="b" d="M122.889,39.226a3.2,3.2,0,0,1,.2-1.159,2.4,2.4,0,0,1,.531-.837,2.181,2.181,0,0,1,.783-.5,2.627,2.627,0,0,1,.947-.17,2.545,2.545,0,0,1,.933.17,2.156,2.156,0,0,1,.772.5,2.424,2.424,0,0,1,.527.837,3.519,3.519,0,0,1,0,2.317,2.432,2.432,0,0,1-.527.839,2.156,2.156,0,0,1-.772.5,2.546,2.546,0,0,1-.933.17,2.627,2.627,0,0,1-.947-.17,2.181,2.181,0,0,1-.783-.5,2.413,2.413,0,0,1-.531-.839A3.187,3.187,0,0,1,122.889,39.226Zm.753,0a2.825,2.825,0,0,0,.119.844,1.853,1.853,0,0,0,.334.646,1.475,1.475,0,0,0,.532.41,1.659,1.659,0,0,0,.7.144,1.637,1.637,0,0,0,.7-.144,1.493,1.493,0,0,0,.529-.41,1.913,1.913,0,0,0,.334-.646,3.058,3.058,0,0,0,0-1.69,1.921,1.921,0,0,0-.334-.644,1.493,1.493,0,0,0-.529-.41,1.637,1.637,0,0,0-.7-.144,1.659,1.659,0,0,0-.7.144,1.475,1.475,0,0,0-.532.41,1.86,1.86,0,0,0-.334.644A2.845,2.845,0,0,0,123.642,39.226Z" transform="translate(-17.59 -36.06)"/><path class="b" d="M129.562,39.295a2.735,2.735,0,0,1-.114.8,1.844,1.844,0,0,1-.336.634,1.526,1.526,0,0,1-.543.413,1.743,1.743,0,0,1-.734.149,1.773,1.773,0,0,1-.587-.089,1.877,1.877,0,0,1-.38-.17v1.536h-.686V37.486c.163-.039.366-.082.609-.128a4.475,4.475,0,0,1,.844-.07,2.125,2.125,0,0,1,.8.14,1.713,1.713,0,0,1,.606.4,1.8,1.8,0,0,1,.387.63A2.43,2.43,0,0,1,129.562,39.295Zm-.716,0a1.474,1.474,0,0,0-.331-1.033,1.145,1.145,0,0,0-.886-.363,4.191,4.191,0,0,0-.483.023,1.9,1.9,0,0,0-.277.051v2.422a1.4,1.4,0,0,0,.361.2,1.349,1.349,0,0,0,.517.1,1.1,1.1,0,0,0,.506-.107.936.936,0,0,0,.343-.3,1.232,1.232,0,0,0,.191-.441A2.385,2.385,0,0,0,128.846,39.295Z" transform="translate(-14.977 -35.479)"/><path class="b" d="M128.486,39.3a2.46,2.46,0,0,1,.147-.89,1.854,1.854,0,0,1,.391-.63,1.589,1.589,0,0,1,.562-.377,1.734,1.734,0,0,1,.648-.126,1.478,1.478,0,0,1,1.189.483,2.226,2.226,0,0,1,.413,1.473v.114c0,.047,0,.089-.007.13H129.2a1.39,1.39,0,0,0,.347.907,1.269,1.269,0,0,0,.944.31,2.516,2.516,0,0,0,.609-.063,2.246,2.246,0,0,0,.371-.121l.1.574a1.958,1.958,0,0,1-.44.14,3.108,3.108,0,0,1-.711.075,2.243,2.243,0,0,1-.867-.152,1.614,1.614,0,0,1-.6-.417,1.707,1.707,0,0,1-.35-.63A2.7,2.7,0,0,1,128.486,39.3Zm2.634-.377a1.14,1.14,0,0,0-.233-.764.8.8,0,0,0-.66-.3.907.907,0,0,0-.417.093.988.988,0,0,0-.306.24,1.093,1.093,0,0,0-.194.338,1.637,1.637,0,0,0-.093.392Z" transform="translate(-13.15 -35.486)"/><path class="b" d="M130.906,37.479c.158-.039.366-.081.627-.124a5.29,5.29,0,0,1,.9-.067,1.951,1.951,0,0,1,.76.128,1.2,1.2,0,0,1,.483.363,1.382,1.382,0,0,1,.256.557,3.249,3.249,0,0,1,.074.716v2.154h-.686V39.2a3.336,3.336,0,0,0-.047-.606,1.046,1.046,0,0,0-.159-.4.627.627,0,0,0-.3-.226,1.28,1.28,0,0,0-.457-.07c-.074,0-.151,0-.228.007s-.154.012-.226.019-.135.016-.193.026l-.121.021v3.24h-.686Z" transform="translate(-11.23 -35.479)"/><path class="b" d="M136.6,41.027c-.049-.119-.116-.27-.2-.452s-.168-.378-.261-.59-.194-.429-.3-.651-.2-.436-.3-.636-.18-.377-.261-.534-.147-.278-.2-.362q-.081.872-.133,1.886t-.088,2.047h-.7q.029-.665.067-1.34t.086-1.327q.047-.654.1-1.273t.121-1.173h.627q.2.326.429.767t.457.926q.229.483.443.967c.142.322.273.616.391.883q.179-.4.391-.883t.443-.967q.229-.483.457-.926t.429-.767h.627q.25,2.472.377,5.114h-.7q-.037-1.032-.089-2.047t-.133-1.886q-.074.126-.194.362c-.082.158-.17.334-.263.534s-.193.412-.3.636-.2.441-.3.651l-.263.59c-.081.182-.147.333-.2.452Z" transform="translate(-8.646 -36.008)"/><path class="b" d="M139.162,37.279a2.018,2.018,0,0,1,.7.107,1.143,1.143,0,0,1,.457.3,1.177,1.177,0,0,1,.249.464,2.263,2.263,0,0,1,.074.6v2.4l-.247.04c-.107.018-.226.033-.359.049s-.277.028-.431.04-.31.018-.462.018a2.465,2.465,0,0,1-.6-.067,1.325,1.325,0,0,1-.473-.21.978.978,0,0,1-.31-.38,1.333,1.333,0,0,1-.11-.567,1.1,1.1,0,0,1,.13-.546,1.041,1.041,0,0,1,.35-.37,1.671,1.671,0,0,1,.517-.207,2.839,2.839,0,0,1,.62-.065c.068,0,.14,0,.214.011s.144.018.21.03.124.023.173.033.084.018.1.021v-.191a1.545,1.545,0,0,0-.037-.336.77.77,0,0,0-.133-.3.656.656,0,0,0-.261-.2,1.016,1.016,0,0,0-.433-.079,3.125,3.125,0,0,0-.594.049,2,2,0,0,0-.38.1l-.081-.569a2.154,2.154,0,0,1,.443-.114A3.82,3.82,0,0,1,139.162,37.279Zm.06,3.439c.161,0,.306,0,.431-.012a1.887,1.887,0,0,0,.313-.04V39.523a.9.9,0,0,0-.24-.063,2.626,2.626,0,0,0-.4-.025,2.748,2.748,0,0,0-.329.021,1.026,1.026,0,0,0-.317.093.7.7,0,0,0-.24.191.5.5,0,0,0-.1.322.553.553,0,0,0,.236.513A1.244,1.244,0,0,0,139.221,40.719Z" transform="translate(-5.881 -35.486)"/><path class="b" d="M141.366,37.288c.06,0,.126,0,.2.011s.151.018.224.03.142.025.2.037a1.115,1.115,0,0,1,.137.033l-.117.6a2.6,2.6,0,0,0-.27-.07,2.429,2.429,0,0,0-.483-.04,1.855,1.855,0,0,0-.38.04c-.126.028-.208.046-.247.056v3.224h-.686V37.531a4.462,4.462,0,0,1,.606-.166A3.818,3.818,0,0,1,141.366,37.288Z" transform="translate(-4.056 -35.479)"/><path class="b" d="M142.924,39.9a4.8,4.8,0,0,1,.469.42c.165.168.327.348.487.543s.31.391.454.59.263.385.361.557h-.8a6.1,6.1,0,0,0-.357-.527c-.135-.18-.277-.352-.424-.517a6.119,6.119,0,0,0-.45-.454,4,4,0,0,0-.436-.347v1.844h-.686V36.4l.686-.119v3.5c.117-.119.249-.249.391-.392s.284-.287.42-.434.268-.289.392-.426.228-.254.317-.357h.8c-.112.123-.236.257-.368.406s-.271.3-.413.447l-.433.45C143.189,39.621,143.052,39.762,142.924,39.9Z" transform="translate(-2.797 -36.279)"/><path class="b" d="M143.459,39.3a2.46,2.46,0,0,1,.147-.89,1.854,1.854,0,0,1,.391-.63,1.589,1.589,0,0,1,.562-.377,1.735,1.735,0,0,1,.648-.126,1.478,1.478,0,0,1,1.189.483,2.226,2.226,0,0,1,.413,1.473v.114c0,.047,0,.089-.007.13h-2.627a1.39,1.39,0,0,0,.347.907,1.269,1.269,0,0,0,.944.31,2.516,2.516,0,0,0,.609-.063,2.246,2.246,0,0,0,.371-.121l.1.574a1.957,1.957,0,0,1-.44.14,3.108,3.108,0,0,1-.711.075,2.243,2.243,0,0,1-.867-.152,1.614,1.614,0,0,1-.6-.417,1.707,1.707,0,0,1-.35-.63A2.7,2.7,0,0,1,143.459,39.3Zm2.634-.377a1.14,1.14,0,0,0-.233-.764.8.8,0,0,0-.66-.3.907.907,0,0,0-.417.093.988.988,0,0,0-.306.24,1.093,1.093,0,0,0-.194.338,1.638,1.638,0,0,0-.093.392Z" transform="translate(-1.272 -35.486)"/><path class="b" d="M146.54,37.858h1.453v.576H146.54V40.2a2.131,2.131,0,0,0,.044.476.717.717,0,0,0,.133.294.475.475,0,0,0,.221.152,1.034,1.034,0,0,0,.31.044,1.453,1.453,0,0,0,.5-.07l.261-.1.133.567a2.342,2.342,0,0,1-.361.13,2.038,2.038,0,0,1-.592.077,1.785,1.785,0,0,1-.644-.1.924.924,0,0,1-.41-.3,1.176,1.176,0,0,1-.217-.49,3.228,3.228,0,0,1-.063-.676V36.788l.687-.117Z" transform="translate(0.627 -35.969)"/><path class="b" d="M150.912,39.295a2.735,2.735,0,0,1-.114.8,1.844,1.844,0,0,1-.336.634,1.525,1.525,0,0,1-.543.413,1.743,1.743,0,0,1-.734.149,1.773,1.773,0,0,1-.587-.089,1.877,1.877,0,0,1-.38-.17v1.536h-.686V37.486c.163-.039.366-.082.609-.128a4.475,4.475,0,0,1,.844-.07,2.125,2.125,0,0,1,.8.14,1.713,1.713,0,0,1,.606.4,1.8,1.8,0,0,1,.387.63A2.428,2.428,0,0,1,150.912,39.295Zm-.716,0a1.474,1.474,0,0,0-.331-1.033,1.145,1.145,0,0,0-.886-.363,4.191,4.191,0,0,0-.483.023,1.9,1.9,0,0,0-.277.051v2.422a1.4,1.4,0,0,0,.361.2,1.35,1.35,0,0,0,.517.1,1.1,1.1,0,0,0,.506-.107.936.936,0,0,0,.343-.3,1.232,1.232,0,0,0,.191-.441A2.383,2.383,0,0,0,150.2,39.295Z" transform="translate(1.959 -35.479)"/><path class="b" d="M151.113,42.079a1.315,1.315,0,0,1-.9-.273,1.076,1.076,0,0,1-.264-.8V36.4l.686-.119v4.613a1.142,1.142,0,0,0,.028.28.4.4,0,0,0,.1.177.422.422,0,0,0,.177.1,1.668,1.668,0,0,0,.273.054Z" transform="translate(3.876 -36.279)"/><path class="b" d="M152.44,37.279a2.018,2.018,0,0,1,.7.107,1.144,1.144,0,0,1,.457.3,1.178,1.178,0,0,1,.249.464,2.263,2.263,0,0,1,.074.6v2.4l-.247.04c-.107.018-.226.033-.359.049s-.277.028-.431.04-.31.018-.462.018a2.466,2.466,0,0,1-.6-.067,1.325,1.325,0,0,1-.473-.21.978.978,0,0,1-.31-.38,1.333,1.333,0,0,1-.11-.567,1.1,1.1,0,0,1,.13-.546,1.041,1.041,0,0,1,.35-.37,1.671,1.671,0,0,1,.517-.207,2.839,2.839,0,0,1,.62-.065c.068,0,.14,0,.214.011s.144.018.21.03.124.023.173.033.084.018.1.021v-.191a1.546,1.546,0,0,0-.037-.336.77.77,0,0,0-.133-.3.656.656,0,0,0-.261-.2,1.016,1.016,0,0,0-.433-.079,3.125,3.125,0,0,0-.594.049,2,2,0,0,0-.38.1l-.081-.569a2.155,2.155,0,0,1,.443-.114A3.819,3.819,0,0,1,152.44,37.279Zm.06,3.439c.161,0,.306,0,.431-.012a1.887,1.887,0,0,0,.313-.04V39.523a.9.9,0,0,0-.24-.063,2.626,2.626,0,0,0-.4-.025,2.748,2.748,0,0,0-.329.021,1.025,1.025,0,0,0-.317.093.7.7,0,0,0-.24.191.5.5,0,0,0-.1.322.553.553,0,0,0,.236.513A1.244,1.244,0,0,0,152.5,40.719Z" transform="translate(4.652 -35.486)"/><path class="b" d="M154.989,41.3a2.085,2.085,0,0,1-.814-.149,1.626,1.626,0,0,1-.59-.413,1.7,1.7,0,0,1-.359-.63,2.614,2.614,0,0,1-.117-.807,2.411,2.411,0,0,1,.13-.813,1.9,1.9,0,0,1,.364-.637,1.611,1.611,0,0,1,.58-.42,1.863,1.863,0,0,1,.764-.152,3.215,3.215,0,0,1,.517.044,2.352,2.352,0,0,1,.494.142l-.154.581a1.661,1.661,0,0,0-.359-.117,2,2,0,0,0-.431-.044,1.1,1.1,0,0,0-.883.361,1.6,1.6,0,0,0-.3,1.056,2.134,2.134,0,0,0,.07.567,1.146,1.146,0,0,0,.221.443.994.994,0,0,0,.387.284,1.483,1.483,0,0,0,.576.1,2.242,2.242,0,0,0,.494-.051,1.794,1.794,0,0,0,.347-.112l.1.576a.777.777,0,0,1-.17.07,2.306,2.306,0,0,1-.25.06c-.095.018-.193.032-.3.044A2.666,2.666,0,0,1,154.989,41.3Z" transform="translate(6.382 -35.486)"/><path class="b" d="M155.022,39.3a2.46,2.46,0,0,1,.147-.89,1.854,1.854,0,0,1,.391-.63,1.589,1.589,0,0,1,.562-.377,1.734,1.734,0,0,1,.648-.126,1.478,1.478,0,0,1,1.189.483,2.226,2.226,0,0,1,.413,1.473v.114c0,.047,0,.089-.007.13h-2.627a1.39,1.39,0,0,0,.347.907,1.269,1.269,0,0,0,.944.31,2.515,2.515,0,0,0,.609-.063,2.246,2.246,0,0,0,.371-.121l.1.574a1.958,1.958,0,0,1-.44.14,3.108,3.108,0,0,1-.711.075,2.243,2.243,0,0,1-.867-.152,1.614,1.614,0,0,1-.6-.417,1.706,1.706,0,0,1-.35-.63A2.7,2.7,0,0,1,155.022,39.3Zm2.634-.377a1.14,1.14,0,0,0-.233-.764.8.8,0,0,0-.66-.3.907.907,0,0,0-.417.093.987.987,0,0,0-.306.24,1.094,1.094,0,0,0-.194.338,1.641,1.641,0,0,0-.093.392Z" transform="translate(7.9 -35.486)"/></g><g transform="translate(101.715 21.076)"><path class="c" d="M72.8,39.833a9.13,9.13,0,0,0,2.212-.222,4.071,4.071,0,0,0,1.4-.609,2.022,2.022,0,0,0,.73-.912,3.253,3.253,0,0,0,.2-1.177,2.717,2.717,0,0,0-1.3-2.291,18.582,18.582,0,0,0-4.462-1.968q-1.382-.486-2.76-1.116a10.122,10.122,0,0,1-2.474-1.582,7.53,7.53,0,0,1-1.785-2.312,7.229,7.229,0,0,1-.69-3.306,8.185,8.185,0,0,1,.73-3.509,7.49,7.49,0,0,1,2.07-2.657,9.47,9.47,0,0,1,3.245-1.684,14.582,14.582,0,0,1,4.3-.588,17.21,17.21,0,0,1,8.317,1.946l-1.825,4.99a17.416,17.416,0,0,0-2.616-1.075,11.376,11.376,0,0,0-3.469-.466,6.36,6.36,0,0,0-3.266.629,2.119,2.119,0,0,0-.993,1.926,2.223,2.223,0,0,0,.364,1.3,3.55,3.55,0,0,0,1.035.954,9.1,9.1,0,0,0,1.541.771q.872.345,1.926.71,2.191.812,3.814,1.6a10.207,10.207,0,0,1,2.7,1.845,6.68,6.68,0,0,1,1.6,2.476,9.927,9.927,0,0,1,.529,3.448,7.323,7.323,0,0,1-2.76,6.1q-2.758,2.17-8.317,2.17a23.015,23.015,0,0,1-3.366-.222,21.639,21.639,0,0,1-2.658-.548,15.143,15.143,0,0,1-1.988-.69,15.448,15.448,0,0,1-1.4-.688l1.785-5.031a15.932,15.932,0,0,0,3.1,1.238A16.116,16.116,0,0,0,72.8,39.833Z" transform="translate(-63.387 -15.899)"/><path class="c" d="M85.964,39.833a9.13,9.13,0,0,0,2.212-.222,4.071,4.071,0,0,0,1.4-.609,2.022,2.022,0,0,0,.73-.912,3.253,3.253,0,0,0,.2-1.177,2.717,2.717,0,0,0-1.3-2.291,18.582,18.582,0,0,0-4.462-1.968q-1.382-.486-2.76-1.116a10.122,10.122,0,0,1-2.474-1.582,7.53,7.53,0,0,1-1.785-2.312,7.23,7.23,0,0,1-.69-3.306,8.186,8.186,0,0,1,.73-3.509,7.49,7.49,0,0,1,2.07-2.657,9.47,9.47,0,0,1,3.245-1.684,14.582,14.582,0,0,1,4.3-.588A17.21,17.21,0,0,1,95.7,17.846l-1.825,4.99a17.415,17.415,0,0,0-2.616-1.075,11.376,11.376,0,0,0-3.469-.466,6.36,6.36,0,0,0-3.266.629,2.119,2.119,0,0,0-.993,1.926,2.223,2.223,0,0,0,.364,1.3,3.55,3.55,0,0,0,1.035.954,9.094,9.094,0,0,0,1.541.771q.872.345,1.926.71,2.191.812,3.814,1.6a10.207,10.207,0,0,1,2.7,1.845,6.68,6.68,0,0,1,1.6,2.476,9.927,9.927,0,0,1,.529,3.448,7.323,7.323,0,0,1-2.76,6.1q-2.758,2.17-8.317,2.17a23.015,23.015,0,0,1-3.366-.222,21.64,21.64,0,0,1-2.658-.548,15.143,15.143,0,0,1-1.988-.69,15.447,15.447,0,0,1-1.4-.688l1.785-5.031a15.933,15.933,0,0,0,3.1,1.238A16.116,16.116,0,0,0,85.964,39.833Z" transform="translate(-52.943 -15.899)"/><path class="c" d="M107.649,16.261h6.329V44.374h-6.329V32.447H97.021V44.374H90.692V16.261h6.329V27.012h10.628Z" transform="translate(-41.728 -15.612)"/></g><g transform="translate(182.308 21.422)"><path class="c" d="M118.562,21.46a6.306,6.306,0,0,1-.394,2.32,4.754,4.754,0,0,1-1.075,1.676,4.407,4.407,0,0,1-1.623,1.016,5.909,5.909,0,0,1-2.023.341,5.767,5.767,0,0,1-1.988-.341,4.568,4.568,0,0,1-1.63-1.016,4.729,4.729,0,0,1-1.1-1.676,6.231,6.231,0,0,1-.4-2.32,6.021,6.021,0,0,1,.415-2.32,4.946,4.946,0,0,1,1.121-1.683,4.593,4.593,0,0,1,1.63-1.024,5.617,5.617,0,0,1,1.951-.341,5.764,5.764,0,0,1,1.986.341,4.524,4.524,0,0,1,1.632,1.024,4.819,4.819,0,0,1,1.1,1.683A6.231,6.231,0,0,1,118.562,21.46Zm-7.844,0a4.705,4.705,0,0,0,.184,1.364,3.151,3.151,0,0,0,.534,1.045,2.361,2.361,0,0,0,.853.674,2.921,2.921,0,0,0,2.306,0,2.355,2.355,0,0,0,.86-.674,3.151,3.151,0,0,0,.534-1.045,4.705,4.705,0,0,0,.184-1.364,4.786,4.786,0,0,0-.184-1.372,3.145,3.145,0,0,0-.534-1.052,2.355,2.355,0,0,0-.86-.674,2.7,2.7,0,0,0-1.149-.237,2.622,2.622,0,0,0-1.158.244,2.44,2.44,0,0,0-.853.682A3.145,3.145,0,0,0,110.9,20.1,4.729,4.729,0,0,0,110.718,21.46Z" transform="translate(-108.33 -16.092)"/><path class="c" d="M122.278,21.583a5.693,5.693,0,0,1-.222,1.646A3.724,3.724,0,0,1,121.4,24.5a2.946,2.946,0,0,1-1.068.831,3.455,3.455,0,0,1-1.468.3,4,4,0,0,1-.86-.088,4.151,4.151,0,0,1-.772-.252v2.936h-2.208V17.951c.2-.059.424-.116.681-.17s.527-.1.809-.141.567-.072.86-.1.571-.038.837-.038a4.772,4.772,0,0,1,1.72.29,3.519,3.519,0,0,1,1.275.815A3.477,3.477,0,0,1,122,19.894,4.9,4.9,0,0,1,122.278,21.583Zm-2.254.06A2.671,2.671,0,0,0,119.565,20a1.6,1.6,0,0,0-1.364-.616c-.2,0-.382.007-.55.022s-.306.032-.415.053v3.988a1.915,1.915,0,0,0,.541.222,2.606,2.606,0,0,0,.676.089Q120.024,23.764,120.024,21.643Z" transform="translate(-103.016 -14.971)"/><path class="c" d="M119.815,21.656a4.778,4.778,0,0,1,.319-1.816,3.9,3.9,0,0,1,.837-1.3,3.505,3.505,0,0,1,1.194-.786,3.745,3.745,0,0,1,1.387-.267,3.445,3.445,0,0,1,2.623,1.016,4.186,4.186,0,0,1,.965,2.988c0,.129-.005.269-.016.422s-.019.29-.03.408h-5.012a1.472,1.472,0,0,0,.639,1.082,2.557,2.557,0,0,0,1.511.4,6.361,6.361,0,0,0,1.194-.111,4.425,4.425,0,0,0,.956-.274l.3,1.794a2.913,2.913,0,0,1-.475.178,6.206,6.206,0,0,1-.658.156c-.243.045-.5.081-.779.111a7.754,7.754,0,0,1-.83.045,4.9,4.9,0,0,1-1.832-.312,3.555,3.555,0,0,1-1.289-.852,3.372,3.372,0,0,1-.757-1.283A5.086,5.086,0,0,1,119.815,21.656Zm5.191-.845a2.314,2.314,0,0,0-.1-.549,1.4,1.4,0,0,0-.25-.475,1.335,1.335,0,0,0-.431-.341,1.4,1.4,0,0,0-.644-.134,1.491,1.491,0,0,0-.637.126,1.3,1.3,0,0,0-.445.334,1.506,1.506,0,0,0-.275.482,3.12,3.12,0,0,0-.142.556Z" transform="translate(-99.219 -14.984)"/><path class="c" d="M124.851,17.951a12.471,12.471,0,0,1,1.452-.3,11.985,11.985,0,0,1,1.869-.141,4.541,4.541,0,0,1,1.653.26,2.464,2.464,0,0,1,1.046.734,2.875,2.875,0,0,1,.55,1.127,6.007,6.007,0,0,1,.163,1.454v4.4h-2.21V21.346a2.982,2.982,0,0,0-.282-1.512,1.147,1.147,0,0,0-1.052-.445q-.236,0-.5.022c-.177.015-.336.032-.475.053v6.02h-2.208Z" transform="translate(-95.224 -14.971)"/><path class="c" d="M111.437,26.146q.268.491.618,1.208t.729,1.557q.378.838.75,1.713t.7,1.646q.328-.77.7-1.646t.751-1.713q.378-.835.729-1.557c.233-.478.44-.881.616-1.208h2.107q.147,1.024.273,2.291t.222,2.641q.1,1.371.179,2.749t.14,2.6h-2.254q-.042-1.5-.117-3.263t-.222-3.558c-.179.415-.378.876-.6,1.38s-.434,1.007-.648,1.511-.419.986-.616,1.447-.368.853-.506,1.179h-1.616c-.138-.326-.306-.72-.506-1.179s-.4-.942-.616-1.447-.429-1.009-.646-1.511-.417-.965-.6-1.38q-.15,1.794-.222,3.558t-.119,3.263h-2.254q.06-1.216.14-2.6t.179-2.749q.1-1.371.222-2.641t.275-2.291Z" transform="translate(-108.264 -8.117)"/><path class="c" d="M118.945,27.412a5.09,5.09,0,0,1,1.63.222,2.509,2.509,0,0,1,1.045.637,2.335,2.335,0,0,1,.557,1.009,4.971,4.971,0,0,1,.163,1.319v4.6c-.317.07-.757.151-1.32.245a12.8,12.8,0,0,1-2.045.14,6.458,6.458,0,0,1-1.371-.133,2.979,2.979,0,0,1-1.061-.438,2,2,0,0,1-.681-.793,2.72,2.72,0,0,1-.238-1.2,2.268,2.268,0,0,1,.275-1.156,2.1,2.1,0,0,1,.734-.757,3.324,3.324,0,0,1,1.052-.408,5.907,5.907,0,0,1,1.231-.126,7.032,7.032,0,0,1,.764.037,3.716,3.716,0,0,1,.541.1V30.5a1.223,1.223,0,0,0-.341-.905,1.653,1.653,0,0,0-1.186-.34,7.557,7.557,0,0,0-1.112.081,4.838,4.838,0,0,0-.949.229l-.282-1.779c.13-.039.289-.081.482-.126s.4-.082.63-.117.468-.065.72-.089S118.687,27.412,118.945,27.412Zm.179,6.464c.217,0,.424,0,.622-.014a4.675,4.675,0,0,0,.475-.044V32.142c-.089-.019-.222-.04-.4-.06a4.61,4.61,0,0,0-.49-.03,4.4,4.4,0,0,0-.585.037,1.48,1.48,0,0,0-.482.142.817.817,0,0,0-.327.28.791.791,0,0,0-.119.445.76.76,0,0,0,.348.72A1.935,1.935,0,0,0,119.123,33.876Z" transform="translate(-102.545 -7.113)"/><path class="c" d="M125.185,29.557c-.2-.049-.431-.1-.7-.156a4.316,4.316,0,0,0-.86-.082,4.071,4.071,0,0,0-.5.039,2.942,2.942,0,0,0-.438.081V35.4h-2.208V28.014a13.337,13.337,0,0,1,1.4-.392,8.016,8.016,0,0,1,1.8-.186c.117,0,.261.007.429.023s.336.035.5.06.336.054.5.089a2.265,2.265,0,0,1,.429.124Z" transform="translate(-98.687 -7.093)"/><path class="c" d="M126.183,31.968c.217-.236.443-.482.674-.737s.457-.51.674-.76.422-.489.615-.714.357-.422.5-.59h2.629q-.788.9-1.536,1.725T128.1,32.585a10.409,10.409,0,0,1,.919.958q.473.557.918,1.151t.816,1.189q.37.594.623,1.084h-2.541q-.236-.386-.539-.855c-.2-.312-.417-.623-.644-.937s-.466-.611-.718-.9a6.022,6.022,0,0,0-.748-.729v3.418h-2.208V25.816l2.208-.355Z" transform="translate(-95.92 -8.66)"/><path class="c" d="M128.257,31.578a4.779,4.779,0,0,1,.319-1.816,3.9,3.9,0,0,1,.837-1.3,3.493,3.493,0,0,1,1.194-.786,3.762,3.762,0,0,1,1.387-.266,3.441,3.441,0,0,1,2.623,1.016,4.181,4.181,0,0,1,.965,2.988c0,.128-.005.27-.016.422s-.019.289-.03.408h-5.012a1.469,1.469,0,0,0,.639,1.082,2.551,2.551,0,0,0,1.511.4,6.289,6.289,0,0,0,1.194-.112,4.479,4.479,0,0,0,.956-.273l.3,1.793a2.988,2.988,0,0,1-.475.179,6.423,6.423,0,0,1-.658.156c-.243.044-.5.081-.779.11a7.754,7.754,0,0,1-.83.046,4.94,4.94,0,0,1-1.832-.312,3.568,3.568,0,0,1-1.289-.853,3.369,3.369,0,0,1-.757-1.284A5.084,5.084,0,0,1,128.257,31.578Zm5.191-.846a2.322,2.322,0,0,0-.1-.548,1.386,1.386,0,0,0-.25-.475,1.349,1.349,0,0,0-.431-.341,1.422,1.422,0,0,0-.644-.133,1.478,1.478,0,0,0-.637.126,1.3,1.3,0,0,0-.445.334,1.482,1.482,0,0,0-.275.482,3.117,3.117,0,0,0-.142.555Z" transform="translate(-92.522 -7.113)"/><path class="c" d="M133.252,26.6l2.21-.355v2.3h2.655v1.839h-2.655v2.744a2.185,2.185,0,0,0,.245,1.112,1.048,1.048,0,0,0,.986.415,4.3,4.3,0,0,0,.734-.067,3.915,3.915,0,0,0,.69-.186l.31,1.72a6.191,6.191,0,0,1-.89.282,5.191,5.191,0,0,1-1.2.119,3.963,3.963,0,0,1-1.5-.245,2.357,2.357,0,0,1-.949-.683,2.527,2.527,0,0,1-.5-1.059,6.218,6.218,0,0,1-.142-1.378Z" transform="translate(-88.56 -8.038)"/><path class="c" d="M144.215,31.505a5.689,5.689,0,0,1-.222,1.646,3.732,3.732,0,0,1-.651,1.275,2.953,2.953,0,0,1-1.068.83,3.442,3.442,0,0,1-1.468.3,3.939,3.939,0,0,1-.86-.089,4.151,4.151,0,0,1-.772-.252v2.935h-2.208V27.873c.2-.06.424-.117.681-.172s.527-.1.809-.14.567-.072.86-.1.571-.037.837-.037a4.792,4.792,0,0,1,1.72.289,3.528,3.528,0,0,1,1.275.814,3.487,3.487,0,0,1,.793,1.284A4.908,4.908,0,0,1,144.215,31.505Zm-2.254.06a2.679,2.679,0,0,0-.459-1.639,1.6,1.6,0,0,0-1.364-.615c-.2,0-.382.007-.55.023s-.306.032-.415.051v3.989a1.915,1.915,0,0,0,.541.222,2.606,2.606,0,0,0,.676.089Q141.961,33.686,141.961,31.565Z" transform="translate(-85.615 -7.1)"/><path class="c" d="M145.072,37.115a5.553,5.553,0,0,1-1.564-.208,2.292,2.292,0,0,1-.949-.541,1.781,1.781,0,0,1-.475-.846,4.555,4.555,0,0,1-.126-1.119V25.816l2.208-.355v8.5a2.892,2.892,0,0,0,.046.534.926.926,0,0,0,.17.4.893.893,0,0,0,.364.266,1.945,1.945,0,0,0,.637.133Z" transform="translate(-81.653 -8.66)"/><path class="c" d="M147.728,27.412a5.09,5.09,0,0,1,1.63.222,2.508,2.508,0,0,1,1.045.637,2.334,2.334,0,0,1,.557,1.009,4.971,4.971,0,0,1,.163,1.319v4.6c-.317.07-.757.151-1.32.245a12.8,12.8,0,0,1-2.045.14,6.458,6.458,0,0,1-1.371-.133,2.979,2.979,0,0,1-1.061-.438,2,2,0,0,1-.681-.793,2.72,2.72,0,0,1-.238-1.2,2.268,2.268,0,0,1,.275-1.156,2.1,2.1,0,0,1,.734-.757,3.323,3.323,0,0,1,1.053-.408,5.906,5.906,0,0,1,1.231-.126,7.033,7.033,0,0,1,.764.037,3.717,3.717,0,0,1,.541.1V30.5a1.223,1.223,0,0,0-.341-.905,1.654,1.654,0,0,0-1.186-.34,7.558,7.558,0,0,0-1.112.081,4.838,4.838,0,0,0-.949.229l-.282-1.779c.13-.039.289-.081.482-.126s.4-.082.63-.117.468-.065.72-.089S147.471,27.412,147.728,27.412Zm.179,6.464c.217,0,.424,0,.622-.014a4.676,4.676,0,0,0,.475-.044V32.142c-.089-.019-.222-.04-.4-.06a4.609,4.609,0,0,0-.49-.03,4.4,4.4,0,0,0-.585.037,1.48,1.48,0,0,0-.482.142.817.817,0,0,0-.327.28.791.791,0,0,0-.119.445.76.76,0,0,0,.348.72A1.935,1.935,0,0,0,147.907,33.876Z" transform="translate(-79.712 -7.113)"/><path class="c" d="M149.061,31.519a4.57,4.57,0,0,1,.275-1.594,3.736,3.736,0,0,1,2.052-2.187,4.171,4.171,0,0,1,1.692-.326,5.5,5.5,0,0,1,1.142.11,5.654,5.654,0,0,1,1.007.319l-.459,1.765a5.728,5.728,0,0,0-.683-.208,3.552,3.552,0,0,0-.83-.088,1.75,1.75,0,0,0-1.461.608,2.5,2.5,0,0,0-.482,1.6,2.6,2.6,0,0,0,.452,1.632,1.9,1.9,0,0,0,1.58.578,5.277,5.277,0,0,0,.86-.075,3.656,3.656,0,0,0,.846-.236l.312,1.809a5.2,5.2,0,0,1-.965.282,6.375,6.375,0,0,1-1.275.119,4.784,4.784,0,0,1-1.839-.32,3.458,3.458,0,0,1-1.268-.867,3.4,3.4,0,0,1-.727-1.3A5.536,5.536,0,0,1,149.061,31.519Z" transform="translate(-76.019 -7.113)"/><path class="c" d="M152.989,31.578a4.778,4.778,0,0,1,.319-1.816,3.9,3.9,0,0,1,.837-1.3,3.492,3.492,0,0,1,1.194-.786,3.762,3.762,0,0,1,1.387-.266,3.441,3.441,0,0,1,2.623,1.016,4.181,4.181,0,0,1,.965,2.988c0,.128-.005.27-.016.422s-.019.289-.03.408h-5.012a1.469,1.469,0,0,0,.639,1.082,2.551,2.551,0,0,0,1.511.4,6.289,6.289,0,0,0,1.194-.112,4.479,4.479,0,0,0,.956-.273l.3,1.793a2.99,2.99,0,0,1-.475.179,6.425,6.425,0,0,1-.658.156c-.243.044-.5.081-.779.11a7.755,7.755,0,0,1-.83.046,4.94,4.94,0,0,1-1.832-.312,3.568,3.568,0,0,1-1.289-.853,3.369,3.369,0,0,1-.757-1.284A5.084,5.084,0,0,1,152.989,31.578Zm5.191-.846a2.326,2.326,0,0,0-.1-.548,1.386,1.386,0,0,0-.25-.475,1.349,1.349,0,0,0-.431-.341,1.422,1.422,0,0,0-.644-.133,1.478,1.478,0,0,0-.637.126,1.3,1.3,0,0,0-.445.334,1.483,1.483,0,0,0-.275.482,3.113,3.113,0,0,0-.142.555Z" transform="translate(-72.904 -7.113)"/></g><g transform="translate(236.253 13.874)"><path class="d" d="M142.977,17.836c-.067-.206-.137-.417-.212-.633s-.152-.433-.228-.647h-2.31c-.074.215-.149.432-.224.649s-.145.427-.21.631h-1.382q.334-.956.632-1.767t.587-1.527q.286-.717.566-1.362t.578-1.259h1.263q.292.615.574,1.259c.187.43.378.883.569,1.362s.387.987.588,1.527.412,1.13.634,1.767Zm-1.6-4.575c-.03.087-.072.2-.13.351s-.123.319-.2.512-.154.407-.245.64-.182.477-.275.733h1.692q-.137-.385-.263-.735t-.242-.642c-.077-.194-.144-.364-.2-.512S141.414,13.345,141.377,13.261Z" transform="translate(-138.412 -11.853)"/><path class="d" d="M146.366,16.692v1.144h-3.951V11.921h1.331v4.771Z" transform="translate(-135.237 -11.853)"/><path class="d" d="M147.108,11.883a3.706,3.706,0,0,1,2.031.465,1.69,1.69,0,0,1,.707,1.524,1.709,1.709,0,0,1-.716,1.541,3.717,3.717,0,0,1-2.049.474h-.419v1.98h-1.331V12.037a7.541,7.541,0,0,1,.921-.12C146.577,11.894,146.862,11.883,147.108,11.883Zm.084,1.136c-.1,0-.191,0-.285.008s-.175.011-.243.018v1.707h.419a2.275,2.275,0,0,0,1.042-.187.722.722,0,0,0,.348-.7.84.84,0,0,0-.089-.41.683.683,0,0,0-.256-.261,1.183,1.183,0,0,0-.4-.137A3.39,3.39,0,0,0,147.192,13.019Z" transform="translate(-132.923 -11.883)"/><path class="d" d="M152.2,11.921h1.331v5.915H152.2v-2.51h-2.236v2.51h-1.331V11.921h1.331v2.262H152.2Z" transform="translate(-130.302 -11.853)"/><path class="d" d="M156.6,17.836c-.067-.206-.137-.417-.212-.633s-.152-.433-.228-.647h-2.31c-.074.215-.149.432-.224.649s-.145.427-.21.631h-1.382q.334-.956.632-1.767c.2-.54.4-1.05.587-1.527s.38-.932.566-1.362.378-.849.578-1.259h1.263q.292.615.574,1.259c.187.43.378.883.569,1.362s.387.987.588,1.527.412,1.13.634,1.767ZM155,13.261c-.03.087-.072.2-.13.351s-.123.319-.2.512-.154.407-.245.64-.182.477-.275.733h1.692q-.137-.385-.263-.735t-.242-.642c-.077-.194-.144-.364-.2-.512S155.036,13.345,155,13.261Z" transform="translate(-127.606 -11.853)"/></g><path class="a" d="M33.386,22.44a2.638,2.638,0,1,0,4.549-2.673L32.6,10.676a2.638,2.638,0,0,0-3.611-.939h0a2.638,2.638,0,0,0-.939,3.611Z" transform="translate(10.005 0)"/><path class="e" d="M24.1,17.472l6.394,10.889a2.616,2.616,0,0,0,3.58.931h0A2.616,2.616,0,0,0,35,25.712L28.609,14.823A2.616,2.616,0,1,0,24.1,17.472Z" transform="translate(6.875 3.298)"/><path class="c" d="M102.081,9.982c-.2-.35-.633-.62-1.488-.6H65.051L61.7,9.411a3.276,3.276,0,0,0-3.107,1.583L57.35,13.169,41.913,39.813l-.339.594-1.24,2.143a.569.569,0,0,1-1.072-.009L20.768,10.9a3.053,3.053,0,1,0-5.288,3.053l6.7,11.22L35.408,48.222a3.3,3.3,0,0,0,2.843,1.511H78.582a2.418,2.418,0,0,0,2.043-1.278l1.816-3.171,17.586-30.279,1.343-2.344.6-1.05a3.4,3.4,0,0,0,.18-.391,1.8,1.8,0,0,0,.055-.219A1.532,1.532,0,0,0,102.081,9.982ZM75.615,42.9,48,42.841,63.5,16.274H91.141Z" transform="translate(0)"/><path class="e" d="M25.237,14.245a2.616,2.616,0,1,0-3.58-.931A2.616,2.616,0,0,0,25.237,14.245Z" transform="translate(4.938 0)"/></g></svg>