<svg xmlns="http://www.w3.org/2000/svg" viewBox="0 0 300 300"><path d="M144.7 205.75c-.4.1-.8.2-1.3.2-3.7.2-6.9-2.6-7.1-6.3-.4-6.4.2-12.3.4-13.5.5-7.1 5.9-14.7 13.2-14.9 1.1 0 2.3-.1 3.4-.3 10.5-1.7 17.8-11.7 16.1-22.2-1-6.3-5-11.7-10.7-14.5-3.3-1.7-4.7-5.7-3.1-9 1.7-3.3 5.7-4.7 9-3.1 9.6 4.8 16.4 13.9 18 24.6 2.8 17.8-9.5 34.7-27.3 37.6-1.5.3-3 .4-4.4.4-.4.6-.9 1.6-1 2.5v.4s-.7 5.6-.3 11.3c.4 3.1-1.8 6-4.9 6.8z" fill="#ff931e"/><circle cx="254.2" cy="168.2" r="11.7" fill="#ff931e" transform="translate(-104 -17.35)"/><path d="M165.1 210.35c-11.7 2.9-24.3 2.5-36.3-2-14.7-5.5-26.5-16.2-33.5-30.2-1.7-3.3-.3-7.4 3.1-9 3.3-1.7 7.4-.3 9 3.1 5.4 10.9 14.7 19.3 26.1 23.6 24.5 9.2 52.1-3.3 61.4-27.7 1-2.6 1.7-5.3 2.3-7.8 2.8-11.9 18.5-16.4 28.3-15 3.7.5 6.2 4 5.7 7.7s-4 6.2-7.7 5.7c-5.9-.9-12.6 2.4-13.2 4.7-.7 2.9-1.5 6.2-2.8 9.6-7.3 19.1-23.6 32.5-42.4 37.3z" fill="#005e8c"/><path d="M86.6 155.75c-3.9 1-8.1 1.3-11.7.7-3.7-.5-6.2-4-5.7-7.7s4-6.2 7.7-5.7c5.9.9 12.6-2.4 13.2-4.7.7-2.9 1.5-6.2 2.8-9.6 10.2-26.8 38.2-43.1 66.6-38.7 3.7.6 6.2 4 5.7 7.7-.6 3.7-4 6.2-7.7 5.7-22.1-3.4-43.9 9.3-51.9 30.2-1 2.6-1.7 5.3-2.3 7.8-1.3 5.5-5.6 10-12 12.8-1.6.6-3.1 1.1-4.7 1.5z" fill="#0091d8"/><path d="M172.2 237.85c-22.7 5.7-47 2.4-67.5-9.6-1.5-.9-2.7-2.4-3.1-4.1-.5-1.7-.2-3.6.7-5.1l.1-.1c1.9-3.2 6-4.3 9.2-2.4 21.1 12.4 46.8 13.9 69.2 4.2 37.8-16.6 55.6-60.9 39.7-99-.8-1.9-1.6-3.7-2.6-5.5-.2-.4-.4-.8-.5-1.3-1.2-2.2-2.5-4.3-3.7-6.3-8.4-13.5 2.1-33.5 13.4-41.9 3-2.2 7.2-1.6 9.5 1.4 2.2 3 1.6 7.2-1.4 9.5-7.4 5.5-13.6 18.1-10 23.9 2.4 3.9 4.9 8.1 7 12.9 20 44.9 0 97.9-44.7 118.3-.4.2-.9.4-1.3.6l-.6.3c-4.4 1.5-8.9 3-13.4 4.2z" fill="#005e8c"/><path d="M71 236.15c-2.6.6-5.4-.3-7.1-2.5-2.2-3-1.6-7.2 1.4-9.5 7.4-5.5 13.6-18.1 10-23.9-2.4-3.9-4.9-8.1-7-12.9-20-44.9 0-97.9 44.7-118.3 22.3-10.2 47.2-10.8 70-1.8 3.5 1.4 5.2 5.3 3.8 8.8-1.4 3.5-5.3 5.2-8.8 3.8-19.4-7.6-40.5-7.1-59.5 1.6-38 17.3-55 62.3-38 100.5 1.8 4 4 7.8 6.2 11.2 8.4 13.5-2.1 33.5-13.4 41.9-.7.5-1.5.9-2.3 1.1z" fill="#0091d8"/><circle cx="355.5" cy="72" r="11" fill="#005e8c" transform="translate(-104 -17.35)"/><g transform="translate(-104 -17.35)"><circle cx="152.5" cy="262.7" r="11" fill="#0091d8"/></g></svg>