<svg xmlns="http://www.w3.org/2000/svg" viewBox="0 0 42.393 42.681"><defs><linearGradient id="a" x2="1" y1=".5" y2=".5" gradientUnits="objectBoundingBox"><stop offset="0" stop-color="#63b3d4"/><stop offset=".528" stop-color="#4292bd"/><stop offset="1" stop-color="#3c5ba7"/></linearGradient></defs><path fill="#facd0a" d="M20.672 1.839 20.694 0l1.093 1.523 1.838-.521-1.087 1.5 1.145 1.644-1.874-.623-1.2 1.578.043-1.947-1.842-.632Zm9.164 2.548.022-1.839 1.093 1.523 1.838-.521-1.087 1.5 1.145 1.644-1.874-.623-1.2 1.578.043-1.947-1.842-.632Zm7.036 6.95.022-1.839 1.093 1.523 1.838-.521-1.087 1.5 1.145 1.644-1.874-.623-1.2 1.578.043-1.947-1.842-.632Zm2.51 9.128.022-1.839 1.093 1.523 1.838-.521-1.087 1.5 1.145 1.644-1.874-.623-1.2 1.578.043-1.947-1.842-.632Zm-2.51 9.533.022-1.839 1.093 1.523 1.838-.521-1.087 1.5 1.145 1.644-1.874-.623-1.2 1.578.043-1.947-1.842-.632Zm-7.11 6.949.022-1.839 1.093 1.523 1.838-.521-1.087 1.5 1.145 1.644-1.874-.623-1.2 1.578.043-1.947-1.842-.632Zm-9.09 2.474.022-1.839 1.093 1.523 1.838-.521-1.087 1.5 1.145 1.644-1.874-.623-1.2 1.578.043-1.947-1.842-.632Zm-9.524-2.474.022-1.839 1.093 1.523 1.838-.521-1.087 1.5 1.145 1.644-1.874-.623-1.2 1.578.043-1.947-1.842-.632Zm-6.851-6.949.022-1.839 1.093 1.523 1.838-.521-1.087 1.5 1.145 1.644-1.874-.623-1.2 1.578.043-1.947-1.842-.632Zm-2.434-9.436.022-1.839 1.093 1.523 1.838-.521-1.087 1.5 1.145 1.644L3 22.246l-1.2 1.578.043-1.947-1.842-.632Zm2.434-9.446.022-1.839L5.412 10.8l1.838-.521-1.087 1.5 1.145 1.644-1.874-.623-1.2 1.578.043-1.947-1.842-.632Zm6.851-6.729.022-1.839 1.093 1.523 1.838-.521-1.087 1.5 1.145 1.644-1.874-.623-1.2 1.578.043-1.947-1.842-.632Z"/><path fill="url(#a)" d="M145.2 326.673a.52.52 0 1 1-.52.52.52.52 0 0 1 .52-.52Zm-2.808 2.461H140.2a.52.52 0 0 0-.52.52.52.52 0 0 0 .52.52h2.188a.52.52 0 0 0 .52-.52.52.52 0 0 0-.516-.52Zm5.831-4.4a.52.52 0 0 0-.52-.521h-9.753a.52.52 0 0 0 0 1.041h9.75a.52.52 0 0 0 .522-.522Zm-4.993 1.941h-4.2a.52.52 0 0 0 0 1.041h4.2a.52.52 0 0 0 0-1.041Zm12.891-5.877a4.7 4.7 0 0 0-1.064.123 6.893 6.893 0 0 0-13.207 1.873h8.119a.71.71 0 1 1 0 1.42h-.578a.52.52 0 0 0 0 1.041h4.165a.71.71 0 0 1 .71.71.71.71 0 0 1-.71.71H147a.52.52 0 1 0 0 1.041h4.6a.71.71 0 1 1 0 1.421h-7.331a.52.52 0 0 0-.52.52.52.52 0 0 0 .52.52h11.999a4.689 4.689 0 0 0-.143-9.376Z" transform="translate(-127.959 -302.09)"/></svg>
