<svg xmlns="http://www.w3.org/2000/svg" viewBox="0 0 512 512" version="1.1" id="svg156"><defs id="defs4"><style id="style2">.d{fill:#fff}.e{fill:#0085ca}</style></defs><g transform="translate(221.182 4.501)" id="g144"><path class="d" d="M142.977 17.836a33.677 33.677 0 00-.212-.633 97.56 97.56 0 00-.228-.647h-2.31l-.224.649c-.075.217-.145.427-.21.631h-1.382q.334-.956.632-1.767.298-.811.587-1.527.286-.717.566-1.362.28-.645.578-1.259h1.263q.292.615.574 1.259c.187.43.378.883.569 1.362.191.479.387.987.588 1.527.201.54.412 1.13.634 1.767zm-1.6-4.575a41.523 41.523 0 01-.33.863c-.077.193-.154.407-.245.64-.091.233-.182.477-.275.733h1.692l-.263-.735q-.126-.35-.242-.642a35.502 35.502 0 01-.2-.512 7.816 7.816 0 00-.137-.347z" transform="translate(-138.412 -11.853)" id="path134"/><path class="d" d="M146.366 16.692v1.144h-3.951v-5.915h1.331v4.771z" transform="translate(-135.237 -11.853)" id="path136"/><path class="d" d="M147.108 11.883a3.706 3.706 0 012.031.465 1.69 1.69 0 01.707 1.524 1.709 1.709 0 01-.716 1.541 3.717 3.717 0 01-2.049.474h-.419v1.98h-1.331v-5.83a7.541 7.541 0 01.921-.12c.325-.023.61-.034.856-.034zm.084 1.136c-.1 0-.191 0-.285.008-.094.008-.175.011-.243.018v1.707h.419a2.275 2.275 0 001.042-.187.722.722 0 00.348-.7.84.84 0 00-.089-.41.683.683 0 00-.256-.261 1.183 1.183 0 00-.4-.137 3.39 3.39 0 00-.536-.038z" transform="translate(-132.923 -11.883)" id="path138"/><path class="d" d="M152.2 11.921h1.331v5.915H152.2v-2.51h-2.236v2.51h-1.331v-5.915h1.331v2.262h2.236z" transform="translate(-130.302 -11.853)" id="path140"/><path class="d" d="M156.6 17.836a33.677 33.677 0 00-.212-.633 97.56 97.56 0 00-.228-.647h-2.31l-.224.649c-.075.217-.145.427-.21.631h-1.382q.334-.956.632-1.767c.2-.54.4-1.05.587-1.527.187-.477.38-.932.566-1.362.186-.43.378-.849.578-1.259h1.263q.292.615.574 1.259c.187.43.378.883.569 1.362.191.479.387.987.588 1.527.201.54.412 1.13.634 1.767zm-1.6-4.575a41.523 41.523 0 01-.33.863c-.077.193-.154.407-.245.64-.091.233-.182.477-.275.733h1.692l-.263-.735q-.126-.35-.242-.642a35.502 35.502 0 01-.2-.512 9.298 9.298 0 00-.137-.347z" transform="translate(-127.606 -11.853)" id="path142"/></g><g id="g21" transform="matrix(4.0839 0 0 4.0839 59.973 59.972)"><path d="M32.735 40.887a2.638 2.638 0 104.549-2.673l-5.335-9.091a2.638 2.638 0 00-3.611-.94 2.638 2.638 0 00-.94 3.612z" id="path146" fill="#ff9e1a"/><path class="e" d="M20.319 39.217l6.394 10.889a2.616 2.616 0 003.58.93 2.616 2.616 0 00.926-3.58l-6.391-10.888a2.616 2.616 0 10-4.51 2.649z" id="path148"/><path d="M91.425 28.429c-.2-.35-.633-.62-1.488-.6H54.395l-3.351.029a3.276 3.276 0 00-3.107 1.583l-1.243 2.175L31.257 58.26l-.34.594-1.24 2.143a.569.569 0 01-1.071-.01l-18.494-31.64A3.053 3.053 0 104.824 32.4l6.7 11.22 13.228 23.049a3.3 3.3 0 002.843 1.51h40.33a2.418 2.418 0 002.044-1.277l1.816-3.171L89.37 33.45l1.343-2.343.6-1.05a3.4 3.4 0 00.18-.391 1.8 1.8 0 00.055-.22 1.532 1.532 0 00-.124-1.018zM64.959 61.347l-27.615-.06 15.5-26.566h27.64z" id="path150" fill="#02558c"/><path class="e" d="M19.519 32.692a2.616 2.616 0 10-3.58-.931 2.616 2.616 0 003.58.93z" id="path152"/></g></svg>