<svg xmlns="http://www.w3.org/2000/svg" viewBox="0 0 142.041 30.875" version="1.1" id="svg20"><style id="style2">.st3{fill:#ff9e1a}.st5{fill:#02558c}.st7{fill:#0085ca}</style><path class="st3" d="M141.474 7.792h-16.662a.569.569 0 01-.567-.568V1.119c0-.312.255-.567.567-.567h16.662c.312 0 .567.255.567.567v6.105a.569.569 0 01-.567.567z" id="path4"/><path d="M49.98 29.829c.416 0 .624-.143.624-.428a.43.43 0 00-.055-.224.54.54 0 00-.15-.16 1.116 1.116 0 00-.217-.118 5.605 5.605 0 00-.257-.098 2.712 2.712 0 01-.295-.121 1.057 1.057 0 01-.244-.162.666.666 0 01-.222-.528c0-.25.085-.444.256-.584.17-.14.404-.21.703-.21.173 0 .33.019.471.056.141.036.245.077.311.12l-.128.326a1.103 1.103 0 00-.257-.105 1.388 1.388 0 00-.397-.051.88.88 0 00-.214.024.554.554 0 00-.173.075.368.368 0 00-.117.125.361.361 0 00-.043.178.39.39 0 00.045.195.46.46 0 00.128.137c.054.04.118.076.191.109.072.033.152.066.24.098.124.05.237.1.34.149.103.05.192.108.268.176.075.07.134.15.175.246a.866.866 0 01.061.343c0 .25-.09.442-.273.577-.183.133-.44.2-.772.2a2.035 2.035 0 01-.755-.14 1.658 1.658 0 01-.126-.06l.12-.33c.063.036.16.076.288.12.13.044.287.065.473.065zm3.39-.787c0 .172-.025.325-.074.462a1.03 1.03 0 01-.208.354.918.918 0 01-.319.229 1.01 1.01 0 01-.403.08 1.01 1.01 0 01-.403-.08.918.918 0 01-.319-.23 1.03 1.03 0 01-.208-.353 1.339 1.339 0 01-.074-.461c0-.167.024-.32.074-.458a1.03 1.03 0 01.208-.357.918.918 0 01.32-.228.998.998 0 01.402-.08.946.946 0 01.93.665c.05.139.074.29.074.458zm-.4 0c0-.24-.053-.432-.162-.572a.525.525 0 00-.442-.212.525.525 0 00-.442.212c-.109.14-.163.332-.163.573 0 .242.054.433.163.574a.524.524 0 00.442.212c.187 0 .334-.07.442-.212.11-.14.162-.332.162-.574zm1.87 1.12c-.174 0-.326-.027-.456-.082a.907.907 0 01-.529-.582 1.458 1.458 0 01-.065-.45c0-.165.023-.316.072-.453a1.06 1.06 0 01.203-.356.899.899 0 01.323-.234 1.04 1.04 0 01.426-.085c.096 0 .193.009.288.024.096.017.188.043.276.08l-.086.324a1.113 1.113 0 00-.44-.09c-.215 0-.379.067-.493.2-.113.136-.17.332-.17.59 0 .115.013.22.04.316a.636.636 0 00.122.247.552.552 0 00.216.158.827.827 0 00.321.056c.102 0 .194-.01.276-.028a1 1 0 00.193-.063l.054.322a.508.508 0 01-.095.039 1.264 1.264 0 01-.14.033 2.44 2.44 0 01-.337.035zm1.172-2.575a.243.243 0 01-.175-.07.236.236 0 01-.073-.181c0-.077.025-.138.073-.184a.243.243 0 01.174-.067c.068 0 .127.022.175.067a.243.243 0 01.073.184.236.236 0 01-.073.182.243.243 0 01-.175.069zm.193 2.526h-.383v-2.14h.383zm1.35-2.193c.153 0 .283.02.39.06.104.04.19.096.253.168a.68.68 0 01.14.26c.026.1.04.21.04.33v1.338l-.138.023a4.6 4.6 0 01-.44.05c-.087.006-.173.01-.258.01a1.39 1.39 0 01-.333-.038.739.739 0 01-.264-.117.545.545 0 01-.173-.212.743.743 0 01-.06-.317c0-.118.023-.22.071-.304a.583.583 0 01.195-.206.932.932 0 01.288-.115 1.583 1.583 0 01.465-.03c.041.003.08.009.117.016l.097.018.058.012v-.106a.91.91 0 00-.02-.188.421.421 0 00-.075-.165.366.366 0 00-.146-.114.566.566 0 00-.24-.044c-.127 0-.237.009-.332.027a1.114 1.114 0 00-.212.056l-.045-.317c.05-.022.132-.043.247-.064.115-.021.24-.031.374-.031zm.033 1.918c.09 0 .17-.002.24-.007.07-.004.128-.012.175-.023v-.637a.474.474 0 00-.134-.035 1.565 1.565 0 00-.407-.002.56.56 0 00-.177.05.38.38 0 00-.134.108.281.281 0 00-.054.18c0 .136.044.232.132.286.088.052.207.08.36.08zm2.064.316c-.235-.006-.403-.055-.502-.152-.099-.096-.147-.245-.147-.448v-2.568l.382-.066v2.572c0 .063.005.115.016.156a.23.23 0 00.054.099.239.239 0 00.098.056.92.92 0 00.153.03zm2.12-.325c.417 0 .625-.143.625-.428a.43.43 0 00-.055-.224.54.54 0 00-.15-.16 1.116 1.116 0 00-.217-.118 5.605 5.605 0 00-.257-.098 2.712 2.712 0 01-.295-.121 1.057 1.057 0 01-.244-.162.666.666 0 01-.222-.528c0-.25.085-.444.256-.584.17-.14.404-.21.703-.21.173 0 .33.019.471.056.141.036.245.077.311.12l-.128.326a1.103 1.103 0 00-.257-.105 1.388 1.388 0 00-.397-.051.88.88 0 00-.214.024.554.554 0 00-.173.075.368.368 0 00-.117.125.361.361 0 00-.043.178.39.39 0 00.045.195.46.46 0 00.128.137c.054.04.118.076.191.109.072.033.152.066.24.098.124.05.237.1.34.149.103.05.192.108.268.176.075.07.134.15.175.246a.866.866 0 01.061.343c0 .25-.09.442-.273.577-.183.133-.44.2-.772.2a2.035 2.035 0 01-.755-.14 1.658 1.658 0 01-.126-.06l.12-.33c.063.036.16.076.288.12.13.044.287.065.473.065zm2.43.334c-.172 0-.323-.028-.453-.083a.907.907 0 01-.53-.582 1.458 1.458 0 01-.065-.45c0-.165.023-.316.072-.453a1.06 1.06 0 01.203-.356.899.899 0 01.324-.234 1.04 1.04 0 01.425-.085c.096 0 .193.009.29.024.094.017.186.043.274.08l-.086.324a1.113 1.113 0 00-.44-.09c-.214 0-.378.067-.493.2-.113.136-.17.332-.17.59 0 .115.013.22.04.316a.624.624 0 00.123.247.555.555 0 00.215.158.833.833 0 00.322.056c.101 0 .193-.01.275-.028a1 1 0 00.193-.063l.054.322a.48.48 0 01-.095.039 1.264 1.264 0 01-.14.033 2.44 2.44 0 01-.337.035zm1.175-2.576a.243.243 0 01-.175-.07.235.235 0 01-.072-.181c0-.077.024-.138.072-.184a.246.246 0 01.175-.067.24.24 0 01.174.067.243.243 0 01.073.184.236.236 0 01-.073.182.243.243 0 01-.174.069zm.193 2.526h-.383v-2.14h.383zm.538-1.065c0-.19.027-.355.082-.496.055-.141.128-.26.218-.352a.886.886 0 01.313-.21.967.967 0 01.362-.07c.288 0 .51.09.663.27.153.18.23.452.23.82v.064a.78.78 0 01-.004.072h-1.464c.015.222.08.39.193.506.112.115.288.173.526.173.135 0 .247-.012.34-.035a1.26 1.26 0 00.207-.067l.054.32c-.047.025-.128.05-.245.078a1.733 1.733 0 01-.397.042c-.186 0-.347-.028-.483-.085a.91.91 0 01-.336-.232.945.945 0 01-.195-.352 1.507 1.507 0 01-.064-.446zm1.47-.21a.636.636 0 00-.13-.426.446.446 0 00-.369-.167.506.506 0 00-.404.186.61.61 0 00-.108.188.914.914 0 00-.052.219zm.95-.803c.088-.021.204-.045.35-.07a2.95 2.95 0 01.502-.036c.17 0 .311.023.423.07a.67.67 0 01.27.203.79.79 0 01.143.31c.028.12.04.255.04.4v1.2h-.382v-1.118a1.86 1.86 0 00-.027-.338.567.567 0 00-.088-.225.35.35 0 00-.166-.126.714.714 0 00-.254-.04 2.842 2.842 0 00-.253.015c-.04.004-.076.009-.108.015l-.067.012v1.806h-.383zm3.291 2.128c-.173 0-.324-.028-.454-.083a.907.907 0 01-.53-.582 1.458 1.458 0 01-.065-.45c0-.165.024-.316.072-.453a1.06 1.06 0 01.204-.356.899.899 0 01.323-.234 1.04 1.04 0 01.426-.085c.095 0 .192.009.288.024.095.017.187.043.275.08l-.086.324a1.113 1.113 0 00-.44-.09c-.214 0-.378.067-.492.2-.114.136-.17.332-.17.59 0 .115.012.22.04.316a.624.624 0 00.122.247.559.559 0 00.216.158.826.826 0 00.32.056c.102 0 .194-.01.276-.028a1 1 0 00.194-.063l.053.322a.468.468 0 01-.094.039 1.264 1.264 0 01-.14.033 2.44 2.44 0 01-.338.035zm.865-1.115c0-.19.028-.355.082-.496.054-.141.128-.26.218-.352a.886.886 0 01.314-.21.967.967 0 01.36-.07c.29 0 .51.09.664.27.154.18.23.452.23.82v.064c0 .026-.002.05-.003.072h-1.465c.015.222.08.39.193.506.112.115.288.173.526.173.135 0 .247-.012.34-.035a1.26 1.26 0 00.207-.067l.054.32c-.047.025-.128.05-.245.078a1.733 1.733 0 01-.397.042c-.186 0-.347-.028-.483-.085a.91.91 0 01-.336-.232.945.945 0 01-.195-.352 1.507 1.507 0 01-.064-.446zm1.47-.21a.636.636 0 00-.13-.426.446.446 0 00-.369-.167.506.506 0 00-.403.186.61.61 0 00-.109.188.914.914 0 00-.05.219zm1.448 1c.156 0 .272-.02.347-.063a.208.208 0 00.113-.197.262.262 0 00-.11-.222 1.725 1.725 0 00-.367-.185 6.149 6.149 0 01-.237-.1.83.83 0 01-.195-.122.531.531 0 01-.132-.17.537.537 0 01-.05-.242c0-.19.07-.34.21-.45.14-.111.331-.167.573-.167a1.979 1.979 0 01.58.095l-.07.329a1.217 1.217 0 00-.51-.103.59.59 0 00-.28.064.213.213 0 00-.12.2c0 .046.01.087.027.123a.305.305 0 00.083.097.75.75 0 00.137.08c.054.025.12.05.198.078.101.039.192.076.271.113a.84.84 0 01.204.13c.056.049.1.108.13.179.03.07.045.155.045.256a.51.51 0 01-.22.45c-.147.1-.356.152-.628.152a1.644 1.644 0 01-.662-.12l.07-.33c.043.017.114.042.21.075.096.033.223.05.382.05zm2.978-1.918c.153 0 .283.02.388.06.106.04.19.096.255.168.065.074.11.16.14.26.026.1.04.21.04.33v1.338l-.138.023a4.6 4.6 0 01-.44.05c-.087.006-.173.01-.258.01-.12 0-.23-.013-.333-.038a.739.739 0 01-.264-.117.545.545 0 01-.172-.212.743.743 0 01-.062-.317c0-.118.024-.22.072-.304a.586.586 0 01.196-.206.932.932 0 01.288-.115 1.583 1.583 0 01.465-.03c.04.003.08.009.117.016l.096.018.058.012v-.106a.91.91 0 00-.02-.188.421.421 0 00-.075-.165.366.366 0 00-.145-.114.566.566 0 00-.24-.044c-.127 0-.238.009-.332.027a1.114 1.114 0 00-.212.056l-.045-.317c.05-.022.132-.043.247-.064a2.08 2.08 0 01.374-.031zm.033 1.918c.09 0 .17-.002.24-.007.07-.004.128-.012.175-.023v-.637a.455.455 0 00-.134-.035 1.575 1.575 0 00-.407-.002.567.567 0 00-.177.05.39.39 0 00-.134.108.281.281 0 00-.053.18c0 .136.044.232.132.286.087.052.207.08.358.08zm1.424-1.803c.088-.021.204-.045.35-.07a2.95 2.95 0 01.501-.036c.17 0 .312.023.424.07a.67.67 0 01.27.203c.067.086.115.19.142.31.027.12.041.255.041.4v1.2h-.382v-1.118a1.86 1.86 0 00-.027-.338.567.567 0 00-.089-.225.348.348 0 00-.165-.126.714.714 0 00-.255-.04 2.842 2.842 0 00-.253.015c-.04.004-.075.009-.107.015l-.067.012v1.806h-.383zm3.744-1.05l.383-.065v3.132c-.088.024-.2.048-.338.074a2.715 2.715 0 01-.473.037c-.165 0-.313-.026-.444-.078a.97.97 0 01-.338-.223.981.981 0 01-.216-.351 1.347 1.347 0 01-.076-.468c0-.164.021-.316.063-.452.043-.137.106-.255.188-.354a.831.831 0 01.303-.23.972.972 0 01.41-.083c.122 0 .231.016.326.05s.165.064.212.094zm0 1.44a.79.79 0 00-.202-.11.75.75 0 00-.288-.053c-.11 0-.203.02-.282.06a.497.497 0 00-.19.164.69.69 0 00-.108.248c-.022.097-.033.2-.033.309 0 .25.062.442.185.578a.633.633 0 00.494.204 1.848 1.848 0 00.424-.045zm3.81-1.163h.4v2.85h-.4v-1.315h-1.395v1.316h-.4v-2.851h.4v1.19h1.395zm2.786 2.79a4.918 4.918 0 01-.348.069 2.91 2.91 0 01-.5.037c-.164 0-.303-.023-.415-.071a.686.686 0 01-.272-.204.826.826 0 01-.148-.31 1.631 1.631 0 01-.045-.398v-1.201h.383v1.118c0 .26.041.447.123.56.082.113.22.168.416.168.041 0 .083-.002.127-.004a3.702 3.702 0 00.228-.023.356.356 0 00.07-.014v-1.806h.381v2.078zm.658-2.017c.088-.021.204-.045.348-.07.144-.025.31-.036.5-.036.136 0 .251.018.345.055a.6.6 0 01.235.162c.02-.013.05-.033.09-.057a.883.883 0 01.153-.072 1.98 1.98 0 01.2-.062c.073-.018.155-.026.24-.026.164 0 .3.023.404.07a.585.585 0 01.244.205.8.8 0 01.12.313c.02.12.03.252.03.395v1.2h-.383v-1.118c0-.126-.006-.234-.018-.325a.62.62 0 00-.07-.227.331.331 0 00-.14-.134.527.527 0 00-.229-.042.85.85 0 00-.318.05.638.638 0 00-.17.094c.021.07.037.15.05.234.01.085.014.174.014.268v1.2h-.38v-1.118c0-.126-.008-.234-.022-.325a.68.68 0 00-.072-.227.329.329 0 00-.14-.134.52.52 0 00-.224-.042l-.124.003a4.081 4.081 0 00-.235.026l-.065.012v1.806h-.383zm4.234-.115c.154 0 .283.02.39.06.104.04.19.096.254.168.064.074.11.16.138.26.028.1.041.21.041.33v1.338l-.137.023a4.6 4.6 0 01-.44.05 3.78 3.78 0 01-.258.01 1.39 1.39 0 01-.333-.038.739.739 0 01-.264-.117.545.545 0 01-.173-.212.743.743 0 01-.062-.317c0-.118.025-.22.073-.304a.583.583 0 01.195-.206.932.932 0 01.288-.115 1.583 1.583 0 01.465-.03c.041.003.08.009.117.016l.097.018.057.012v-.106a.846.846 0 00-.02-.188.434.434 0 00-.074-.165.366.366 0 00-.146-.114.566.566 0 00-.24-.044c-.127 0-.237.009-.332.027a1.114 1.114 0 00-.212.056l-.045-.317c.05-.022.132-.043.247-.064.115-.021.24-.031.374-.031zm.033 1.918c.09 0 .171-.002.24-.007a1.01 1.01 0 00.175-.023v-.637a.456.456 0 00-.133-.035 1.565 1.565 0 00-.408-.002.554.554 0 00-.176.05.39.39 0 00-.134.108.281.281 0 00-.054.18c0 .136.044.232.132.286a.7.7 0 00.358.08zm1.423-1.803c.088-.021.204-.045.35-.07a2.95 2.95 0 01.502-.036c.17 0 .311.023.424.07a.67.67 0 01.27.203.79.79 0 01.142.31c.028.12.04.255.04.4v1.2h-.382v-1.118a1.86 1.86 0 00-.026-.338.567.567 0 00-.09-.225.355.355 0 00-.164-.126.714.714 0 00-.255-.04 2.842 2.842 0 00-.253.015c-.04.004-.075.009-.108.015l-.067.012v1.806h-.383zm2.552-.448a.243.243 0 01-.175-.07.235.235 0 01-.072-.181c0-.077.024-.138.072-.184a.247.247 0 01.175-.067c.068 0 .127.022.175.067a.243.243 0 01.072.184.235.235 0 01-.072.182.243.243 0 01-.175.069zm.193 2.526h-.382v-2.14h.382zm1.017-2.14h.81v.32h-.81v.989c0 .107.008.195.024.266a.4.4 0 00.075.164c.032.04.074.068.123.085a.81.81 0 00.451-.015l.145-.056.075.317a1.307 1.307 0 01-.532.115.996.996 0 01-.359-.056.516.516 0 01-.229-.166.637.637 0 01-.12-.273 1.8 1.8 0 01-.036-.377v-1.91l.383-.065zm1.485-.386a.243.243 0 01-.174-.07.236.236 0 01-.073-.181c0-.077.025-.138.073-.184a.243.243 0 01.174-.067c.068 0 .127.022.175.067a.243.243 0 01.072.184.235.235 0 01-.072.182.243.243 0 01-.175.069zm.194 2.526h-.383v-2.14h.383zm.54-1.065c0-.19.026-.355.081-.496.055-.141.128-.26.218-.352a.886.886 0 01.313-.21.967.967 0 01.361-.07c.288 0 .51.09.663.27.153.18.231.452.231.82v.064a.78.78 0 01-.004.072h-1.465c.016.222.08.39.194.506.112.115.288.173.526.173a1.293 1.293 0 00.547-.102l.054.32a1.15 1.15 0 01-.246.078 1.733 1.733 0 01-.396.042c-.187 0-.348-.028-.483-.085a.901.901 0 01-.336-.232.96.96 0 01-.196-.352 1.507 1.507 0 01-.063-.446zm1.468-.21a.636.636 0 00-.13-.426.446.446 0 00-.369-.167.506.506 0 00-.403.186.61.61 0 00-.108.188.914.914 0 00-.052.219zm1.448 1c.156 0 .272-.02.347-.063a.208.208 0 00.114-.197.26.26 0 00-.112-.222 1.75 1.75 0 00-.366-.185 6.149 6.149 0 01-.236-.1.83.83 0 01-.195-.122.531.531 0 01-.132-.17.537.537 0 01-.05-.242c0-.19.07-.34.21-.45.14-.111.33-.167.572-.167a1.979 1.979 0 01.58.095l-.07.329a1.212 1.212 0 00-.51-.103c-.107 0-.2.022-.28.064a.213.213 0 00-.12.2c0 .046.01.087.027.123a.305.305 0 00.083.097.729.729 0 00.138.08c.055.025.12.05.197.078.102.039.192.076.272.113a.84.84 0 01.204.13c.055.049.1.108.13.179a.65.65 0 01.044.256.51.51 0 01-.22.45c-.147.1-.356.152-.627.152a1.644 1.644 0 01-.662-.12l.07-.33c.043.017.113.042.21.075.095.033.223.05.382.05zm2.196-1.153c0-.244.037-.46.11-.646.073-.186.171-.342.295-.467.125-.125.27-.22.437-.281.166-.064.342-.095.528-.095a1.4 1.4 0 01.52.095c.165.062.307.156.431.28.123.126.222.28.294.468.072.187.11.402.11.646s-.037.46-.11.646c-.073.186-.17.343-.294.468a1.202 1.202 0 01-.43.28 1.42 1.42 0 01-.52.096c-.187 0-.363-.032-.53-.095a1.216 1.216 0 01-.436-.281 1.363 1.363 0 01-.296-.468 1.76 1.76 0 01-.109-.646zm.42 0c0 .173.022.33.066.47.043.143.106.263.187.36.081.099.18.176.297.23.116.054.247.08.392.08a.844.844 0 00.686-.308c.08-.1.143-.22.186-.36.044-.141.067-.3.067-.472 0-.173-.023-.33-.067-.471a1.071 1.071 0 00-.186-.36.844.844 0 00-.685-.308.923.923 0 00-.393.08.833.833 0 00-.297.228 1.06 1.06 0 00-.187.36 1.586 1.586 0 00-.066.47zm4.758.363c0 .16-.022.31-.064.448a1.032 1.032 0 01-.187.354.85.85 0 01-.303.23.968.968 0 01-.41.083 1.054 1.054 0 01-.54-.145v.857h-.38v-2.836a6.16 6.16 0 01.34-.071c.135-.027.292-.04.47-.04.165 0 .312.026.444.079a.955.955 0 01.338.22c.093.098.165.215.216.353.05.139.076.295.076.468zm-.4 0c0-.25-.06-.443-.184-.576a.638.638 0 00-.494-.203c-.116 0-.205.005-.27.013a1.184 1.184 0 00-.154.028v1.35a.781.781 0 00.201.11.753.753 0 00.288.055c.11 0 .204-.02.282-.06a.52.52 0 00.192-.165.687.687 0 00.106-.246 1.33 1.33 0 00.033-.306zm.82 0c0-.19.026-.355.081-.496.055-.141.128-.26.218-.352a.886.886 0 01.313-.21.967.967 0 01.361-.07c.288 0 .51.09.663.27.153.18.23.452.23.82v.064c0 .026 0 .05-.003.072h-1.465c.016.222.08.39.194.506.112.115.288.173.526.173a1.293 1.293 0 00.547-.102l.053.32c-.046.025-.127.05-.245.078a1.733 1.733 0 01-.396.042c-.187 0-.348-.028-.484-.085a.906.906 0 01-.335-.232.96.96 0 01-.196-.352 1.507 1.507 0 01-.063-.446zm1.468-.21a.636.636 0 00-.13-.426.446.446 0 00-.369-.167.506.506 0 00-.403.186.61.61 0 00-.108.188.914.914 0 00-.052.219zm.951-.803c.088-.021.204-.045.35-.07a2.95 2.95 0 01.501-.036c.17 0 .312.023.424.07a.67.67 0 01.27.203c.067.086.115.19.142.31.027.12.041.255.041.4v1.2h-.383v-1.118a1.86 1.86 0 00-.026-.338.582.582 0 00-.089-.225.353.353 0 00-.165-.126.714.714 0 00-.255-.04 2.842 2.842 0 00-.253.015c-.04.004-.075.009-.107.015l-.068.012v1.806h-.382zm4.616 1.684a11.7 11.7 0 00-.11-.252l-.145-.33a21.58 21.58 0 00-.167-.363l-.167-.354a8.81 8.81 0 00-.255-.5c-.03.324-.055.675-.074 1.052-.019.377-.035.757-.049 1.14h-.392a66.77 66.77 0 01.085-1.486c.018-.243.038-.48.058-.71.02-.23.043-.448.067-.654h.35c.074.12.154.263.24.427.084.165.17.337.254.517.084.18.167.36.247.539l.218.492.218-.492a18.006 18.006 0 01.502-1.056 6.45 6.45 0 01.24-.427h.35c.091.919.162 1.869.21 2.85h-.392c-.014-.383-.03-.763-.05-1.14-.02-.377-.044-.728-.074-1.052a7.202 7.202 0 00-.255.5c-.052.11-.107.23-.167.354a13.75 13.75 0 00-.166.364l-.146.329a11.7 11.7 0 00-.11.252zm2.971-1.8c.153 0 .283.02.388.06a.64.64 0 01.255.169c.065.074.11.16.14.26.026.1.04.21.04.33v1.338l-.138.023a4.6 4.6 0 01-.44.05c-.087.006-.173.01-.258.01a1.39 1.39 0 01-.333-.038.739.739 0 01-.264-.117.545.545 0 01-.173-.212.743.743 0 01-.06-.317c0-.118.023-.22.071-.304a.583.583 0 01.195-.206.932.932 0 01.29-.115 1.583 1.583 0 01.463-.03c.041.003.08.009.118.016l.096.018.058.012v-.106a.91.91 0 00-.02-.188.421.421 0 00-.075-.165.366.366 0 00-.145-.114.566.566 0 00-.242-.044c-.126 0-.236.009-.33.027a1.114 1.114 0 00-.213.056l-.045-.317c.05-.022.132-.043.248-.064.116-.021.24-.031.374-.031zm.033 1.919c.09 0 .17-.002.24-.007.07-.004.128-.012.175-.023v-.637a.465.465 0 00-.134-.035 1.575 1.575 0 00-.407-.002.56.56 0 00-.177.05.38.38 0 00-.134.108.281.281 0 00-.053.18c0 .136.044.232.131.286.088.052.207.08.36.08zm2.214-1.91a1.258 1.258 0 01.238.023 3.167 3.167 0 01.19.04l-.066.332a1.355 1.355 0 00-.632-.04l-.138.032v1.798h-.382v-2.05a2.44 2.44 0 01.338-.091 2.13 2.13 0 01.452-.043zm1.571 1.008c.082.064.17.142.262.235a5.887 5.887 0 01.524.632c.08.11.147.214.201.31h-.448a4.264 4.264 0 00-.436-.582 3.416 3.416 0 00-.25-.253 2.23 2.23 0 00-.244-.193v1.028h-.382v-3.127l.382-.066v1.95l.218-.218c.08-.08.158-.16.234-.242l.22-.237c.068-.075.126-.142.176-.2h.448c-.062.069-.132.144-.205.227-.074.082-.15.165-.23.25l-.242.25a39.51 39.51 0 00-.228.236zm1.148.112c0-.19.028-.355.082-.496.054-.141.128-.26.218-.352a.886.886 0 01.314-.21.967.967 0 01.361-.07c.288 0 .51.09.663.27.153.18.23.452.23.82v.064c0 .026 0 .05-.003.072h-1.465c.015.222.08.39.193.506.112.115.288.173.527.173.134 0 .247-.012.34-.035.091-.023.16-.046.206-.067l.054.32c-.047.025-.128.05-.245.078a1.733 1.733 0 01-.396.042c-.187 0-.348-.028-.484-.085a.91.91 0 01-.336-.232.945.945 0 01-.195-.352 1.507 1.507 0 01-.064-.446zm1.47-.21a.636.636 0 00-.13-.426.446.446 0 00-.369-.167.506.506 0 00-.403.186.61.61 0 00-.109.188.914.914 0 00-.05.219h1.06zm1.308-.864h.81v.32h-.81v.988c0 .107.008.195.024.266a.4.4 0 00.074.164c.033.04.075.068.123.085a.81.81 0 00.451-.015l.146-.056.074.317a1.307 1.307 0 01-.53.115.996.996 0 01-.36-.056.51.51 0 01-.229-.166.649.649 0 01-.12-.273 1.8 1.8 0 01-.036-.377v-1.91l.383-.065zm3.18 1.074c0 .16-.02.31-.063.448a1.034 1.034 0 01-.188.354.847.847 0 01-.302.23.968.968 0 01-.41.083 1.028 1.028 0 01-.54-.145v.857h-.38v-2.836a6.16 6.16 0 01.34-.071 2.41 2.41 0 01.47-.04c.164 0 .312.026.444.079a.955.955 0 01.337.22c.093.098.165.215.216.353.051.139.076.295.076.468zm-.399 0c0-.25-.062-.443-.185-.576a.638.638 0 00-.494-.203 2.3 2.3 0 00-.27.013 1.217 1.217 0 00-.154.028v1.35a.781.781 0 00.202.11.753.753 0 00.288.055c.11 0 .204-.02.282-.06a.509.509 0 00.191-.165.687.687 0 00.107-.246 1.33 1.33 0 00.033-.306zm1.58 1.106c-.235-.006-.403-.055-.502-.152-.099-.096-.147-.245-.147-.448v-2.568l.382-.066v2.572c0 .063.005.115.016.156a.23.23 0 00.054.099.239.239 0 00.098.056.92.92 0 00.153.03zm1.173-2.234c.153 0 .283.02.39.06.104.04.19.096.253.168.065.074.11.16.14.26.026.1.04.21.04.33v1.338l-.138.023a4.6 4.6 0 01-.44.05c-.087.006-.173.01-.258.01-.12 0-.23-.013-.333-.038a.739.739 0 01-.263-.117.545.545 0 01-.173-.212.743.743 0 01-.062-.317c0-.118.025-.22.072-.304a.577.577 0 01.196-.206.932.932 0 01.288-.115 1.583 1.583 0 01.465-.03c.04.003.08.009.117.016l.097.018.057.012v-.106a.91.91 0 00-.02-.188.407.407 0 00-.075-.165.366.366 0 00-.145-.114.566.566 0 00-.24-.044c-.127 0-.238.009-.332.027a1.114 1.114 0 00-.212.056l-.045-.317c.05-.022.132-.043.247-.064.115-.021.24-.031.374-.031zm.033 1.918c.09 0 .171-.002.24-.007.07-.004.128-.012.175-.023v-.637a.455.455 0 00-.134-.035 1.575 1.575 0 00-.407-.002.567.567 0 00-.177.05.377.377 0 00-.133.108.281.281 0 00-.054.18c0 .136.044.232.132.286a.7.7 0 00.358.08zm2.353.325c-.173 0-.325-.028-.454-.083a.907.907 0 01-.53-.582 1.458 1.458 0 01-.065-.45c0-.165.023-.316.072-.453a1.06 1.06 0 01.203-.356.899.899 0 01.323-.234 1.04 1.04 0 01.426-.085c.096 0 .193.009.288.024.096.017.188.043.276.08l-.086.324a1.113 1.113 0 00-.44-.09c-.215 0-.379.067-.493.2-.113.136-.17.332-.17.59 0 .115.013.22.04.316a.636.636 0 00.122.247.552.552 0 00.216.158.827.827 0 00.321.056c.102 0 .194-.01.276-.028a1 1 0 00.193-.063l.054.322a.508.508 0 01-.095.039 1.264 1.264 0 01-.14.033 2.44 2.44 0 01-.337.035zm.865-1.115c0-.19.027-.355.082-.496.055-.141.128-.26.218-.352a.886.886 0 01.313-.21.967.967 0 01.361-.07c.29 0 .51.09.664.27.154.18.23.452.23.82v.064a.78.78 0 01-.004.072h-1.465c.016.222.08.39.194.506.112.115.288.173.526.173.135 0 .247-.012.34-.035a1.26 1.26 0 00.207-.067l.054.32a1.15 1.15 0 01-.246.078 1.733 1.733 0 01-.396.042c-.187 0-.348-.028-.483-.085a.91.91 0 01-.336-.232.946.946 0 01-.196-.352 1.507 1.507 0 01-.063-.446zm1.47-.21a.636.636 0 00-.13-.426.446.446 0 00-.369-.167.506.506 0 00-.404.186.61.61 0 00-.108.188.914.914 0 00-.052.219z" fill="#a4bcc2" id="path6"/><path class="st5" d="M53.564 19.887c.498 0 .91-.041 1.234-.124.324-.083.584-.197.78-.34.196-.143.332-.313.407-.51.076-.194.114-.413.114-.655 0-.512-.242-.94-.724-1.278-.483-.34-1.313-.705-2.488-1.097a18.32 18.32 0 01-1.54-.622 5.644 5.644 0 01-1.38-.883 4.199 4.199 0 01-.994-1.29c-.257-.504-.385-1.12-.385-1.843 0-.724.136-1.376.407-1.957a4.162 4.162 0 011.154-1.481c.497-.408 1.101-.72 1.81-.94.708-.218 1.508-.327 2.397-.327 1.056 0 1.97.113 2.738.34.77.225 1.402.474 1.9.745l-1.017 2.783a9.712 9.712 0 00-1.46-.6c-.536-.172-1.18-.26-1.934-.26-.845 0-1.452.117-1.82.35-.37.235-.555.593-.555 1.075 0 .288.067.529.203.725.136.196.328.373.577.53.25.16.535.303.86.43.324.129.682.26 1.074.397.814.302 1.523.6 2.127.894.602.294 1.104.637 1.504 1.028.4.393.698.853.893 1.38.197.529.295 1.17.295 1.924 0 1.463-.513 2.598-1.539 3.404-1.026.806-2.57 1.21-4.638 1.21-.693 0-1.319-.04-1.877-.124a12.066 12.066 0 01-1.482-.305 8.443 8.443 0 01-1.889-.77l.995-2.805c.468.257 1.045.487 1.732.69.685.204 1.526.306 2.521.306zm13.166 0c.498 0 .91-.041 1.234-.124.324-.083.584-.197.78-.34.196-.143.332-.313.407-.51.076-.194.114-.413.114-.655 0-.512-.242-.94-.724-1.278-.483-.34-1.313-.705-2.488-1.097a18.32 18.32 0 01-1.54-.622 5.644 5.644 0 01-1.38-.883 4.199 4.199 0 01-.994-1.29c-.257-.504-.385-1.12-.385-1.843 0-.724.136-1.376.407-1.957a4.162 4.162 0 011.154-1.481c.497-.408 1.101-.72 1.81-.94.708-.218 1.508-.327 2.397-.327 1.056 0 1.97.113 2.738.34.77.225 1.402.474 1.9.745l-1.017 2.783a9.712 9.712 0 00-1.46-.6c-.536-.172-1.18-.26-1.934-.26-.845 0-1.452.117-1.82.35-.37.235-.555.593-.555 1.075 0 .288.067.529.203.725.136.196.328.373.577.53.25.16.535.303.86.43.324.129.682.26 1.074.397.814.302 1.523.6 2.127.894.602.294 1.104.637 1.504 1.028.4.393.698.853.893 1.38.197.529.295 1.17.295 1.924 0 1.463-.513 2.598-1.539 3.404-1.026.806-2.57 1.21-4.638 1.21-.693 0-1.319-.04-1.877-.124a12.066 12.066 0 01-1.482-.305 8.443 8.443 0 01-1.889-.77l.996-2.805c.467.257 1.044.487 1.73.69.686.204 1.527.306 2.522.306zM85.077 6.902h3.53v15.677h-3.53v-6.651H79.15v6.65h-3.528V6.903h3.53v5.995h5.926V6.902zm13.888 2.824c0 .49-.073.922-.22 1.294a2.651 2.651 0 01-.6.934c-.252.25-.554.44-.905.567-.35.126-.726.19-1.128.19-.39 0-.76-.064-1.108-.19a2.547 2.547 0 01-.91-.567 2.63 2.63 0 01-.612-.934c-.149-.372-.223-.803-.223-1.294s.077-.922.231-1.294c.154-.372.363-.685.625-.938.262-.254.565-.444.91-.571.344-.127.706-.19 1.087-.19.39 0 .76.063 1.108.19.347.127.65.317.91.57.26.254.463.567.611.939.148.372.224.803.224 1.294zm-4.374 0c0 .28.034.535.102.76.07.227.17.42.298.584.13.162.288.288.476.376.187.088.402.132.645.132.237 0 .45-.044.64-.132.19-.088.35-.214.48-.376.13-.163.23-.357.298-.583.07-.226.103-.48.103-.761s-.034-.536-.103-.765a1.754 1.754 0 00-.298-.587 1.313 1.313 0 00-.48-.376 1.505 1.505 0 00-.64-.132c-.243 0-.458.045-.645.136a1.375 1.375 0 00-.476.38 1.754 1.754 0 00-.298.587 2.637 2.637 0 00-.102.757zm9.41.694c0 .337-.042.643-.125.918a2.077 2.077 0 01-.363.71 1.65 1.65 0 01-.596.465c-.237.11-.51.165-.818.165a2.228 2.228 0 01-.91-.19v1.637h-1.232v-5.73c.11-.033.236-.065.38-.095a7.631 7.631 0 01.931-.133 5.58 5.58 0 01.466-.02c.36 0 .678.053.96.16.28.108.518.26.71.456.194.195.341.434.443.715.102.28.153.595.153.942zm-1.258.033c0-.38-.085-.685-.256-.913-.17-.23-.425-.343-.76-.343a3.502 3.502 0 00-.539.04v2.225c.078.05.178.09.302.124.124.033.25.05.377.05.584 0 .876-.394.876-1.183zm2.001 0c0-.385.06-.723.178-1.012a2.16 2.16 0 01.467-.724c.193-.193.415-.34.666-.438.25-.1.508-.15.773-.15.617 0 1.105.19 1.463.567.358.378.538.933.538 1.667a7.107 7.107 0 01-.025.463h-2.795a.82.82 0 00.356.603c.21.149.49.223.843.223.227 0 .448-.02.666-.062.218-.04.395-.092.533-.153l.165 1a1.625 1.625 0 01-.264.1 3.46 3.46 0 01-.368.087c-.135.025-.28.045-.434.062a4.225 4.225 0 01-.463.025 2.74 2.74 0 01-1.022-.174 1.982 1.982 0 01-.718-.475 1.88 1.88 0 01-.422-.715 2.836 2.836 0 01-.137-.894zm2.895-.47a1.309 1.309 0 00-.055-.307.775.775 0 00-.14-.265.745.745 0 00-.24-.19.78.78 0 00-.36-.074.831.831 0 00-.355.07.725.725 0 00-.248.186.842.842 0 00-.153.27 1.788 1.788 0 00-.08.31h1.63zm2.141-1.59c.21-.06.48-.115.81-.168a6.683 6.683 0 011.042-.08c.37 0 .677.05.922.146.246.097.44.233.583.41.143.176.245.385.306.628.06.243.091.513.091.81v2.456h-1.232v-2.307c0-.397-.053-.678-.158-.843-.105-.165-.3-.248-.586-.248a4.465 4.465 0 00-.546.042v3.356h-1.232v-4.2zm-14.752 8.394c.1.183.215.407.345.674a40.264 40.264 0 01.824 1.823l.39.918.39-.918a38.88 38.88 0 01.825-1.823c.13-.267.245-.491.343-.674h1.175c.055.38.106.807.153 1.277.046.472.088.963.124 1.473a130.345 130.345 0 01.177 2.98h-1.256c-.016-.556-.039-1.163-.066-1.82a51.507 51.507 0 00-.124-1.983l-.332.77c-.122.28-.242.56-.36.842l-.345.807c-.11.256-.205.475-.282.657h-.902a172.402 172.402 0 01-.626-1.464l-.36-.843-.332-.77c-.056.668-.097 1.33-.124 1.985-.028.656-.05 1.263-.066 1.82h-1.257a154.168 154.168 0 01.177-2.981c.037-.51.078-1.001.125-1.473.046-.47.097-.896.153-1.277zm7.376 1.265c.365 0 .667.042.91.125.243.082.437.2.582.355a1.3 1.3 0 01.311.563c.06.22.09.465.09.735v2.562c-.176.04-.42.084-.736.137a7.137 7.137 0 01-1.14.078c-.28 0-.536-.024-.765-.074-.23-.05-.426-.13-.592-.244a1.112 1.112 0 01-.38-.442 1.517 1.517 0 01-.132-.67c0-.253.05-.468.153-.645.102-.177.238-.317.41-.422.172-.105.365-.18.586-.227a3.837 3.837 0 011.112-.05c.124.014.225.032.302.054v-.116a.682.682 0 00-.19-.505c-.126-.126-.347-.19-.66-.19-.21 0-.417.016-.62.046-.205.03-.38.073-.53.128l-.158-.992a5.084 5.084 0 01.62-.136c.127-.02.26-.036.401-.05.141-.014.283-.02.426-.02zm.1 3.605c.121 0 .236-.002.347-.008.111-.006.198-.013.264-.024v-.935a2.57 2.57 0 00-.822-.03.825.825 0 00-.269.08.456.456 0 00-.182.156.44.44 0 00-.067.248c0 .194.066.328.195.402.13.074.307.11.534.11zm5.531-2.397a9.65 9.65 0 00-.389-.087 2.27 2.27 0 00-.757-.024 1.64 1.64 0 00-.244.044v3.324h-1.23v-4.118c.22-.077.48-.15.78-.218.3-.07.635-.104 1.005-.104a4.595 4.595 0 01.802.096c.094.018.174.042.24.069zm2.1.47l.376-.41c.13-.143.255-.285.376-.425l.342-.398c.107-.126.2-.235.277-.33h1.466c-.293.337-.578.657-.857.963-.278.304-.583.62-.913.944.165.15.336.327.513.534.176.207.346.42.512.642a9.459 9.459 0 01.802 1.267h-1.417a23.49 23.49 0 00-.3-.476 12.515 12.515 0 00-.36-.523 7.483 7.483 0 00-.4-.5c-.14-.16-.28-.296-.417-.407v1.906h-1.232V16.3l1.232-.2v3.63zm3.051.646c0-.386.06-.724.178-1.013.118-.29.275-.53.467-.723.193-.194.415-.34.666-.44a2.09 2.09 0 01.773-.147c.618 0 1.105.188 1.463.566.36.377.538.933.538 1.666a7.214 7.214 0 01-.025.463h-2.795a.82.82 0 00.357.603c.21.15.49.224.842.224.227 0 .45-.02.666-.062.218-.041.396-.092.534-.153l.165 1a1.704 1.704 0 01-.265.1 4.08 4.08 0 01-.802.147 4.49 4.49 0 01-.463.027c-.39 0-.73-.06-1.02-.174a1.99 1.99 0 01-.72-.476 1.879 1.879 0 01-.422-.716 2.835 2.835 0 01-.137-.892zm2.895-.472a1.278 1.278 0 00-.055-.306.77.77 0 00-.14-.264.752.752 0 00-.24-.19.793.793 0 00-.359-.075.824.824 0 00-.355.07.726.726 0 00-.248.187.827.827 0 00-.154.269 1.736 1.736 0 00-.079.31h1.63zm2.1-2.82l1.232-.197v1.28h1.48v1.026h-1.48v1.53c0 .26.046.466.137.62.091.154.273.232.55.232a2.396 2.396 0 00.794-.14l.172.958a2.894 2.894 0 01-1.165.224c-.337 0-.615-.046-.836-.137a1.315 1.315 0 01-.529-.38 1.41 1.41 0 01-.276-.591 3.468 3.468 0 01-.08-.77v-3.654zm7.755 3.258c0 .338-.04.643-.124.919a2.09 2.09 0 01-.363.71 1.63 1.63 0 01-.596.463c-.238.11-.51.166-.818.166a2.196 2.196 0 01-.91-.19v1.637h-1.23v-5.73a4.47 4.47 0 01.38-.095 7.61 7.61 0 01.45-.08 7.337 7.337 0 01.946-.072c.358 0 .678.053.96.16.28.107.517.26.71.454.193.197.341.435.442.716.103.282.153.596.153.943zm-1.256.034c0-.38-.085-.685-.256-.914-.17-.23-.425-.343-.76-.343a3.313 3.313 0 00-.539.04v2.226c.077.05.178.09.302.124s.25.05.377.05c.584 0 .876-.395.876-1.183zm3.944 2.224c-.358-.005-.65-.044-.872-.116a1.278 1.278 0 01-.53-.302.993.993 0 01-.264-.471 2.54 2.54 0 01-.07-.624V16.3l1.231-.2v4.739c0 .11.01.21.025.298a.502.502 0 00.095.223c.047.06.114.11.203.149.088.039.206.063.356.074zm2.563-4.548c.365 0 .667.042.91.125.243.082.437.2.583.355.146.154.25.342.31.563.06.22.091.465.091.735v2.562c-.177.04-.422.084-.736.137a7.137 7.137 0 01-1.14.078 3.6 3.6 0 01-.766-.074 1.63 1.63 0 01-.59-.244 1.112 1.112 0 01-.38-.442 1.517 1.517 0 01-.134-.67c0-.253.05-.468.153-.645.102-.177.24-.317.41-.422.171-.105.366-.18.586-.227a3.856 3.856 0 011.113-.05c.124.014.224.032.301.054v-.116a.682.682 0 00-.19-.505c-.126-.126-.347-.19-.66-.19-.21 0-.417.016-.62.046-.205.03-.38.073-.53.128l-.158-.992a5.084 5.084 0 01.62-.136c.127-.02.261-.036.402-.05.141-.014.282-.02.425-.02zm.1 3.605c.121 0 .236-.002.347-.008.111-.006.198-.013.264-.024v-.935a2.57 2.57 0 00-.822-.03.825.825 0 00-.268.08.456.456 0 00-.183.156.44.44 0 00-.066.248c0 .194.065.328.194.402.13.074.308.11.534.11zm2.703-1.315c0-.314.051-.61.154-.888a2.12 2.12 0 01.442-.728 2.11 2.11 0 01.702-.492c.276-.12.59-.181.943-.181.232 0 .444.02.637.06.193.043.38.1.562.179l-.256.984a3.122 3.122 0 00-.38-.116 1.993 1.993 0 00-.464-.05c-.363 0-.635.113-.814.34-.18.226-.269.523-.269.893 0 .39.084.694.252.91.168.215.462.322.88.322.15 0 .31-.014.48-.042.171-.027.328-.071.472-.132l.174 1.009c-.144.06-.323.113-.538.157a3.55 3.55 0 01-.71.067c-.398 0-.739-.06-1.027-.18a1.918 1.918 0 01-.707-.482 1.895 1.895 0 01-.405-.724 3.087 3.087 0 01-.128-.905zm3.928.034c0-.386.06-.724.178-1.013.118-.29.274-.53.466-.723.194-.194.415-.34.666-.44.251-.098.51-.147.774-.147.617 0 1.104.188 1.463.566.358.377.538.933.538 1.666a7.214 7.214 0 01-.025.463h-2.795a.82.82 0 00.356.603c.21.15.49.224.843.224.226 0 .448-.02.666-.062.218-.041.395-.092.533-.153l.165 1a1.628 1.628 0 01-.265.1 3.836 3.836 0 01-.367.087 5.62 5.62 0 01-.434.06 4.49 4.49 0 01-.463.027 2.76 2.76 0 01-1.022-.174 1.99 1.99 0 01-.718-.476 1.879 1.879 0 01-.422-.716 2.835 2.835 0 01-.137-.892zm2.894-.472a1.276 1.276 0 00-.054-.306.753.753 0 00-.14-.264.752.752 0 00-.24-.19.793.793 0 00-.36-.075.824.824 0 00-.355.07.726.726 0 00-.248.187.827.827 0 00-.153.269 1.736 1.736 0 00-.08.31h1.63z" id="path8"/><path class="st3" d="M15.792 7.3a1.471 1.471 0 102.537-1.49L15.352.74a1.471 1.471 0 00-2.537 1.49z" id="path10"/><path class="st7" d="M8.867 6.369l3.566 6.072a1.459 1.459 0 102.516-1.477l-3.567-6.072a1.459 1.459 0 10-2.516 1.477z" id="path12"/><path class="st5" d="M48.521.353c-.113-.195-.353-.346-.83-.334H27.872l-1.87.016C24.714.002 24.27.917 24.27.917l-.692 1.213-8.609 14.858-.189.332-.69 1.195c-.23.4-.539.139-.599-.006L3.177.865A1.703 1.703 0 10.228 2.568l3.74 6.257 7.373 12.853c.203.308.681.843 1.585.843h22.491a1.351 1.351 0 001.14-.713l1.012-1.768 9.806-16.885.75-1.307.334-.586s.078-.145.101-.218a.851.851 0 00.03-.123c.03-.164.036-.385-.07-.568zM33.762 18.708l-15.402-.03 8.646-14.816H42.42z" id="path14"/><path class="st7" d="M8.422 2.73A1.459 1.459 0 106.945.216 1.459 1.459 0 008.422 2.73z" id="path16"/><path d="M127.78 6.098a8.6 8.6 0 01-.58-.018 4.045 4.045 0 01-.6-.084v-3.43a5.45 5.45 0 01.536-.07 6.96 6.96 0 01.542-.022c.224 0 .431.016.62.049.188.032.351.087.487.166a.855.855 0 01.32.308.902.902 0 01.115.473c0 .282-.137.505-.409.668.224.086.377.2.46.348a.993.993 0 01.122.495c0 .37-.136.65-.406.837-.27.187-.674.28-1.207.28zm-.404-2.194h.388c.245 0 .42-.032.526-.095.106-.063.158-.164.158-.304 0-.143-.055-.243-.163-.301-.11-.057-.27-.087-.48-.087l-.22.003a2.56 2.56 0 00-.21.013v.77zm0 .607v.914a3.012 3.012 0 00.413.02c.24 0 .43-.034.577-.102.146-.068.22-.194.22-.377 0-.164-.06-.28-.184-.35-.122-.07-.298-.105-.525-.105zm2.91 1.54V2.516h2.388v.669h-1.592v.694h1.414v.653h-1.414v.853h1.71v.669h-2.506zm5.971-3.536v.679h-1.066v2.859h-.796V3.192h-1.067v-.678h2.93zm2.722 3.537c-.04-.123-.08-.25-.126-.378l-.136-.387h-1.382l-.134.388c-.045.13-.087.256-.126.378h-.826c.133-.381.26-.734.38-1.057a33.139 33.139 0 01.687-1.728c.11-.257.226-.508.345-.753h.756a28.138 28.138 0 01.684 1.567c.115.286.232.59.351.914.12.323.247.676.38 1.057h-.853zm-.957-2.735a5.894 5.894 0 01-.078.209l-.116.307-.147.383c-.054.139-.11.285-.165.438h1.012l-.157-.44c-.05-.14-.1-.268-.145-.383l-.12-.307a6.472 6.472 0 00-.084-.207zm4.02-12.225h16.437v41.776h-16.438z" fill="#fff" id="path18"/></svg>