<svg viewBox="0 0 1200 240" xmlns="http://www.w3.org/2000/svg"><path d="M460.014 183.069c3.996 0 7.297-.331 9.898-.996 2.605-.668 4.689-1.575 6.267-2.727 1.575-1.147 2.666-2.513 3.267-4.085a14.565 14.565 0 0 0 .91-5.271c0-4.106-1.937-7.532-5.807-10.254-3.883-2.727-10.539-5.66-19.98-8.813a147.073 147.073 0 0 1-12.353-4.995 45.313 45.313 0 0 1-11.077-7.078 33.708 33.708 0 0 1-7.99-10.355c-2.062-4.054-3.088-8.988-3.088-14.801 0-5.81 1.09-11.047 3.27-15.708a33.53 33.53 0 0 1 9.266-11.896c3.99-3.27 8.835-5.78 14.525-7.539 5.685-1.753 12.105-2.629 19.248-2.629 8.476 0 15.806.904 21.975 2.724 6.178 1.814 11.258 3.812 15.257 5.988l-8.17 22.34a77.964 77.964 0 0 0-11.711-4.811c-4.306-1.389-9.479-2.087-15.53-2.087-6.782 0-11.66.937-14.624 2.813-2.973 1.878-4.444 4.75-4.444 8.626 0 2.305.54 4.241 1.63 5.813 1.092 1.575 2.636 2.994 4.634 4.269 1.998 1.269 4.296 2.42 6.898 3.447a214.647 214.647 0 0 0 8.623 3.181c6.54 2.421 12.23 4.811 17.078 7.17 4.836 2.36 8.866 5.118 12.074 8.263a29.905 29.905 0 0 1 7.17 11.083c1.579 4.235 2.37 9.387 2.37 15.439 0 11.743-4.125 20.853-12.356 27.328s-20.642 9.714-37.233 9.714c-5.565 0-10.59-.327-15.067-.996-4.484-.664-8.443-1.48-11.9-2.451-3.45-.965-6.413-2.001-8.898-3.092a69.157 69.157 0 0 1-6.264-3.08l7.989-22.523c3.754 2.062 8.387 3.904 13.9 5.54 5.504 1.634 12.251 2.449 20.24 2.449zm105.695 0c3.999 0 7.299-.331 9.9-.996 2.605-.668 4.69-1.575 6.264-2.727 1.578-1.147 2.666-2.513 3.27-4.085a14.565 14.565 0 0 0 .91-5.271c0-4.106-1.937-7.532-5.81-10.254-3.88-2.727-10.535-5.66-19.977-8.813a147.073 147.073 0 0 1-12.352-4.995 45.313 45.313 0 0 1-11.078-7.078 33.708 33.708 0 0 1-7.99-10.355c-2.061-4.054-3.088-8.988-3.088-14.801 0-5.81 1.088-11.047 3.267-15.708a33.53 33.53 0 0 1 9.266-11.896c3.993-3.27 8.838-5.78 14.529-7.539 5.684-1.753 12.104-2.629 19.244-2.629 8.476 0 15.806.904 21.978 2.724 6.178 1.814 11.259 3.812 15.255 5.988l-8.167 22.34a77.964 77.964 0 0 0-11.715-4.811c-4.303-1.389-9.478-2.087-15.53-2.087-6.782 0-11.658.937-14.62 2.813-2.973 1.878-4.444 4.75-4.444 8.626 0 2.305.54 4.241 1.63 5.813 1.088 1.575 2.635 2.994 4.633 4.269 1.998 1.269 4.297 2.42 6.895 3.447a214.88 214.88 0 0 0 8.627 3.181c6.539 2.421 12.23 4.811 17.074 7.17 4.84 2.36 8.869 5.118 12.074 8.263a29.905 29.905 0 0 1 7.17 11.083c1.579 4.235 2.373 9.387 2.373 15.439 0 11.743-4.125 20.853-12.356 27.328s-20.645 9.714-37.232 9.714c-5.565 0-10.591-.327-15.068-.996-4.486-.664-8.442-1.48-11.902-2.451-3.448-.965-6.41-2.001-8.896-3.092a69.164 69.164 0 0 1-6.267-3.08l7.989-22.523c3.757 2.062 8.39 3.904 13.9 5.54 5.504 1.634 12.255 2.449 20.244 2.449zM712.996 78.827h28.333v125.855h-28.333v-53.397h-47.581v53.397h-28.333V78.827h28.333v48.127h47.58zm111.489 22.67c0 3.941-.588 7.401-1.765 10.389-1.165 2.988-2.773 5.488-4.811 7.505a19.729 19.729 0 0 1-7.269 4.544 26.455 26.455 0 0 1-9.055 1.526 25.818 25.818 0 0 1-8.9-1.526 20.449 20.449 0 0 1-7.299-4.544c-2.084-2.017-3.723-4.517-4.915-7.505s-1.793-6.448-1.793-10.388c0-3.938.62-7.401 1.857-10.389 1.238-2.984 2.918-5.497 5.017-7.532a20.562 20.562 0 0 1 7.3-4.581 25.146 25.146 0 0 1 8.733-1.526 25.802 25.802 0 0 1 8.89 1.526 20.256 20.256 0 0 1 7.308 4.58c2.078 2.036 3.714 4.549 4.906 7.536 1.192 2.985 1.796 6.448 1.796 10.389zm-35.115 0c0 2.259.276 4.294.824 6.108.555 1.817 1.355 3.377 2.39 4.682 1.042 1.306 2.314 2.31 3.819 3.019s3.23 1.06 5.182 1.06c1.9 0 3.616-.352 5.142-1.06a10.542 10.542 0 0 0 3.849-3.019c1.035-1.305 1.838-2.865 2.39-4.682.551-1.814.827-3.849.827-6.107s-.276-4.303-.827-6.142a14.08 14.08 0 0 0-2.39-4.713 10.542 10.542 0 0 0-3.85-3.018 12.08 12.08 0 0 0-5.141-1.06c-1.952 0-3.678.364-5.182 1.094s-2.777 1.746-3.818 3.052a14.08 14.08 0 0 0-2.39 4.713c-.552 1.839-.825 3.861-.825 6.074zm75.537 5.575c0 2.702-.33 5.16-.996 7.37-.668 2.215-1.639 4.115-2.917 5.709a13.23 13.23 0 0 1-4.78 3.72c-1.906.88-4.094 1.324-6.57 1.324a17.78 17.78 0 0 1-3.85-.399 18.58 18.58 0 0 1-3.459-1.128v13.147h-9.886v-46.01c.889-.263 1.9-.517 3.05-.76 1.155-.244 2.359-.453 3.621-.63s2.544-.322 3.852-.43c1.3-.113 2.556-.171 3.745-.171 2.88 0 5.443.429 7.701 1.3a15.757 15.757 0 0 1 5.706 3.646 15.567 15.567 0 0 1 3.555 5.746c.82 2.255 1.225 4.777 1.225 7.563zm-10.09.266c0-3.052-.681-5.497-2.054-7.333-1.373-1.838-3.41-2.758-6.107-2.758-.889 0-1.71.034-2.46.101a20.363 20.363 0 0 0-1.861.233v17.857c.62.398 1.428.729 2.42.995s2.011.399 3.029.399c4.688 0 7.032-3.163 7.032-9.494zm16.063 0c0-3.095.478-5.807 1.428-8.13s2.203-4.26 3.748-5.807a15.693 15.693 0 0 1 5.347-3.524 16.762 16.762 0 0 1 6.209-1.195c4.955 0 8.865 1.52 11.742 4.55 2.88 3.035 4.321 7.49 4.321 13.377a57.02 57.02 0 0 1-.205 3.717h-22.438a6.588 6.588 0 0 0 2.862 4.845c1.68 1.195 3.935 1.793 6.767 1.793a28.438 28.438 0 0 0 5.347-.5c1.747-.328 3.175-.735 4.281-1.226l1.324 8.029a13.045 13.045 0 0 1-2.124.797c-.889.27-1.87.5-2.948.698a47.56 47.56 0 0 1-3.49.5 35.07 35.07 0 0 1-3.714.2c-3.144 0-5.875-.464-8.2-1.395-2.323-.932-4.25-2.2-5.77-3.815a15.098 15.098 0 0 1-3.39-5.743 22.768 22.768 0 0 1-1.097-7.17zm23.237-3.781a10.364 10.364 0 0 0-.438-2.458 6.275 6.275 0 0 0-1.122-2.123 5.976 5.976 0 0 0-1.93-1.527c-.775-.398-1.738-.6-2.88-.6-1.107 0-2.066.193-2.857.564a5.816 5.816 0 0 0-1.991 1.495 6.742 6.742 0 0 0-1.23 2.16 13.974 13.974 0 0 0-.637 2.489zm17.192-12.748c1.679-.487 3.852-.938 6.502-1.36a53.652 53.652 0 0 1 8.366-.632c2.96 0 5.43.39 7.397 1.165 1.977.772 3.537 1.869 4.683 3.285a12.87 12.87 0 0 1 2.46 5.044c.488 1.949.73 4.118.73 6.508v19.714h-9.895V106.01c0-3.187-.423-5.442-1.263-6.772-.836-1.327-2.405-1.992-4.71-1.992a35.204 35.204 0 0 0-4.382.334v26.952h-9.888zm-118.427 67.377c.8 1.465 1.725 3.267 2.767 5.409a323.723 323.723 0 0 1 6.619 14.635c1.112 2.611 2.154 5.072 3.126 7.37.98-2.298 2.022-4.759 3.128-7.37a400.389 400.389 0 0 1 3.365-7.667 290.953 290.953 0 0 1 3.26-6.968 145.507 145.507 0 0 1 2.759-5.41h9.432c.438 3.056.846 6.476 1.226 10.254.373 3.788.71 7.729.992 11.823a1046.37 1046.37 0 0 1 1.429 23.927h-10.092a1072.68 1072.68 0 0 0-.524-14.605 413.388 413.388 0 0 0-.996-15.932l-2.666 6.178a809.359 809.359 0 0 0-2.902 6.766 860.177 860.177 0 0 1-2.757 6.475 1067.6 1067.6 0 0 0-2.268 5.277h-7.232c-.622-1.459-1.373-3.224-2.268-5.277a935.106 935.106 0 0 1-2.758-6.475 968.413 968.413 0 0 0-2.896-6.766c-.98-2.259-1.866-4.321-2.666-6.178a384.153 384.153 0 0 0-.992 15.932 1096.136 1096.136 0 0 0-.534 14.605h-10.09a1046.37 1046.37 0 0 1 1.427-23.927c.288-4.094.62-8.035.993-11.823.377-3.778.785-7.198 1.232-10.253zm59.213 10.158c2.927 0 5.357.331 7.3.996 1.952.66 3.511 1.615 4.682 2.853 1.174 1.238 2.007 2.746 2.491 4.517.488 1.765.73 3.739.73 5.902v20.58c-1.42.313-3.387.675-5.912 1.098-2.515.417-5.574.628-9.156.628a28.913 28.913 0 0 1-6.138-.598c-1.842-.398-3.42-1.048-4.75-1.96a8.93 8.93 0 0 1-3.052-3.55c-.714-1.458-1.066-3.254-1.066-5.377 0-2.032.407-3.757 1.232-5.176a9.386 9.386 0 0 1 3.285-3.386c1.372-.84 2.941-1.45 4.71-1.827s3.606-.564 5.512-.564c1.287 0 2.421.056 3.417.166.996.116 1.805.257 2.421.429v-.926c0-1.685-.506-3.033-1.526-4.05-1.011-1.012-2.782-1.524-5.308-1.524-1.685 0-3.34.12-4.98.362-1.636.245-3.048.588-4.246 1.027l-1.263-7.968a42.859 42.859 0 0 1 2.157-.56 41.855 41.855 0 0 1 2.82-.528c1.02-.153 2.096-.288 3.223-.398s2.268-.166 3.417-.166zm.8 28.937c.974 0 1.9-.015 2.786-.06s1.59-.111 2.123-.197v-7.505a18.343 18.343 0 0 0-1.786-.266 19.71 19.71 0 0 0-4.812.03 6.625 6.625 0 0 0-2.16.638 3.677 3.677 0 0 0-1.465 1.253 3.54 3.54 0 0 0-.533 1.992c0 1.55.524 2.626 1.56 3.22 1.042.598 2.47.895 4.29.895zm44.406-19.247a81.789 81.789 0 0 0-3.12-.696 19.324 19.324 0 0 0-3.848-.367c-.622 0-1.367.06-2.228.171a13.174 13.174 0 0 0-1.961.359v26.688h-9.886v-33.062a59.707 59.707 0 0 1 6.273-1.756c2.405-.555 5.096-.827 8.065-.827.527 0 1.17.03 1.922.098a37.845 37.845 0 0 1 4.517.665c.75.153 1.394.337 1.921.557zm16.857 3.778c.972-1.057 1.983-2.154 3.016-3.3 1.042-1.143 2.047-2.28 3.018-3.401s1.891-2.188 2.752-3.2c.864-1.01 1.6-1.887 2.219-2.641h11.767c-2.35 2.696-4.64 5.27-6.873 7.722a195.27 195.27 0 0 1-7.33 7.581c1.323 1.199 2.696 2.627 4.115 4.29a106.467 106.467 0 0 1 4.106 5.149 75.905 75.905 0 0 1 6.445 10.174h-11.375a204.156 204.156 0 0 0-2.415-3.825 103.78 103.78 0 0 0-2.884-4.192 56.221 56.221 0 0 0-3.217-4.023 26.954 26.954 0 0 0-3.347-3.261v15.304h-9.885v-49.92l9.885-1.587v29.13zm24.497 5.182c0-3.095.478-5.807 1.428-8.13.95-2.328 2.204-4.256 3.748-5.807a15.635 15.635 0 0 1 5.344-3.52 16.839 16.839 0 0 1 6.212-1.193c4.955 0 8.865 1.514 11.743 4.548 2.877 3.025 4.32 7.486 4.32 13.376a58.153 58.153 0 0 1-.202 3.717h-22.44c.226 2.035 1.176 3.65 2.862 4.842 1.676 1.201 3.934 1.796 6.766 1.796 1.817 0 3.598-.166 5.347-.503 1.747-.328 3.175-.735 4.281-1.223l1.324 8.03c-.527.266-1.238.532-2.123.796s-1.87.496-2.948.702a49.858 49.858 0 0 1-3.49.49 34.283 34.283 0 0 1-3.715.205c-3.144 0-5.874-.469-8.203-1.394-2.32-.932-4.248-2.203-5.767-3.818a15.083 15.083 0 0 1-3.39-5.746 22.76 22.76 0 0 1-1.097-7.168zm23.238-3.784a10.404 10.404 0 0 0-.439-2.455 6.202 6.202 0 0 0-1.121-2.123 6.04 6.04 0 0 0-1.93-1.533c-.776-.389-1.738-.594-2.881-.594-1.11 0-2.066.19-2.856.567a5.825 5.825 0 0 0-1.992 1.495 6.64 6.64 0 0 0-1.232 2.158 13.94 13.94 0 0 0-.634 2.482h13.085zm16.857-22.634 9.892-1.593v10.287h11.887v8.23h-11.887v12.289c0 2.075.367 3.739 1.097 4.977s2.197 1.857 4.413 1.857c1.06 0 2.157-.101 3.288-.298a17.528 17.528 0 0 0 3.089-.83l1.385 7.698a27.702 27.702 0 0 1-3.984 1.262c-1.456.353-3.248.533-5.369.533-2.703 0-4.937-.367-6.71-1.097-1.763-.729-3.182-1.746-4.248-3.058-1.06-1.302-1.805-2.887-2.219-4.744a27.84 27.84 0 0 1-.634-6.168zm62.262 26.152c0 2.706-.33 5.16-.996 7.37-.665 2.212-1.639 4.115-2.917 5.709-1.287 1.593-2.877 2.828-4.78 3.714-1.906.888-4.094 1.333-6.57 1.333a17.633 17.633 0 0 1-7.309-1.53v13.14h-9.886v-45.996a37.42 37.42 0 0 1 3.052-.766 63.678 63.678 0 0 1 7.471-1.057 44.47 44.47 0 0 1 3.748-.166c2.875 0 5.44.43 7.698 1.293a15.757 15.757 0 0 1 5.706 3.647 15.613 15.613 0 0 1 3.555 5.746c.82 2.255 1.228 4.78 1.228 7.563zm-10.09.266c0-3.049-.681-5.494-2.054-7.336-1.373-1.835-3.41-2.752-6.107-2.752a26.593 26.593 0 0 0-4.321.328v17.86c.622.398 1.428.729 2.424.995s2.007.399 3.028.399c4.688 0 7.03-3.166 7.03-9.494zm31.667 17.863c-2.88-.05-5.216-.362-7.002-.935-1.796-.573-3.215-1.379-4.25-2.42a7.967 7.967 0 0 1-2.124-3.788 20.39 20.39 0 0 1-.564-5.01v-38.431l9.886-1.594v38.032c0 .89.07 1.686.202 2.39.135.705.386 1.312.763 1.796.374.488.916.89 1.63 1.196.705.309 1.655.505 2.85.594l-1.391 8.167zm20.577-36.513c2.924 0 5.357.331 7.3.996 1.952.66 3.511 1.615 4.679 2.853 1.177 1.238 2.007 2.746 2.494 4.517.488 1.765.73 3.739.73 5.902v20.58c-1.42.313-3.386.675-5.915 1.098-2.512.417-5.57.628-9.153.628a28.913 28.913 0 0 1-6.141-.598c-1.839-.398-3.417-1.048-4.75-1.96a8.93 8.93 0 0 1-3.049-3.55c-.714-1.458-1.066-3.254-1.066-5.377 0-2.032.407-3.757 1.232-5.176a9.386 9.386 0 0 1 3.285-3.386c1.37-.84 2.938-1.45 4.71-1.827s3.606-.564 5.512-.564c1.288 0 2.421.056 3.417.166.996.116 1.805.257 2.421.429v-.926c0-1.685-.509-3.033-1.526-4.05-1.011-1.012-2.782-1.524-5.307-1.524-1.686 0-3.34.12-4.98.362s-3.05.588-4.247 1.027l-1.263-7.968c.58-.168 1.293-.358 2.154-.56a42.701 42.701 0 0 1 2.823-.528 62.66 62.66 0 0 1 3.223-.398 35.09 35.09 0 0 1 3.417-.166zm.8 28.937c.971 0 1.9-.015 2.783-.06s1.593-.111 2.126-.197v-7.505a18.347 18.347 0 0 0-1.79-.266 19.71 19.71 0 0 0-4.81.03 6.625 6.625 0 0 0-2.158.638 3.657 3.657 0 0 0-1.465 1.253 3.54 3.54 0 0 0-.533 1.992c0 1.55.524 2.626 1.56 3.22 1.042.598 2.47.895 4.29.895zm21.702-10.553c0-2.522.408-4.9 1.229-7.134a16.9 16.9 0 0 1 3.555-5.841 16.845 16.845 0 0 1 5.635-3.95c2.219-.971 4.735-1.459 7.572-1.459a24.73 24.73 0 0 1 5.112.494c1.544.337 3.049.809 4.507 1.428l-2.053 7.903a25.643 25.643 0 0 0-3.058-.935 15.904 15.904 0 0 0-3.717-.392c-2.914 0-5.093.904-6.537 2.721-1.434 1.811-2.157 4.201-2.157 7.165 0 3.144.674 5.577 2.023 7.308 1.348 1.726 3.708 2.587 7.072 2.587 1.192 0 2.476-.11 3.85-.337a16.364 16.364 0 0 0 3.787-1.058l1.394 8.096c-1.152.49-2.595.91-4.32 1.263s-3.629.533-5.707.533c-3.184 0-5.926-.478-8.23-1.434-2.299-.95-4.196-2.243-5.679-3.88a15.23 15.23 0 0 1-3.251-5.81 24.785 24.785 0 0 1-1.027-7.268zm31.53.266c0-3.095.478-5.807 1.428-8.13.95-2.328 2.203-4.256 3.748-5.807a15.635 15.635 0 0 1 5.347-3.52 16.839 16.839 0 0 1 6.208-1.193c4.956 0 8.866 1.514 11.743 4.548 2.88 3.025 4.321 7.486 4.321 13.376a57.871 57.871 0 0 1-.202 3.717h-22.44c.229 2.035 1.176 3.65 2.861 4.842 1.68 1.201 3.935 1.796 6.766 1.796a28.162 28.162 0 0 0 5.348-.503c1.747-.328 3.175-.735 4.28-1.223l1.325 8.03c-.524.266-1.238.532-2.124.796s-1.87.496-2.948.702a49.858 49.858 0 0 1-3.49.49 34.283 34.283 0 0 1-3.714.205c-3.144 0-5.875-.469-8.2-1.394-2.324-.932-4.251-2.203-5.771-3.818a15.083 15.083 0 0 1-3.386-5.746 22.76 22.76 0 0 1-1.1-7.168zm23.237-3.784a10.404 10.404 0 0 0-.438-2.455 6.202 6.202 0 0 0-1.122-2.123 6.043 6.043 0 0 0-1.93-1.533c-.772-.389-1.738-.594-2.88-.594-1.107 0-2.066.19-2.857.567a5.822 5.822 0 0 0-1.992 1.495 6.637 6.637 0 0 0-1.229 2.158 13.93 13.93 0 0 0-.637 2.482h13.085z" fill="#02558c"/><path d="M156.777 82.026a11.81 11.81 0 1 0 20.366-11.966l-23.897-40.695a11.811 11.811 0 0 0-20.369 11.963l23.903 40.698z" fill="#ff9e1a"/><path d="m101.188 74.552 28.622 48.746a11.71 11.71 0 1 0 20.194-11.86l-28.621-48.745a11.712 11.712 0 1 0-20.195 11.86z" fill="#0085ca"/><path d="M419.534 26.254c-.904-1.566-2.835-2.776-6.662-2.684H253.759l-15.016.129c-10.336-.26-13.906 7.084-13.906 7.084l-5.556 9.74L150.173 159.8l-1.517 2.66-5.55 9.591c-1.835 3.218-4.317 1.119-4.802-.04L55.514 30.367A13.667 13.667 0 1 0 31.84 44.034l30.01 50.225 59.204 103.191c1.624 2.473 5.467 6.763 12.723 6.763h180.555c1.713-.052 6.257-.674 9.147-5.721l8.13-14.194 78.724-135.551 6.013-10.493 2.693-4.703s.622-1.165.806-1.753c.092-.294.184-.635.245-.98.236-1.319.288-3.096-.557-4.564zM301.052 173.603l-123.649-.245 69.409-118.933h123.74l-69.5 119.175z" fill="#02558c"/><path d="M97.615 45.342a11.71 11.71 0 1 0-11.859-20.194 11.71 11.71 0 0 0 11.86 20.194z" fill="#0085ca"/></svg>