<svg xmlns="http://www.w3.org/2000/svg" viewBox="0 0 254.715 55.342"><defs><style>.a{fill:#ff9e1a}.c{fill:#02558c}.e{fill:#0085ca}</style></defs><path class="a" d="M253.699 13.948h-34.937a1.02 1.02 0 01-1.017-1.017V1.982a1.02 1.02 0 011.017-1.017h34.937a1.02 1.02 0 011.017 1.017v10.949a1.02 1.02 0 01-1.017 1.017z"/><path d="M89.626 53.466q1.122 0 1.121-.767a.772.772 0 00-.1-.4.969.969 0 00-.268-.287 1.949 1.949 0 00-.389-.21c-.145-.06-.3-.117-.461-.177a4.863 4.863 0 01-.531-.217 1.887 1.887 0 01-.436-.289 1.2 1.2 0 01-.291-.394 1.294 1.294 0 01-.109-.553 1.276 1.276 0 01.459-1.047 1.92 1.92 0 011.261-.377 3.336 3.336 0 01.846.1 1.908 1.908 0 01.557.217l-.229.583a1.978 1.978 0 00-.461-.189 2.49 2.49 0 00-.713-.091 1.578 1.578 0 00-.384.044.994.994 0 00-.31.133.66.66 0 00-.21.224.648.648 0 00-.077.32.689.689 0 00.081.348.824.824 0 00.229.247 1.917 1.917 0 00.343.194c.13.06.273.119.431.177.222.089.424.179.609.266a2.057 2.057 0 01.48.317 1.287 1.287 0 01.313.44 1.546 1.546 0 01.11.616 1.207 1.207 0 01-.49 1.033 2.306 2.306 0 01-1.383.361 3.649 3.649 0 01-.557-.04 4.027 4.027 0 01-.455-.1 2.56 2.56 0 01-.341-.117 2.314 2.314 0 01-.226-.107l.214-.59a3.365 3.365 0 00.517.214 2.658 2.658 0 00.85.118zm6.079-1.41a2.4 2.4 0 01-.133.827 1.849 1.849 0 01-.373.636 1.646 1.646 0 01-.571.41 1.893 1.893 0 01-1.447 0 1.646 1.646 0 01-.571-.41 1.849 1.849 0 01-.373-.636 2.617 2.617 0 010-1.648 1.849 1.849 0 01.373-.639 1.646 1.646 0 01.571-.41 1.893 1.893 0 011.447 0 1.646 1.646 0 01.571.41 1.849 1.849 0 01.373.639 2.412 2.412 0 01.133.821zm-.716 0a1.644 1.644 0 00-.291-1.028 1.018 1.018 0 00-1.587 0 1.966 1.966 0 000 2.058 1.018 1.018 0 001.587 0 1.646 1.646 0 00.291-1.03zm3.351 2.007a2.085 2.085 0 01-.814-.149 1.626 1.626 0 01-.59-.413 1.7 1.7 0 01-.359-.63 2.614 2.614 0 01-.117-.807 2.411 2.411 0 01.13-.813 1.9 1.9 0 01.364-.637 1.611 1.611 0 01.58-.42 1.863 1.863 0 01.764-.152 3.215 3.215 0 01.517.044 2.352 2.352 0 01.494.142l-.154.581a1.662 1.662 0 00-.359-.117 2 2 0 00-.431-.044 1.1 1.1 0 00-.883.361 1.6 1.6 0 00-.3 1.056 2.134 2.134 0 00.07.567 1.146 1.146 0 00.221.443.994.994 0 00.387.284 1.483 1.483 0 00.576.1 2.242 2.242 0 00.494-.051 1.794 1.794 0 00.347-.112l.1.576a.778.778 0 01-.17.07 2.307 2.307 0 01-.25.06 3.99 3.99 0 01-.3.044 2.665 2.665 0 01-.317.017zm2.103-4.618a.436.436 0 01-.313-.123.427.427 0 01-.13-.327.434.434 0 01.13-.329.467.467 0 01.627 0 .434.434 0 01.13.329.427.427 0 01-.13.327.436.436 0 01-.314.123zm.347 4.53h-.686v-3.836h.686zm2.42-3.933a2.018 2.018 0 01.7.107 1.144 1.144 0 01.457.3 1.178 1.178 0 01.249.464 2.263 2.263 0 01.074.6v2.4l-.247.04a10.531 10.531 0 01-.79.089c-.154.012-.31.018-.462.018a2.465 2.465 0 01-.6-.067 1.325 1.325 0 01-.473-.21.978.978 0 01-.31-.38 1.333 1.333 0 01-.11-.567 1.1 1.1 0 01.13-.546 1.042 1.042 0 01.35-.37 1.671 1.671 0 01.517-.207 2.839 2.839 0 01.62-.065c.068 0 .14 0 .214.011s.144.018.21.03l.173.033.1.021v-.191a1.545 1.545 0 00-.037-.336.77.77 0 00-.133-.3.656.656 0 00-.261-.2 1.016 1.016 0 00-.433-.079 3.125 3.125 0 00-.594.049 2 2 0 00-.38.1l-.081-.569a2.154 2.154 0 01.443-.114 3.819 3.819 0 01.674-.061zm.06 3.439c.161 0 .306 0 .431-.012a1.887 1.887 0 00.313-.04v-1.143a.9.9 0 00-.24-.063 2.626 2.626 0 00-.4-.025 2.748 2.748 0 00-.329.021 1.026 1.026 0 00-.317.093.7.7 0 00-.24.191.5.5 0 00-.1.322.553.553 0 00.236.513 1.244 1.244 0 00.645.144zm3.701.568a1.315 1.315 0 01-.9-.273 1.076 1.076 0 01-.264-.8V48.37l.686-.119v4.613a1.143 1.143 0 00.028.28.4.4 0 00.1.177.422.422 0 00.177.1 1.668 1.668 0 00.273.054zm3.803-.583q1.122 0 1.121-.767a.772.772 0 00-.1-.4.969.969 0 00-.268-.287 1.949 1.949 0 00-.389-.21c-.145-.06-.3-.117-.461-.177a4.863 4.863 0 01-.531-.217 1.887 1.887 0 01-.436-.289 1.2 1.2 0 01-.291-.394 1.294 1.294 0 01-.109-.553 1.276 1.276 0 01.459-1.047 1.92 1.92 0 011.261-.377 3.336 3.336 0 01.846.1 1.908 1.908 0 01.557.217l-.229.583a1.978 1.978 0 00-.461-.189 2.49 2.49 0 00-.713-.091 1.578 1.578 0 00-.384.044.994.994 0 00-.31.133.66.66 0 00-.21.224.648.648 0 00-.077.32.689.689 0 00.081.348.824.824 0 00.229.247 1.917 1.917 0 00.343.194c.13.06.273.119.431.177.222.089.424.179.609.266a2.057 2.057 0 01.48.317 1.287 1.287 0 01.313.44 1.546 1.546 0 01.11.616 1.207 1.207 0 01-.49 1.033 2.306 2.306 0 01-1.383.361 3.649 3.649 0 01-.557-.04 4.027 4.027 0 01-.455-.1 2.56 2.56 0 01-.341-.117 2.314 2.314 0 01-.226-.107l.214-.59a3.364 3.364 0 00.517.214 2.658 2.658 0 00.85.118zm4.358.597a2.085 2.085 0 01-.814-.149 1.626 1.626 0 01-.59-.413 1.7 1.7 0 01-.359-.63 2.614 2.614 0 01-.117-.807 2.412 2.412 0 01.13-.813 1.9 1.9 0 01.364-.637 1.612 1.612 0 01.58-.42 1.864 1.864 0 01.764-.152 3.215 3.215 0 01.517.044 2.352 2.352 0 01.494.142l-.154.581a1.662 1.662 0 00-.359-.117 2 2 0 00-.431-.044 1.1 1.1 0 00-.883.361 1.6 1.6 0 00-.3 1.056 2.134 2.134 0 00.07.567 1.147 1.147 0 00.221.443.994.994 0 00.387.284 1.483 1.483 0 00.576.1 2.242 2.242 0 00.494-.051 1.794 1.794 0 00.347-.112l.1.576a.778.778 0 01-.17.07 2.307 2.307 0 01-.25.06 3.99 3.99 0 01-.3.044 2.666 2.666 0 01-.317.017zm2.106-4.618a.436.436 0 01-.313-.123.427.427 0 01-.13-.327.434.434 0 01.13-.329.467.467 0 01.627 0 .434.434 0 01.13.329.427.427 0 01-.13.327.436.436 0 01-.314.123zm.347 4.53h-.691v-3.836h.686zm.964-1.912a2.46 2.46 0 01.147-.89 1.854 1.854 0 01.391-.63 1.589 1.589 0 01.562-.377 1.734 1.734 0 01.648-.126 1.478 1.478 0 011.189.483 2.226 2.226 0 01.413 1.473v.114c0 .047 0 .089-.007.13h-2.622a1.39 1.39 0 00.347.907 1.269 1.269 0 00.944.31 2.516 2.516 0 00.609-.063 2.246 2.246 0 00.371-.121l.1.574a1.958 1.958 0 01-.44.14 3.108 3.108 0 01-.711.075 2.243 2.243 0 01-.867-.152 1.614 1.614 0 01-.6-.417 1.706 1.706 0 01-.35-.63 2.7 2.7 0 01-.124-.8zm2.634-.377a1.14 1.14 0 00-.233-.764.8.8 0 00-.66-.3.907.907 0 00-.417.093.987.987 0 00-.306.24 1.093 1.093 0 00-.194.338 1.639 1.639 0 00-.093.392zm1.706-1.437c.158-.039.366-.081.627-.124a5.29 5.29 0 01.9-.067 1.951 1.951 0 01.76.128 1.2 1.2 0 01.483.363 1.383 1.383 0 01.256.557 3.25 3.25 0 01.074.716v2.154h-.686V51.97a3.336 3.336 0 00-.047-.606 1.046 1.046 0 00-.159-.4.627.627 0 00-.3-.226 1.28 1.28 0 00-.457-.07c-.074 0-.151 0-.228.007l-.226.019a2.605 2.605 0 00-.193.026l-.121.021v3.24h-.683zm5.901 3.814a2.085 2.085 0 01-.814-.149 1.626 1.626 0 01-.59-.413 1.7 1.7 0 01-.359-.63 2.614 2.614 0 01-.117-.807 2.411 2.411 0 01.13-.813 1.9 1.9 0 01.364-.637 1.612 1.612 0 01.58-.42 1.864 1.864 0 01.764-.152 3.215 3.215 0 01.517.044 2.352 2.352 0 01.494.142l-.154.581a1.661 1.661 0 00-.359-.117 2 2 0 00-.431-.044 1.1 1.1 0 00-.883.361 1.6 1.6 0 00-.3 1.056 2.134 2.134 0 00.07.567 1.146 1.146 0 00.221.443.994.994 0 00.387.284 1.483 1.483 0 00.576.1 2.242 2.242 0 00.494-.051 1.794 1.794 0 00.347-.112l.1.576a.778.778 0 01-.17.07 2.308 2.308 0 01-.25.06 3.99 3.99 0 01-.3.044 2.666 2.666 0 01-.317.017zm1.551-2a2.46 2.46 0 01.147-.89 1.854 1.854 0 01.391-.63 1.589 1.589 0 01.562-.377 1.734 1.734 0 01.648-.126 1.478 1.478 0 011.189.483 2.226 2.226 0 01.413 1.473v.114c0 .047 0 .089-.007.13h-2.627a1.39 1.39 0 00.347.907 1.269 1.269 0 00.944.31 2.516 2.516 0 00.609-.063 2.246 2.246 0 00.371-.121l.1.574a1.958 1.958 0 01-.44.14 3.108 3.108 0 01-.711.075 2.243 2.243 0 01-.867-.152 1.614 1.614 0 01-.6-.417 1.706 1.706 0 01-.35-.63 2.7 2.7 0 01-.119-.8zm2.634-.377a1.14 1.14 0 00-.233-.764.8.8 0 00-.66-.3.907.907 0 00-.417.093.988.988 0 00-.306.24 1.093 1.093 0 00-.194.338 1.638 1.638 0 00-.093.392zm2.6 1.796a1.328 1.328 0 00.623-.112.374.374 0 00.2-.354.469.469 0 00-.2-.4 3.164 3.164 0 00-.657-.333c-.147-.06-.289-.119-.424-.18a1.488 1.488 0 01-.35-.217.952.952 0 01-.236-.3.963.963 0 01-.089-.436.978.978 0 01.377-.807 1.6 1.6 0 011.026-.3 2.871 2.871 0 01.324.019 3.52 3.52 0 01.713.151l-.126.59a1.8 1.8 0 00-.347-.121 2.225 2.225 0 00-.567-.063 1.064 1.064 0 00-.5.114.382.382 0 00-.214.359.5.5 0 00.047.221.548.548 0 00.149.173 1.242 1.242 0 00.247.144c.1.044.215.091.354.14.182.07.345.137.487.2a1.507 1.507 0 01.366.233.891.891 0 01.233.32 1.192 1.192 0 01.081.461.914.914 0 01-.4.806 1.96 1.96 0 01-1.117.273 2.949 2.949 0 01-.8-.086 3.764 3.764 0 01-.391-.13l.124-.59c.079.03.2.074.377.133a2.153 2.153 0 00.69.092zm5.339-3.44a2.018 2.018 0 01.7.107 1.144 1.144 0 01.457.3 1.178 1.178 0 01.249.464 2.264 2.264 0 01.074.6v2.4l-.247.04a10.531 10.531 0 01-.79.089c-.154.012-.31.018-.462.018a2.465 2.465 0 01-.6-.067 1.325 1.325 0 01-.473-.21.978.978 0 01-.31-.38 1.333 1.333 0 01-.11-.567 1.1 1.1 0 01.13-.546 1.042 1.042 0 01.35-.37 1.671 1.671 0 01.517-.207 2.839 2.839 0 01.62-.065c.068 0 .14 0 .214.011s.144.018.21.03l.173.033.1.021v-.191a1.547 1.547 0 00-.037-.336.771.771 0 00-.133-.3.656.656 0 00-.261-.2 1.016 1.016 0 00-.433-.079 3.125 3.125 0 00-.594.049 2 2 0 00-.38.1l-.081-.569a2.154 2.154 0 01.443-.114 3.819 3.819 0 01.674-.061zm.06 3.439c.161 0 .306 0 .431-.012a1.887 1.887 0 00.313-.04v-1.143a.9.9 0 00-.24-.063 2.627 2.627 0 00-.4-.025 2.748 2.748 0 00-.329.021 1.026 1.026 0 00-.317.093.7.7 0 00-.24.191.5.5 0 00-.1.322.553.553 0 00.236.513 1.244 1.244 0 00.646.144zm2.553-3.232c.158-.039.366-.081.627-.124a5.29 5.29 0 01.9-.067 1.951 1.951 0 01.76.128 1.2 1.2 0 01.483.363 1.382 1.382 0 01.256.557 3.249 3.249 0 01.074.716v2.154h-.686V51.97a3.336 3.336 0 00-.047-.606 1.046 1.046 0 00-.159-.4.627.627 0 00-.3-.226 1.28 1.28 0 00-.457-.07c-.074 0-.151 0-.228.007l-.226.019a2.605 2.605 0 00-.193.026l-.121.021v3.24h-.686zm6.713-1.879l.686-.119v5.619a7.013 7.013 0 01-.606.133 4.869 4.869 0 01-.848.067 2.154 2.154 0 01-.8-.14 1.741 1.741 0 01-.606-.4 1.765 1.765 0 01-.387-.63 2.429 2.429 0 01-.137-.839 2.758 2.758 0 01.114-.811 1.844 1.844 0 01.336-.634 1.511 1.511 0 01.543-.413 1.743 1.743 0 01.734-.149 1.773 1.773 0 01.587.089 1.877 1.877 0 01.38.17zm0 2.581a1.417 1.417 0 00-.363-.2 1.343 1.343 0 00-.517-.1 1.094 1.094 0 00-.5.107.922.922 0 00-.343.3 1.238 1.238 0 00-.193.445 2.543 2.543 0 00-.058.553 1.489 1.489 0 00.331 1.037 1.135 1.135 0 00.886.366 3.447 3.447 0 00.468-.026 2.423 2.423 0 00.292-.054zm6.833-2.089h.716v5.114h-.716v-2.361h-2.5v2.361h-.716v-5.114h.716v2.133h2.5zm4.996 5.004a8.194 8.194 0 01-.623.124 5.22 5.22 0 01-.9.067 1.9 1.9 0 01-.744-.128 1.215 1.215 0 01-.487-.366 1.5 1.5 0 01-.266-.557 2.9 2.9 0 01-.081-.713v-2.154h.686v2.007a1.743 1.743 0 00.221 1 .863.863 0 00.746.3c.074 0 .149 0 .228-.007s.152-.012.222-.019.131-.014.187-.023a.639.639 0 00.123-.025v-3.24h.685zm1.18-3.617c.158-.039.366-.081.623-.124a5.233 5.233 0 01.9-.067 1.69 1.69 0 01.62.1 1.068 1.068 0 01.42.291c.035-.025.089-.06.163-.1a1.828 1.828 0 01.273-.13 2.754 2.754 0 01.361-.11 1.862 1.862 0 01.429-.047 1.749 1.749 0 01.723.128 1.049 1.049 0 01.438.366 1.408 1.408 0 01.214.56 4.072 4.072 0 01.056.709v2.154h-.686V51.97a4.3 4.3 0 00-.033-.583 1.111 1.111 0 00-.124-.406.594.594 0 00-.252-.24.945.945 0 00-.41-.077 1.52 1.52 0 00-.571.093 1.115 1.115 0 00-.306.166 2.573 2.573 0 01.089.42 3.825 3.825 0 01.028.48v2.154h-.685V51.97a3.982 3.982 0 00-.037-.583 1.218 1.218 0 00-.13-.406.59.59 0 00-.25-.24.933.933 0 00-.4-.077c-.068 0-.144 0-.221.007l-.226.019c-.072.007-.137.016-.2.026s-.1.018-.117.021v3.24h-.686zm7.594-.207a2.018 2.018 0 01.7.107 1.144 1.144 0 01.457.3 1.178 1.178 0 01.249.464 2.263 2.263 0 01.074.6v2.4l-.247.04a10.531 10.531 0 01-.79.089c-.154.012-.31.018-.462.018a2.465 2.465 0 01-.6-.067 1.325 1.325 0 01-.473-.21.978.978 0 01-.31-.38 1.333 1.333 0 01-.11-.567 1.1 1.1 0 01.13-.546 1.042 1.042 0 01.35-.37 1.671 1.671 0 01.517-.207 2.839 2.839 0 01.62-.065c.068 0 .14 0 .214.011s.144.018.21.03l.173.033.1.021v-.191a1.545 1.545 0 00-.037-.336.77.77 0 00-.133-.3.656.656 0 00-.261-.2 1.016 1.016 0 00-.433-.079 3.125 3.125 0 00-.594.049 2 2 0 00-.38.1l-.081-.569a2.154 2.154 0 01.443-.114 3.819 3.819 0 01.674-.061zm.06 3.439c.161 0 .306 0 .431-.012a1.887 1.887 0 00.313-.04v-1.143a.9.9 0 00-.24-.063 2.626 2.626 0 00-.4-.025 2.748 2.748 0 00-.329.021 1.026 1.026 0 00-.317.093.7.7 0 00-.24.191.5.5 0 00-.1.322.553.553 0 00.236.513 1.244 1.244 0 00.645.144zm2.554-3.232c.158-.039.366-.081.627-.124a5.29 5.29 0 01.9-.067 1.951 1.951 0 01.76.128 1.2 1.2 0 01.483.363 1.383 1.383 0 01.256.557 3.251 3.251 0 01.074.716v2.154h-.686V51.97a3.335 3.335 0 00-.047-.606 1.046 1.046 0 00-.159-.4.627.627 0 00-.3-.226 1.28 1.28 0 00-.457-.07c-.074 0-.151 0-.228.007l-.226.019a2.605 2.605 0 00-.193.026l-.121.021v3.24h-.683zm4.572-.804a.436.436 0 01-.313-.123.427.427 0 01-.13-.327.434.434 0 01.13-.329.467.467 0 01.627 0 .434.434 0 01.13.329.427.427 0 01-.13.327.436.436 0 01-.314.123zm.347 4.53h-.691v-3.836h.686zm1.823-3.837h1.454v.576h-1.454v1.766a2.131 2.131 0 00.044.476.717.717 0 00.133.294.475.475 0 00.221.152 1.034 1.034 0 00.31.044 1.453 1.453 0 00.5-.07l.261-.1.133.567a2.342 2.342 0 01-.361.13 2.038 2.038 0 01-.592.077 1.785 1.785 0 01-.644-.1.923.923 0 01-.41-.3 1.176 1.176 0 01-.217-.49 3.228 3.228 0 01-.063-.676v-3.416l.686-.117zm2.663-.693a.436.436 0 01-.313-.123.427.427 0 01-.13-.327.434.434 0 01.13-.329.467.467 0 01.627 0 .434.434 0 01.13.329.427.427 0 01-.13.327.436.436 0 01-.314.123zm.347 4.53h-.686v-3.836h.687zm.967-1.912a2.46 2.46 0 01.147-.89 1.854 1.854 0 01.391-.63 1.589 1.589 0 01.562-.377 1.734 1.734 0 01.648-.126 1.478 1.478 0 011.189.483 2.226 2.226 0 01.413 1.473v.114c0 .047 0 .089-.007.13h-2.627a1.39 1.39 0 00.347.907 1.269 1.269 0 00.944.31 2.516 2.516 0 00.609-.063 2.246 2.246 0 00.371-.121l.1.574a1.958 1.958 0 01-.44.14 3.108 3.108 0 01-.711.075 2.243 2.243 0 01-.867-.152 1.614 1.614 0 01-.6-.417 1.706 1.706 0 01-.35-.63 2.7 2.7 0 01-.119-.8zm2.634-.377a1.14 1.14 0 00-.233-.764.8.8 0 00-.66-.3.907.907 0 00-.417.093.987.987 0 00-.306.24 1.093 1.093 0 00-.194.338 1.638 1.638 0 00-.093.392zm2.597 1.796a1.328 1.328 0 00.623-.112.374.374 0 00.2-.354.469.469 0 00-.2-.4 3.164 3.164 0 00-.657-.333c-.147-.06-.289-.119-.424-.18a1.488 1.488 0 01-.35-.217.952.952 0 01-.236-.3.962.962 0 01-.089-.436.978.978 0 01.377-.807 1.605 1.605 0 011.026-.3 2.871 2.871 0 01.324.019 3.52 3.52 0 01.713.151l-.126.59a1.8 1.8 0 00-.347-.121 2.225 2.225 0 00-.567-.063 1.064 1.064 0 00-.5.114.382.382 0 00-.214.359.5.5 0 00.047.221.548.548 0 00.149.173 1.241 1.241 0 00.247.144c.1.044.215.091.354.14.182.07.345.137.487.2a1.508 1.508 0 01.366.233.891.891 0 01.233.32 1.192 1.192 0 01.081.461.914.914 0 01-.4.806 1.96 1.96 0 01-1.124.273 2.949 2.949 0 01-.8-.086 3.763 3.763 0 01-.391-.13l.124-.59c.079.03.2.074.377.133a2.153 2.153 0 00.697.092zm3.938-2.067a3.2 3.2 0 01.2-1.159 2.4 2.4 0 01.531-.837 2.181 2.181 0 01.783-.5 2.627 2.627 0 01.947-.17 2.545 2.545 0 01.933.17 2.156 2.156 0 01.772.5 2.424 2.424 0 01.527.837 3.519 3.519 0 010 2.317 2.432 2.432 0 01-.527.839 2.156 2.156 0 01-.772.5 2.546 2.546 0 01-.933.17 2.627 2.627 0 01-.947-.17 2.181 2.181 0 01-.783-.5 2.413 2.413 0 01-.531-.839 3.187 3.187 0 01-.2-1.158zm.753 0a2.825 2.825 0 00.119.844 1.853 1.853 0 00.334.646 1.475 1.475 0 00.532.41 1.659 1.659 0 00.7.144 1.637 1.637 0 00.7-.144 1.493 1.493 0 00.529-.41 1.913 1.913 0 00.334-.646 3.058 3.058 0 000-1.69 1.921 1.921 0 00-.334-.644 1.493 1.493 0 00-.529-.41 1.637 1.637 0 00-.7-.144 1.659 1.659 0 00-.7.144 1.475 1.475 0 00-.532.41 1.86 1.86 0 00-.334.644 2.845 2.845 0 00-.119.846zm8.533.65a2.735 2.735 0 01-.114.8 1.844 1.844 0 01-.336.634 1.526 1.526 0 01-.543.413 1.743 1.743 0 01-.734.149 1.773 1.773 0 01-.587-.089 1.877 1.877 0 01-.38-.17v1.536h-.686v-5.082c.163-.039.366-.082.609-.128a4.475 4.475 0 01.844-.07 2.125 2.125 0 01.8.14 1.713 1.713 0 01.606.4 1.8 1.8 0 01.387.63 2.43 2.43 0 01.134.837zm-.716 0a1.474 1.474 0 00-.331-1.033 1.145 1.145 0 00-.886-.363 4.191 4.191 0 00-.483.023 1.9 1.9 0 00-.277.051v2.422a1.4 1.4 0 00.361.2 1.349 1.349 0 00.517.1 1.1 1.1 0 00.506-.107.936.936 0 00.343-.3 1.232 1.232 0 00.191-.441 2.385 2.385 0 00.059-.552zm1.467-.002a2.46 2.46 0 01.147-.89 1.854 1.854 0 01.391-.63 1.589 1.589 0 01.562-.377 1.734 1.734 0 01.648-.126 1.478 1.478 0 011.189.483 2.226 2.226 0 01.413 1.473v.114c0 .047 0 .089-.007.13h-2.629a1.39 1.39 0 00.347.907 1.269 1.269 0 00.944.31 2.516 2.516 0 00.609-.063 2.246 2.246 0 00.371-.121l.1.574a1.958 1.958 0 01-.44.14 3.108 3.108 0 01-.711.075 2.243 2.243 0 01-.867-.152 1.614 1.614 0 01-.6-.417 1.707 1.707 0 01-.35-.63 2.7 2.7 0 01-.117-.8zm2.634-.377a1.14 1.14 0 00-.233-.764.8.8 0 00-.66-.3.907.907 0 00-.417.093.988.988 0 00-.306.24 1.093 1.093 0 00-.194.338 1.637 1.637 0 00-.093.392zm1.706-1.437c.158-.039.366-.081.627-.124a5.29 5.29 0 01.9-.067 1.951 1.951 0 01.76.128 1.2 1.2 0 01.483.363 1.382 1.382 0 01.256.557 3.249 3.249 0 01.074.716v2.154h-.686V51.97a3.336 3.336 0 00-.047-.606 1.046 1.046 0 00-.159-.4.627.627 0 00-.3-.226 1.28 1.28 0 00-.457-.07c-.074 0-.151 0-.228.007l-.226.019a2.605 2.605 0 00-.193.026l-.121.021v3.24h-.686zM216 53.268c-.049-.119-.116-.27-.2-.452s-.168-.378-.261-.59-.194-.429-.3-.651-.2-.436-.3-.636-.18-.377-.261-.534-.147-.278-.2-.362q-.081.872-.133 1.886t-.088 2.047h-.7q.029-.665.067-1.34t.086-1.327q.047-.654.1-1.273t.121-1.173h.627q.2.326.429.767t.457.926q.229.483.443.967l.391.883q.179-.4.391-.883t.443-.967q.229-.483.457-.926t.429-.767h.627q.25 2.472.377 5.114h-.7q-.037-1.032-.089-2.047t-.133-1.886q-.074.126-.194.362c-.082.158-.17.334-.263.534s-.193.412-.3.636-.2.441-.3.651l-.263.59-.2.452zm5.327-3.226a2.018 2.018 0 01.7.107 1.143 1.143 0 01.457.3 1.177 1.177 0 01.249.464 2.263 2.263 0 01.074.6v2.4l-.247.04a10.531 10.531 0 01-.79.089c-.154.012-.31.018-.462.018a2.465 2.465 0 01-.6-.067 1.325 1.325 0 01-.473-.21.978.978 0 01-.31-.38 1.333 1.333 0 01-.11-.567 1.1 1.1 0 01.13-.546 1.041 1.041 0 01.35-.37 1.671 1.671 0 01.517-.207 2.839 2.839 0 01.62-.065c.068 0 .14 0 .214.011s.144.018.21.03l.173.033.1.021v-.191a1.545 1.545 0 00-.037-.336.77.77 0 00-.133-.3.656.656 0 00-.261-.2 1.016 1.016 0 00-.433-.079 3.125 3.125 0 00-.594.049 2 2 0 00-.38.1l-.081-.569a2.154 2.154 0 01.443-.114 3.82 3.82 0 01.674-.061zm.06 3.439c.161 0 .306 0 .431-.012a1.887 1.887 0 00.313-.04v-1.143a.9.9 0 00-.24-.063 2.626 2.626 0 00-.4-.025 2.748 2.748 0 00-.329.021 1.026 1.026 0 00-.317.093.7.7 0 00-.24.191.5.5 0 00-.1.322.553.553 0 00.236.513 1.244 1.244 0 00.645.144zm3.969-3.423c.06 0 .126 0 .2.011s.151.018.224.03.142.025.2.037a1.115 1.115 0 01.137.033l-.117.6a2.6 2.6 0 00-.27-.07 2.429 2.429 0 00-.483-.04 1.855 1.855 0 00-.38.04c-.126.028-.208.046-.247.056v3.224h-.686v-3.678a4.462 4.462 0 01.606-.166 3.818 3.818 0 01.816-.077zm2.817 1.812a4.8 4.8 0 01.469.42c.165.168.327.348.487.543s.31.391.454.59.263.385.361.557h-.8a6.1 6.1 0 00-.357-.527 7.934 7.934 0 00-.424-.517 6.119 6.119 0 00-.45-.454 4 4 0 00-.436-.347v1.844h-.686V48.37l.686-.119v3.5c.117-.119.249-.249.391-.392s.284-.287.42-.434.268-.289.392-.426.228-.254.317-.357h.8c-.112.123-.236.257-.368.406s-.271.3-.413.447l-.433.45c-.145.146-.282.287-.41.425zm2.06.193a2.46 2.46 0 01.147-.89 1.854 1.854 0 01.391-.63 1.589 1.589 0 01.562-.377 1.735 1.735 0 01.648-.126 1.478 1.478 0 011.189.483 2.226 2.226 0 01.413 1.473v.114c0 .047 0 .089-.007.13h-2.627a1.39 1.39 0 00.347.907 1.269 1.269 0 00.944.31 2.516 2.516 0 00.609-.063 2.246 2.246 0 00.371-.121l.1.574a1.957 1.957 0 01-.44.14 3.108 3.108 0 01-.711.075 2.243 2.243 0 01-.867-.152 1.614 1.614 0 01-.6-.417 1.707 1.707 0 01-.35-.63 2.7 2.7 0 01-.119-.8zm2.634-.377a1.14 1.14 0 00-.233-.764.8.8 0 00-.66-.3.907.907 0 00-.417.093.988.988 0 00-.306.24 1.093 1.093 0 00-.194.338 1.638 1.638 0 00-.093.392zm2.346-1.548h1.453v.576h-1.453v1.766a2.131 2.131 0 00.044.476.717.717 0 00.133.294.475.475 0 00.221.152 1.034 1.034 0 00.31.044 1.453 1.453 0 00.5-.07l.261-.1.133.567a2.342 2.342 0 01-.361.13 2.038 2.038 0 01-.592.077 1.785 1.785 0 01-.644-.1.924.924 0 01-.41-.3 1.176 1.176 0 01-.217-.49 3.228 3.228 0 01-.063-.676v-3.416l.687-.117zm5.704 1.927a2.735 2.735 0 01-.114.8 1.844 1.844 0 01-.336.634 1.525 1.525 0 01-.543.413 1.743 1.743 0 01-.734.149 1.773 1.773 0 01-.587-.089 1.877 1.877 0 01-.38-.17v1.536h-.686v-5.082c.163-.039.366-.082.609-.128a4.475 4.475 0 01.844-.07 2.125 2.125 0 01.8.14 1.713 1.713 0 01.606.4 1.8 1.8 0 01.387.63 2.428 2.428 0 01.134.837zm-.716 0a1.474 1.474 0 00-.331-1.033 1.145 1.145 0 00-.886-.363 4.191 4.191 0 00-.483.023 1.9 1.9 0 00-.277.051v2.422a1.4 1.4 0 00.361.2 1.35 1.35 0 00.517.1 1.1 1.1 0 00.506-.107.936.936 0 00.343-.3 1.232 1.232 0 00.191-.441 2.383 2.383 0 00.063-.552zm2.834 1.984a1.315 1.315 0 01-.9-.273 1.076 1.076 0 01-.264-.8V48.37l.686-.119v4.613a1.142 1.142 0 00.028.28.4.4 0 00.1.177.422.422 0 00.177.1 1.668 1.668 0 00.273.054zm2.103-4.007a2.018 2.018 0 01.7.107 1.144 1.144 0 01.457.3 1.178 1.178 0 01.249.464 2.263 2.263 0 01.074.6v2.4l-.247.04a10.531 10.531 0 01-.79.089c-.154.012-.31.018-.462.018a2.466 2.466 0 01-.6-.067 1.325 1.325 0 01-.473-.21.978.978 0 01-.31-.38 1.333 1.333 0 01-.11-.567 1.1 1.1 0 01.13-.546 1.041 1.041 0 01.35-.37 1.671 1.671 0 01.517-.207 2.839 2.839 0 01.62-.065c.068 0 .14 0 .214.011s.144.018.21.03l.173.033.1.021v-.191a1.546 1.546 0 00-.037-.336.77.77 0 00-.133-.3.656.656 0 00-.261-.2 1.016 1.016 0 00-.433-.079 3.125 3.125 0 00-.594.049 2 2 0 00-.38.1l-.081-.569a2.155 2.155 0 01.443-.114 3.819 3.819 0 01.674-.061zm.06 3.439c.161 0 .306 0 .431-.012a1.887 1.887 0 00.313-.04v-1.143a.9.9 0 00-.24-.063 2.626 2.626 0 00-.4-.025 2.748 2.748 0 00-.329.021 1.025 1.025 0 00-.317.093.7.7 0 00-.24.191.5.5 0 00-.1.322.553.553 0 00.236.513 1.244 1.244 0 00.646.144zm4.219.582a2.085 2.085 0 01-.814-.149 1.626 1.626 0 01-.59-.413 1.7 1.7 0 01-.359-.63 2.614 2.614 0 01-.117-.807 2.411 2.411 0 01.13-.813 1.9 1.9 0 01.364-.637 1.611 1.611 0 01.58-.42 1.863 1.863 0 01.764-.152 3.215 3.215 0 01.517.044 2.352 2.352 0 01.494.142l-.154.581a1.661 1.661 0 00-.359-.117 2 2 0 00-.431-.044 1.1 1.1 0 00-.883.361 1.6 1.6 0 00-.3 1.056 2.134 2.134 0 00.07.567 1.146 1.146 0 00.221.443.994.994 0 00.387.284 1.483 1.483 0 00.576.1 2.242 2.242 0 00.494-.051 1.794 1.794 0 00.347-.112l.1.576a.777.777 0 01-.17.07 2.306 2.306 0 01-.25.06 3.99 3.99 0 01-.3.044 2.666 2.666 0 01-.317.017zm1.551-2a2.46 2.46 0 01.147-.89 1.854 1.854 0 01.391-.63 1.589 1.589 0 01.562-.377 1.734 1.734 0 01.648-.126 1.478 1.478 0 011.189.483 2.226 2.226 0 01.413 1.473v.114c0 .047 0 .089-.007.13h-2.627a1.39 1.39 0 00.347.907 1.269 1.269 0 00.944.31 2.515 2.515 0 00.609-.063 2.246 2.246 0 00.371-.121l.1.574a1.958 1.958 0 01-.44.14 3.108 3.108 0 01-.711.075 2.243 2.243 0 01-.867-.152 1.614 1.614 0 01-.6-.417 1.706 1.706 0 01-.35-.63 2.7 2.7 0 01-.119-.8zm2.634-.377a1.14 1.14 0 00-.233-.764.8.8 0 00-.66-.3.907.907 0 00-.417.093.987.987 0 00-.306.24 1.094 1.094 0 00-.194.338 1.641 1.641 0 00-.093.392z" fill="#a4bcc2"/><path class="c" d="M96.057 35.637a9.13 9.13 0 002.212-.222 4.071 4.071 0 001.4-.609 2.022 2.022 0 00.73-.912 3.253 3.253 0 00.2-1.177 2.717 2.717 0 00-1.3-2.291 18.582 18.582 0 00-4.462-1.968q-1.382-.486-2.76-1.116a10.122 10.122 0 01-2.474-1.582 7.53 7.53 0 01-1.785-2.312 7.229 7.229 0 01-.69-3.306 8.185 8.185 0 01.73-3.509 7.49 7.49 0 012.07-2.657 9.47 9.47 0 013.245-1.684 14.582 14.582 0 014.3-.588 17.21 17.21 0 018.317 1.946l-1.825 4.99a17.416 17.416 0 00-2.616-1.075 11.376 11.376 0 00-3.469-.466 6.36 6.36 0 00-3.266.629 2.119 2.119 0 00-.993 1.926 2.223 2.223 0 00.364 1.3 3.55 3.55 0 001.035.954 9.1 9.1 0 001.541.771q.872.345 1.926.71 2.191.812 3.814 1.6a10.207 10.207 0 012.7 1.845 6.68 6.68 0 011.6 2.476 9.927 9.927 0 01.529 3.448 7.323 7.323 0 01-2.76 6.1q-2.758 2.17-8.317 2.17a23.015 23.015 0 01-3.366-.222 21.639 21.639 0 01-2.658-.548 15.143 15.143 0 01-1.988-.69 15.448 15.448 0 01-1.4-.688l1.785-5.031a15.932 15.932 0 003.1 1.238 16.116 16.116 0 004.531.55zm23.608 0a9.13 9.13 0 002.212-.222 4.071 4.071 0 001.4-.609 2.022 2.022 0 00.73-.912 3.253 3.253 0 00.2-1.177 2.717 2.717 0 00-1.3-2.291 18.582 18.582 0 00-4.462-1.968q-1.382-.486-2.76-1.116a10.122 10.122 0 01-2.474-1.582 7.53 7.53 0 01-1.785-2.312 7.23 7.23 0 01-.69-3.306 8.186 8.186 0 01.73-3.509 7.49 7.49 0 012.07-2.657 9.47 9.47 0 013.245-1.684 14.582 14.582 0 014.3-.588 17.21 17.21 0 018.32 1.946l-1.825 4.99a17.415 17.415 0 00-2.616-1.075 11.376 11.376 0 00-3.469-.466 6.36 6.36 0 00-3.266.629 2.119 2.119 0 00-.993 1.926 2.223 2.223 0 00.364 1.3 3.55 3.55 0 001.035.954 9.094 9.094 0 001.541.771q.872.345 1.926.71 2.191.812 3.814 1.6a10.207 10.207 0 012.7 1.845 6.68 6.68 0 011.6 2.476 9.927 9.927 0 01.529 3.448 7.323 7.323 0 01-2.76 6.1q-2.758 2.17-8.317 2.17a23.015 23.015 0 01-3.366-.222 21.64 21.64 0 01-2.658-.548 15.143 15.143 0 01-1.988-.69 15.447 15.447 0 01-1.4-.688l1.785-5.031a15.933 15.933 0 003.1 1.238 16.116 16.116 0 004.528.55zm32.9-23.285h6.329v28.113h-6.329V28.538h-10.628v11.927h-6.329V12.352h6.329v10.751h10.628zm24.904 5.065a6.306 6.306 0 01-.394 2.32A4.754 4.754 0 01176 21.413a4.407 4.407 0 01-1.623 1.016 5.909 5.909 0 01-2.023.341 5.767 5.767 0 01-1.988-.341 4.568 4.568 0 01-1.63-1.016 4.729 4.729 0 01-1.1-1.676 6.231 6.231 0 01-.4-2.32 6.021 6.021 0 01.415-2.32 4.946 4.946 0 011.121-1.683 4.593 4.593 0 011.63-1.024 5.617 5.617 0 011.951-.341 5.764 5.764 0 011.986.341 4.524 4.524 0 011.632 1.024 4.819 4.819 0 011.1 1.683 6.231 6.231 0 01.398 2.32zm-7.844 0a4.705 4.705 0 00.184 1.364 3.151 3.151 0 00.534 1.045 2.361 2.361 0 00.853.674 2.921 2.921 0 002.306 0 2.355 2.355 0 00.86-.674 3.151 3.151 0 00.534-1.045 4.705 4.705 0 00.184-1.364 4.786 4.786 0 00-.184-1.372 3.145 3.145 0 00-.534-1.052 2.355 2.355 0 00-.86-.674 2.7 2.7 0 00-1.149-.237 2.622 2.622 0 00-1.158.244 2.44 2.44 0 00-.853.682 3.145 3.145 0 00-.535 1.049 4.729 4.729 0 00-.182 1.36zm16.874 1.244a5.693 5.693 0 01-.222 1.646 3.724 3.724 0 01-.656 1.271 2.946 2.946 0 01-1.068.831 3.455 3.455 0 01-1.468.3 4 4 0 01-.86-.088 4.151 4.151 0 01-.772-.252v2.936h-2.208V15.029c.2-.059.424-.116.681-.17s.527-.1.809-.141.567-.072.86-.1.571-.038.837-.038a4.772 4.772 0 011.72.29 3.519 3.519 0 011.275.815 3.477 3.477 0 01.794 1.287 4.9 4.9 0 01.278 1.689zm-2.254.06a2.671 2.671 0 00-.459-1.643 1.6 1.6 0 00-1.364-.616c-.2 0-.382.007-.55.022s-.306.032-.415.053v3.988a1.915 1.915 0 00.541.222 2.606 2.606 0 00.676.089q1.571.006 1.571-2.115zm3.588 0a4.778 4.778 0 01.319-1.816 3.9 3.9 0 01.837-1.3 3.505 3.505 0 011.194-.786 3.745 3.745 0 011.387-.267 3.445 3.445 0 012.623 1.016 4.186 4.186 0 01.965 2.988c0 .129-.005.269-.016.422s-.019.29-.03.408H190.1a1.472 1.472 0 00.639 1.082 2.557 2.557 0 001.511.4 6.361 6.361 0 001.194-.111 4.425 4.425 0 00.956-.274l.3 1.794a2.913 2.913 0 01-.475.178 6.206 6.206 0 01-.658.156c-.243.045-.5.081-.779.111a7.754 7.754 0 01-.83.045 4.9 4.9 0 01-1.832-.312 3.555 3.555 0 01-1.289-.852 3.372 3.372 0 01-.757-1.283 5.086 5.086 0 01-.247-1.599zm5.191-.845a2.314 2.314 0 00-.1-.549 1.4 1.4 0 00-.25-.475 1.335 1.335 0 00-.431-.341 1.4 1.4 0 00-.644-.134 1.491 1.491 0 00-.637.126 1.3 1.3 0 00-.445.334 1.506 1.506 0 00-.275.482 3.12 3.12 0 00-.142.556zm3.84-2.847a12.471 12.471 0 011.452-.3 11.985 11.985 0 011.869-.141 4.541 4.541 0 011.653.26 2.464 2.464 0 011.046.734 2.875 2.875 0 01.55 1.127 6.007 6.007 0 01.163 1.454v4.4h-2.21v-4.139a2.982 2.982 0 00-.282-1.512 1.147 1.147 0 00-1.052-.445q-.236 0-.5.022a7.459 7.459 0 00-.475.053v6.02h-2.208zM170.41 30.078q.268.491.618 1.208t.729 1.557q.378.838.75 1.713t.7 1.646l.7-1.646q.372-.876.751-1.713.378-.835.729-1.557c.233-.478.44-.881.616-1.208h2.107q.147 1.024.273 2.291t.222 2.641q.1 1.371.179 2.749t.14 2.6h-2.254q-.042-1.5-.117-3.263t-.222-3.558c-.179.415-.378.876-.6 1.38s-.434 1.007-.648 1.511l-.616 1.447c-.197.461-.368.853-.506 1.179h-1.616c-.138-.326-.306-.72-.506-1.179s-.4-.942-.616-1.447-.429-1.009-.646-1.511-.417-.965-.6-1.38q-.15 1.794-.222 3.558t-.119 3.263h-2.254q.06-1.216.14-2.6t.179-2.749q.1-1.371.222-2.641t.275-2.291zm13.227 2.27a5.09 5.09 0 011.63.222 2.509 2.509 0 011.045.637 2.335 2.335 0 01.557 1.009 4.971 4.971 0 01.163 1.319v4.6c-.317.07-.757.151-1.32.245a12.8 12.8 0 01-2.045.14 6.458 6.458 0 01-1.371-.133 2.979 2.979 0 01-1.061-.438 2 2 0 01-.681-.793 2.72 2.72 0 01-.238-1.2 2.268 2.268 0 01.275-1.156 2.1 2.1 0 01.734-.757 3.324 3.324 0 011.052-.408 5.907 5.907 0 011.231-.126 7.032 7.032 0 01.764.037 3.716 3.716 0 01.541.1v-.21a1.223 1.223 0 00-.341-.905 1.653 1.653 0 00-1.186-.34 7.557 7.557 0 00-1.112.081 4.838 4.838 0 00-.949.229l-.282-1.779a8.098 8.098 0 011.112-.243c.23-.035.468-.065.72-.089s.504-.042.762-.042zm.179 6.464c.217 0 .424 0 .622-.014a4.675 4.675 0 00.475-.044v-1.676a4.348 4.348 0 00-.4-.06 4.61 4.61 0 00-.49-.03 4.4 4.4 0 00-.585.037 1.48 1.48 0 00-.482.142.817.817 0 00-.327.28.791.791 0 00-.119.445.76.76 0 00.348.72 1.935 1.935 0 00.957.2zm9.919-4.299c-.2-.049-.431-.1-.7-.156a4.316 4.316 0 00-.86-.082 4.071 4.071 0 00-.5.039 2.942 2.942 0 00-.438.081v5.961h-2.208V32.97a13.337 13.337 0 011.4-.392 8.016 8.016 0 011.8-.186c.117 0 .261.007.429.023s.336.035.5.06.336.054.5.089a2.265 2.265 0 01.429.124zm3.765.844c.217-.236.443-.482.674-.737s.457-.51.674-.76.422-.489.615-.714.357-.422.5-.59h2.629q-.788.9-1.536 1.725t-1.639 1.693a10.409 10.409 0 01.919.958q.473.557.918 1.151t.816 1.189q.37.594.623 1.084h-2.541q-.236-.386-.539-.855c-.2-.312-.417-.623-.644-.937s-.466-.611-.718-.9a6.022 6.022 0 00-.748-.729v3.418h-2.208V29.205l2.208-.355zm5.472 1.157a4.779 4.779 0 01.319-1.816 3.9 3.9 0 01.837-1.3 3.493 3.493 0 011.194-.786 3.762 3.762 0 011.387-.266 3.441 3.441 0 012.623 1.016 4.181 4.181 0 01.965 2.988c0 .128-.005.27-.016.422s-.019.289-.03.408h-5.012a1.469 1.469 0 00.639 1.082 2.551 2.551 0 001.511.4 6.289 6.289 0 001.194-.112 4.479 4.479 0 00.956-.273l.3 1.793a2.988 2.988 0 01-.475.179 6.423 6.423 0 01-.658.156c-.243.044-.5.081-.779.11a7.754 7.754 0 01-.83.046 4.94 4.94 0 01-1.832-.312 3.568 3.568 0 01-1.289-.853 3.369 3.369 0 01-.757-1.284 5.084 5.084 0 01-.247-1.598zm5.191-.846a2.322 2.322 0 00-.1-.548 1.386 1.386 0 00-.25-.475 1.349 1.349 0 00-.431-.341 1.422 1.422 0 00-.644-.133 1.478 1.478 0 00-.637.126 1.3 1.3 0 00-.445.334 1.482 1.482 0 00-.275.482 3.117 3.117 0 00-.142.555zm3.766-5.057l2.21-.355v2.3h2.655v1.839h-2.655v2.744a2.185 2.185 0 00.245 1.112 1.048 1.048 0 00.986.415 4.3 4.3 0 00.734-.067 3.915 3.915 0 00.69-.186l.31 1.72a6.191 6.191 0 01-.89.282 5.191 5.191 0 01-1.2.119 3.963 3.963 0 01-1.5-.245 2.357 2.357 0 01-.949-.683 2.527 2.527 0 01-.5-1.059 6.218 6.218 0 01-.142-1.378zm13.908 5.843a5.689 5.689 0 01-.222 1.646 3.732 3.732 0 01-.651 1.275 2.953 2.953 0 01-1.068.83 3.442 3.442 0 01-1.468.3 3.939 3.939 0 01-.86-.089 4.151 4.151 0 01-.772-.252v2.935h-2.208V32.822c.2-.06.424-.117.681-.172s.527-.1.809-.14.567-.072.86-.1.571-.037.837-.037a4.792 4.792 0 011.72.289 3.528 3.528 0 011.275.814 3.487 3.487 0 01.793 1.284 4.908 4.908 0 01.274 1.694zm-2.254.06a2.679 2.679 0 00-.459-1.639 1.6 1.6 0 00-1.364-.615 5.824 5.824 0 00-.965.074v3.989a1.915 1.915 0 00.541.222 2.606 2.606 0 00.676.089q1.571.001 1.571-2.12zm7.073 3.99a5.553 5.553 0 01-1.564-.208 2.292 2.292 0 01-.949-.541 1.781 1.781 0 01-.475-.846 4.555 4.555 0 01-.126-1.119v-8.585l2.208-.355v8.5a2.892 2.892 0 00.046.534.926.926 0 00.17.4.893.893 0 00.364.266 1.945 1.945 0 00.637.133zm4.597-8.156a5.09 5.09 0 011.63.222 2.508 2.508 0 011.045.637 2.334 2.334 0 01.557 1.009 4.971 4.971 0 01.163 1.319v4.6c-.317.07-.757.151-1.32.245a12.8 12.8 0 01-2.045.14 6.458 6.458 0 01-1.371-.133 2.979 2.979 0 01-1.061-.438 2 2 0 01-.681-.793 2.72 2.72 0 01-.238-1.2 2.268 2.268 0 01.275-1.156 2.1 2.1 0 01.734-.757 3.323 3.323 0 011.053-.408 5.906 5.906 0 011.231-.126 7.033 7.033 0 01.764.037 3.717 3.717 0 01.541.1v-.21a1.223 1.223 0 00-.341-.905 1.654 1.654 0 00-1.186-.34 7.558 7.558 0 00-1.112.081 4.838 4.838 0 00-.949.229l-.282-1.779a8.098 8.098 0 011.112-.243c.23-.035.468-.065.72-.089s.504-.042.761-.042zm.179 6.464c.217 0 .424 0 .622-.014a4.676 4.676 0 00.475-.044v-1.676a4.348 4.348 0 00-.4-.06 4.609 4.609 0 00-.49-.03 4.4 4.4 0 00-.585.037 1.48 1.48 0 00-.482.142.817.817 0 00-.327.28.791.791 0 00-.119.445.76.76 0 00.348.72 1.935 1.935 0 00.958.2zm4.847-2.357a4.57 4.57 0 01.275-1.594 3.736 3.736 0 012.052-2.187 4.171 4.171 0 011.692-.326 5.5 5.5 0 011.142.11 5.654 5.654 0 011.007.319l-.459 1.765a5.728 5.728 0 00-.683-.208 3.552 3.552 0 00-.83-.088 1.75 1.75 0 00-1.461.608 2.5 2.5 0 00-.482 1.6 2.6 2.6 0 00.452 1.632 1.9 1.9 0 001.58.578 5.277 5.277 0 00.86-.075 3.656 3.656 0 00.846-.236l.312 1.809a5.2 5.2 0 01-.965.282 6.375 6.375 0 01-1.275.119 4.784 4.784 0 01-1.839-.32 3.458 3.458 0 01-1.268-.867 3.4 3.4 0 01-.727-1.3 5.536 5.536 0 01-.229-1.621zm7.043.059a4.778 4.778 0 01.319-1.816 3.9 3.9 0 01.837-1.3 3.492 3.492 0 011.194-.786 3.762 3.762 0 011.387-.266 3.441 3.441 0 012.623 1.016 4.181 4.181 0 01.965 2.988c0 .128-.005.27-.016.422s-.019.289-.03.408h-5.012a1.469 1.469 0 00.639 1.082 2.551 2.551 0 001.511.4 6.289 6.289 0 001.194-.112 4.479 4.479 0 00.956-.273l.3 1.793a2.99 2.99 0 01-.475.179 6.425 6.425 0 01-.658.156c-.243.044-.5.081-.779.11a7.755 7.755 0 01-.83.046 4.94 4.94 0 01-1.832-.312 3.568 3.568 0 01-1.289-.853 3.369 3.369 0 01-.757-1.284 5.084 5.084 0 01-.247-1.598zm5.191-.846a2.326 2.326 0 00-.1-.548 1.386 1.386 0 00-.25-.475 1.349 1.349 0 00-.431-.341 1.422 1.422 0 00-.644-.133 1.478 1.478 0 00-.637.126 1.3 1.3 0 00-.445.334 1.483 1.483 0 00-.275.482 3.113 3.113 0 00-.142.555z"/><path d="M225.747 10.484c-.067-.206-.137-.417-.212-.633s-.152-.433-.228-.647h-2.31l-.224.649c-.075.217-.145.427-.21.631h-1.382q.334-.956.632-1.767t.587-1.527q.286-.717.566-1.362t.578-1.259h1.263q.292.615.574 1.259c.187.43.378.883.569 1.362s.387.987.588 1.527.412 1.13.634 1.767zm-1.6-4.575a41.523 41.523 0 01-.33.863c-.077.193-.154.407-.245.64s-.182.477-.275.733h1.692l-.263-.735q-.126-.35-.242-.642c-.077-.194-.144-.364-.2-.512s-.1-.263-.137-.347zm8.164 3.431v1.144h-3.951V4.569h1.331V9.34zm3.056-4.839a3.706 3.706 0 012.031.465 1.69 1.69 0 01.707 1.524 1.709 1.709 0 01-.716 1.541 3.717 3.717 0 01-2.049.474h-.419v1.98h-1.331v-5.83a7.541 7.541 0 01.921-.12c.325-.023.61-.034.856-.034zm.084 1.136c-.1 0-.191 0-.285.008s-.175.011-.243.018V7.37h.419a2.275 2.275 0 001.042-.187.722.722 0 00.348-.7.84.84 0 00-.089-.41.683.683 0 00-.256-.261 1.183 1.183 0 00-.4-.137 3.39 3.39 0 00-.536-.038zm7.629-1.068h1.331v5.915h-1.331v-2.51h-2.236v2.51h-1.331V4.569h1.331v2.262h2.236zm7.096 5.915c-.067-.206-.137-.417-.212-.633s-.152-.433-.228-.647h-2.31l-.224.649c-.075.217-.145.427-.21.631h-1.382q.334-.956.632-1.767c.2-.54.4-1.05.587-1.527s.38-.932.566-1.362.378-.849.578-1.259h1.263q.292.615.574 1.259c.187.43.378.883.569 1.362s.387.987.588 1.527.412 1.13.634 1.767zm-1.6-4.575a41.523 41.523 0 01-.33.863c-.077.193-.154.407-.245.64s-.182.477-.275.733h1.692l-.263-.735q-.126-.35-.242-.642c-.077-.194-.144-.364-.2-.512s-.101-.263-.137-.347z" fill="#fff"/><path class="a" d="M28.32 13.067a2.638 2.638 0 104.549-2.673l-5.335-9.091a2.638 2.638 0 00-3.611-.939 2.638 2.638 0 00-.939 3.611z"/><path class="e" d="M15.904 11.397l6.394 10.889a2.616 2.616 0 003.58.931 2.616 2.616 0 00.926-3.58L20.413 8.748a2.616 2.616 0 10-4.509 2.649z"/><path class="c" d="M87.01.609c-.2-.35-.633-.62-1.488-.6H49.98l-3.351.029a3.276 3.276 0 00-3.107 1.583l-1.243 2.175L26.842 30.44l-.339.594-1.24 2.143a.569.569 0 01-1.072-.009L5.697 1.527A3.053 3.053 0 10.409 4.58l6.7 11.22 13.228 23.049a3.3 3.3 0 002.843 1.511h40.331a2.418 2.418 0 002.043-1.278l1.816-3.171L84.956 5.632l1.343-2.344.6-1.05a3.4 3.4 0 00.18-.391 1.8 1.8 0 00.055-.219A1.532 1.532 0 0087.01.609zM60.544 33.527l-27.615-.059 15.5-26.567H76.07z"/><path class="e" d="M15.104 4.872a2.616 2.616 0 10-3.58-.931 2.616 2.616 0 003.58.931z"/></svg>