<svg version="1.0" id="Warstwa_1" xmlns="http://www.w3.org/2000/svg" x="0" y="0" viewBox="0 0 85.039 85.039" xml:space="preserve"><style>.st0{opacity:.38;fill:#494949}.st11{fill:#fff}.st13{fill:#5ab769}</style><path class="st0" d="M73.721 47.345v-3.188c0 .004-.003.01-.004.014V28.503c-.003.016-.016.042-.02.06h-.042c.025-.132.062-.263.062-.398 0-3.617-9.06-6.55-20.234-6.55-11.175 0-20.234 2.933-20.234 6.55 0 .135.037.266.062.398-.022-.115-.06-.228-.062-.345v4.012h-.009c0 .017.008.035.009.052V44.01v-.19c.003.117.04.23.062.346v.03c-.02-.108-.056-.214-.058-.323v4.012h-.008c0 .017.007.034.008.052v11.728-.19c.09 3.593 9.106 6.496 20.226 6.496 10.21 0 18.631-2.45 20.013-5.632.1-.185.16-.341.198-.474.006-.067.031-.133.031-.2v-12.32c0 .01-.002.018-.004.027.002-.01.004-.018.004-.027z"/><path d="M43.837 9.715l-.009.004a2.451 2.451 0 01-1.222 2.044l-25.492 14.9c-.209.087-.587.534-.008.864l1.727.999.478.273L40.78 41.237l1.752 1s1.322.642 1.276 2.502l.023 2.703.007-37.727z" fill="#124f1a"/><ellipse cx="53.029" cy="27.823" rx="20.234" ry="6.549" fill="#89e899"/><path class="st11" d="M53.021 34.372c-11.12 0-20.137-2.903-20.226-6.496v3.473c0 3.617 9.06 6.549 20.234 6.549 11.175 0 20.234-2.932 20.234-6.55V28.16a2.04 2.04 0 01-.23.58c-1.38 3.182-9.801 5.632-20.012 5.632z"/><path d="M53.03 37.898c-11.176 0-20.235-2.932-20.235-6.55V30.05v13.62-.19c.09 3.592 9.107 6.496 20.226 6.496 10.21 0 18.631-2.45 20.013-5.632.1-.185.161-.342.198-.475.006-.067.031-.132.031-.2v-12.32c0 3.618-9.06 6.55-20.234 6.55z" fill="#66dd7a"/><path class="st13" d="M53.03 37.898c-10.613 0-19.301-2.646-20.15-6.01h-.093c0 3.617 9.059 6.55 20.234 6.55 11.175 0 20.234-2.933 20.234-6.55v-.486c-.09 3.592-9.106 6.496-20.226 6.496z"/><path class="st11" d="M53.025 50.027c-11.12 0-20.136-2.904-20.226-6.496v3.472c0 3.617 9.06 6.55 20.234 6.55 11.175 0 20.234-2.933 20.234-6.55v-3.188a2.04 2.04 0 01-.229.58c-1.381 3.182-9.802 5.632-20.013 5.632z"/><path class="st13" d="M53.033 53.553c-11.175 0-20.234-2.933-20.234-6.55v-1.3 13.62-.19c.09 3.593 9.107 6.497 20.226 6.497 10.21 0 18.632-2.45 20.013-5.632.1-.185.161-.342.198-.475.007-.067.031-.133.031-.2v-12.32c0 3.617-9.059 6.55-20.234 6.55z"/><path d="M53.033 53.553c-10.612 0-19.3-2.646-20.15-6.01h-.092c0 3.617 9.06 6.549 20.234 6.549 11.175 0 20.234-2.932 20.234-6.55v-.486c-.09 3.593-9.106 6.497-20.226 6.497z" fill="#489e5a"/><path class="st0" d="M44.245 45.307c.047-1.86-1.275-2.503-1.275-2.503l-1.753-1a143894.593 143894.593 0 00-21.946-12.71l-1.726-1a.652.652 0 01-.244-.223l-5.12-2.93a2.643 2.643 0 00-.424 1.475v32.495c.01.308.122 1.126 1.03 1.646l2.554 1.463 24.396 14.17 1.888 1.082.847.485s.21.112.315.145c.053.017.114.033.177.044.237.042.557.052.82-.1.283-.163.5-.51.484-1.2V48.01l-.023-2.702z"/><path d="M42.531 42.236l-1.752-1L19.312 28.8l-.48-.273-1.725-.999c-.58-.33-.201-.777.007-.864l25.492-14.9a2.46 2.46 0 10-2.46-4.26l-9.04 5.4-18.57 10.655a2.656 2.656 0 00-1.218 2.29v32.495c.01.309.122 1.126 1.03 1.647l2.555 1.463L39.298 75.62l1.889 1.082.846.485s.21.112.316.145c.053.017.114.033.176.045.238.042.558.051.821-.101.282-.163.5-.51.484-1.199V47.442l-.023-2.703c.047-1.86-1.276-2.503-1.276-2.503z" fill="#467f41"/></svg>