<svg
  xmlns="http://www.w3.org/2000/svg"
  xmlns:xlink="http://www.w3.org/1999/xlink"
  width="42.393"
  height="42.681"
  viewBox="0 0 42.393 42.681"
><defs><style>.a{fill:#facd0a;}.b{fill:url(#a);}</style><linearGradient
      id="a"
      y1="0.5"
      x2="1"
      y2="0.5"
      gradientUnits="objectBoundingBox"
    ><stop offset="0" stop-color="#63b3d4" /><stop
        offset="0.528"
        stop-color="#4292bd"
      /><stop offset="1" stop-color="#3c5ba7" /></linearGradient></defs><g
    transform="translate(-8.837 -118.509)"
  ><path
      class="a"
      d="M266.112,120.348l.022-1.839,1.093,1.523,1.838-.521-1.087,1.5,1.145,1.644-1.874-.623-1.2,1.578.043-1.947-1.842-.632Z"
      transform="translate(-236.603)"
    /><path
      class="a"
      d="M390.6,154.955l.022-1.839,1.093,1.523,1.838-.521-1.087,1.5,1.145,1.644-1.874-.623-1.2,1.578.043-1.947-1.842-.632Z"
      transform="translate(-351.927 -32.059)"
    /><path
      class="a"
      d="M486.072,249.31l.022-1.839,1.093,1.523,1.838-.521-1.087,1.5,1.145,1.644-1.874-.623-1.2,1.578.043-1.947-1.842-.632Z"
      transform="translate(-440.363 -119.464)"
    /><path
      class="a"
      d="M520.148,373.251l.022-1.839,1.093,1.523,1.838-.521-1.087,1.5,1.145,1.644-1.874-.623-1.2,1.578.043-1.947-1.842-.632Z"
      transform="translate(-471.929 -234.277)"
    /><path
      class="a"
      d="M486.072,502.681l.022-1.839,1.093,1.523,1.838-.521-1.087,1.5,1.145,1.644-1.874-.623-1.2,1.578.043-1.947-1.842-.632Z"
      transform="translate(-440.363 -354.174)"
    /><path
      class="a"
      d="M389.6,597.035l.022-1.839,1.093,1.523,1.838-.521-1.087,1.5,1.145,1.644-1.874-.623-1.2,1.578.043-1.947-1.842-.632Z"
      transform="translate(-351.001 -441.579)"
    /><path
      class="a"
      d="M266.112,630.642l.022-1.839,1.093,1.523,1.838-.521-1.087,1.5,1.145,1.644-1.874-.623-1.2,1.578.043-1.947-1.842-.632Z"
      transform="translate(-236.603 -472.712)"
    /><path
      class="a"
      d="M136.808,597.035l.022-1.839,1.093,1.523,1.838-.521-1.087,1.5,1.145,1.644-1.874-.623-1.2,1.578.043-1.947-1.842-.632Z"
      transform="translate(-116.823 -441.579)"
    /><path
      class="a"
      d="M43.774,502.681l.022-1.839,1.093,1.523,1.838-.521-1.087,1.5,1.145,1.644-1.874-.623-1.2,1.578.043-1.947-1.842-.632Z"
      transform="translate(-30.64 -354.174)"
    /><path
      class="a"
      d="M10.7,374.5l.022-1.839,1.093,1.523,1.838-.521-1.087,1.5,1.145,1.644-1.874-.623-1.2,1.578.043-1.947-1.842-.632Z"
      transform="translate(0 -235.429)"
    /><path
      class="a"
      d="M43.774,246.31l.022-1.839,1.093,1.523,1.838-.521-1.087,1.5,1.145,1.644-1.874-.623-1.2,1.578.043-1.947-1.842-.632Z"
      transform="translate(-30.64 -116.685)"
    /><path
      class="a"
      d="M136.808,154.955l.022-1.839,1.093,1.523,1.838-.521-1.087,1.5,1.145,1.644-1.874-.623-1.2,1.578.043-1.947-1.842-.632Z"
      transform="translate(-116.823 -32.059)"
    /><path
      class="b"
      d="M145.2,326.673a.52.52,0,1,1-.52.52A.52.52,0,0,1,145.2,326.673Zm-2.808,2.461H140.2a.52.52,0,0,0-.52.52h0a.52.52,0,0,0,.52.52h2.188a.52.52,0,0,0,.52-.52h0A.52.52,0,0,0,142.392,329.134Zm5.831-4.4a.52.52,0,0,0-.52-.521H137.95a.52.52,0,0,0,0,1.041H147.7A.52.52,0,0,0,148.222,324.732Zm-4.993,1.941h-4.2a.52.52,0,0,0,0,1.041h4.2a.52.52,0,0,0,0-1.041Zm12.891-5.877a4.7,4.7,0,0,0-1.064.123,6.893,6.893,0,0,0-13.207,1.873h8.119a.71.71,0,1,1,0,1.42h-.578a.52.52,0,0,0,0,1.041h4.165a.71.71,0,0,1,.71.71h0a.71.71,0,0,1-.71.71H147a.52.52,0,1,0,0,1.041h4.6a.71.71,0,1,1,0,1.421h-7.331a.52.52,0,0,0-.52.52h0a.52.52,0,0,0,.52.52H150.7l.007,0h5.324l.094,0,.094,0h.049a4.689,4.689,0,0,0-.143-9.376Z"
      transform="translate(-119.122 -183.581)"
    /></g></svg>
