<svg xmlns="http://www.w3.org/2000/svg" viewBox="0 0 56 67.923"><defs><style>.b{fill:#0085ca}.c{fill:#02558c}</style></defs><path d="M12.494 34.432h5.863a2.106 2.106 0 100-4.211h-5.863a2.106 2.106 0 100 4.211z" fill="#ff9e1a"/><path class="b" d="M14.599 24.796a2.105 2.105 0 10-2.105 2.105 2.105 2.105 0 002.105-2.105zM38.715 24.796a2.112 2.112 0 00-2.105-2.105H20.673a2.106 2.106 0 100 4.211h15.936a2.112 2.112 0 002.106-2.106z"/><path class="c" d="M48.685 14.511l.011-.011-.058-.057a1.664 1.664 0 00-.084-.084L34.685.479l-.007.007A1.656 1.656 0 0033.508 0H1.658A1.663 1.663 0 000 1.658v59.158a.042.042 0 010 .011 1.684 1.684 0 001.679 1.68H21.733a2.254 2.254 0 002.24-2.253 2.192 2.192 0 00-.329-1.1 2.226 2.226 0 00-1.926-1.152H4.511V4.511l26.685.006v11.827a1.307 1.307 0 001.3 1.3h12.095v13.611a2.256 2.256 0 104.511 0V15.577a1.653 1.653 0 00-.417-1.066zm-13.21-.732V8.115l5.793 5.664z"/><path class="c" d="M55.08 62.545l-7.816-7.816a2.986 2.986 0 00-.534-.354 13.819 13.819 0 10-4.351 4.164 3.01 3.01 0 00.427.646l7.816 7.816a3.152 3.152 0 004.458-4.458zm-29.2-15.558a9.511 9.511 0 119.511 9.511 9.511 9.511 0 01-9.507-9.511z"/></svg>