<svg version="1.0" id="Warstwa_1" xmlns="http://www.w3.org/2000/svg" x="0" y="0" viewBox="0 0 85.039 85.039" xml:space="preserve"><style>.st1{opacity:.38;fill:#494949}.st4{fill:#bc482e}.st14{fill:#fff}.st20{fill:#ee9034}</style><path class="st4" d="M42.673 11.086l-25.492 14.9c-.209.087-.587.533-.008.864l1.726.999.479.273 21.467 12.437 1.753 1s.99.486 1.225 1.826l.028-33.987a2.443 2.443 0 01-1.178 1.688z"/><path class="st1" d="M63.593 22.366H36.4c-.955 0-1.73.823-1.73 1.837v44.355c0 1.015.775 1.837 1.73 1.837h35.102c.956 0 1.73-.822 1.73-1.837V32.605l-9.64-10.239z"/><path d="M63.19 21.82H36c-.956 0-1.73.822-1.73 1.837V68.01c0 1.015.774 1.837 1.73 1.837H71.1c.955 0 1.73-.822 1.73-1.837V32.058l-9.64-10.239z" fill="#f7d14c"/><path class="st20" d="M42.981 40.611h21.943v3.922H42.981zM42.981 49.125h21.943v4.1H42.981z"/><path class="st14" d="M42.578 40.204h21.943v3.922H42.578zM42.578 48.717h21.943v4.1H42.578z"/><path class="st20" d="M63.226 21.82v7.967c0 1.233.941 2.233 2.102 2.233h7.502l-9.604-10.2z"/><path class="st4" d="M36.804 28.575h-4.265a.501.501 0 01-.5-.5v-1.449c0-.275.225-.5.5-.5h4.265c.275 0 .5.225.5.5v1.45c0 .274-.225.5-.5.5zM36.804 35.37h-4.265a.501.501 0 01-.5-.5v-1.449c0-.275.225-.5.5-.5h4.265c.275 0 .5.225.5.5v1.45c0 .275-.225.5-.5.5z"/><path class="st1" d="M44.177 44.977c.047-1.86-1.275-2.503-1.275-2.503l-1.753-1a143894.593 143894.593 0 00-21.946-12.71l-1.726-.999a.652.652 0 01-.244-.223l-5.121-2.93a2.643 2.643 0 00-.423 1.475V58.58c.01.309.121 1.127 1.03 1.647l2.554 1.463 24.395 14.168 1.515.868s1.143.533 1.206.544c.237.042.95.22 1.215.067.282-.163.613-.62.596-1.31V47.68l-.023-2.703z"/><path d="M42.598 41.559l-1.753-1-21.467-12.437-.479-.273-1.726-1c-.58-.33-.201-.776.007-.863l25.493-14.9a2.46 2.46 0 10-2.46-4.261l-9.04 5.401-18.57 10.655a2.656 2.656 0 00-1.218 2.29V57.666c.01.308.122 1.126 1.03 1.646l2.554 1.463 24.396 14.17 1.888 1.081.847.485s.21.112.315.145c.053.017.114.033.177.044.237.042.557.052.82-.1.283-.163.5-.51.484-1.2V46.765l-.023-2.702c.047-1.86-1.275-2.503-1.275-2.503z" fill="#ef8303"/><path class="st20" d="M36.401 28.298h-4.265a.501.501 0 01-.5-.5V26.35c0-.275.225-.5.5-.5h4.265c.275 0 .5.225.5.5v1.45c0 .274-.225.5-.5.5zM36.401 35.093h-4.265a.501.501 0 01-.5-.5v-1.449c0-.275.225-.5.5-.5h4.265c.275 0 .5.225.5.5v1.45c0 .274-.225.5-.5.5z"/></svg>