<svg version="1.0" id="Warstwa_1" xmlns="http://www.w3.org/2000/svg" x="0" y="0" viewBox="0 0 85.039 85.039" xml:space="preserve"><style>.st1{opacity:.38;fill:#494949}.st2{fill:#cf63ea}.st3{fill:#8f27d0}</style><path fill="#4d3292" d="M41.248 9.352l-.007 37.727L8.729 25.485z"/><path class="st1" d="M46.802 45.662H26.065c-.82 0-1.486-.665-1.486-1.486v-19.3c0-.82.666-1.486 1.486-1.486h20.737c.821 0 1.486.665 1.486 1.486v19.3c0 .82-.665 1.486-1.486 1.486z"/><path class="st2" d="M46.536 45.382H25.8c-.82 0-1.486-.665-1.486-1.486v-19.3c0-.82.666-1.486 1.486-1.486h20.737c.821 0 1.486.665 1.486 1.486v19.3c0 .82-.665 1.486-1.486 1.486z"/><path class="st3" d="M48.022 29.001v-5.249a.642.642 0 00-.642-.642H24.956a.642.642 0 00-.643.642v5.25h23.71z"/><path class="st1" d="M59.722 57.51H34.73c-.82 0-1.486-.665-1.486-1.486V32.728c0-.82.665-1.486 1.486-1.486h24.99c.822 0 1.487.665 1.487 1.486v23.296c0 .821-.665 1.486-1.486 1.486z"/><path class="st2" d="M59.408 57.18h-24.99c-.821 0-1.487-.665-1.487-1.486V32.398c0-.821.666-1.486 1.486-1.486h24.991c.82 0 1.486.665 1.486 1.486v23.296c0 .82-.665 1.486-1.486 1.486z"/><path class="st3" d="M60.894 37.86V31.67a.757.757 0 00-.757-.757H33.689a.757.757 0 00-.758.757v6.191h27.963z"/><g><path class="st1" d="M76.266 74.454h-33.42c-.82 0-1.486-.665-1.486-1.486V41.754c0-.82.666-1.486 1.486-1.486h33.42c.82 0 1.486.666 1.486 1.486v31.214c0 .82-.666 1.486-1.486 1.486z"/><path class="st2" d="M75.858 74.024h-33.42c-.82 0-1.486-.665-1.486-1.486V41.325c0-.821.666-1.486 1.486-1.486h33.42c.82 0 1.486.665 1.486 1.486v31.213c0 .821-.666 1.486-1.486 1.486z"/><path class="st3" d="M77.344 48.881v-8.057a.986.986 0 00-.986-.985h-34.42a.986.986 0 00-.986.985v8.057h36.392zM61.021 67.128c.383-.12.754-.266 1.1-.455l1.928 1.032.858-.88.013-.012.858-.879-1.085-1.912a6.16 6.16 0 00.401-.975l2.1-.61v-2.474l-2.113-.61c-.007-.023-.01-.048-.017-.071a6.167 6.167 0 00-.373-.895l1.087-1.916-.858-.88-.013-.012-.858-.88-1.955 1.047a6.158 6.158 0 00-1.091-.455l-.614-2.12h-2.475l-.612 2.116a6.18 6.18 0 00-1.103.467l-1.945-1.041-.858.88-.012.012-.858.88 1.096 1.931c-.156.307-.291.625-.394.959l-2.12.615.002 1.228v1.246l2.126.614c.1.32.231.626.38.92l-1.09 1.923.858.879.012.013.858.88 1.926-1.032c.357.196.74.348 1.137.472l.614 2.122h2.475l.615-2.127zm-5.229-5.903a3.367 3.367 0 116.734 0 3.367 3.367 0 01-6.734 0z"/><path d="M61.014 66.787c.382-.12.753-.266 1.1-.454l1.928 1.032.858-.88.012-.012.858-.88-1.084-1.91a6.16 6.16 0 00.4-.976l2.101-.61v-1.246l-.001-1.228-2.113-.61c-.007-.023-.01-.049-.017-.072a6.167 6.167 0 00-.373-.894l1.087-1.916-.858-.88-.012-.012-.858-.88-1.955 1.047a6.158 6.158 0 00-1.092-.455l-.613-2.12h-2.475l-.613 2.116a6.18 6.18 0 00-1.102.467l-1.945-1.041-.858.879-.013.013-.858.879 1.096 1.932c-.155.307-.29.625-.394.959l-2.119.614.001 1.229v1.246l2.127.614c.1.32.23.626.38.92l-1.09 1.923.857.879.013.012.858.88 1.925-1.03c.358.195.741.347 1.137.47l.614 2.123h2.475l.616-2.128zm-5.23-5.902a3.367 3.367 0 116.735 0 3.367 3.367 0 01-6.734 0z" fill="#fff"/></g><path class="st1" d="M42.043 45.565c.046-1.86-1.276-2.503-1.276-2.503l-1.752-1a143894.593 143894.593 0 00-21.946-12.71l-1.726-1a.652.652 0 01-.245-.223l-5.12-2.93a2.643 2.643 0 00-.423 1.475V59.17c.009.309.121 1.126 1.029 1.646l2.555 1.464 24.395 14.168 1.889 1.082.846.485s.21.112.316.145c.053.017.114.033.176.044.238.043.558.052.821-.1.282-.163.5-.51.483-1.2V48.269l-.022-2.703z"/><path d="M39.942 41.873l-1.752-1-21.468-12.437-.478-.273-1.727-1c-.579-.33-.2-.776.008-.863l25.492-14.9a2.46 2.46 0 10-2.46-4.26l-9.04 5.4-18.57 10.655a2.656 2.656 0 00-1.218 2.29V57.98c.01.309.122 1.126 1.03 1.646l2.555 1.464 24.395 14.168 1.889 1.082.846.485s.21.112.316.145c.053.017.114.033.176.044.238.043.558.052.821-.1.282-.163.5-.51.483-1.2V47.08l-.022-2.703c.046-1.86-1.276-2.503-1.276-2.503z" fill="#624ec4"/></svg>