<svg xmlns="http://www.w3.org/2000/svg" viewBox="0 0 63.083 57.494"><defs><linearGradient id="a" y1="0.5" x2="1" y2="0.5" gradientUnits="objectBoundingBox"><stop offset="0" stop-color="#1b96d8"/><stop offset="1" stop-color="#035891"/></linearGradient></defs><g transform="translate(-6.058 -7.7)"><path fill="#0085ca" d="M14.209,11.775a4.075,4.075,0,1,0-4.075,4.075A4.075,4.075,0,0,0,14.209,11.775Z" transform="translate(0 0)"/><path fill="url(#a)" d="M50.071,11.775A4.087,4.087,0,0,0,46,7.7H15.149a4.075,4.075,0,1,0,0,8.15H46A4.087,4.087,0,0,0,50.071,11.775Z" transform="translate(10.815 0)"/><path fill="#02558c" d="M53.194,47.94l-9.468-9.468a3.617,3.617,0,0,0-.647-.428,16.739,16.739,0,1,0-5.271,5.047,3.647,3.647,0,0,0,.518.782l9.468,9.468a3.819,3.819,0,0,0,5.4-5.4ZM17.827,29.093A11.521,11.521,0,1,1,29.349,40.615,11.522,11.522,0,0,1,17.827,29.093Z" transform="translate(14.833 10.741)"/></g></svg>
