<svg xmlns="http://www.w3.org/2000/svg" viewBox="0 0 56 67.923"><g transform="translate(-5.715 -3.166)"><path fill="#ff9e1a" d="M11.808,18.976h5.863a2.105,2.105,0,1,0,0-4.211H11.808a2.105,2.105,0,1,0,0,4.211Z" transform="translate(6.401 18.622)"/><path fill="#0085ca" d="M13.913,13.98a2.105,2.105,0,1,0-2.105,2.105A2.105,2.105,0,0,0,13.913,13.98Z" transform="translate(6.401 13.982)"/><path fill="#0085ca" d="M32.989,13.98a2.112,2.112,0,0,0-2.105-2.105H14.947a2.105,2.105,0,1,0,0,4.211H30.883A2.112,2.112,0,0,0,32.989,13.98Z" transform="translate(11.441 13.982)"/><path fill="#02558c" d="M54.4,17.677l.011-.011-.058-.057c-.028-.03-.055-.057-.084-.084L40.4,3.645l-.007.007a1.656,1.656,0,0,0-1.17-.486H7.373A1.663,1.663,0,0,0,5.715,4.824c0,.008,0,.014,0,.022s0,.015,0,.023v59.1s0,.008,0,.013a.042.042,0,0,1,0,.011,1.684,1.684,0,0,0,1.679,1.68H27.433l.015,0a2.254,2.254,0,0,0,2.24-2.253,2.192,2.192,0,0,0-.329-1.1h0a2.226,2.226,0,0,0-1.926-1.152H10.226V7.677l26.685.006V19.51a1.307,1.307,0,0,0,1.3,1.3H50.306V34.421a2.255,2.255,0,1,0,4.511,0V18.743A1.653,1.653,0,0,0,54.4,17.677ZM41.19,16.945V11.281l5.793,5.664Z" transform="translate(0)"/><path fill="#02558c" d="M47.333,45.106l-7.816-7.816a2.986,2.986,0,0,0-.534-.354A13.819,13.819,0,1,0,34.632,41.1a3.01,3.01,0,0,0,.427.646l7.816,7.816a3.152,3.152,0,0,0,4.458-4.458Zm-29.2-15.558a9.511,9.511,0,1,1,9.511,9.511A9.511,9.511,0,0,1,18.137,29.548Z" transform="translate(13.462 20.605)"/></g></svg>
